M48
; DRILL file {KiCad (5.1.10)-1} date 02/12/22 22:46:29
; FORMAT={-:-/ absolute / inch / decimal}
; #@! TF.CreationDate,2022-02-12T22:46:29+10:30
; #@! TF.GenerationSoftware,Kicad,Pcbnew,(5.1.10)-1
; #@! TF.FileFunction,Plated,1,2,PTH
FMAT,2
INCH
T1C0.0157
T2C0.0276
T3C0.0579
%
G90
G05
T1
X2.3375Y7.43
X2.435Y7.0475
X2.4771Y7.0129
X2.54Y7.825
X2.5525Y7.7
X2.6775Y6.64
X2.7625Y7.66
X2.795Y7.7425
X2.795Y7.7
X2.7969Y7.5275
X2.83Y6.7375
X2.835Y3.845
X2.8575Y7.65
X2.87Y3.8775
X2.875Y6.7375
X2.905Y3.845
X2.9075Y7.8225
X2.9175Y6.7375
X2.94Y3.8775
X2.9625Y7.755
X2.9625Y6.7375
X2.975Y3.845
X3.0075Y6.7375
X3.01Y3.8775
X3.045Y3.845
X3.0775Y3.8775
X3.115Y3.845
X3.1475Y3.8775
X3.3925Y7.5025
T3
X-9.9Y8.1625
X-9.9Y7.225
X-9.8484Y8.22
X-9.8484Y7.2825
X-9.8063Y4.225
X-9.7547Y4.2825
X-9.7125Y6.475
X-9.6609Y6.5325
X-9.6516Y8.2397
X-9.6516Y7.3022
X-9.65Y8.2625
X-9.65Y7.325
X-9.6188Y5.725
X-9.5672Y5.7825
X-9.5578Y4.3022
X-9.5563Y4.325
X-9.4641Y6.5522
X-9.4625Y6.575
X-9.4313Y4.975
X-9.3797Y5.0325
X-9.3703Y5.8022
X-9.3688Y5.825
X-9.1828Y5.0522
X-9.1813Y5.075
X-9.15Y7.225
X-9.0984Y7.2825
X-8.9016Y7.3022
X-8.9Y7.325
X-8.8688Y4.225
X-8.8172Y4.2825
X-8.775Y6.475
X-8.7234Y6.5325
X-8.6203Y4.3022
X-8.6188Y4.325
X-8.5875Y5.725
X-8.5359Y5.7825
X-8.5266Y6.5522
X-8.525Y6.575
X-8.4Y8.1625
X-8.4Y7.225
X-8.3484Y8.22
X-8.3484Y7.2825
X-8.3391Y5.8022
X-8.3375Y5.825
X-8.2125Y4.975
X-8.1609Y5.0325
X-8.1516Y8.2397
X-8.1516Y7.3022
X-8.15Y8.2625
X-8.15Y7.325
X-8.025Y6.475
X-7.9734Y6.5325
X-7.9641Y5.0522
X-7.9625Y5.075
X-7.9312Y4.225
X-7.8797Y4.2825
X-7.8375Y5.725
X-7.7859Y5.7825
X-7.7766Y6.5522
X-7.775Y6.575
X-7.6828Y4.3022
X-7.6812Y4.325
X-7.65Y8.1625
X-7.65Y7.225
X-7.5984Y8.22
X-7.5984Y7.2825
X-7.5891Y5.8022
X-7.5875Y5.825
X-7.4625Y4.975
X-7.4109Y5.0325
X-7.4016Y8.2397
X-7.4016Y7.3022
X-7.4Y8.2625
X-7.4Y7.325
X-7.275Y6.475
X-7.2234Y6.5325
X-7.2141Y5.0522
X-7.2125Y5.075
X-7.0875Y5.725
X-7.0359Y5.7825
X-7.0266Y6.5522
X-7.025Y6.575
X-6.9Y8.1625
X-6.9Y7.225
X-6.8484Y8.22
X-6.8484Y7.2825
X-6.8391Y5.8022
X-6.8375Y5.825
X-6.7125Y4.975
X-6.6609Y5.0325
X-6.6516Y8.2397
X-6.6516Y7.3022
X-6.65Y8.2625
X-6.65Y7.325
X-6.525Y6.475
X-6.4734Y6.5325
X-6.4641Y5.0522
X-6.4625Y5.075
X-6.3375Y5.725
X-6.2859Y5.7825
X-6.2766Y6.5522
X-6.275Y6.575
X-6.15Y8.1625
X-6.15Y7.225
X-6.0984Y8.22
X-6.0984Y7.2825
X-6.0891Y5.8022
X-6.0875Y5.825
X-5.9625Y4.975
X-5.9109Y5.0325
X-5.9016Y8.2397
X-5.9016Y7.3022
X-5.9Y8.2625
X-5.9Y7.325
X-5.775Y6.475
X-5.7234Y6.5325
X-5.7141Y5.0522
X-5.7125Y5.075
X-5.591Y5.725
X-5.5394Y5.7825
X-5.5266Y6.5522
X-5.525Y6.575
X-5.4Y7.225
X-5.3484Y7.2825
X-5.3426Y5.8022
X-5.341Y5.825
X-5.2125Y4.975
X-5.1609Y5.0325
X-5.1516Y7.3022
X-5.15Y7.325
X-5.1187Y4.225
X-5.0672Y4.2825
X-5.025Y8.1625
X-5.025Y6.475
X-4.9734Y8.22
X-4.9734Y6.5325
X-4.9641Y5.0522
X-4.9625Y5.075
X-4.8703Y4.3022
X-4.8687Y4.325
X-4.8375Y5.725
X-4.7859Y5.7825
X-4.7766Y8.2397
X-4.7766Y6.5522
X-4.775Y8.2625
X-4.775Y6.575
X-4.65Y7.225
X-4.5984Y7.2825
X-4.5891Y5.8022
X-4.5875Y5.825
X-4.4625Y4.975
X-4.4109Y5.0325
X-4.4016Y7.3022
X-4.4Y7.325
X-4.275Y8.1625
X-4.275Y6.475
X-4.2234Y8.22
X-4.2234Y6.5325
X-4.2141Y5.0522
X-4.2125Y5.075
X-4.0875Y5.725
X-4.0359Y5.7825
X-4.0266Y8.2397
X-4.0266Y6.5522
X-4.025Y8.2625
X-4.025Y6.575
X-3.9Y7.225
X-3.8484Y7.2825
X-3.8391Y5.8022
X-3.8375Y5.825
X-3.7125Y4.975
X-3.6609Y5.0325
X-3.6516Y7.3022
X-3.65Y7.325
X-3.525Y8.1625
X-3.525Y6.475
X-3.4734Y8.22
X-3.4734Y6.5325
X-3.4641Y5.0522
X-3.4625Y5.075
X-3.3375Y5.725
X-3.2859Y5.7825
X-3.2766Y8.2397
X-3.2766Y6.5522
X-3.275Y8.2625
X-3.275Y6.575
X-3.15Y7.225
X-3.0984Y7.2825
X-3.0891Y5.8022
X-3.0875Y5.825
X-2.9625Y4.975
X-2.9109Y5.0325
X-2.9016Y7.3022
X-2.9Y7.325
X-2.775Y8.1625
X-2.775Y6.475
X-2.7234Y8.22
X-2.7234Y6.5325
X-2.7141Y5.0522
X-2.7125Y5.075
X-2.5875Y5.725
X-2.5359Y5.7825
X-2.5266Y8.2397
X-2.5266Y6.5522
X-2.525Y8.2625
X-2.525Y6.575
X-2.4Y7.225
X-2.3484Y7.2825
X-2.3391Y5.8022
X-2.3375Y5.825
X-2.3062Y4.225
X-2.2547Y4.2825
X-2.2125Y4.975
X-2.1609Y5.0325
X-2.1516Y7.3022
X-2.15Y7.325
X-2.0578Y4.3022
X-2.0562Y4.325
X-2.025Y6.475
X-1.9734Y6.5325
X-1.9641Y5.0522
X-1.9625Y5.075
X-1.8375Y5.725
X-1.7859Y5.7825
X-1.7766Y6.5522
X-1.775Y6.575
X-1.65Y8.1625
X-1.65Y7.225
X-1.5984Y8.22
X-1.5984Y7.2825
X-1.5891Y5.8022
X-1.5875Y5.825
X-1.4625Y4.975
X-1.4109Y5.0325
X-1.4016Y8.2397
X-1.4016Y7.3022
X-1.4Y8.2625
X-1.4Y7.325
X-1.3687Y4.225
X-1.3172Y4.2825
X-1.275Y6.475
X-1.2234Y6.5325
X-1.2141Y5.0522
X-1.2125Y5.075
X-1.1203Y4.3022
X-1.1187Y4.325
X-1.0875Y5.725
X-1.0359Y5.7825
X-1.0266Y6.5522
X-1.025Y6.575
X-0.9Y8.1625
X-0.9Y7.225
X-0.8484Y8.22
X-0.8484Y7.2825
X-0.8391Y5.8022
X-0.8375Y5.825
X-0.6516Y8.2397
X-0.6516Y7.3022
X-0.65Y8.2625
X-0.65Y7.325
X-0.525Y6.475
X-0.4734Y6.5325
X-0.3375Y4.225
X-0.2859Y4.2825
X-0.2766Y6.5522
X-0.275Y6.575
X-0.15Y8.1625
X-0.0984Y8.22
X-0.0891Y4.3022
X-0.0875Y4.325
X-0.0563Y4.975
X-0.0047Y5.0325
X0.0984Y8.2397
X0.1Y8.2625
X0.1313Y5.725
X0.1828Y5.7825
X0.1922Y5.0522
X0.1938Y5.075
X0.225Y7.225
X0.2766Y7.2825
X0.3797Y5.8022
X0.3812Y5.825
X0.4125Y6.475
X0.4641Y6.5325
X0.4734Y7.3022
X0.475Y7.325
X0.6Y8.1625
X0.6516Y8.22
X0.6609Y6.5522
X0.6625Y6.575
X0.7875Y4.0375
X0.8391Y4.095
X0.8484Y8.2397
X0.85Y8.2625
X1.0359Y4.1147
X1.0375Y4.1375
X1.5375Y8.1625
X1.5375Y7.225
X1.5375Y6.475
X1.5375Y5.725
X1.5375Y4.7875
X1.5375Y4.0375
X1.5891Y8.22
X1.5891Y7.2825
X1.5891Y6.5325
X1.5891Y5.7825
X1.5891Y4.845
X1.5891Y4.095
X1.7859Y8.2397
X1.7859Y7.3022
X1.7859Y6.5522
X1.7859Y5.8022
X1.7859Y4.8647
X1.7859Y4.1147
X1.7875Y8.2625
X1.7875Y7.325
X1.7875Y6.575
X1.7875Y5.825
X1.7875Y4.8875
X1.7875Y4.1375
X2.2875Y4.0375
X2.3391Y4.095
X2.5359Y4.1147
X2.5375Y4.1375
T2
G00X2.575Y8.3883
M15
G01X2.575Y8.341
M16
G05
G00X2.575Y8.2111
M15
G01X2.575Y8.1639
M16
G05
G00X2.8625Y8.3883
M15
G01X2.8625Y8.341
M16
G05
G00X2.8625Y8.2111
M15
G01X2.8625Y8.1639
M16
G05
T0
M30
