G04 #@! TF.GenerationSoftware,KiCad,Pcbnew,(5.1.10)-1*
G04 #@! TF.CreationDate,2022-02-11T22:44:53+10:30*
G04 #@! TF.ProjectId,Dingo-75,44696e67-6f2d-4373-952e-6b696361645f,rev?*
G04 #@! TF.SameCoordinates,Original*
G04 #@! TF.FileFunction,Legend,Bot*
G04 #@! TF.FilePolarity,Positive*
%FSLAX46Y46*%
G04 Gerber Fmt 4.6, Leading zero omitted, Abs format (unit mm)*
G04 Created by KiCad (PCBNEW (5.1.10)-1) date 2022-02-11 22:44:53*
%MOMM*%
%LPD*%
G01*
G04 APERTURE LIST*
%ADD10C,0.120000*%
%ADD11C,0.150000*%
%ADD12C,3.987800*%
%ADD13C,3.048000*%
%ADD14C,1.750000*%
%ADD15C,2.250000*%
%ADD16R,1.200000X1.400000*%
%ADD17O,1.700000X2.700000*%
%ADD18R,0.500000X2.250000*%
%ADD19R,1.500000X0.550000*%
%ADD20R,0.550000X1.500000*%
%ADD21R,1.800000X1.100000*%
%ADD22R,1.200000X0.900000*%
G04 APERTURE END LIST*
D10*
X85794750Y182074750D02*
X85794750Y178074750D01*
X82494750Y182074750D02*
X85794750Y182074750D01*
D11*
X65206250Y212462500D02*
X65206250Y207012500D01*
X72906250Y212462500D02*
X72906250Y207012500D01*
X65206250Y207012500D02*
X72906250Y207012500D01*
X65631250Y188943750D02*
X65631250Y190218750D01*
X65056250Y174593750D02*
X65056250Y175268750D01*
X79406250Y174593750D02*
X79406250Y175268750D01*
X79406250Y188943750D02*
X79406250Y188268750D01*
X65056250Y188943750D02*
X65056250Y188268750D01*
X79406250Y188943750D02*
X78731250Y188943750D01*
X79406250Y174593750D02*
X78731250Y174593750D01*
X65056250Y174593750D02*
X65731250Y174593750D01*
X65056250Y188943750D02*
X65631250Y188943750D01*
X77643750Y207212500D02*
X82843750Y207212500D01*
X82843750Y207212500D02*
X82843750Y212412500D01*
X82843750Y212412500D02*
X77643750Y212412500D01*
X77643750Y212412500D02*
X77643750Y207212500D01*
X81243750Y209812500D02*
G75*
G03*
X81243750Y209812500I-1000000J0D01*
G01*
D10*
X83021500Y191265436D02*
X83021500Y191719564D01*
X84491500Y191265436D02*
X84491500Y191719564D01*
X66892500Y201361936D02*
X66892500Y201816064D01*
X68362500Y201361936D02*
X68362500Y201816064D01*
X68924500Y201361936D02*
X68924500Y201816064D01*
X70394500Y201361936D02*
X70394500Y201816064D01*
X70966000Y169748564D02*
X70966000Y169294436D01*
X69496000Y169748564D02*
X69496000Y169294436D01*
X65765000Y194847936D02*
X65765000Y196052064D01*
X67585000Y194847936D02*
X67585000Y196052064D01*
X70977000Y97065000D02*
X70977000Y100965000D01*
X68977000Y97065000D02*
X68977000Y100965000D01*
X70977000Y97065000D02*
X68977000Y97065000D01*
X51927000Y97065000D02*
X51927000Y100965000D01*
X49927000Y97065000D02*
X49927000Y100965000D01*
X51927000Y97065000D02*
X49927000Y97065000D01*
X51927000Y116115000D02*
X51927000Y120015000D01*
X49927000Y116115000D02*
X49927000Y120015000D01*
X51927000Y116115000D02*
X49927000Y116115000D01*
X51927000Y140245000D02*
X51927000Y144145000D01*
X49927000Y140245000D02*
X49927000Y144145000D01*
X51927000Y140245000D02*
X49927000Y140245000D01*
X51927000Y159294000D02*
X51927000Y163194000D01*
X49927000Y159294000D02*
X49927000Y163194000D01*
X51927000Y159294000D02*
X49927000Y159294000D01*
X51927000Y178345000D02*
X51927000Y182245000D01*
X49927000Y178345000D02*
X49927000Y182245000D01*
X51927000Y178345000D02*
X49927000Y178345000D01*
X51927000Y202475000D02*
X51927000Y206375000D01*
X49927000Y202475000D02*
X49927000Y206375000D01*
X51927000Y202475000D02*
X49927000Y202475000D01*
X32877000Y97065000D02*
X32877000Y100965000D01*
X30877000Y97065000D02*
X30877000Y100965000D01*
X32877000Y97065000D02*
X30877000Y97065000D01*
X28178000Y202475000D02*
X28178000Y206375000D01*
X26178000Y202475000D02*
X26178000Y206375000D01*
X28178000Y202475000D02*
X26178000Y202475000D01*
X23479000Y159295000D02*
X23479000Y163195000D01*
X21479000Y159295000D02*
X21479000Y163195000D01*
X23479000Y159295000D02*
X21479000Y159295000D01*
X18653000Y178344000D02*
X18653000Y182244000D01*
X16653000Y178344000D02*
X16653000Y182244000D01*
X18653000Y178344000D02*
X16653000Y178344000D01*
X16240000Y140245000D02*
X16240000Y144145000D01*
X14240000Y140245000D02*
X14240000Y144145000D01*
X16240000Y140245000D02*
X14240000Y140245000D01*
X9128000Y202475000D02*
X9128000Y206375000D01*
X7128000Y202475000D02*
X7128000Y206375000D01*
X9128000Y202475000D02*
X7128000Y202475000D01*
X11541000Y121195000D02*
X11541000Y125095000D01*
X9541000Y121195000D02*
X9541000Y125095000D01*
X11541000Y121195000D02*
X9541000Y121195000D01*
X4429000Y102144000D02*
X4429000Y106044000D01*
X2429000Y102144000D02*
X2429000Y106044000D01*
X4429000Y102144000D02*
X2429000Y102144000D01*
X-397000Y159295000D02*
X-397000Y163195000D01*
X-2397000Y159295000D02*
X-2397000Y163195000D01*
X-397000Y159295000D02*
X-2397000Y159295000D01*
X-9922000Y202475000D02*
X-9922000Y206375000D01*
X-11922000Y202475000D02*
X-11922000Y206375000D01*
X-9922000Y202475000D02*
X-11922000Y202475000D01*
X-9922000Y178344000D02*
X-9922000Y182244000D01*
X-11922000Y178344000D02*
X-11922000Y182244000D01*
X-9922000Y178344000D02*
X-11922000Y178344000D01*
X-14621000Y140245000D02*
X-14621000Y144145000D01*
X-16621000Y140245000D02*
X-16621000Y144145000D01*
X-14621000Y140245000D02*
X-16621000Y140245000D01*
X-24273000Y121195000D02*
X-24273000Y125095000D01*
X-26273000Y121195000D02*
X-26273000Y125095000D01*
X-24273000Y121195000D02*
X-26273000Y121195000D01*
X-19447000Y159294000D02*
X-19447000Y163194000D01*
X-21447000Y159294000D02*
X-21447000Y163194000D01*
X-19447000Y159294000D02*
X-21447000Y159294000D01*
X-21860000Y102145000D02*
X-21860000Y106045000D01*
X-23860000Y102145000D02*
X-23860000Y106045000D01*
X-21860000Y102145000D02*
X-23860000Y102145000D01*
X-28972000Y202474000D02*
X-28972000Y206374000D01*
X-30972000Y202474000D02*
X-30972000Y206374000D01*
X-28972000Y202474000D02*
X-30972000Y202474000D01*
X-28972000Y178345000D02*
X-28972000Y182245000D01*
X-30972000Y178345000D02*
X-30972000Y182245000D01*
X-28972000Y178345000D02*
X-30972000Y178345000D01*
X-33671000Y140245000D02*
X-33671000Y144145000D01*
X-35671000Y140245000D02*
X-35671000Y144145000D01*
X-33671000Y140245000D02*
X-35671000Y140245000D01*
X-43196000Y121195000D02*
X-43196000Y125095000D01*
X-45196000Y121195000D02*
X-45196000Y125095000D01*
X-43196000Y121195000D02*
X-45196000Y121195000D01*
X-38497000Y159294000D02*
X-38497000Y163194000D01*
X-40497000Y159294000D02*
X-40497000Y163194000D01*
X-38497000Y159294000D02*
X-40497000Y159294000D01*
X-48022000Y178344000D02*
X-48022000Y182244000D01*
X-50022000Y178344000D02*
X-50022000Y182244000D01*
X-48022000Y178344000D02*
X-50022000Y178344000D01*
X-52721000Y140245000D02*
X-52721000Y144145000D01*
X-54721000Y140245000D02*
X-54721000Y144145000D01*
X-52721000Y140245000D02*
X-54721000Y140245000D01*
X-45609000Y102145000D02*
X-45609000Y106045000D01*
X-47609000Y102145000D02*
X-47609000Y106045000D01*
X-45609000Y102145000D02*
X-47609000Y102145000D01*
X-57547000Y202474000D02*
X-57547000Y206374000D01*
X-59547000Y202474000D02*
X-59547000Y206374000D01*
X-57547000Y202474000D02*
X-59547000Y202474000D01*
X-62246000Y121194000D02*
X-62246000Y125094000D01*
X-64246000Y121194000D02*
X-64246000Y125094000D01*
X-62246000Y121194000D02*
X-64246000Y121194000D01*
X-57547000Y159294000D02*
X-57547000Y163194000D01*
X-59547000Y159294000D02*
X-59547000Y163194000D01*
X-57547000Y159294000D02*
X-59547000Y159294000D01*
X-67072000Y178345000D02*
X-67072000Y182245000D01*
X-69072000Y178345000D02*
X-69072000Y182245000D01*
X-67072000Y178345000D02*
X-69072000Y178345000D01*
X-71771000Y140244000D02*
X-71771000Y144144000D01*
X-73771000Y140244000D02*
X-73771000Y144144000D01*
X-71771000Y140244000D02*
X-73771000Y140244000D01*
X-76597000Y202475000D02*
X-76597000Y206375000D01*
X-78597000Y202475000D02*
X-78597000Y206375000D01*
X-76597000Y202475000D02*
X-78597000Y202475000D01*
X-81296000Y121195000D02*
X-81296000Y125095000D01*
X-83296000Y121195000D02*
X-83296000Y125095000D01*
X-81296000Y121195000D02*
X-83296000Y121195000D01*
X-76597000Y159295000D02*
X-76597000Y163195000D01*
X-78597000Y159295000D02*
X-78597000Y163195000D01*
X-76597000Y159295000D02*
X-78597000Y159295000D01*
X-86122000Y178345000D02*
X-86122000Y182245000D01*
X-88122000Y178345000D02*
X-88122000Y182245000D01*
X-86122000Y178345000D02*
X-88122000Y178345000D01*
X-90821000Y140245000D02*
X-90821000Y144145000D01*
X-92821000Y140245000D02*
X-92821000Y144145000D01*
X-90821000Y140245000D02*
X-92821000Y140245000D01*
X-95647000Y202474000D02*
X-95647000Y206374000D01*
X-97647000Y202474000D02*
X-97647000Y206374000D01*
X-95647000Y202474000D02*
X-97647000Y202474000D01*
X-100473000Y121195000D02*
X-100473000Y125095000D01*
X-102473000Y121195000D02*
X-102473000Y125095000D01*
X-100473000Y121195000D02*
X-102473000Y121195000D01*
X-95647000Y159295000D02*
X-95647000Y163195000D01*
X-97647000Y159295000D02*
X-97647000Y163195000D01*
X-95647000Y159295000D02*
X-97647000Y159295000D01*
X-105172000Y178345000D02*
X-105172000Y182245000D01*
X-107172000Y178345000D02*
X-107172000Y182245000D01*
X-105172000Y178345000D02*
X-107172000Y178345000D01*
X-109871000Y140244000D02*
X-109871000Y144144000D01*
X-111871000Y140244000D02*
X-111871000Y144144000D01*
X-109871000Y140244000D02*
X-111871000Y140244000D01*
X-114697000Y202474000D02*
X-114697000Y206374000D01*
X-116697000Y202474000D02*
X-116697000Y206374000D01*
X-114697000Y202474000D02*
X-116697000Y202474000D01*
X-119396000Y121194000D02*
X-119396000Y125094000D01*
X-121396000Y121194000D02*
X-121396000Y125094000D01*
X-119396000Y121194000D02*
X-121396000Y121194000D01*
X-114697000Y159295000D02*
X-114697000Y163195000D01*
X-116697000Y159295000D02*
X-116697000Y163195000D01*
X-114697000Y159295000D02*
X-116697000Y159295000D01*
X-117110000Y102145000D02*
X-117110000Y106045000D01*
X-119110000Y102145000D02*
X-119110000Y106045000D01*
X-117110000Y102145000D02*
X-119110000Y102145000D01*
X-124222000Y178345000D02*
X-124222000Y182245000D01*
X-126222000Y178345000D02*
X-126222000Y182245000D01*
X-124222000Y178345000D02*
X-126222000Y178345000D01*
X-129048000Y140245000D02*
X-129048000Y144145000D01*
X-131048000Y140245000D02*
X-131048000Y144145000D01*
X-129048000Y140245000D02*
X-131048000Y140245000D01*
X-138446000Y121195000D02*
X-138446000Y125095000D01*
X-140446000Y121195000D02*
X-140446000Y125095000D01*
X-138446000Y121195000D02*
X-140446000Y121195000D01*
X-133747000Y159294000D02*
X-133747000Y163194000D01*
X-135747000Y159294000D02*
X-135747000Y163194000D01*
X-133747000Y159294000D02*
X-135747000Y159294000D01*
X-143272000Y178345000D02*
X-143272000Y182245000D01*
X-145272000Y178345000D02*
X-145272000Y182245000D01*
X-143272000Y178345000D02*
X-145272000Y178345000D01*
X-143272000Y202474000D02*
X-143272000Y206374000D01*
X-145272000Y202474000D02*
X-145272000Y206374000D01*
X-143272000Y202474000D02*
X-145272000Y202474000D01*
X-147971000Y140245000D02*
X-147971000Y144145000D01*
X-149971000Y140245000D02*
X-149971000Y144145000D01*
X-147971000Y140245000D02*
X-149971000Y140245000D01*
X-157496000Y121195000D02*
X-157496000Y125095000D01*
X-159496000Y121195000D02*
X-159496000Y125095000D01*
X-157496000Y121195000D02*
X-159496000Y121195000D01*
X-152797000Y159294000D02*
X-152797000Y163194000D01*
X-154797000Y159294000D02*
X-154797000Y163194000D01*
X-152797000Y159294000D02*
X-154797000Y159294000D01*
X-162322000Y178345000D02*
X-162322000Y182245000D01*
X-164322000Y178345000D02*
X-164322000Y182245000D01*
X-162322000Y178345000D02*
X-164322000Y178345000D01*
X-162322000Y202475000D02*
X-162322000Y206375000D01*
X-164322000Y202475000D02*
X-164322000Y206375000D01*
X-162322000Y202475000D02*
X-164322000Y202475000D01*
X-167021000Y140245000D02*
X-167021000Y144145000D01*
X-169021000Y140245000D02*
X-169021000Y144145000D01*
X-167021000Y140245000D02*
X-169021000Y140245000D01*
X-176546000Y121195000D02*
X-176546000Y125095000D01*
X-178546000Y121195000D02*
X-178546000Y125095000D01*
X-176546000Y121195000D02*
X-178546000Y121195000D01*
X-171847000Y159295000D02*
X-171847000Y163195000D01*
X-173847000Y159295000D02*
X-173847000Y163195000D01*
X-171847000Y159295000D02*
X-173847000Y159295000D01*
X-181372000Y178345000D02*
X-181372000Y182245000D01*
X-183372000Y178345000D02*
X-183372000Y182245000D01*
X-181372000Y178345000D02*
X-183372000Y178345000D01*
X-181372000Y202474000D02*
X-181372000Y206374000D01*
X-183372000Y202474000D02*
X-183372000Y206374000D01*
X-181372000Y202474000D02*
X-183372000Y202474000D01*
X-186071000Y140245000D02*
X-186071000Y144145000D01*
X-188071000Y140245000D02*
X-188071000Y144145000D01*
X-186071000Y140245000D02*
X-188071000Y140245000D01*
X-188484000Y102145000D02*
X-188484000Y106045000D01*
X-190484000Y102145000D02*
X-190484000Y106045000D01*
X-188484000Y102145000D02*
X-190484000Y102145000D01*
X-195723000Y121195000D02*
X-195723000Y125095000D01*
X-197723000Y121195000D02*
X-197723000Y125095000D01*
X-195723000Y121195000D02*
X-197723000Y121195000D01*
X-190897000Y159294000D02*
X-190897000Y163194000D01*
X-192897000Y159294000D02*
X-192897000Y163194000D01*
X-190897000Y159294000D02*
X-192897000Y159294000D01*
X-200422000Y178345000D02*
X-200422000Y182245000D01*
X-202422000Y178345000D02*
X-202422000Y182245000D01*
X-200422000Y178345000D02*
X-202422000Y178345000D01*
X-200422000Y202475000D02*
X-200422000Y206375000D01*
X-202422000Y202475000D02*
X-202422000Y206375000D01*
X-200422000Y202475000D02*
X-202422000Y202475000D01*
X-205121000Y140245000D02*
X-205121000Y144145000D01*
X-207121000Y140245000D02*
X-207121000Y144145000D01*
X-205121000Y140245000D02*
X-207121000Y140245000D01*
X-212360000Y102145000D02*
X-212360000Y106045000D01*
X-214360000Y102145000D02*
X-214360000Y106045000D01*
X-212360000Y102145000D02*
X-214360000Y102145000D01*
X-209947000Y159295000D02*
X-209947000Y163195000D01*
X-211947000Y159295000D02*
X-211947000Y163195000D01*
X-209947000Y159295000D02*
X-211947000Y159295000D01*
X-219472000Y178345000D02*
X-219472000Y182245000D01*
X-221472000Y178345000D02*
X-221472000Y182245000D01*
X-219472000Y178345000D02*
X-221472000Y178345000D01*
X-226584000Y121195000D02*
X-226584000Y125095000D01*
X-228584000Y121195000D02*
X-228584000Y125095000D01*
X-226584000Y121195000D02*
X-228584000Y121195000D01*
X-231410000Y140245000D02*
X-231410000Y144145000D01*
X-233410000Y140245000D02*
X-233410000Y144145000D01*
X-231410000Y140245000D02*
X-233410000Y140245000D01*
X-236109000Y102145000D02*
X-236109000Y106045000D01*
X-238109000Y102145000D02*
X-238109000Y106045000D01*
X-236109000Y102145000D02*
X-238109000Y102145000D01*
X-233823000Y159294000D02*
X-233823000Y163194000D01*
X-235823000Y159294000D02*
X-235823000Y163194000D01*
X-233823000Y159294000D02*
X-235823000Y159294000D01*
X-238522000Y178345000D02*
X-238522000Y182245000D01*
X-240522000Y178345000D02*
X-240522000Y182245000D01*
X-238522000Y178345000D02*
X-240522000Y178345000D01*
X-238522000Y202475000D02*
X-238522000Y206375000D01*
X-240522000Y202475000D02*
X-240522000Y206375000D01*
X-238522000Y202475000D02*
X-240522000Y202475000D01*
X84433002Y182938750D02*
X83910498Y182938750D01*
X84433002Y184408750D02*
X83910498Y184408750D01*
X83905498Y177169750D02*
X84428002Y177169750D01*
X83905498Y175699750D02*
X84428002Y175699750D01*
X76810502Y200083750D02*
X76287998Y200083750D01*
X76810502Y201553750D02*
X76287998Y201553750D01*
X61949000Y188345752D02*
X61949000Y187823248D01*
X60479000Y188345752D02*
X60479000Y187823248D01*
X71381252Y192114500D02*
X70858748Y192114500D01*
X71381252Y193584500D02*
X70858748Y193584500D01*
X74353748Y204443000D02*
X74876252Y204443000D01*
X74353748Y202973000D02*
X74876252Y202973000D01*
D11*
X81670940Y180550940D02*
X82147130Y180550940D01*
X81147130Y180884273D02*
X81670940Y180550940D01*
X81147130Y180217607D01*
X82147130Y179360464D02*
X82147130Y179931892D01*
X82147130Y179646178D02*
X81147130Y179646178D01*
X81289988Y179741416D01*
X81385226Y179836654D01*
X81432845Y179931892D01*
X70794345Y210978119D02*
X70794345Y210168595D01*
X70746726Y210073357D01*
X70699107Y210025738D01*
X70603869Y209978119D01*
X70413392Y209978119D01*
X70318154Y210025738D01*
X70270535Y210073357D01*
X70222916Y210168595D01*
X70222916Y210978119D01*
X69794345Y210025738D02*
X69651488Y209978119D01*
X69413392Y209978119D01*
X69318154Y210025738D01*
X69270535Y210073357D01*
X69222916Y210168595D01*
X69222916Y210263833D01*
X69270535Y210359071D01*
X69318154Y210406690D01*
X69413392Y210454309D01*
X69603869Y210501928D01*
X69699107Y210549547D01*
X69746726Y210597166D01*
X69794345Y210692404D01*
X69794345Y210787642D01*
X69746726Y210882880D01*
X69699107Y210930500D01*
X69603869Y210978119D01*
X69365773Y210978119D01*
X69222916Y210930500D01*
X68461011Y210501928D02*
X68318154Y210454309D01*
X68270535Y210406690D01*
X68222916Y210311452D01*
X68222916Y210168595D01*
X68270535Y210073357D01*
X68318154Y210025738D01*
X68413392Y209978119D01*
X68794345Y209978119D01*
X68794345Y210978119D01*
X68461011Y210978119D01*
X68365773Y210930500D01*
X68318154Y210882880D01*
X68270535Y210787642D01*
X68270535Y210692404D01*
X68318154Y210597166D01*
X68365773Y210549547D01*
X68461011Y210501928D01*
X68794345Y210501928D01*
X67270535Y209978119D02*
X67841964Y209978119D01*
X67556250Y209978119D02*
X67556250Y210978119D01*
X67651488Y210835261D01*
X67746726Y210740023D01*
X67841964Y210692404D01*
X62233630Y182530654D02*
X63043154Y182530654D01*
X63138392Y182483035D01*
X63186011Y182435416D01*
X63233630Y182340178D01*
X63233630Y182149702D01*
X63186011Y182054464D01*
X63138392Y182006845D01*
X63043154Y181959226D01*
X62233630Y181959226D01*
X63233630Y180959226D02*
X63233630Y181530654D01*
X63233630Y181244940D02*
X62233630Y181244940D01*
X62376488Y181340178D01*
X62471726Y181435416D01*
X62519345Y181530654D01*
X81577083Y213471738D02*
X81434226Y213424119D01*
X81196130Y213424119D01*
X81100892Y213471738D01*
X81053273Y213519357D01*
X81005654Y213614595D01*
X81005654Y213709833D01*
X81053273Y213805071D01*
X81100892Y213852690D01*
X81196130Y213900309D01*
X81386607Y213947928D01*
X81481845Y213995547D01*
X81529464Y214043166D01*
X81577083Y214138404D01*
X81577083Y214233642D01*
X81529464Y214328880D01*
X81481845Y214376500D01*
X81386607Y214424119D01*
X81148511Y214424119D01*
X81005654Y214376500D01*
X80672321Y214424119D02*
X80434226Y213424119D01*
X80243750Y214138404D01*
X80053273Y213424119D01*
X79815178Y214424119D01*
X78910416Y213424119D02*
X79481845Y213424119D01*
X79196130Y213424119D02*
X79196130Y214424119D01*
X79291369Y214281261D01*
X79386607Y214186023D01*
X79481845Y214138404D01*
X85858880Y191659166D02*
X85382690Y191992500D01*
X85858880Y192230595D02*
X84858880Y192230595D01*
X84858880Y191849642D01*
X84906500Y191754404D01*
X84954119Y191706785D01*
X85049357Y191659166D01*
X85192214Y191659166D01*
X85287452Y191706785D01*
X85335071Y191754404D01*
X85382690Y191849642D01*
X85382690Y192230595D01*
X85192214Y190802023D02*
X85858880Y190802023D01*
X84811261Y191040119D02*
X85525547Y191278214D01*
X85525547Y190659166D01*
X69444166Y201136619D02*
X69777500Y201612809D01*
X70015595Y201136619D02*
X70015595Y202136619D01*
X69634642Y202136619D01*
X69539404Y202089000D01*
X69491785Y202041380D01*
X69444166Y201946142D01*
X69444166Y201803285D01*
X69491785Y201708047D01*
X69539404Y201660428D01*
X69634642Y201612809D01*
X70015595Y201612809D01*
X69110833Y202136619D02*
X68491785Y202136619D01*
X68825119Y201755666D01*
X68682261Y201755666D01*
X68587023Y201708047D01*
X68539404Y201660428D01*
X68491785Y201565190D01*
X68491785Y201327095D01*
X68539404Y201231857D01*
X68587023Y201184238D01*
X68682261Y201136619D01*
X68967976Y201136619D01*
X69063214Y201184238D01*
X69110833Y201231857D01*
X71476166Y201136619D02*
X71809500Y201612809D01*
X72047595Y201136619D02*
X72047595Y202136619D01*
X71666642Y202136619D01*
X71571404Y202089000D01*
X71523785Y202041380D01*
X71476166Y201946142D01*
X71476166Y201803285D01*
X71523785Y201708047D01*
X71571404Y201660428D01*
X71666642Y201612809D01*
X72047595Y201612809D01*
X71095214Y202041380D02*
X71047595Y202089000D01*
X70952357Y202136619D01*
X70714261Y202136619D01*
X70619023Y202089000D01*
X70571404Y202041380D01*
X70523785Y201946142D01*
X70523785Y201850904D01*
X70571404Y201708047D01*
X71142833Y201136619D01*
X70523785Y201136619D01*
X69033380Y169688166D02*
X68557190Y170021500D01*
X69033380Y170259595D02*
X68033380Y170259595D01*
X68033380Y169878642D01*
X68081000Y169783404D01*
X68128619Y169735785D01*
X68223857Y169688166D01*
X68366714Y169688166D01*
X68461952Y169735785D01*
X68509571Y169783404D01*
X68557190Y169878642D01*
X68557190Y170259595D01*
X69033380Y168735785D02*
X69033380Y169307214D01*
X69033380Y169021500D02*
X68033380Y169021500D01*
X68176238Y169116738D01*
X68271476Y169211976D01*
X68319095Y169307214D01*
X68423571Y195783333D02*
X68423571Y196116666D01*
X68947380Y196116666D02*
X67947380Y196116666D01*
X67947380Y195640476D01*
X68947380Y194735714D02*
X68947380Y195307142D01*
X68947380Y195021428D02*
X67947380Y195021428D01*
X68090238Y195116666D01*
X68185476Y195211904D01*
X68233095Y195307142D01*
X72429380Y100529285D02*
X71429380Y100529285D01*
X71429380Y100291190D01*
X71477000Y100148333D01*
X71572238Y100053095D01*
X71667476Y100005476D01*
X71857952Y99957857D01*
X72000809Y99957857D01*
X72191285Y100005476D01*
X72286523Y100053095D01*
X72381761Y100148333D01*
X72429380Y100291190D01*
X72429380Y100529285D01*
X71857952Y99386428D02*
X71810333Y99481666D01*
X71762714Y99529285D01*
X71667476Y99576904D01*
X71619857Y99576904D01*
X71524619Y99529285D01*
X71477000Y99481666D01*
X71429380Y99386428D01*
X71429380Y99195952D01*
X71477000Y99100714D01*
X71524619Y99053095D01*
X71619857Y99005476D01*
X71667476Y99005476D01*
X71762714Y99053095D01*
X71810333Y99100714D01*
X71857952Y99195952D01*
X71857952Y99386428D01*
X71905571Y99481666D01*
X71953190Y99529285D01*
X72048428Y99576904D01*
X72238904Y99576904D01*
X72334142Y99529285D01*
X72381761Y99481666D01*
X72429380Y99386428D01*
X72429380Y99195952D01*
X72381761Y99100714D01*
X72334142Y99053095D01*
X72238904Y99005476D01*
X72048428Y99005476D01*
X71953190Y99053095D01*
X71905571Y99100714D01*
X71857952Y99195952D01*
X72429380Y98053095D02*
X72429380Y98624523D01*
X72429380Y98338809D02*
X71429380Y98338809D01*
X71572238Y98434047D01*
X71667476Y98529285D01*
X71715095Y98624523D01*
X53379380Y100529285D02*
X52379380Y100529285D01*
X52379380Y100291190D01*
X52427000Y100148333D01*
X52522238Y100053095D01*
X52617476Y100005476D01*
X52807952Y99957857D01*
X52950809Y99957857D01*
X53141285Y100005476D01*
X53236523Y100053095D01*
X53331761Y100148333D01*
X53379380Y100291190D01*
X53379380Y100529285D01*
X52807952Y99386428D02*
X52760333Y99481666D01*
X52712714Y99529285D01*
X52617476Y99576904D01*
X52569857Y99576904D01*
X52474619Y99529285D01*
X52427000Y99481666D01*
X52379380Y99386428D01*
X52379380Y99195952D01*
X52427000Y99100714D01*
X52474619Y99053095D01*
X52569857Y99005476D01*
X52617476Y99005476D01*
X52712714Y99053095D01*
X52760333Y99100714D01*
X52807952Y99195952D01*
X52807952Y99386428D01*
X52855571Y99481666D01*
X52903190Y99529285D01*
X52998428Y99576904D01*
X53188904Y99576904D01*
X53284142Y99529285D01*
X53331761Y99481666D01*
X53379380Y99386428D01*
X53379380Y99195952D01*
X53331761Y99100714D01*
X53284142Y99053095D01*
X53188904Y99005476D01*
X52998428Y99005476D01*
X52903190Y99053095D01*
X52855571Y99100714D01*
X52807952Y99195952D01*
X52379380Y98386428D02*
X52379380Y98291190D01*
X52427000Y98195952D01*
X52474619Y98148333D01*
X52569857Y98100714D01*
X52760333Y98053095D01*
X52998428Y98053095D01*
X53188904Y98100714D01*
X53284142Y98148333D01*
X53331761Y98195952D01*
X53379380Y98291190D01*
X53379380Y98386428D01*
X53331761Y98481666D01*
X53284142Y98529285D01*
X53188904Y98576904D01*
X52998428Y98624523D01*
X52760333Y98624523D01*
X52569857Y98576904D01*
X52474619Y98529285D01*
X52427000Y98481666D01*
X52379380Y98386428D01*
X53379380Y119579285D02*
X52379380Y119579285D01*
X52379380Y119341190D01*
X52427000Y119198333D01*
X52522238Y119103095D01*
X52617476Y119055476D01*
X52807952Y119007857D01*
X52950809Y119007857D01*
X53141285Y119055476D01*
X53236523Y119103095D01*
X53331761Y119198333D01*
X53379380Y119341190D01*
X53379380Y119579285D01*
X52379380Y118674523D02*
X52379380Y118007857D01*
X53379380Y118436428D01*
X53379380Y117579285D02*
X53379380Y117388809D01*
X53331761Y117293571D01*
X53284142Y117245952D01*
X53141285Y117150714D01*
X52950809Y117103095D01*
X52569857Y117103095D01*
X52474619Y117150714D01*
X52427000Y117198333D01*
X52379380Y117293571D01*
X52379380Y117484047D01*
X52427000Y117579285D01*
X52474619Y117626904D01*
X52569857Y117674523D01*
X52807952Y117674523D01*
X52903190Y117626904D01*
X52950809Y117579285D01*
X52998428Y117484047D01*
X52998428Y117293571D01*
X52950809Y117198333D01*
X52903190Y117150714D01*
X52807952Y117103095D01*
X53379380Y143709285D02*
X52379380Y143709285D01*
X52379380Y143471190D01*
X52427000Y143328333D01*
X52522238Y143233095D01*
X52617476Y143185476D01*
X52807952Y143137857D01*
X52950809Y143137857D01*
X53141285Y143185476D01*
X53236523Y143233095D01*
X53331761Y143328333D01*
X53379380Y143471190D01*
X53379380Y143709285D01*
X52379380Y142804523D02*
X52379380Y142137857D01*
X53379380Y142566428D01*
X52807952Y141614047D02*
X52760333Y141709285D01*
X52712714Y141756904D01*
X52617476Y141804523D01*
X52569857Y141804523D01*
X52474619Y141756904D01*
X52427000Y141709285D01*
X52379380Y141614047D01*
X52379380Y141423571D01*
X52427000Y141328333D01*
X52474619Y141280714D01*
X52569857Y141233095D01*
X52617476Y141233095D01*
X52712714Y141280714D01*
X52760333Y141328333D01*
X52807952Y141423571D01*
X52807952Y141614047D01*
X52855571Y141709285D01*
X52903190Y141756904D01*
X52998428Y141804523D01*
X53188904Y141804523D01*
X53284142Y141756904D01*
X53331761Y141709285D01*
X53379380Y141614047D01*
X53379380Y141423571D01*
X53331761Y141328333D01*
X53284142Y141280714D01*
X53188904Y141233095D01*
X52998428Y141233095D01*
X52903190Y141280714D01*
X52855571Y141328333D01*
X52807952Y141423571D01*
X53379380Y162758285D02*
X52379380Y162758285D01*
X52379380Y162520190D01*
X52427000Y162377333D01*
X52522238Y162282095D01*
X52617476Y162234476D01*
X52807952Y162186857D01*
X52950809Y162186857D01*
X53141285Y162234476D01*
X53236523Y162282095D01*
X53331761Y162377333D01*
X53379380Y162520190D01*
X53379380Y162758285D01*
X52379380Y161853523D02*
X52379380Y161186857D01*
X53379380Y161615428D01*
X52379380Y160901142D02*
X52379380Y160234476D01*
X53379380Y160663047D01*
X53379380Y181809285D02*
X52379380Y181809285D01*
X52379380Y181571190D01*
X52427000Y181428333D01*
X52522238Y181333095D01*
X52617476Y181285476D01*
X52807952Y181237857D01*
X52950809Y181237857D01*
X53141285Y181285476D01*
X53236523Y181333095D01*
X53331761Y181428333D01*
X53379380Y181571190D01*
X53379380Y181809285D01*
X52379380Y180904523D02*
X52379380Y180237857D01*
X53379380Y180666428D01*
X52379380Y179428333D02*
X52379380Y179618809D01*
X52427000Y179714047D01*
X52474619Y179761666D01*
X52617476Y179856904D01*
X52807952Y179904523D01*
X53188904Y179904523D01*
X53284142Y179856904D01*
X53331761Y179809285D01*
X53379380Y179714047D01*
X53379380Y179523571D01*
X53331761Y179428333D01*
X53284142Y179380714D01*
X53188904Y179333095D01*
X52950809Y179333095D01*
X52855571Y179380714D01*
X52807952Y179428333D01*
X52760333Y179523571D01*
X52760333Y179714047D01*
X52807952Y179809285D01*
X52855571Y179856904D01*
X52950809Y179904523D01*
X53379380Y205939285D02*
X52379380Y205939285D01*
X52379380Y205701190D01*
X52427000Y205558333D01*
X52522238Y205463095D01*
X52617476Y205415476D01*
X52807952Y205367857D01*
X52950809Y205367857D01*
X53141285Y205415476D01*
X53236523Y205463095D01*
X53331761Y205558333D01*
X53379380Y205701190D01*
X53379380Y205939285D01*
X52379380Y205034523D02*
X52379380Y204367857D01*
X53379380Y204796428D01*
X52379380Y203510714D02*
X52379380Y203986904D01*
X52855571Y204034523D01*
X52807952Y203986904D01*
X52760333Y203891666D01*
X52760333Y203653571D01*
X52807952Y203558333D01*
X52855571Y203510714D01*
X52950809Y203463095D01*
X53188904Y203463095D01*
X53284142Y203510714D01*
X53331761Y203558333D01*
X53379380Y203653571D01*
X53379380Y203891666D01*
X53331761Y203986904D01*
X53284142Y204034523D01*
X34329380Y100529285D02*
X33329380Y100529285D01*
X33329380Y100291190D01*
X33377000Y100148333D01*
X33472238Y100053095D01*
X33567476Y100005476D01*
X33757952Y99957857D01*
X33900809Y99957857D01*
X34091285Y100005476D01*
X34186523Y100053095D01*
X34281761Y100148333D01*
X34329380Y100291190D01*
X34329380Y100529285D01*
X33329380Y99624523D02*
X33329380Y98957857D01*
X34329380Y99386428D01*
X33662714Y98148333D02*
X34329380Y98148333D01*
X33281761Y98386428D02*
X33996047Y98624523D01*
X33996047Y98005476D01*
X29630380Y205939285D02*
X28630380Y205939285D01*
X28630380Y205701190D01*
X28678000Y205558333D01*
X28773238Y205463095D01*
X28868476Y205415476D01*
X29058952Y205367857D01*
X29201809Y205367857D01*
X29392285Y205415476D01*
X29487523Y205463095D01*
X29582761Y205558333D01*
X29630380Y205701190D01*
X29630380Y205939285D01*
X28630380Y205034523D02*
X28630380Y204367857D01*
X29630380Y204796428D01*
X28630380Y204082142D02*
X28630380Y203463095D01*
X29011333Y203796428D01*
X29011333Y203653571D01*
X29058952Y203558333D01*
X29106571Y203510714D01*
X29201809Y203463095D01*
X29439904Y203463095D01*
X29535142Y203510714D01*
X29582761Y203558333D01*
X29630380Y203653571D01*
X29630380Y203939285D01*
X29582761Y204034523D01*
X29535142Y204082142D01*
X24931380Y162759285D02*
X23931380Y162759285D01*
X23931380Y162521190D01*
X23979000Y162378333D01*
X24074238Y162283095D01*
X24169476Y162235476D01*
X24359952Y162187857D01*
X24502809Y162187857D01*
X24693285Y162235476D01*
X24788523Y162283095D01*
X24883761Y162378333D01*
X24931380Y162521190D01*
X24931380Y162759285D01*
X23931380Y161854523D02*
X23931380Y161187857D01*
X24931380Y161616428D01*
X24026619Y160854523D02*
X23979000Y160806904D01*
X23931380Y160711666D01*
X23931380Y160473571D01*
X23979000Y160378333D01*
X24026619Y160330714D01*
X24121857Y160283095D01*
X24217095Y160283095D01*
X24359952Y160330714D01*
X24931380Y160902142D01*
X24931380Y160283095D01*
X20105380Y181808285D02*
X19105380Y181808285D01*
X19105380Y181570190D01*
X19153000Y181427333D01*
X19248238Y181332095D01*
X19343476Y181284476D01*
X19533952Y181236857D01*
X19676809Y181236857D01*
X19867285Y181284476D01*
X19962523Y181332095D01*
X20057761Y181427333D01*
X20105380Y181570190D01*
X20105380Y181808285D01*
X19105380Y180903523D02*
X19105380Y180236857D01*
X20105380Y180665428D01*
X20105380Y179332095D02*
X20105380Y179903523D01*
X20105380Y179617809D02*
X19105380Y179617809D01*
X19248238Y179713047D01*
X19343476Y179808285D01*
X19391095Y179903523D01*
X17692380Y143709285D02*
X16692380Y143709285D01*
X16692380Y143471190D01*
X16740000Y143328333D01*
X16835238Y143233095D01*
X16930476Y143185476D01*
X17120952Y143137857D01*
X17263809Y143137857D01*
X17454285Y143185476D01*
X17549523Y143233095D01*
X17644761Y143328333D01*
X17692380Y143471190D01*
X17692380Y143709285D01*
X16692380Y142804523D02*
X16692380Y142137857D01*
X17692380Y142566428D01*
X16692380Y141566428D02*
X16692380Y141471190D01*
X16740000Y141375952D01*
X16787619Y141328333D01*
X16882857Y141280714D01*
X17073333Y141233095D01*
X17311428Y141233095D01*
X17501904Y141280714D01*
X17597142Y141328333D01*
X17644761Y141375952D01*
X17692380Y141471190D01*
X17692380Y141566428D01*
X17644761Y141661666D01*
X17597142Y141709285D01*
X17501904Y141756904D01*
X17311428Y141804523D01*
X17073333Y141804523D01*
X16882857Y141756904D01*
X16787619Y141709285D01*
X16740000Y141661666D01*
X16692380Y141566428D01*
X10580380Y205939285D02*
X9580380Y205939285D01*
X9580380Y205701190D01*
X9628000Y205558333D01*
X9723238Y205463095D01*
X9818476Y205415476D01*
X10008952Y205367857D01*
X10151809Y205367857D01*
X10342285Y205415476D01*
X10437523Y205463095D01*
X10532761Y205558333D01*
X10580380Y205701190D01*
X10580380Y205939285D01*
X9580380Y204510714D02*
X9580380Y204701190D01*
X9628000Y204796428D01*
X9675619Y204844047D01*
X9818476Y204939285D01*
X10008952Y204986904D01*
X10389904Y204986904D01*
X10485142Y204939285D01*
X10532761Y204891666D01*
X10580380Y204796428D01*
X10580380Y204605952D01*
X10532761Y204510714D01*
X10485142Y204463095D01*
X10389904Y204415476D01*
X10151809Y204415476D01*
X10056571Y204463095D01*
X10008952Y204510714D01*
X9961333Y204605952D01*
X9961333Y204796428D01*
X10008952Y204891666D01*
X10056571Y204939285D01*
X10151809Y204986904D01*
X10580380Y203939285D02*
X10580380Y203748809D01*
X10532761Y203653571D01*
X10485142Y203605952D01*
X10342285Y203510714D01*
X10151809Y203463095D01*
X9770857Y203463095D01*
X9675619Y203510714D01*
X9628000Y203558333D01*
X9580380Y203653571D01*
X9580380Y203844047D01*
X9628000Y203939285D01*
X9675619Y203986904D01*
X9770857Y204034523D01*
X10008952Y204034523D01*
X10104190Y203986904D01*
X10151809Y203939285D01*
X10199428Y203844047D01*
X10199428Y203653571D01*
X10151809Y203558333D01*
X10104190Y203510714D01*
X10008952Y203463095D01*
X12993380Y124659285D02*
X11993380Y124659285D01*
X11993380Y124421190D01*
X12041000Y124278333D01*
X12136238Y124183095D01*
X12231476Y124135476D01*
X12421952Y124087857D01*
X12564809Y124087857D01*
X12755285Y124135476D01*
X12850523Y124183095D01*
X12945761Y124278333D01*
X12993380Y124421190D01*
X12993380Y124659285D01*
X11993380Y123230714D02*
X11993380Y123421190D01*
X12041000Y123516428D01*
X12088619Y123564047D01*
X12231476Y123659285D01*
X12421952Y123706904D01*
X12802904Y123706904D01*
X12898142Y123659285D01*
X12945761Y123611666D01*
X12993380Y123516428D01*
X12993380Y123325952D01*
X12945761Y123230714D01*
X12898142Y123183095D01*
X12802904Y123135476D01*
X12564809Y123135476D01*
X12469571Y123183095D01*
X12421952Y123230714D01*
X12374333Y123325952D01*
X12374333Y123516428D01*
X12421952Y123611666D01*
X12469571Y123659285D01*
X12564809Y123706904D01*
X12421952Y122564047D02*
X12374333Y122659285D01*
X12326714Y122706904D01*
X12231476Y122754523D01*
X12183857Y122754523D01*
X12088619Y122706904D01*
X12041000Y122659285D01*
X11993380Y122564047D01*
X11993380Y122373571D01*
X12041000Y122278333D01*
X12088619Y122230714D01*
X12183857Y122183095D01*
X12231476Y122183095D01*
X12326714Y122230714D01*
X12374333Y122278333D01*
X12421952Y122373571D01*
X12421952Y122564047D01*
X12469571Y122659285D01*
X12517190Y122706904D01*
X12612428Y122754523D01*
X12802904Y122754523D01*
X12898142Y122706904D01*
X12945761Y122659285D01*
X12993380Y122564047D01*
X12993380Y122373571D01*
X12945761Y122278333D01*
X12898142Y122230714D01*
X12802904Y122183095D01*
X12612428Y122183095D01*
X12517190Y122230714D01*
X12469571Y122278333D01*
X12421952Y122373571D01*
X5881380Y105608285D02*
X4881380Y105608285D01*
X4881380Y105370190D01*
X4929000Y105227333D01*
X5024238Y105132095D01*
X5119476Y105084476D01*
X5309952Y105036857D01*
X5452809Y105036857D01*
X5643285Y105084476D01*
X5738523Y105132095D01*
X5833761Y105227333D01*
X5881380Y105370190D01*
X5881380Y105608285D01*
X4881380Y104179714D02*
X4881380Y104370190D01*
X4929000Y104465428D01*
X4976619Y104513047D01*
X5119476Y104608285D01*
X5309952Y104655904D01*
X5690904Y104655904D01*
X5786142Y104608285D01*
X5833761Y104560666D01*
X5881380Y104465428D01*
X5881380Y104274952D01*
X5833761Y104179714D01*
X5786142Y104132095D01*
X5690904Y104084476D01*
X5452809Y104084476D01*
X5357571Y104132095D01*
X5309952Y104179714D01*
X5262333Y104274952D01*
X5262333Y104465428D01*
X5309952Y104560666D01*
X5357571Y104608285D01*
X5452809Y104655904D01*
X4881380Y103751142D02*
X4881380Y103084476D01*
X5881380Y103513047D01*
X1055380Y162759285D02*
X55380Y162759285D01*
X55380Y162521190D01*
X103000Y162378333D01*
X198238Y162283095D01*
X293476Y162235476D01*
X483952Y162187857D01*
X626809Y162187857D01*
X817285Y162235476D01*
X912523Y162283095D01*
X1007761Y162378333D01*
X1055380Y162521190D01*
X1055380Y162759285D01*
X55380Y161330714D02*
X55380Y161521190D01*
X103000Y161616428D01*
X150619Y161664047D01*
X293476Y161759285D01*
X483952Y161806904D01*
X864904Y161806904D01*
X960142Y161759285D01*
X1007761Y161711666D01*
X1055380Y161616428D01*
X1055380Y161425952D01*
X1007761Y161330714D01*
X960142Y161283095D01*
X864904Y161235476D01*
X626809Y161235476D01*
X531571Y161283095D01*
X483952Y161330714D01*
X436333Y161425952D01*
X436333Y161616428D01*
X483952Y161711666D01*
X531571Y161759285D01*
X626809Y161806904D01*
X55380Y160378333D02*
X55380Y160568809D01*
X102999Y160664047D01*
X150619Y160711666D01*
X293476Y160806904D01*
X483952Y160854523D01*
X864904Y160854523D01*
X960142Y160806904D01*
X1007761Y160759285D01*
X1055380Y160664047D01*
X1055380Y160473571D01*
X1007761Y160378333D01*
X960142Y160330714D01*
X864904Y160283095D01*
X626809Y160283095D01*
X531571Y160330714D01*
X483952Y160378333D01*
X436333Y160473571D01*
X436333Y160664047D01*
X483952Y160759285D01*
X531571Y160806904D01*
X626809Y160854523D01*
X-8469619Y205939285D02*
X-9469619Y205939285D01*
X-9469619Y205701190D01*
X-9422000Y205558333D01*
X-9326761Y205463095D01*
X-9231523Y205415476D01*
X-9041047Y205367857D01*
X-8898190Y205367857D01*
X-8707714Y205415476D01*
X-8612476Y205463095D01*
X-8517238Y205558333D01*
X-8469619Y205701190D01*
X-8469619Y205939285D01*
X-9469619Y204510714D02*
X-9469619Y204701190D01*
X-9422000Y204796428D01*
X-9374380Y204844047D01*
X-9231523Y204939285D01*
X-9041047Y204986904D01*
X-8660095Y204986904D01*
X-8564857Y204939285D01*
X-8517238Y204891666D01*
X-8469619Y204796428D01*
X-8469619Y204605952D01*
X-8517238Y204510714D01*
X-8564857Y204463095D01*
X-8660095Y204415476D01*
X-8898190Y204415476D01*
X-8993428Y204463095D01*
X-9041047Y204510714D01*
X-9088666Y204605952D01*
X-9088666Y204796428D01*
X-9041047Y204891666D01*
X-8993428Y204939285D01*
X-8898190Y204986904D01*
X-9469619Y203510714D02*
X-9469619Y203986904D01*
X-8993428Y204034523D01*
X-9041047Y203986904D01*
X-9088666Y203891666D01*
X-9088666Y203653571D01*
X-9041047Y203558333D01*
X-8993428Y203510714D01*
X-8898190Y203463095D01*
X-8660095Y203463095D01*
X-8564857Y203510714D01*
X-8517238Y203558333D01*
X-8469619Y203653571D01*
X-8469619Y203891666D01*
X-8517238Y203986904D01*
X-8564857Y204034523D01*
X-8469619Y181808285D02*
X-9469619Y181808285D01*
X-9469619Y181570190D01*
X-9422000Y181427333D01*
X-9326761Y181332095D01*
X-9231523Y181284476D01*
X-9041047Y181236857D01*
X-8898190Y181236857D01*
X-8707714Y181284476D01*
X-8612476Y181332095D01*
X-8517238Y181427333D01*
X-8469619Y181570190D01*
X-8469619Y181808285D01*
X-9469619Y180379714D02*
X-9469619Y180570190D01*
X-9422000Y180665428D01*
X-9374380Y180713047D01*
X-9231523Y180808285D01*
X-9041047Y180855904D01*
X-8660095Y180855904D01*
X-8564857Y180808285D01*
X-8517238Y180760666D01*
X-8469619Y180665428D01*
X-8469619Y180474952D01*
X-8517238Y180379714D01*
X-8564857Y180332095D01*
X-8660095Y180284476D01*
X-8898190Y180284476D01*
X-8993428Y180332095D01*
X-9041047Y180379714D01*
X-9088666Y180474952D01*
X-9088666Y180665428D01*
X-9041047Y180760666D01*
X-8993428Y180808285D01*
X-8898190Y180855904D01*
X-9136285Y179427333D02*
X-8469619Y179427333D01*
X-9517238Y179665428D02*
X-8802952Y179903523D01*
X-8802952Y179284476D01*
X-13168619Y143709285D02*
X-14168619Y143709285D01*
X-14168619Y143471190D01*
X-14121000Y143328333D01*
X-14025761Y143233095D01*
X-13930523Y143185476D01*
X-13740047Y143137857D01*
X-13597190Y143137857D01*
X-13406714Y143185476D01*
X-13311476Y143233095D01*
X-13216238Y143328333D01*
X-13168619Y143471190D01*
X-13168619Y143709285D01*
X-14168619Y142280714D02*
X-14168619Y142471190D01*
X-14121000Y142566428D01*
X-14073380Y142614047D01*
X-13930523Y142709285D01*
X-13740047Y142756904D01*
X-13359095Y142756904D01*
X-13263857Y142709285D01*
X-13216238Y142661666D01*
X-13168619Y142566428D01*
X-13168619Y142375952D01*
X-13216238Y142280714D01*
X-13263857Y142233095D01*
X-13359095Y142185476D01*
X-13597190Y142185476D01*
X-13692428Y142233095D01*
X-13740047Y142280714D01*
X-13787666Y142375952D01*
X-13787666Y142566428D01*
X-13740047Y142661666D01*
X-13692428Y142709285D01*
X-13597190Y142756904D01*
X-14168619Y141852142D02*
X-14168619Y141233095D01*
X-13787666Y141566428D01*
X-13787666Y141423571D01*
X-13740047Y141328333D01*
X-13692428Y141280714D01*
X-13597190Y141233095D01*
X-13359095Y141233095D01*
X-13263857Y141280714D01*
X-13216238Y141328333D01*
X-13168619Y141423571D01*
X-13168619Y141709285D01*
X-13216238Y141804523D01*
X-13263857Y141852142D01*
X-22820619Y124659285D02*
X-23820619Y124659285D01*
X-23820619Y124421190D01*
X-23773000Y124278333D01*
X-23677761Y124183095D01*
X-23582523Y124135476D01*
X-23392047Y124087857D01*
X-23249190Y124087857D01*
X-23058714Y124135476D01*
X-22963476Y124183095D01*
X-22868238Y124278333D01*
X-22820619Y124421190D01*
X-22820619Y124659285D01*
X-23820619Y123230714D02*
X-23820619Y123421190D01*
X-23773000Y123516428D01*
X-23725380Y123564047D01*
X-23582523Y123659285D01*
X-23392047Y123706904D01*
X-23011095Y123706904D01*
X-22915857Y123659285D01*
X-22868238Y123611666D01*
X-22820619Y123516428D01*
X-22820619Y123325952D01*
X-22868238Y123230714D01*
X-22915857Y123183095D01*
X-23011095Y123135476D01*
X-23249190Y123135476D01*
X-23344428Y123183095D01*
X-23392047Y123230714D01*
X-23439666Y123325952D01*
X-23439666Y123516428D01*
X-23392047Y123611666D01*
X-23344428Y123659285D01*
X-23249190Y123706904D01*
X-23725380Y122754523D02*
X-23773000Y122706904D01*
X-23820619Y122611666D01*
X-23820619Y122373571D01*
X-23773000Y122278333D01*
X-23725380Y122230714D01*
X-23630142Y122183095D01*
X-23534904Y122183095D01*
X-23392047Y122230714D01*
X-22820619Y122802142D01*
X-22820619Y122183095D01*
X-17994619Y162758285D02*
X-18994619Y162758285D01*
X-18994619Y162520190D01*
X-18947000Y162377333D01*
X-18851761Y162282095D01*
X-18756523Y162234476D01*
X-18566047Y162186857D01*
X-18423190Y162186857D01*
X-18232714Y162234476D01*
X-18137476Y162282095D01*
X-18042238Y162377333D01*
X-17994619Y162520190D01*
X-17994619Y162758285D01*
X-18994619Y161329714D02*
X-18994619Y161520190D01*
X-18947000Y161615428D01*
X-18899380Y161663047D01*
X-18756523Y161758285D01*
X-18566047Y161805904D01*
X-18185095Y161805904D01*
X-18089857Y161758285D01*
X-18042238Y161710666D01*
X-17994619Y161615428D01*
X-17994619Y161424952D01*
X-18042238Y161329714D01*
X-18089857Y161282095D01*
X-18185095Y161234476D01*
X-18423190Y161234476D01*
X-18518428Y161282095D01*
X-18566047Y161329714D01*
X-18613666Y161424952D01*
X-18613666Y161615428D01*
X-18566047Y161710666D01*
X-18518428Y161758285D01*
X-18423190Y161805904D01*
X-17994619Y160282095D02*
X-17994619Y160853523D01*
X-17994619Y160567809D02*
X-18994619Y160567809D01*
X-18851761Y160663047D01*
X-18756523Y160758285D01*
X-18708904Y160853523D01*
X-20407619Y105609285D02*
X-21407619Y105609285D01*
X-21407619Y105371190D01*
X-21360000Y105228333D01*
X-21264761Y105133095D01*
X-21169523Y105085476D01*
X-20979047Y105037857D01*
X-20836190Y105037857D01*
X-20645714Y105085476D01*
X-20550476Y105133095D01*
X-20455238Y105228333D01*
X-20407619Y105371190D01*
X-20407619Y105609285D01*
X-21407619Y104180714D02*
X-21407619Y104371190D01*
X-21360000Y104466428D01*
X-21312380Y104514047D01*
X-21169523Y104609285D01*
X-20979047Y104656904D01*
X-20598095Y104656904D01*
X-20502857Y104609285D01*
X-20455238Y104561666D01*
X-20407619Y104466428D01*
X-20407619Y104275952D01*
X-20455238Y104180714D01*
X-20502857Y104133095D01*
X-20598095Y104085476D01*
X-20836190Y104085476D01*
X-20931428Y104133095D01*
X-20979047Y104180714D01*
X-21026666Y104275952D01*
X-21026666Y104466428D01*
X-20979047Y104561666D01*
X-20931428Y104609285D01*
X-20836190Y104656904D01*
X-21407619Y103466428D02*
X-21407619Y103371190D01*
X-21360000Y103275952D01*
X-21312380Y103228333D01*
X-21217142Y103180714D01*
X-21026666Y103133095D01*
X-20788571Y103133095D01*
X-20598095Y103180714D01*
X-20502857Y103228333D01*
X-20455238Y103275952D01*
X-20407619Y103371190D01*
X-20407619Y103466428D01*
X-20455238Y103561666D01*
X-20502857Y103609285D01*
X-20598095Y103656904D01*
X-20788571Y103704523D01*
X-21026666Y103704523D01*
X-21217142Y103656904D01*
X-21312380Y103609285D01*
X-21360000Y103561666D01*
X-21407619Y103466428D01*
X-27519619Y205938285D02*
X-28519619Y205938285D01*
X-28519619Y205700190D01*
X-28472000Y205557333D01*
X-28376761Y205462095D01*
X-28281523Y205414476D01*
X-28091047Y205366857D01*
X-27948190Y205366857D01*
X-27757714Y205414476D01*
X-27662476Y205462095D01*
X-27567238Y205557333D01*
X-27519619Y205700190D01*
X-27519619Y205938285D01*
X-28519619Y204462095D02*
X-28519619Y204938285D01*
X-28043428Y204985904D01*
X-28091047Y204938285D01*
X-28138666Y204843047D01*
X-28138666Y204604952D01*
X-28091047Y204509714D01*
X-28043428Y204462095D01*
X-27948190Y204414476D01*
X-27710095Y204414476D01*
X-27614857Y204462095D01*
X-27567238Y204509714D01*
X-27519619Y204604952D01*
X-27519619Y204843047D01*
X-27567238Y204938285D01*
X-27614857Y204985904D01*
X-27519619Y203938285D02*
X-27519619Y203747809D01*
X-27567238Y203652571D01*
X-27614857Y203604952D01*
X-27757714Y203509714D01*
X-27948190Y203462095D01*
X-28329142Y203462095D01*
X-28424380Y203509714D01*
X-28472000Y203557333D01*
X-28519619Y203652571D01*
X-28519619Y203843047D01*
X-28472000Y203938285D01*
X-28424380Y203985904D01*
X-28329142Y204033523D01*
X-28091047Y204033523D01*
X-27995809Y203985904D01*
X-27948190Y203938285D01*
X-27900571Y203843047D01*
X-27900571Y203652571D01*
X-27948190Y203557333D01*
X-27995809Y203509714D01*
X-28091047Y203462095D01*
X-27519619Y181809285D02*
X-28519619Y181809285D01*
X-28519619Y181571190D01*
X-28472000Y181428333D01*
X-28376761Y181333095D01*
X-28281523Y181285476D01*
X-28091047Y181237857D01*
X-27948190Y181237857D01*
X-27757714Y181285476D01*
X-27662476Y181333095D01*
X-27567238Y181428333D01*
X-27519619Y181571190D01*
X-27519619Y181809285D01*
X-28519619Y180333095D02*
X-28519619Y180809285D01*
X-28043428Y180856904D01*
X-28091047Y180809285D01*
X-28138666Y180714047D01*
X-28138666Y180475952D01*
X-28091047Y180380714D01*
X-28043428Y180333095D01*
X-27948190Y180285476D01*
X-27710095Y180285476D01*
X-27614857Y180333095D01*
X-27567238Y180380714D01*
X-27519619Y180475952D01*
X-27519619Y180714047D01*
X-27567238Y180809285D01*
X-27614857Y180856904D01*
X-28091047Y179714047D02*
X-28138666Y179809285D01*
X-28186285Y179856904D01*
X-28281523Y179904523D01*
X-28329142Y179904523D01*
X-28424380Y179856904D01*
X-28472000Y179809285D01*
X-28519619Y179714047D01*
X-28519619Y179523571D01*
X-28472000Y179428333D01*
X-28424380Y179380714D01*
X-28329142Y179333095D01*
X-28281523Y179333095D01*
X-28186285Y179380714D01*
X-28138666Y179428333D01*
X-28091047Y179523571D01*
X-28091047Y179714047D01*
X-28043428Y179809285D01*
X-27995809Y179856904D01*
X-27900571Y179904523D01*
X-27710095Y179904523D01*
X-27614857Y179856904D01*
X-27567238Y179809285D01*
X-27519619Y179714047D01*
X-27519619Y179523571D01*
X-27567238Y179428333D01*
X-27614857Y179380714D01*
X-27710095Y179333095D01*
X-27900571Y179333095D01*
X-27995809Y179380714D01*
X-28043428Y179428333D01*
X-28091047Y179523571D01*
X-32218619Y143709285D02*
X-33218619Y143709285D01*
X-33218619Y143471190D01*
X-33171000Y143328333D01*
X-33075761Y143233095D01*
X-32980523Y143185476D01*
X-32790047Y143137857D01*
X-32647190Y143137857D01*
X-32456714Y143185476D01*
X-32361476Y143233095D01*
X-32266238Y143328333D01*
X-32218619Y143471190D01*
X-32218619Y143709285D01*
X-33218619Y142233095D02*
X-33218619Y142709285D01*
X-32742428Y142756904D01*
X-32790047Y142709285D01*
X-32837666Y142614047D01*
X-32837666Y142375952D01*
X-32790047Y142280714D01*
X-32742428Y142233095D01*
X-32647190Y142185476D01*
X-32409095Y142185476D01*
X-32313857Y142233095D01*
X-32266238Y142280714D01*
X-32218619Y142375952D01*
X-32218619Y142614047D01*
X-32266238Y142709285D01*
X-32313857Y142756904D01*
X-33218619Y141852142D02*
X-33218619Y141185476D01*
X-32218619Y141614047D01*
X-41743619Y124659285D02*
X-42743619Y124659285D01*
X-42743619Y124421190D01*
X-42696000Y124278333D01*
X-42600761Y124183095D01*
X-42505523Y124135476D01*
X-42315047Y124087857D01*
X-42172190Y124087857D01*
X-41981714Y124135476D01*
X-41886476Y124183095D01*
X-41791238Y124278333D01*
X-41743619Y124421190D01*
X-41743619Y124659285D01*
X-42743619Y123183095D02*
X-42743619Y123659285D01*
X-42267428Y123706904D01*
X-42315047Y123659285D01*
X-42362666Y123564047D01*
X-42362666Y123325952D01*
X-42315047Y123230714D01*
X-42267428Y123183095D01*
X-42172190Y123135476D01*
X-41934095Y123135476D01*
X-41838857Y123183095D01*
X-41791238Y123230714D01*
X-41743619Y123325952D01*
X-41743619Y123564047D01*
X-41791238Y123659285D01*
X-41838857Y123706904D01*
X-42743619Y122278333D02*
X-42743619Y122468809D01*
X-42696000Y122564047D01*
X-42648380Y122611666D01*
X-42505523Y122706904D01*
X-42315047Y122754523D01*
X-41934095Y122754523D01*
X-41838857Y122706904D01*
X-41791238Y122659285D01*
X-41743619Y122564047D01*
X-41743619Y122373571D01*
X-41791238Y122278333D01*
X-41838857Y122230714D01*
X-41934095Y122183095D01*
X-42172190Y122183095D01*
X-42267428Y122230714D01*
X-42315047Y122278333D01*
X-42362666Y122373571D01*
X-42362666Y122564047D01*
X-42315047Y122659285D01*
X-42267428Y122706904D01*
X-42172190Y122754523D01*
X-37044619Y162758285D02*
X-38044619Y162758285D01*
X-38044619Y162520190D01*
X-37997000Y162377333D01*
X-37901761Y162282095D01*
X-37806523Y162234476D01*
X-37616047Y162186857D01*
X-37473190Y162186857D01*
X-37282714Y162234476D01*
X-37187476Y162282095D01*
X-37092238Y162377333D01*
X-37044619Y162520190D01*
X-37044619Y162758285D01*
X-38044619Y161282095D02*
X-38044619Y161758285D01*
X-37568428Y161805904D01*
X-37616047Y161758285D01*
X-37663666Y161663047D01*
X-37663666Y161424952D01*
X-37616047Y161329714D01*
X-37568428Y161282095D01*
X-37473190Y161234476D01*
X-37235095Y161234476D01*
X-37139857Y161282095D01*
X-37092238Y161329714D01*
X-37044619Y161424952D01*
X-37044619Y161663047D01*
X-37092238Y161758285D01*
X-37139857Y161805904D01*
X-38044619Y160329714D02*
X-38044619Y160805904D01*
X-37568428Y160853523D01*
X-37616047Y160805904D01*
X-37663666Y160710666D01*
X-37663666Y160472571D01*
X-37616047Y160377333D01*
X-37568428Y160329714D01*
X-37473190Y160282095D01*
X-37235095Y160282095D01*
X-37139857Y160329714D01*
X-37092238Y160377333D01*
X-37044619Y160472571D01*
X-37044619Y160710666D01*
X-37092238Y160805904D01*
X-37139857Y160853523D01*
X-46569619Y181808285D02*
X-47569619Y181808285D01*
X-47569619Y181570190D01*
X-47522000Y181427333D01*
X-47426761Y181332095D01*
X-47331523Y181284476D01*
X-47141047Y181236857D01*
X-46998190Y181236857D01*
X-46807714Y181284476D01*
X-46712476Y181332095D01*
X-46617238Y181427333D01*
X-46569619Y181570190D01*
X-46569619Y181808285D01*
X-47569619Y180332095D02*
X-47569619Y180808285D01*
X-47093428Y180855904D01*
X-47141047Y180808285D01*
X-47188666Y180713047D01*
X-47188666Y180474952D01*
X-47141047Y180379714D01*
X-47093428Y180332095D01*
X-46998190Y180284476D01*
X-46760095Y180284476D01*
X-46664857Y180332095D01*
X-46617238Y180379714D01*
X-46569619Y180474952D01*
X-46569619Y180713047D01*
X-46617238Y180808285D01*
X-46664857Y180855904D01*
X-47236285Y179427333D02*
X-46569619Y179427333D01*
X-47617238Y179665428D02*
X-46902952Y179903523D01*
X-46902952Y179284476D01*
X-51268619Y143709285D02*
X-52268619Y143709285D01*
X-52268619Y143471190D01*
X-52221000Y143328333D01*
X-52125761Y143233095D01*
X-52030523Y143185476D01*
X-51840047Y143137857D01*
X-51697190Y143137857D01*
X-51506714Y143185476D01*
X-51411476Y143233095D01*
X-51316238Y143328333D01*
X-51268619Y143471190D01*
X-51268619Y143709285D01*
X-52268619Y142233095D02*
X-52268619Y142709285D01*
X-51792428Y142756904D01*
X-51840047Y142709285D01*
X-51887666Y142614047D01*
X-51887666Y142375952D01*
X-51840047Y142280714D01*
X-51792428Y142233095D01*
X-51697190Y142185476D01*
X-51459095Y142185476D01*
X-51363857Y142233095D01*
X-51316238Y142280714D01*
X-51268619Y142375952D01*
X-51268619Y142614047D01*
X-51316238Y142709285D01*
X-51363857Y142756904D01*
X-52268619Y141852142D02*
X-52268619Y141233095D01*
X-51887666Y141566428D01*
X-51887666Y141423571D01*
X-51840047Y141328333D01*
X-51792428Y141280714D01*
X-51697190Y141233095D01*
X-51459095Y141233095D01*
X-51363857Y141280714D01*
X-51316238Y141328333D01*
X-51268619Y141423571D01*
X-51268619Y141709285D01*
X-51316238Y141804523D01*
X-51363857Y141852142D01*
X-44156619Y105609285D02*
X-45156619Y105609285D01*
X-45156619Y105371190D01*
X-45109000Y105228333D01*
X-45013761Y105133095D01*
X-44918523Y105085476D01*
X-44728047Y105037857D01*
X-44585190Y105037857D01*
X-44394714Y105085476D01*
X-44299476Y105133095D01*
X-44204238Y105228333D01*
X-44156619Y105371190D01*
X-44156619Y105609285D01*
X-45156619Y104133095D02*
X-45156619Y104609285D01*
X-44680428Y104656904D01*
X-44728047Y104609285D01*
X-44775666Y104514047D01*
X-44775666Y104275952D01*
X-44728047Y104180714D01*
X-44680428Y104133095D01*
X-44585190Y104085476D01*
X-44347095Y104085476D01*
X-44251857Y104133095D01*
X-44204238Y104180714D01*
X-44156619Y104275952D01*
X-44156619Y104514047D01*
X-44204238Y104609285D01*
X-44251857Y104656904D01*
X-45061380Y103704523D02*
X-45109000Y103656904D01*
X-45156619Y103561666D01*
X-45156619Y103323571D01*
X-45109000Y103228333D01*
X-45061380Y103180714D01*
X-44966142Y103133095D01*
X-44870904Y103133095D01*
X-44728047Y103180714D01*
X-44156619Y103752142D01*
X-44156619Y103133095D01*
X-56094619Y205938285D02*
X-57094619Y205938285D01*
X-57094619Y205700190D01*
X-57047000Y205557333D01*
X-56951761Y205462095D01*
X-56856523Y205414476D01*
X-56666047Y205366857D01*
X-56523190Y205366857D01*
X-56332714Y205414476D01*
X-56237476Y205462095D01*
X-56142238Y205557333D01*
X-56094619Y205700190D01*
X-56094619Y205938285D01*
X-57094619Y204462095D02*
X-57094619Y204938285D01*
X-56618428Y204985904D01*
X-56666047Y204938285D01*
X-56713666Y204843047D01*
X-56713666Y204604952D01*
X-56666047Y204509714D01*
X-56618428Y204462095D01*
X-56523190Y204414476D01*
X-56285095Y204414476D01*
X-56189857Y204462095D01*
X-56142238Y204509714D01*
X-56094619Y204604952D01*
X-56094619Y204843047D01*
X-56142238Y204938285D01*
X-56189857Y204985904D01*
X-56094619Y203462095D02*
X-56094619Y204033523D01*
X-56094619Y203747809D02*
X-57094619Y203747809D01*
X-56951761Y203843047D01*
X-56856523Y203938285D01*
X-56808904Y204033523D01*
X-60793619Y124658285D02*
X-61793619Y124658285D01*
X-61793619Y124420190D01*
X-61746000Y124277333D01*
X-61650761Y124182095D01*
X-61555523Y124134476D01*
X-61365047Y124086857D01*
X-61222190Y124086857D01*
X-61031714Y124134476D01*
X-60936476Y124182095D01*
X-60841238Y124277333D01*
X-60793619Y124420190D01*
X-60793619Y124658285D01*
X-61793619Y123182095D02*
X-61793619Y123658285D01*
X-61317428Y123705904D01*
X-61365047Y123658285D01*
X-61412666Y123563047D01*
X-61412666Y123324952D01*
X-61365047Y123229714D01*
X-61317428Y123182095D01*
X-61222190Y123134476D01*
X-60984095Y123134476D01*
X-60888857Y123182095D01*
X-60841238Y123229714D01*
X-60793619Y123324952D01*
X-60793619Y123563047D01*
X-60841238Y123658285D01*
X-60888857Y123705904D01*
X-61793619Y122515428D02*
X-61793619Y122420190D01*
X-61746000Y122324952D01*
X-61698380Y122277333D01*
X-61603142Y122229714D01*
X-61412666Y122182095D01*
X-61174571Y122182095D01*
X-60984095Y122229714D01*
X-60888857Y122277333D01*
X-60841238Y122324952D01*
X-60793619Y122420190D01*
X-60793619Y122515428D01*
X-60841238Y122610666D01*
X-60888857Y122658285D01*
X-60984095Y122705904D01*
X-61174571Y122753523D01*
X-61412666Y122753523D01*
X-61603142Y122705904D01*
X-61698380Y122658285D01*
X-61746000Y122610666D01*
X-61793619Y122515428D01*
X-56094619Y162758285D02*
X-57094619Y162758285D01*
X-57094619Y162520190D01*
X-57047000Y162377333D01*
X-56951761Y162282095D01*
X-56856523Y162234476D01*
X-56666047Y162186857D01*
X-56523190Y162186857D01*
X-56332714Y162234476D01*
X-56237476Y162282095D01*
X-56142238Y162377333D01*
X-56094619Y162520190D01*
X-56094619Y162758285D01*
X-56761285Y161329714D02*
X-56094619Y161329714D01*
X-57142238Y161567809D02*
X-56427952Y161805904D01*
X-56427952Y161186857D01*
X-56094619Y160758285D02*
X-56094619Y160567809D01*
X-56142238Y160472571D01*
X-56189857Y160424952D01*
X-56332714Y160329714D01*
X-56523190Y160282095D01*
X-56904142Y160282095D01*
X-56999380Y160329714D01*
X-57047000Y160377333D01*
X-57094619Y160472571D01*
X-57094619Y160663047D01*
X-57047000Y160758285D01*
X-56999380Y160805904D01*
X-56904142Y160853523D01*
X-56666047Y160853523D01*
X-56570809Y160805904D01*
X-56523190Y160758285D01*
X-56475571Y160663047D01*
X-56475571Y160472571D01*
X-56523190Y160377333D01*
X-56570809Y160329714D01*
X-56666047Y160282095D01*
X-65619619Y181809285D02*
X-66619619Y181809285D01*
X-66619619Y181571190D01*
X-66572000Y181428333D01*
X-66476761Y181333095D01*
X-66381523Y181285476D01*
X-66191047Y181237857D01*
X-66048190Y181237857D01*
X-65857714Y181285476D01*
X-65762476Y181333095D01*
X-65667238Y181428333D01*
X-65619619Y181571190D01*
X-65619619Y181809285D01*
X-66286285Y180380714D02*
X-65619619Y180380714D01*
X-66667238Y180618809D02*
X-65952952Y180856904D01*
X-65952952Y180237857D01*
X-66191047Y179714047D02*
X-66238666Y179809285D01*
X-66286285Y179856904D01*
X-66381523Y179904523D01*
X-66429142Y179904523D01*
X-66524380Y179856904D01*
X-66572000Y179809285D01*
X-66619619Y179714047D01*
X-66619619Y179523571D01*
X-66572000Y179428333D01*
X-66524380Y179380714D01*
X-66429142Y179333095D01*
X-66381523Y179333095D01*
X-66286285Y179380714D01*
X-66238666Y179428333D01*
X-66191047Y179523571D01*
X-66191047Y179714047D01*
X-66143428Y179809285D01*
X-66095809Y179856904D01*
X-66000571Y179904523D01*
X-65810095Y179904523D01*
X-65714857Y179856904D01*
X-65667238Y179809285D01*
X-65619619Y179714047D01*
X-65619619Y179523571D01*
X-65667238Y179428333D01*
X-65714857Y179380714D01*
X-65810095Y179333095D01*
X-66000571Y179333095D01*
X-66095809Y179380714D01*
X-66143428Y179428333D01*
X-66191047Y179523571D01*
X-70318619Y143708285D02*
X-71318619Y143708285D01*
X-71318619Y143470190D01*
X-71271000Y143327333D01*
X-71175761Y143232095D01*
X-71080523Y143184476D01*
X-70890047Y143136857D01*
X-70747190Y143136857D01*
X-70556714Y143184476D01*
X-70461476Y143232095D01*
X-70366238Y143327333D01*
X-70318619Y143470190D01*
X-70318619Y143708285D01*
X-70985285Y142279714D02*
X-70318619Y142279714D01*
X-71366238Y142517809D02*
X-70651952Y142755904D01*
X-70651952Y142136857D01*
X-71318619Y141851142D02*
X-71318619Y141184476D01*
X-70318619Y141613047D01*
X-75144619Y205939285D02*
X-76144619Y205939285D01*
X-76144619Y205701190D01*
X-76097000Y205558333D01*
X-76001761Y205463095D01*
X-75906523Y205415476D01*
X-75716047Y205367857D01*
X-75573190Y205367857D01*
X-75382714Y205415476D01*
X-75287476Y205463095D01*
X-75192238Y205558333D01*
X-75144619Y205701190D01*
X-75144619Y205939285D01*
X-75811285Y204510714D02*
X-75144619Y204510714D01*
X-76192238Y204748809D02*
X-75477952Y204986904D01*
X-75477952Y204367857D01*
X-76144619Y203558333D02*
X-76144619Y203748809D01*
X-76097000Y203844047D01*
X-76049380Y203891666D01*
X-75906523Y203986904D01*
X-75716047Y204034523D01*
X-75335095Y204034523D01*
X-75239857Y203986904D01*
X-75192238Y203939285D01*
X-75144619Y203844047D01*
X-75144619Y203653571D01*
X-75192238Y203558333D01*
X-75239857Y203510714D01*
X-75335095Y203463095D01*
X-75573190Y203463095D01*
X-75668428Y203510714D01*
X-75716047Y203558333D01*
X-75763666Y203653571D01*
X-75763666Y203844047D01*
X-75716047Y203939285D01*
X-75668428Y203986904D01*
X-75573190Y204034523D01*
X-79843619Y124659285D02*
X-80843619Y124659285D01*
X-80843619Y124421190D01*
X-80796000Y124278333D01*
X-80700761Y124183095D01*
X-80605523Y124135476D01*
X-80415047Y124087857D01*
X-80272190Y124087857D01*
X-80081714Y124135476D01*
X-79986476Y124183095D01*
X-79891238Y124278333D01*
X-79843619Y124421190D01*
X-79843619Y124659285D01*
X-80510285Y123230714D02*
X-79843619Y123230714D01*
X-80891238Y123468809D02*
X-80176952Y123706904D01*
X-80176952Y123087857D01*
X-80843619Y122230714D02*
X-80843619Y122706904D01*
X-80367428Y122754523D01*
X-80415047Y122706904D01*
X-80462666Y122611666D01*
X-80462666Y122373571D01*
X-80415047Y122278333D01*
X-80367428Y122230714D01*
X-80272190Y122183095D01*
X-80034095Y122183095D01*
X-79938857Y122230714D01*
X-79891238Y122278333D01*
X-79843619Y122373571D01*
X-79843619Y122611666D01*
X-79891238Y122706904D01*
X-79938857Y122754523D01*
X-75144619Y162759285D02*
X-76144619Y162759285D01*
X-76144619Y162521190D01*
X-76097000Y162378333D01*
X-76001761Y162283095D01*
X-75906523Y162235476D01*
X-75716047Y162187857D01*
X-75573190Y162187857D01*
X-75382714Y162235476D01*
X-75287476Y162283095D01*
X-75192238Y162378333D01*
X-75144619Y162521190D01*
X-75144619Y162759285D01*
X-75811285Y161330714D02*
X-75144619Y161330714D01*
X-76192238Y161568809D02*
X-75477952Y161806904D01*
X-75477952Y161187857D01*
X-75811285Y160378333D02*
X-75144619Y160378333D01*
X-76192238Y160616428D02*
X-75477952Y160854523D01*
X-75477952Y160235476D01*
X-84669619Y181809285D02*
X-85669619Y181809285D01*
X-85669619Y181571190D01*
X-85622000Y181428333D01*
X-85526761Y181333095D01*
X-85431523Y181285476D01*
X-85241047Y181237857D01*
X-85098190Y181237857D01*
X-84907714Y181285476D01*
X-84812476Y181333095D01*
X-84717238Y181428333D01*
X-84669619Y181571190D01*
X-84669619Y181809285D01*
X-85336285Y180380714D02*
X-84669619Y180380714D01*
X-85717238Y180618809D02*
X-85002952Y180856904D01*
X-85002952Y180237857D01*
X-85669619Y179952142D02*
X-85669619Y179333095D01*
X-85288666Y179666428D01*
X-85288666Y179523571D01*
X-85241047Y179428333D01*
X-85193428Y179380714D01*
X-85098190Y179333095D01*
X-84860095Y179333095D01*
X-84764857Y179380714D01*
X-84717238Y179428333D01*
X-84669619Y179523571D01*
X-84669619Y179809285D01*
X-84717238Y179904523D01*
X-84764857Y179952142D01*
X-89368619Y143709285D02*
X-90368619Y143709285D01*
X-90368619Y143471190D01*
X-90321000Y143328333D01*
X-90225761Y143233095D01*
X-90130523Y143185476D01*
X-89940047Y143137857D01*
X-89797190Y143137857D01*
X-89606714Y143185476D01*
X-89511476Y143233095D01*
X-89416238Y143328333D01*
X-89368619Y143471190D01*
X-89368619Y143709285D01*
X-90035285Y142280714D02*
X-89368619Y142280714D01*
X-90416238Y142518809D02*
X-89701952Y142756904D01*
X-89701952Y142137857D01*
X-90273380Y141804523D02*
X-90321000Y141756904D01*
X-90368619Y141661666D01*
X-90368619Y141423571D01*
X-90321000Y141328333D01*
X-90273380Y141280714D01*
X-90178142Y141233095D01*
X-90082904Y141233095D01*
X-89940047Y141280714D01*
X-89368619Y141852142D01*
X-89368619Y141233095D01*
X-94194619Y205938285D02*
X-95194619Y205938285D01*
X-95194619Y205700190D01*
X-95147000Y205557333D01*
X-95051761Y205462095D01*
X-94956523Y205414476D01*
X-94766047Y205366857D01*
X-94623190Y205366857D01*
X-94432714Y205414476D01*
X-94337476Y205462095D01*
X-94242238Y205557333D01*
X-94194619Y205700190D01*
X-94194619Y205938285D01*
X-94861285Y204509714D02*
X-94194619Y204509714D01*
X-95242238Y204747809D02*
X-94527952Y204985904D01*
X-94527952Y204366857D01*
X-94194619Y203462095D02*
X-94194619Y204033523D01*
X-94194619Y203747809D02*
X-95194619Y203747809D01*
X-95051761Y203843047D01*
X-94956523Y203938285D01*
X-94908904Y204033523D01*
X-99020619Y124659285D02*
X-100020619Y124659285D01*
X-100020619Y124421190D01*
X-99973000Y124278333D01*
X-99877761Y124183095D01*
X-99782523Y124135476D01*
X-99592047Y124087857D01*
X-99449190Y124087857D01*
X-99258714Y124135476D01*
X-99163476Y124183095D01*
X-99068238Y124278333D01*
X-99020619Y124421190D01*
X-99020619Y124659285D01*
X-99687285Y123230714D02*
X-99020619Y123230714D01*
X-100068238Y123468809D02*
X-99353952Y123706904D01*
X-99353952Y123087857D01*
X-100020619Y122516428D02*
X-100020619Y122421190D01*
X-99973000Y122325952D01*
X-99925380Y122278333D01*
X-99830142Y122230714D01*
X-99639666Y122183095D01*
X-99401571Y122183095D01*
X-99211095Y122230714D01*
X-99115857Y122278333D01*
X-99068238Y122325952D01*
X-99020619Y122421190D01*
X-99020619Y122516428D01*
X-99068238Y122611666D01*
X-99115857Y122659285D01*
X-99211095Y122706904D01*
X-99401571Y122754523D01*
X-99639666Y122754523D01*
X-99830142Y122706904D01*
X-99925380Y122659285D01*
X-99973000Y122611666D01*
X-100020619Y122516428D01*
X-94194619Y162759285D02*
X-95194619Y162759285D01*
X-95194619Y162521190D01*
X-95147000Y162378333D01*
X-95051761Y162283095D01*
X-94956523Y162235476D01*
X-94766047Y162187857D01*
X-94623190Y162187857D01*
X-94432714Y162235476D01*
X-94337476Y162283095D01*
X-94242238Y162378333D01*
X-94194619Y162521190D01*
X-94194619Y162759285D01*
X-95194619Y161854523D02*
X-95194619Y161235476D01*
X-94813666Y161568809D01*
X-94813666Y161425952D01*
X-94766047Y161330714D01*
X-94718428Y161283095D01*
X-94623190Y161235476D01*
X-94385095Y161235476D01*
X-94289857Y161283095D01*
X-94242238Y161330714D01*
X-94194619Y161425952D01*
X-94194619Y161711666D01*
X-94242238Y161806904D01*
X-94289857Y161854523D01*
X-94194619Y160759285D02*
X-94194619Y160568809D01*
X-94242238Y160473571D01*
X-94289857Y160425952D01*
X-94432714Y160330714D01*
X-94623190Y160283095D01*
X-95004142Y160283095D01*
X-95099380Y160330714D01*
X-95147000Y160378333D01*
X-95194619Y160473571D01*
X-95194619Y160664047D01*
X-95147000Y160759285D01*
X-95099380Y160806904D01*
X-95004142Y160854523D01*
X-94766047Y160854523D01*
X-94670809Y160806904D01*
X-94623190Y160759285D01*
X-94575571Y160664047D01*
X-94575571Y160473571D01*
X-94623190Y160378333D01*
X-94670809Y160330714D01*
X-94766047Y160283095D01*
X-103719619Y181809285D02*
X-104719619Y181809285D01*
X-104719619Y181571190D01*
X-104672000Y181428333D01*
X-104576761Y181333095D01*
X-104481523Y181285476D01*
X-104291047Y181237857D01*
X-104148190Y181237857D01*
X-103957714Y181285476D01*
X-103862476Y181333095D01*
X-103767238Y181428333D01*
X-103719619Y181571190D01*
X-103719619Y181809285D01*
X-104719619Y180904523D02*
X-104719619Y180285476D01*
X-104338666Y180618809D01*
X-104338666Y180475952D01*
X-104291047Y180380714D01*
X-104243428Y180333095D01*
X-104148190Y180285476D01*
X-103910095Y180285476D01*
X-103814857Y180333095D01*
X-103767238Y180380714D01*
X-103719619Y180475952D01*
X-103719619Y180761666D01*
X-103767238Y180856904D01*
X-103814857Y180904523D01*
X-104291047Y179714047D02*
X-104338666Y179809285D01*
X-104386285Y179856904D01*
X-104481523Y179904523D01*
X-104529142Y179904523D01*
X-104624380Y179856904D01*
X-104672000Y179809285D01*
X-104719619Y179714047D01*
X-104719619Y179523571D01*
X-104672000Y179428333D01*
X-104624380Y179380714D01*
X-104529142Y179333095D01*
X-104481523Y179333095D01*
X-104386285Y179380714D01*
X-104338666Y179428333D01*
X-104291047Y179523571D01*
X-104291047Y179714047D01*
X-104243428Y179809285D01*
X-104195809Y179856904D01*
X-104100571Y179904523D01*
X-103910095Y179904523D01*
X-103814857Y179856904D01*
X-103767238Y179809285D01*
X-103719619Y179714047D01*
X-103719619Y179523571D01*
X-103767238Y179428333D01*
X-103814857Y179380714D01*
X-103910095Y179333095D01*
X-104100571Y179333095D01*
X-104195809Y179380714D01*
X-104243428Y179428333D01*
X-104291047Y179523571D01*
X-108418619Y143708285D02*
X-109418619Y143708285D01*
X-109418619Y143470190D01*
X-109371000Y143327333D01*
X-109275761Y143232095D01*
X-109180523Y143184476D01*
X-108990047Y143136857D01*
X-108847190Y143136857D01*
X-108656714Y143184476D01*
X-108561476Y143232095D01*
X-108466238Y143327333D01*
X-108418619Y143470190D01*
X-108418619Y143708285D01*
X-109418619Y142803523D02*
X-109418619Y142184476D01*
X-109037666Y142517809D01*
X-109037666Y142374952D01*
X-108990047Y142279714D01*
X-108942428Y142232095D01*
X-108847190Y142184476D01*
X-108609095Y142184476D01*
X-108513857Y142232095D01*
X-108466238Y142279714D01*
X-108418619Y142374952D01*
X-108418619Y142660666D01*
X-108466238Y142755904D01*
X-108513857Y142803523D01*
X-109418619Y141851142D02*
X-109418619Y141184476D01*
X-108418619Y141613047D01*
X-113244619Y205938285D02*
X-114244619Y205938285D01*
X-114244619Y205700190D01*
X-114197000Y205557333D01*
X-114101761Y205462095D01*
X-114006523Y205414476D01*
X-113816047Y205366857D01*
X-113673190Y205366857D01*
X-113482714Y205414476D01*
X-113387476Y205462095D01*
X-113292238Y205557333D01*
X-113244619Y205700190D01*
X-113244619Y205938285D01*
X-114244619Y205033523D02*
X-114244619Y204414476D01*
X-113863666Y204747809D01*
X-113863666Y204604952D01*
X-113816047Y204509714D01*
X-113768428Y204462095D01*
X-113673190Y204414476D01*
X-113435095Y204414476D01*
X-113339857Y204462095D01*
X-113292238Y204509714D01*
X-113244619Y204604952D01*
X-113244619Y204890666D01*
X-113292238Y204985904D01*
X-113339857Y205033523D01*
X-114244619Y203557333D02*
X-114244619Y203747809D01*
X-114197000Y203843047D01*
X-114149380Y203890666D01*
X-114006523Y203985904D01*
X-113816047Y204033523D01*
X-113435095Y204033523D01*
X-113339857Y203985904D01*
X-113292238Y203938285D01*
X-113244619Y203843047D01*
X-113244619Y203652571D01*
X-113292238Y203557333D01*
X-113339857Y203509714D01*
X-113435095Y203462095D01*
X-113673190Y203462095D01*
X-113768428Y203509714D01*
X-113816047Y203557333D01*
X-113863666Y203652571D01*
X-113863666Y203843047D01*
X-113816047Y203938285D01*
X-113768428Y203985904D01*
X-113673190Y204033523D01*
X-117943619Y124658285D02*
X-118943619Y124658285D01*
X-118943619Y124420190D01*
X-118896000Y124277333D01*
X-118800761Y124182095D01*
X-118705523Y124134476D01*
X-118515047Y124086857D01*
X-118372190Y124086857D01*
X-118181714Y124134476D01*
X-118086476Y124182095D01*
X-117991238Y124277333D01*
X-117943619Y124420190D01*
X-117943619Y124658285D01*
X-118943619Y123753523D02*
X-118943619Y123134476D01*
X-118562666Y123467809D01*
X-118562666Y123324952D01*
X-118515047Y123229714D01*
X-118467428Y123182095D01*
X-118372190Y123134476D01*
X-118134095Y123134476D01*
X-118038857Y123182095D01*
X-117991238Y123229714D01*
X-117943619Y123324952D01*
X-117943619Y123610666D01*
X-117991238Y123705904D01*
X-118038857Y123753523D01*
X-118943619Y122229714D02*
X-118943619Y122705904D01*
X-118467428Y122753523D01*
X-118515047Y122705904D01*
X-118562666Y122610666D01*
X-118562666Y122372571D01*
X-118515047Y122277333D01*
X-118467428Y122229714D01*
X-118372190Y122182095D01*
X-118134095Y122182095D01*
X-118038857Y122229714D01*
X-117991238Y122277333D01*
X-117943619Y122372571D01*
X-117943619Y122610666D01*
X-117991238Y122705904D01*
X-118038857Y122753523D01*
X-113244619Y162759285D02*
X-114244619Y162759285D01*
X-114244619Y162521190D01*
X-114197000Y162378333D01*
X-114101761Y162283095D01*
X-114006523Y162235476D01*
X-113816047Y162187857D01*
X-113673190Y162187857D01*
X-113482714Y162235476D01*
X-113387476Y162283095D01*
X-113292238Y162378333D01*
X-113244619Y162521190D01*
X-113244619Y162759285D01*
X-114244619Y161854523D02*
X-114244619Y161235476D01*
X-113863666Y161568809D01*
X-113863666Y161425952D01*
X-113816047Y161330714D01*
X-113768428Y161283095D01*
X-113673190Y161235476D01*
X-113435095Y161235476D01*
X-113339857Y161283095D01*
X-113292238Y161330714D01*
X-113244619Y161425952D01*
X-113244619Y161711666D01*
X-113292238Y161806904D01*
X-113339857Y161854523D01*
X-113911285Y160378333D02*
X-113244619Y160378333D01*
X-114292238Y160616428D02*
X-113577952Y160854523D01*
X-113577952Y160235476D01*
X-115657619Y105609285D02*
X-116657619Y105609285D01*
X-116657619Y105371190D01*
X-116610000Y105228333D01*
X-116514761Y105133095D01*
X-116419523Y105085476D01*
X-116229047Y105037857D01*
X-116086190Y105037857D01*
X-115895714Y105085476D01*
X-115800476Y105133095D01*
X-115705238Y105228333D01*
X-115657619Y105371190D01*
X-115657619Y105609285D01*
X-116657619Y104704523D02*
X-116657619Y104085476D01*
X-116276666Y104418809D01*
X-116276666Y104275952D01*
X-116229047Y104180714D01*
X-116181428Y104133095D01*
X-116086190Y104085476D01*
X-115848095Y104085476D01*
X-115752857Y104133095D01*
X-115705238Y104180714D01*
X-115657619Y104275952D01*
X-115657619Y104561666D01*
X-115705238Y104656904D01*
X-115752857Y104704523D01*
X-116657619Y103752142D02*
X-116657619Y103133095D01*
X-116276666Y103466428D01*
X-116276666Y103323571D01*
X-116229047Y103228333D01*
X-116181428Y103180714D01*
X-116086190Y103133095D01*
X-115848095Y103133095D01*
X-115752857Y103180714D01*
X-115705238Y103228333D01*
X-115657619Y103323571D01*
X-115657619Y103609285D01*
X-115705238Y103704523D01*
X-115752857Y103752142D01*
X-122769619Y181809285D02*
X-123769619Y181809285D01*
X-123769619Y181571190D01*
X-123722000Y181428333D01*
X-123626761Y181333095D01*
X-123531523Y181285476D01*
X-123341047Y181237857D01*
X-123198190Y181237857D01*
X-123007714Y181285476D01*
X-122912476Y181333095D01*
X-122817238Y181428333D01*
X-122769619Y181571190D01*
X-122769619Y181809285D01*
X-123769619Y180904523D02*
X-123769619Y180285476D01*
X-123388666Y180618809D01*
X-123388666Y180475952D01*
X-123341047Y180380714D01*
X-123293428Y180333095D01*
X-123198190Y180285476D01*
X-122960095Y180285476D01*
X-122864857Y180333095D01*
X-122817238Y180380714D01*
X-122769619Y180475952D01*
X-122769619Y180761666D01*
X-122817238Y180856904D01*
X-122864857Y180904523D01*
X-123674380Y179904523D02*
X-123722000Y179856904D01*
X-123769619Y179761666D01*
X-123769619Y179523571D01*
X-123722000Y179428333D01*
X-123674380Y179380714D01*
X-123579142Y179333095D01*
X-123483904Y179333095D01*
X-123341047Y179380714D01*
X-122769619Y179952142D01*
X-122769619Y179333095D01*
X-127595619Y143709285D02*
X-128595619Y143709285D01*
X-128595619Y143471190D01*
X-128548000Y143328333D01*
X-128452761Y143233095D01*
X-128357523Y143185476D01*
X-128167047Y143137857D01*
X-128024190Y143137857D01*
X-127833714Y143185476D01*
X-127738476Y143233095D01*
X-127643238Y143328333D01*
X-127595619Y143471190D01*
X-127595619Y143709285D01*
X-128595619Y142804523D02*
X-128595619Y142185476D01*
X-128214666Y142518809D01*
X-128214666Y142375952D01*
X-128167047Y142280714D01*
X-128119428Y142233095D01*
X-128024190Y142185476D01*
X-127786095Y142185476D01*
X-127690857Y142233095D01*
X-127643238Y142280714D01*
X-127595619Y142375952D01*
X-127595619Y142661666D01*
X-127643238Y142756904D01*
X-127690857Y142804523D01*
X-127595619Y141233095D02*
X-127595619Y141804523D01*
X-127595619Y141518809D02*
X-128595619Y141518809D01*
X-128452761Y141614047D01*
X-128357523Y141709285D01*
X-128309904Y141804523D01*
X-136993619Y124659285D02*
X-137993619Y124659285D01*
X-137993619Y124421190D01*
X-137946000Y124278333D01*
X-137850761Y124183095D01*
X-137755523Y124135476D01*
X-137565047Y124087857D01*
X-137422190Y124087857D01*
X-137231714Y124135476D01*
X-137136476Y124183095D01*
X-137041238Y124278333D01*
X-136993619Y124421190D01*
X-136993619Y124659285D01*
X-137993619Y123754523D02*
X-137993619Y123135476D01*
X-137612666Y123468809D01*
X-137612666Y123325952D01*
X-137565047Y123230714D01*
X-137517428Y123183095D01*
X-137422190Y123135476D01*
X-137184095Y123135476D01*
X-137088857Y123183095D01*
X-137041238Y123230714D01*
X-136993619Y123325952D01*
X-136993619Y123611666D01*
X-137041238Y123706904D01*
X-137088857Y123754523D01*
X-137993619Y122516428D02*
X-137993619Y122421190D01*
X-137946000Y122325952D01*
X-137898380Y122278333D01*
X-137803142Y122230714D01*
X-137612666Y122183095D01*
X-137374571Y122183095D01*
X-137184095Y122230714D01*
X-137088857Y122278333D01*
X-137041238Y122325952D01*
X-136993619Y122421190D01*
X-136993619Y122516428D01*
X-137041238Y122611666D01*
X-137088857Y122659285D01*
X-137184095Y122706904D01*
X-137374571Y122754523D01*
X-137612666Y122754523D01*
X-137803142Y122706904D01*
X-137898380Y122659285D01*
X-137946000Y122611666D01*
X-137993619Y122516428D01*
X-132294619Y162758285D02*
X-133294619Y162758285D01*
X-133294619Y162520190D01*
X-133247000Y162377333D01*
X-133151761Y162282095D01*
X-133056523Y162234476D01*
X-132866047Y162186857D01*
X-132723190Y162186857D01*
X-132532714Y162234476D01*
X-132437476Y162282095D01*
X-132342238Y162377333D01*
X-132294619Y162520190D01*
X-132294619Y162758285D01*
X-133199380Y161805904D02*
X-133247000Y161758285D01*
X-133294619Y161663047D01*
X-133294619Y161424952D01*
X-133247000Y161329714D01*
X-133199380Y161282095D01*
X-133104142Y161234476D01*
X-133008904Y161234476D01*
X-132866047Y161282095D01*
X-132294619Y161853523D01*
X-132294619Y161234476D01*
X-132294619Y160758285D02*
X-132294619Y160567809D01*
X-132342238Y160472571D01*
X-132389857Y160424952D01*
X-132532714Y160329714D01*
X-132723190Y160282095D01*
X-133104142Y160282095D01*
X-133199380Y160329714D01*
X-133247000Y160377333D01*
X-133294619Y160472571D01*
X-133294619Y160663047D01*
X-133247000Y160758285D01*
X-133199380Y160805904D01*
X-133104142Y160853523D01*
X-132866047Y160853523D01*
X-132770809Y160805904D01*
X-132723190Y160758285D01*
X-132675571Y160663047D01*
X-132675571Y160472571D01*
X-132723190Y160377333D01*
X-132770809Y160329714D01*
X-132866047Y160282095D01*
X-141819619Y181809285D02*
X-142819619Y181809285D01*
X-142819619Y181571190D01*
X-142772000Y181428333D01*
X-142676761Y181333095D01*
X-142581523Y181285476D01*
X-142391047Y181237857D01*
X-142248190Y181237857D01*
X-142057714Y181285476D01*
X-141962476Y181333095D01*
X-141867238Y181428333D01*
X-141819619Y181571190D01*
X-141819619Y181809285D01*
X-142724380Y180856904D02*
X-142772000Y180809285D01*
X-142819619Y180714047D01*
X-142819619Y180475952D01*
X-142772000Y180380714D01*
X-142724380Y180333095D01*
X-142629142Y180285476D01*
X-142533904Y180285476D01*
X-142391047Y180333095D01*
X-141819619Y180904523D01*
X-141819619Y180285476D01*
X-142391047Y179714047D02*
X-142438666Y179809285D01*
X-142486285Y179856904D01*
X-142581523Y179904523D01*
X-142629142Y179904523D01*
X-142724380Y179856904D01*
X-142772000Y179809285D01*
X-142819619Y179714047D01*
X-142819619Y179523571D01*
X-142772000Y179428333D01*
X-142724380Y179380714D01*
X-142629142Y179333095D01*
X-142581523Y179333095D01*
X-142486285Y179380714D01*
X-142438666Y179428333D01*
X-142391047Y179523571D01*
X-142391047Y179714047D01*
X-142343428Y179809285D01*
X-142295809Y179856904D01*
X-142200571Y179904523D01*
X-142010095Y179904523D01*
X-141914857Y179856904D01*
X-141867238Y179809285D01*
X-141819619Y179714047D01*
X-141819619Y179523571D01*
X-141867238Y179428333D01*
X-141914857Y179380714D01*
X-142010095Y179333095D01*
X-142200571Y179333095D01*
X-142295809Y179380714D01*
X-142343428Y179428333D01*
X-142391047Y179523571D01*
X-141819619Y205938285D02*
X-142819619Y205938285D01*
X-142819619Y205700190D01*
X-142772000Y205557333D01*
X-142676761Y205462095D01*
X-142581523Y205414476D01*
X-142391047Y205366857D01*
X-142248190Y205366857D01*
X-142057714Y205414476D01*
X-141962476Y205462095D01*
X-141867238Y205557333D01*
X-141819619Y205700190D01*
X-141819619Y205938285D01*
X-142724380Y204985904D02*
X-142772000Y204938285D01*
X-142819619Y204843047D01*
X-142819619Y204604952D01*
X-142772000Y204509714D01*
X-142724380Y204462095D01*
X-142629142Y204414476D01*
X-142533904Y204414476D01*
X-142391047Y204462095D01*
X-141819619Y205033523D01*
X-141819619Y204414476D01*
X-142819619Y204081142D02*
X-142819619Y203414476D01*
X-141819619Y203843047D01*
X-146518619Y143709285D02*
X-147518619Y143709285D01*
X-147518619Y143471190D01*
X-147471000Y143328333D01*
X-147375761Y143233095D01*
X-147280523Y143185476D01*
X-147090047Y143137857D01*
X-146947190Y143137857D01*
X-146756714Y143185476D01*
X-146661476Y143233095D01*
X-146566238Y143328333D01*
X-146518619Y143471190D01*
X-146518619Y143709285D01*
X-147423380Y142756904D02*
X-147471000Y142709285D01*
X-147518619Y142614047D01*
X-147518619Y142375952D01*
X-147471000Y142280714D01*
X-147423380Y142233095D01*
X-147328142Y142185476D01*
X-147232904Y142185476D01*
X-147090047Y142233095D01*
X-146518619Y142804523D01*
X-146518619Y142185476D01*
X-147518619Y141328333D02*
X-147518619Y141518809D01*
X-147471000Y141614047D01*
X-147423380Y141661666D01*
X-147280523Y141756904D01*
X-147090047Y141804523D01*
X-146709095Y141804523D01*
X-146613857Y141756904D01*
X-146566238Y141709285D01*
X-146518619Y141614047D01*
X-146518619Y141423571D01*
X-146566238Y141328333D01*
X-146613857Y141280714D01*
X-146709095Y141233095D01*
X-146947190Y141233095D01*
X-147042428Y141280714D01*
X-147090047Y141328333D01*
X-147137666Y141423571D01*
X-147137666Y141614047D01*
X-147090047Y141709285D01*
X-147042428Y141756904D01*
X-146947190Y141804523D01*
X-156043619Y124659285D02*
X-157043619Y124659285D01*
X-157043619Y124421190D01*
X-156996000Y124278333D01*
X-156900761Y124183095D01*
X-156805523Y124135476D01*
X-156615047Y124087857D01*
X-156472190Y124087857D01*
X-156281714Y124135476D01*
X-156186476Y124183095D01*
X-156091238Y124278333D01*
X-156043619Y124421190D01*
X-156043619Y124659285D01*
X-156948380Y123706904D02*
X-156996000Y123659285D01*
X-157043619Y123564047D01*
X-157043619Y123325952D01*
X-156996000Y123230714D01*
X-156948380Y123183095D01*
X-156853142Y123135476D01*
X-156757904Y123135476D01*
X-156615047Y123183095D01*
X-156043619Y123754523D01*
X-156043619Y123135476D01*
X-157043619Y122230714D02*
X-157043619Y122706904D01*
X-156567428Y122754523D01*
X-156615047Y122706904D01*
X-156662666Y122611666D01*
X-156662666Y122373571D01*
X-156615047Y122278333D01*
X-156567428Y122230714D01*
X-156472190Y122183095D01*
X-156234095Y122183095D01*
X-156138857Y122230714D01*
X-156091238Y122278333D01*
X-156043619Y122373571D01*
X-156043619Y122611666D01*
X-156091238Y122706904D01*
X-156138857Y122754523D01*
X-151344619Y162758285D02*
X-152344619Y162758285D01*
X-152344619Y162520190D01*
X-152297000Y162377333D01*
X-152201761Y162282095D01*
X-152106523Y162234476D01*
X-151916047Y162186857D01*
X-151773190Y162186857D01*
X-151582714Y162234476D01*
X-151487476Y162282095D01*
X-151392238Y162377333D01*
X-151344619Y162520190D01*
X-151344619Y162758285D01*
X-152249380Y161805904D02*
X-152297000Y161758285D01*
X-152344619Y161663047D01*
X-152344619Y161424952D01*
X-152297000Y161329714D01*
X-152249380Y161282095D01*
X-152154142Y161234476D01*
X-152058904Y161234476D01*
X-151916047Y161282095D01*
X-151344619Y161853523D01*
X-151344619Y161234476D01*
X-152011285Y160377333D02*
X-151344619Y160377333D01*
X-152392238Y160615428D02*
X-151677952Y160853523D01*
X-151677952Y160234476D01*
X-160869619Y181809285D02*
X-161869619Y181809285D01*
X-161869619Y181571190D01*
X-161822000Y181428333D01*
X-161726761Y181333095D01*
X-161631523Y181285476D01*
X-161441047Y181237857D01*
X-161298190Y181237857D01*
X-161107714Y181285476D01*
X-161012476Y181333095D01*
X-160917238Y181428333D01*
X-160869619Y181571190D01*
X-160869619Y181809285D01*
X-161774380Y180856904D02*
X-161822000Y180809285D01*
X-161869619Y180714047D01*
X-161869619Y180475952D01*
X-161822000Y180380714D01*
X-161774380Y180333095D01*
X-161679142Y180285476D01*
X-161583904Y180285476D01*
X-161441047Y180333095D01*
X-160869619Y180904523D01*
X-160869619Y180285476D01*
X-161869619Y179952142D02*
X-161869619Y179333095D01*
X-161488666Y179666428D01*
X-161488666Y179523571D01*
X-161441047Y179428333D01*
X-161393428Y179380714D01*
X-161298190Y179333095D01*
X-161060095Y179333095D01*
X-160964857Y179380714D01*
X-160917238Y179428333D01*
X-160869619Y179523571D01*
X-160869619Y179809285D01*
X-160917238Y179904523D01*
X-160964857Y179952142D01*
X-160869619Y205939285D02*
X-161869619Y205939285D01*
X-161869619Y205701190D01*
X-161822000Y205558333D01*
X-161726761Y205463095D01*
X-161631523Y205415476D01*
X-161441047Y205367857D01*
X-161298190Y205367857D01*
X-161107714Y205415476D01*
X-161012476Y205463095D01*
X-160917238Y205558333D01*
X-160869619Y205701190D01*
X-160869619Y205939285D01*
X-161774380Y204986904D02*
X-161822000Y204939285D01*
X-161869619Y204844047D01*
X-161869619Y204605952D01*
X-161822000Y204510714D01*
X-161774380Y204463095D01*
X-161679142Y204415476D01*
X-161583904Y204415476D01*
X-161441047Y204463095D01*
X-160869619Y205034523D01*
X-160869619Y204415476D01*
X-161774380Y204034523D02*
X-161822000Y203986904D01*
X-161869619Y203891666D01*
X-161869619Y203653571D01*
X-161822000Y203558333D01*
X-161774380Y203510714D01*
X-161679142Y203463095D01*
X-161583904Y203463095D01*
X-161441047Y203510714D01*
X-160869619Y204082142D01*
X-160869619Y203463095D01*
X-165568619Y143709285D02*
X-166568619Y143709285D01*
X-166568619Y143471190D01*
X-166521000Y143328333D01*
X-166425761Y143233095D01*
X-166330523Y143185476D01*
X-166140047Y143137857D01*
X-165997190Y143137857D01*
X-165806714Y143185476D01*
X-165711476Y143233095D01*
X-165616238Y143328333D01*
X-165568619Y143471190D01*
X-165568619Y143709285D01*
X-166473380Y142756904D02*
X-166521000Y142709285D01*
X-166568619Y142614047D01*
X-166568619Y142375952D01*
X-166521000Y142280714D01*
X-166473380Y142233095D01*
X-166378142Y142185476D01*
X-166282904Y142185476D01*
X-166140047Y142233095D01*
X-165568619Y142804523D01*
X-165568619Y142185476D01*
X-165568619Y141233095D02*
X-165568619Y141804523D01*
X-165568619Y141518809D02*
X-166568619Y141518809D01*
X-166425761Y141614047D01*
X-166330523Y141709285D01*
X-166282904Y141804523D01*
X-175093619Y124659285D02*
X-176093619Y124659285D01*
X-176093619Y124421190D01*
X-176046000Y124278333D01*
X-175950761Y124183095D01*
X-175855523Y124135476D01*
X-175665047Y124087857D01*
X-175522190Y124087857D01*
X-175331714Y124135476D01*
X-175236476Y124183095D01*
X-175141238Y124278333D01*
X-175093619Y124421190D01*
X-175093619Y124659285D01*
X-175998380Y123706904D02*
X-176046000Y123659285D01*
X-176093619Y123564047D01*
X-176093619Y123325952D01*
X-176046000Y123230714D01*
X-175998380Y123183095D01*
X-175903142Y123135476D01*
X-175807904Y123135476D01*
X-175665047Y123183095D01*
X-175093619Y123754523D01*
X-175093619Y123135476D01*
X-176093619Y122516428D02*
X-176093619Y122421190D01*
X-176046000Y122325952D01*
X-175998380Y122278333D01*
X-175903142Y122230714D01*
X-175712666Y122183095D01*
X-175474571Y122183095D01*
X-175284095Y122230714D01*
X-175188857Y122278333D01*
X-175141238Y122325952D01*
X-175093619Y122421190D01*
X-175093619Y122516428D01*
X-175141238Y122611666D01*
X-175188857Y122659285D01*
X-175284095Y122706904D01*
X-175474571Y122754523D01*
X-175712666Y122754523D01*
X-175903142Y122706904D01*
X-175998380Y122659285D01*
X-176046000Y122611666D01*
X-176093619Y122516428D01*
X-170394619Y162759285D02*
X-171394619Y162759285D01*
X-171394619Y162521190D01*
X-171347000Y162378333D01*
X-171251761Y162283095D01*
X-171156523Y162235476D01*
X-170966047Y162187857D01*
X-170823190Y162187857D01*
X-170632714Y162235476D01*
X-170537476Y162283095D01*
X-170442238Y162378333D01*
X-170394619Y162521190D01*
X-170394619Y162759285D01*
X-170394619Y161235476D02*
X-170394619Y161806904D01*
X-170394619Y161521190D02*
X-171394619Y161521190D01*
X-171251761Y161616428D01*
X-171156523Y161711666D01*
X-171108904Y161806904D01*
X-170394619Y160759285D02*
X-170394619Y160568809D01*
X-170442238Y160473571D01*
X-170489857Y160425952D01*
X-170632714Y160330714D01*
X-170823190Y160283095D01*
X-171204142Y160283095D01*
X-171299380Y160330714D01*
X-171347000Y160378333D01*
X-171394619Y160473571D01*
X-171394619Y160664047D01*
X-171347000Y160759285D01*
X-171299380Y160806904D01*
X-171204142Y160854523D01*
X-170966047Y160854523D01*
X-170870809Y160806904D01*
X-170823190Y160759285D01*
X-170775571Y160664047D01*
X-170775571Y160473571D01*
X-170823190Y160378333D01*
X-170870809Y160330714D01*
X-170966047Y160283095D01*
X-179919619Y181809285D02*
X-180919619Y181809285D01*
X-180919619Y181571190D01*
X-180872000Y181428333D01*
X-180776761Y181333095D01*
X-180681523Y181285476D01*
X-180491047Y181237857D01*
X-180348190Y181237857D01*
X-180157714Y181285476D01*
X-180062476Y181333095D01*
X-179967238Y181428333D01*
X-179919619Y181571190D01*
X-179919619Y181809285D01*
X-179919619Y180285476D02*
X-179919619Y180856904D01*
X-179919619Y180571190D02*
X-180919619Y180571190D01*
X-180776761Y180666428D01*
X-180681523Y180761666D01*
X-180633904Y180856904D01*
X-180491047Y179714047D02*
X-180538666Y179809285D01*
X-180586285Y179856904D01*
X-180681523Y179904523D01*
X-180729142Y179904523D01*
X-180824380Y179856904D01*
X-180872000Y179809285D01*
X-180919619Y179714047D01*
X-180919619Y179523571D01*
X-180872000Y179428333D01*
X-180824380Y179380714D01*
X-180729142Y179333095D01*
X-180681523Y179333095D01*
X-180586285Y179380714D01*
X-180538666Y179428333D01*
X-180491047Y179523571D01*
X-180491047Y179714047D01*
X-180443428Y179809285D01*
X-180395809Y179856904D01*
X-180300571Y179904523D01*
X-180110095Y179904523D01*
X-180014857Y179856904D01*
X-179967238Y179809285D01*
X-179919619Y179714047D01*
X-179919619Y179523571D01*
X-179967238Y179428333D01*
X-180014857Y179380714D01*
X-180110095Y179333095D01*
X-180300571Y179333095D01*
X-180395809Y179380714D01*
X-180443428Y179428333D01*
X-180491047Y179523571D01*
X-179919619Y205938285D02*
X-180919619Y205938285D01*
X-180919619Y205700190D01*
X-180872000Y205557333D01*
X-180776761Y205462095D01*
X-180681523Y205414476D01*
X-180491047Y205366857D01*
X-180348190Y205366857D01*
X-180157714Y205414476D01*
X-180062476Y205462095D01*
X-179967238Y205557333D01*
X-179919619Y205700190D01*
X-179919619Y205938285D01*
X-179919619Y204414476D02*
X-179919619Y204985904D01*
X-179919619Y204700190D02*
X-180919619Y204700190D01*
X-180776761Y204795428D01*
X-180681523Y204890666D01*
X-180633904Y204985904D01*
X-180919619Y204081142D02*
X-180919619Y203414476D01*
X-179919619Y203843047D01*
X-184618619Y143709285D02*
X-185618619Y143709285D01*
X-185618619Y143471190D01*
X-185571000Y143328333D01*
X-185475761Y143233095D01*
X-185380523Y143185476D01*
X-185190047Y143137857D01*
X-185047190Y143137857D01*
X-184856714Y143185476D01*
X-184761476Y143233095D01*
X-184666238Y143328333D01*
X-184618619Y143471190D01*
X-184618619Y143709285D01*
X-184618619Y142185476D02*
X-184618619Y142756904D01*
X-184618619Y142471190D02*
X-185618619Y142471190D01*
X-185475761Y142566428D01*
X-185380523Y142661666D01*
X-185332904Y142756904D01*
X-185618619Y141328333D02*
X-185618619Y141518809D01*
X-185571000Y141614047D01*
X-185523380Y141661666D01*
X-185380523Y141756904D01*
X-185190047Y141804523D01*
X-184809095Y141804523D01*
X-184713857Y141756904D01*
X-184666238Y141709285D01*
X-184618619Y141614047D01*
X-184618619Y141423571D01*
X-184666238Y141328333D01*
X-184713857Y141280714D01*
X-184809095Y141233095D01*
X-185047190Y141233095D01*
X-185142428Y141280714D01*
X-185190047Y141328333D01*
X-185237666Y141423571D01*
X-185237666Y141614047D01*
X-185190047Y141709285D01*
X-185142428Y141756904D01*
X-185047190Y141804523D01*
X-187031619Y105609285D02*
X-188031619Y105609285D01*
X-188031619Y105371190D01*
X-187984000Y105228333D01*
X-187888761Y105133095D01*
X-187793523Y105085476D01*
X-187603047Y105037857D01*
X-187460190Y105037857D01*
X-187269714Y105085476D01*
X-187174476Y105133095D01*
X-187079238Y105228333D01*
X-187031619Y105371190D01*
X-187031619Y105609285D01*
X-187031619Y104085476D02*
X-187031619Y104656904D01*
X-187031619Y104371190D02*
X-188031619Y104371190D01*
X-187888761Y104466428D01*
X-187793523Y104561666D01*
X-187745904Y104656904D01*
X-188031619Y103180714D02*
X-188031619Y103656904D01*
X-187555428Y103704523D01*
X-187603047Y103656904D01*
X-187650666Y103561666D01*
X-187650666Y103323571D01*
X-187603047Y103228333D01*
X-187555428Y103180714D01*
X-187460190Y103133095D01*
X-187222095Y103133095D01*
X-187126857Y103180714D01*
X-187079238Y103228333D01*
X-187031619Y103323571D01*
X-187031619Y103561666D01*
X-187079238Y103656904D01*
X-187126857Y103704523D01*
X-194270619Y124659285D02*
X-195270619Y124659285D01*
X-195270619Y124421190D01*
X-195223000Y124278333D01*
X-195127761Y124183095D01*
X-195032523Y124135476D01*
X-194842047Y124087857D01*
X-194699190Y124087857D01*
X-194508714Y124135476D01*
X-194413476Y124183095D01*
X-194318238Y124278333D01*
X-194270619Y124421190D01*
X-194270619Y124659285D01*
X-194270619Y123135476D02*
X-194270619Y123706904D01*
X-194270619Y123421190D02*
X-195270619Y123421190D01*
X-195127761Y123516428D01*
X-195032523Y123611666D01*
X-194984904Y123706904D01*
X-194937285Y122278333D02*
X-194270619Y122278333D01*
X-195318238Y122516428D02*
X-194603952Y122754523D01*
X-194603952Y122135476D01*
X-189444619Y162758285D02*
X-190444619Y162758285D01*
X-190444619Y162520190D01*
X-190397000Y162377333D01*
X-190301761Y162282095D01*
X-190206523Y162234476D01*
X-190016047Y162186857D01*
X-189873190Y162186857D01*
X-189682714Y162234476D01*
X-189587476Y162282095D01*
X-189492238Y162377333D01*
X-189444619Y162520190D01*
X-189444619Y162758285D01*
X-189444619Y161234476D02*
X-189444619Y161805904D01*
X-189444619Y161520190D02*
X-190444619Y161520190D01*
X-190301761Y161615428D01*
X-190206523Y161710666D01*
X-190158904Y161805904D01*
X-190444619Y160901142D02*
X-190444619Y160282095D01*
X-190063666Y160615428D01*
X-190063666Y160472571D01*
X-190016047Y160377333D01*
X-189968428Y160329714D01*
X-189873190Y160282095D01*
X-189635095Y160282095D01*
X-189539857Y160329714D01*
X-189492238Y160377333D01*
X-189444619Y160472571D01*
X-189444619Y160758285D01*
X-189492238Y160853523D01*
X-189539857Y160901142D01*
X-198969619Y181809285D02*
X-199969619Y181809285D01*
X-199969619Y181571190D01*
X-199922000Y181428333D01*
X-199826761Y181333095D01*
X-199731523Y181285476D01*
X-199541047Y181237857D01*
X-199398190Y181237857D01*
X-199207714Y181285476D01*
X-199112476Y181333095D01*
X-199017238Y181428333D01*
X-198969619Y181571190D01*
X-198969619Y181809285D01*
X-198969619Y180285476D02*
X-198969619Y180856904D01*
X-198969619Y180571190D02*
X-199969619Y180571190D01*
X-199826761Y180666428D01*
X-199731523Y180761666D01*
X-199683904Y180856904D01*
X-199874380Y179904523D02*
X-199922000Y179856904D01*
X-199969619Y179761666D01*
X-199969619Y179523571D01*
X-199922000Y179428333D01*
X-199874380Y179380714D01*
X-199779142Y179333095D01*
X-199683904Y179333095D01*
X-199541047Y179380714D01*
X-198969619Y179952142D01*
X-198969619Y179333095D01*
X-198969619Y205939285D02*
X-199969619Y205939285D01*
X-199969619Y205701190D01*
X-199922000Y205558333D01*
X-199826761Y205463095D01*
X-199731523Y205415476D01*
X-199541047Y205367857D01*
X-199398190Y205367857D01*
X-199207714Y205415476D01*
X-199112476Y205463095D01*
X-199017238Y205558333D01*
X-198969619Y205701190D01*
X-198969619Y205939285D01*
X-198969619Y204415476D02*
X-198969619Y204986904D01*
X-198969619Y204701190D02*
X-199969619Y204701190D01*
X-199826761Y204796428D01*
X-199731523Y204891666D01*
X-199683904Y204986904D01*
X-198969619Y203463095D02*
X-198969619Y204034523D01*
X-198969619Y203748809D02*
X-199969619Y203748809D01*
X-199826761Y203844047D01*
X-199731523Y203939285D01*
X-199683904Y204034523D01*
X-203668619Y143709285D02*
X-204668619Y143709285D01*
X-204668619Y143471190D01*
X-204621000Y143328333D01*
X-204525761Y143233095D01*
X-204430523Y143185476D01*
X-204240047Y143137857D01*
X-204097190Y143137857D01*
X-203906714Y143185476D01*
X-203811476Y143233095D01*
X-203716238Y143328333D01*
X-203668619Y143471190D01*
X-203668619Y143709285D01*
X-203668619Y142185476D02*
X-203668619Y142756904D01*
X-203668619Y142471190D02*
X-204668619Y142471190D01*
X-204525761Y142566428D01*
X-204430523Y142661666D01*
X-204382904Y142756904D01*
X-204668619Y141566428D02*
X-204668619Y141471190D01*
X-204621000Y141375952D01*
X-204573380Y141328333D01*
X-204478142Y141280714D01*
X-204287666Y141233095D01*
X-204049571Y141233095D01*
X-203859095Y141280714D01*
X-203763857Y141328333D01*
X-203716238Y141375952D01*
X-203668619Y141471190D01*
X-203668619Y141566428D01*
X-203716238Y141661666D01*
X-203763857Y141709285D01*
X-203859095Y141756904D01*
X-204049571Y141804523D01*
X-204287666Y141804523D01*
X-204478142Y141756904D01*
X-204573380Y141709285D01*
X-204621000Y141661666D01*
X-204668619Y141566428D01*
X-210907619Y105133095D02*
X-211907619Y105133095D01*
X-211907619Y104895000D01*
X-211860000Y104752142D01*
X-211764761Y104656904D01*
X-211669523Y104609285D01*
X-211479047Y104561666D01*
X-211336190Y104561666D01*
X-211145714Y104609285D01*
X-211050476Y104656904D01*
X-210955238Y104752142D01*
X-210907619Y104895000D01*
X-210907619Y105133095D01*
X-210907619Y104085476D02*
X-210907619Y103895000D01*
X-210955238Y103799761D01*
X-211002857Y103752142D01*
X-211145714Y103656904D01*
X-211336190Y103609285D01*
X-211717142Y103609285D01*
X-211812380Y103656904D01*
X-211860000Y103704523D01*
X-211907619Y103799761D01*
X-211907619Y103990238D01*
X-211860000Y104085476D01*
X-211812380Y104133095D01*
X-211717142Y104180714D01*
X-211479047Y104180714D01*
X-211383809Y104133095D01*
X-211336190Y104085476D01*
X-211288571Y103990238D01*
X-211288571Y103799761D01*
X-211336190Y103704523D01*
X-211383809Y103656904D01*
X-211479047Y103609285D01*
X-208494619Y162283095D02*
X-209494619Y162283095D01*
X-209494619Y162045000D01*
X-209447000Y161902142D01*
X-209351761Y161806904D01*
X-209256523Y161759285D01*
X-209066047Y161711666D01*
X-208923190Y161711666D01*
X-208732714Y161759285D01*
X-208637476Y161806904D01*
X-208542238Y161902142D01*
X-208494619Y162045000D01*
X-208494619Y162283095D01*
X-209066047Y161140238D02*
X-209113666Y161235476D01*
X-209161285Y161283095D01*
X-209256523Y161330714D01*
X-209304142Y161330714D01*
X-209399380Y161283095D01*
X-209447000Y161235476D01*
X-209494619Y161140238D01*
X-209494619Y160949761D01*
X-209447000Y160854523D01*
X-209399380Y160806904D01*
X-209304142Y160759285D01*
X-209256523Y160759285D01*
X-209161285Y160806904D01*
X-209113666Y160854523D01*
X-209066047Y160949761D01*
X-209066047Y161140238D01*
X-209018428Y161235476D01*
X-208970809Y161283095D01*
X-208875571Y161330714D01*
X-208685095Y161330714D01*
X-208589857Y161283095D01*
X-208542238Y161235476D01*
X-208494619Y161140238D01*
X-208494619Y160949761D01*
X-208542238Y160854523D01*
X-208589857Y160806904D01*
X-208685095Y160759285D01*
X-208875571Y160759285D01*
X-208970809Y160806904D01*
X-209018428Y160854523D01*
X-209066047Y160949761D01*
X-218019619Y181333095D02*
X-219019619Y181333095D01*
X-219019619Y181095000D01*
X-218972000Y180952142D01*
X-218876761Y180856904D01*
X-218781523Y180809285D01*
X-218591047Y180761666D01*
X-218448190Y180761666D01*
X-218257714Y180809285D01*
X-218162476Y180856904D01*
X-218067238Y180952142D01*
X-218019619Y181095000D01*
X-218019619Y181333095D01*
X-219019619Y180428333D02*
X-219019619Y179761666D01*
X-218019619Y180190238D01*
X-225131619Y124183095D02*
X-226131619Y124183095D01*
X-226131619Y123945000D01*
X-226084000Y123802142D01*
X-225988761Y123706904D01*
X-225893523Y123659285D01*
X-225703047Y123611666D01*
X-225560190Y123611666D01*
X-225369714Y123659285D01*
X-225274476Y123706904D01*
X-225179238Y123802142D01*
X-225131619Y123945000D01*
X-225131619Y124183095D01*
X-226131619Y122754523D02*
X-226131619Y122945000D01*
X-226084000Y123040238D01*
X-226036380Y123087857D01*
X-225893523Y123183095D01*
X-225703047Y123230714D01*
X-225322095Y123230714D01*
X-225226857Y123183095D01*
X-225179238Y123135476D01*
X-225131619Y123040238D01*
X-225131619Y122849761D01*
X-225179238Y122754523D01*
X-225226857Y122706904D01*
X-225322095Y122659285D01*
X-225560190Y122659285D01*
X-225655428Y122706904D01*
X-225703047Y122754523D01*
X-225750666Y122849761D01*
X-225750666Y123040238D01*
X-225703047Y123135476D01*
X-225655428Y123183095D01*
X-225560190Y123230714D01*
X-229957619Y143233095D02*
X-230957619Y143233095D01*
X-230957619Y142995000D01*
X-230910000Y142852142D01*
X-230814761Y142756904D01*
X-230719523Y142709285D01*
X-230529047Y142661666D01*
X-230386190Y142661666D01*
X-230195714Y142709285D01*
X-230100476Y142756904D01*
X-230005238Y142852142D01*
X-229957619Y142995000D01*
X-229957619Y143233095D01*
X-230957619Y141756904D02*
X-230957619Y142233095D01*
X-230481428Y142280714D01*
X-230529047Y142233095D01*
X-230576666Y142137857D01*
X-230576666Y141899761D01*
X-230529047Y141804523D01*
X-230481428Y141756904D01*
X-230386190Y141709285D01*
X-230148095Y141709285D01*
X-230052857Y141756904D01*
X-230005238Y141804523D01*
X-229957619Y141899761D01*
X-229957619Y142137857D01*
X-230005238Y142233095D01*
X-230052857Y142280714D01*
X-234656619Y105133095D02*
X-235656619Y105133095D01*
X-235656619Y104895000D01*
X-235609000Y104752142D01*
X-235513761Y104656904D01*
X-235418523Y104609285D01*
X-235228047Y104561666D01*
X-235085190Y104561666D01*
X-234894714Y104609285D01*
X-234799476Y104656904D01*
X-234704238Y104752142D01*
X-234656619Y104895000D01*
X-234656619Y105133095D01*
X-235323285Y103704523D02*
X-234656619Y103704523D01*
X-235704238Y103942619D02*
X-234989952Y104180714D01*
X-234989952Y103561666D01*
X-232370619Y162282095D02*
X-233370619Y162282095D01*
X-233370619Y162044000D01*
X-233323000Y161901142D01*
X-233227761Y161805904D01*
X-233132523Y161758285D01*
X-232942047Y161710666D01*
X-232799190Y161710666D01*
X-232608714Y161758285D01*
X-232513476Y161805904D01*
X-232418238Y161901142D01*
X-232370619Y162044000D01*
X-232370619Y162282095D01*
X-233370619Y161377333D02*
X-233370619Y160758285D01*
X-232989666Y161091619D01*
X-232989666Y160948761D01*
X-232942047Y160853523D01*
X-232894428Y160805904D01*
X-232799190Y160758285D01*
X-232561095Y160758285D01*
X-232465857Y160805904D01*
X-232418238Y160853523D01*
X-232370619Y160948761D01*
X-232370619Y161234476D01*
X-232418238Y161329714D01*
X-232465857Y161377333D01*
X-237069619Y181333095D02*
X-238069619Y181333095D01*
X-238069619Y181095000D01*
X-238022000Y180952142D01*
X-237926761Y180856904D01*
X-237831523Y180809285D01*
X-237641047Y180761666D01*
X-237498190Y180761666D01*
X-237307714Y180809285D01*
X-237212476Y180856904D01*
X-237117238Y180952142D01*
X-237069619Y181095000D01*
X-237069619Y181333095D01*
X-237974380Y180380714D02*
X-238022000Y180333095D01*
X-238069619Y180237857D01*
X-238069619Y179999761D01*
X-238022000Y179904523D01*
X-237974380Y179856904D01*
X-237879142Y179809285D01*
X-237783904Y179809285D01*
X-237641047Y179856904D01*
X-237069619Y180428333D01*
X-237069619Y179809285D01*
X-237069619Y205463095D02*
X-238069619Y205463095D01*
X-238069619Y205225000D01*
X-238022000Y205082142D01*
X-237926761Y204986904D01*
X-237831523Y204939285D01*
X-237641047Y204891666D01*
X-237498190Y204891666D01*
X-237307714Y204939285D01*
X-237212476Y204986904D01*
X-237117238Y205082142D01*
X-237069619Y205225000D01*
X-237069619Y205463095D01*
X-237069619Y203939285D02*
X-237069619Y204510714D01*
X-237069619Y204225000D02*
X-238069619Y204225000D01*
X-237926761Y204320238D01*
X-237831523Y204415476D01*
X-237783904Y204510714D01*
X84333416Y174397607D02*
X84381035Y174349988D01*
X84523892Y174302369D01*
X84619130Y174302369D01*
X84761988Y174349988D01*
X84857226Y174445226D01*
X84904845Y174540464D01*
X84952464Y174730940D01*
X84952464Y174873797D01*
X84904845Y175064273D01*
X84857226Y175159511D01*
X84761988Y175254750D01*
X84619130Y175302369D01*
X84523892Y175302369D01*
X84381035Y175254750D01*
X84333416Y175207130D01*
X83476273Y175302369D02*
X83666750Y175302369D01*
X83761988Y175254750D01*
X83809607Y175207130D01*
X83904845Y175064273D01*
X83952464Y174873797D01*
X83952464Y174492845D01*
X83904845Y174397607D01*
X83857226Y174349988D01*
X83761988Y174302369D01*
X83571511Y174302369D01*
X83476273Y174349988D01*
X83428654Y174397607D01*
X83381035Y174492845D01*
X83381035Y174730940D01*
X83428654Y174826178D01*
X83476273Y174873797D01*
X83571511Y174921416D01*
X83761988Y174921416D01*
X83857226Y174873797D01*
X83904845Y174826178D01*
X83952464Y174730940D01*
X76715916Y202141607D02*
X76763535Y202093988D01*
X76906392Y202046369D01*
X77001630Y202046369D01*
X77144488Y202093988D01*
X77239726Y202189226D01*
X77287345Y202284464D01*
X77334964Y202474940D01*
X77334964Y202617797D01*
X77287345Y202808273D01*
X77239726Y202903511D01*
X77144488Y202998750D01*
X77001630Y203046369D01*
X76906392Y203046369D01*
X76763535Y202998750D01*
X76715916Y202951130D01*
X75811154Y203046369D02*
X76287345Y203046369D01*
X76334964Y202570178D01*
X76287345Y202617797D01*
X76192107Y202665416D01*
X75954011Y202665416D01*
X75858773Y202617797D01*
X75811154Y202570178D01*
X75763535Y202474940D01*
X75763535Y202236845D01*
X75811154Y202141607D01*
X75858773Y202093988D01*
X75954011Y202046369D01*
X76192107Y202046369D01*
X76287345Y202093988D01*
X76334964Y202141607D01*
X59891142Y188251166D02*
X59938761Y188298785D01*
X59986380Y188441642D01*
X59986380Y188536880D01*
X59938761Y188679738D01*
X59843523Y188774976D01*
X59748285Y188822595D01*
X59557809Y188870214D01*
X59414952Y188870214D01*
X59224476Y188822595D01*
X59129238Y188774976D01*
X59034000Y188679738D01*
X58986380Y188536880D01*
X58986380Y188441642D01*
X59034000Y188298785D01*
X59081619Y188251166D01*
X58986380Y187917833D02*
X58986380Y187298785D01*
X59367333Y187632119D01*
X59367333Y187489261D01*
X59414952Y187394023D01*
X59462571Y187346404D01*
X59557809Y187298785D01*
X59795904Y187298785D01*
X59891142Y187346404D01*
X59938761Y187394023D01*
X59986380Y187489261D01*
X59986380Y187774976D01*
X59938761Y187870214D01*
X59891142Y187917833D01*
X71286666Y194172357D02*
X71334285Y194124738D01*
X71477142Y194077119D01*
X71572380Y194077119D01*
X71715238Y194124738D01*
X71810476Y194219976D01*
X71858095Y194315214D01*
X71905714Y194505690D01*
X71905714Y194648547D01*
X71858095Y194839023D01*
X71810476Y194934261D01*
X71715238Y195029500D01*
X71572380Y195077119D01*
X71477142Y195077119D01*
X71334285Y195029500D01*
X71286666Y194981880D01*
X70905714Y194981880D02*
X70858095Y195029500D01*
X70762857Y195077119D01*
X70524761Y195077119D01*
X70429523Y195029500D01*
X70381904Y194981880D01*
X70334285Y194886642D01*
X70334285Y194791404D01*
X70381904Y194648547D01*
X70953333Y194077119D01*
X70334285Y194077119D01*
X74781666Y201670857D02*
X74829285Y201623238D01*
X74972142Y201575619D01*
X75067380Y201575619D01*
X75210238Y201623238D01*
X75305476Y201718476D01*
X75353095Y201813714D01*
X75400714Y202004190D01*
X75400714Y202147047D01*
X75353095Y202337523D01*
X75305476Y202432761D01*
X75210238Y202528000D01*
X75067380Y202575619D01*
X74972142Y202575619D01*
X74829285Y202528000D01*
X74781666Y202480380D01*
X73829285Y201575619D02*
X74400714Y201575619D01*
X74115000Y201575619D02*
X74115000Y202575619D01*
X74210238Y202432761D01*
X74305476Y202337523D01*
X74400714Y202289904D01*
%LPC*%
D12*
X-76206350Y96520000D03*
X-176206150Y96520000D03*
D13*
X-76206350Y111760000D03*
X-176206150Y111760000D03*
D14*
X-121126250Y104775000D03*
X-131286250Y104775000D03*
D15*
X-128706250Y108775000D03*
D12*
X-126206250Y104775000D03*
G36*
G01*
X-130767562Y106477650D02*
X-130767567Y106477655D01*
G75*
G02*
X-130853595Y108066317I751317J837345D01*
G01*
X-129543593Y109526317D01*
G75*
G02*
X-127954931Y109612345I837345J-751317D01*
G01*
X-127954931Y109612345D01*
G75*
G02*
X-127868903Y108023683I-751317J-837345D01*
G01*
X-129178905Y106563683D01*
G75*
G02*
X-130767567Y106477655I-837345J751317D01*
G01*
G37*
D15*
X-123666250Y109855000D03*
G36*
G01*
X-123782767Y108152605D02*
X-123783653Y108152666D01*
G75*
G02*
X-124828584Y109352403I77403J1122334D01*
G01*
X-124788584Y109932403D01*
G75*
G02*
X-123588847Y110977334I1122334J-77403D01*
G01*
X-123588847Y110977334D01*
G75*
G02*
X-122543916Y109777597I-77403J-1122334D01*
G01*
X-122583916Y109197597D01*
G75*
G02*
X-123783653Y108152666I-1122334J77403D01*
G01*
G37*
G36*
G01*
X-49964017Y127202605D02*
X-49964903Y127202666D01*
G75*
G02*
X-51009834Y128402403I77403J1122334D01*
G01*
X-50969834Y128982403D01*
G75*
G02*
X-49770097Y130027334I1122334J-77403D01*
G01*
X-49770097Y130027334D01*
G75*
G02*
X-48725166Y128827597I-77403J-1122334D01*
G01*
X-48765166Y128247597D01*
G75*
G02*
X-49964903Y127202666I-1122334J77403D01*
G01*
G37*
X-49847500Y128905000D03*
G36*
G01*
X-56948812Y125527650D02*
X-56948817Y125527655D01*
G75*
G02*
X-57034845Y127116317I751317J837345D01*
G01*
X-55724843Y128576317D01*
G75*
G02*
X-54136181Y128662345I837345J-751317D01*
G01*
X-54136181Y128662345D01*
G75*
G02*
X-54050153Y127073683I-751317J-837345D01*
G01*
X-55360155Y125613683D01*
G75*
G02*
X-56948817Y125527655I-837345J751317D01*
G01*
G37*
D12*
X-52387500Y123825000D03*
D15*
X-54887500Y127825000D03*
D14*
X-57467500Y123825000D03*
X-47307500Y123825000D03*
G36*
G01*
X-69014017Y127202605D02*
X-69014903Y127202666D01*
G75*
G02*
X-70059834Y128402403I77403J1122334D01*
G01*
X-70019834Y128982403D01*
G75*
G02*
X-68820097Y130027334I1122334J-77403D01*
G01*
X-68820097Y130027334D01*
G75*
G02*
X-67775166Y128827597I-77403J-1122334D01*
G01*
X-67815166Y128247597D01*
G75*
G02*
X-69014903Y127202666I-1122334J77403D01*
G01*
G37*
D15*
X-68897500Y128905000D03*
G36*
G01*
X-75998812Y125527650D02*
X-75998817Y125527655D01*
G75*
G02*
X-76084845Y127116317I751317J837345D01*
G01*
X-74774843Y128576317D01*
G75*
G02*
X-73186181Y128662345I837345J-751317D01*
G01*
X-73186181Y128662345D01*
G75*
G02*
X-73100153Y127073683I-751317J-837345D01*
G01*
X-74410155Y125613683D01*
G75*
G02*
X-75998817Y125527655I-837345J751317D01*
G01*
G37*
D12*
X-71437500Y123825000D03*
D15*
X-73937500Y127825000D03*
D14*
X-76517500Y123825000D03*
X-66357500Y123825000D03*
G36*
G01*
X-116639017Y146252605D02*
X-116639903Y146252666D01*
G75*
G02*
X-117684834Y147452403I77403J1122334D01*
G01*
X-117644834Y148032403D01*
G75*
G02*
X-116445097Y149077334I1122334J-77403D01*
G01*
X-116445097Y149077334D01*
G75*
G02*
X-115400166Y147877597I-77403J-1122334D01*
G01*
X-115440166Y147297597D01*
G75*
G02*
X-116639903Y146252666I-1122334J77403D01*
G01*
G37*
D15*
X-116522500Y147955000D03*
G36*
G01*
X-123623812Y144577650D02*
X-123623817Y144577655D01*
G75*
G02*
X-123709845Y146166317I751317J837345D01*
G01*
X-122399843Y147626317D01*
G75*
G02*
X-120811181Y147712345I837345J-751317D01*
G01*
X-120811181Y147712345D01*
G75*
G02*
X-120725153Y146123683I-751317J-837345D01*
G01*
X-122035155Y144663683D01*
G75*
G02*
X-123623817Y144577655I-837345J751317D01*
G01*
G37*
D12*
X-119062500Y142875000D03*
D15*
X-121562500Y146875000D03*
D14*
X-124142500Y142875000D03*
X-113982500Y142875000D03*
X-171132500Y142875000D03*
X-181292500Y142875000D03*
D15*
X-178712500Y146875000D03*
D12*
X-176212500Y142875000D03*
G36*
G01*
X-180773812Y144577650D02*
X-180773817Y144577655D01*
G75*
G02*
X-180859845Y146166317I751317J837345D01*
G01*
X-179549843Y147626317D01*
G75*
G02*
X-177961181Y147712345I837345J-751317D01*
G01*
X-177961181Y147712345D01*
G75*
G02*
X-177875153Y146123683I-751317J-837345D01*
G01*
X-179185155Y144663683D01*
G75*
G02*
X-180773817Y144577655I-837345J751317D01*
G01*
G37*
D15*
X-173672500Y147955000D03*
G36*
G01*
X-173789017Y146252605D02*
X-173789903Y146252666D01*
G75*
G02*
X-174834834Y147452403I77403J1122334D01*
G01*
X-174794834Y148032403D01*
G75*
G02*
X-173595097Y149077334I1122334J-77403D01*
G01*
X-173595097Y149077334D01*
G75*
G02*
X-172550166Y147877597I-77403J-1122334D01*
G01*
X-172590166Y147297597D01*
G75*
G02*
X-173789903Y146252666I-1122334J77403D01*
G01*
G37*
D14*
X-192563750Y104775000D03*
X-202723750Y104775000D03*
D15*
X-200143750Y108775000D03*
D12*
X-197643750Y104775000D03*
G36*
G01*
X-202205062Y106477650D02*
X-202205067Y106477655D01*
G75*
G02*
X-202291095Y108066317I751317J837345D01*
G01*
X-200981093Y109526317D01*
G75*
G02*
X-199392431Y109612345I837345J-751317D01*
G01*
X-199392431Y109612345D01*
G75*
G02*
X-199306403Y108023683I-751317J-837345D01*
G01*
X-200616405Y106563683D01*
G75*
G02*
X-202205067Y106477655I-837345J751317D01*
G01*
G37*
D15*
X-195103750Y109855000D03*
G36*
G01*
X-195220267Y108152605D02*
X-195221153Y108152666D01*
G75*
G02*
X-196266084Y109352403I77403J1122334D01*
G01*
X-196226084Y109932403D01*
G75*
G02*
X-195026347Y110977334I1122334J-77403D01*
G01*
X-195026347Y110977334D01*
G75*
G02*
X-193981416Y109777597I-77403J-1122334D01*
G01*
X-194021416Y109197597D01*
G75*
G02*
X-195221153Y108152666I-1122334J77403D01*
G01*
G37*
D14*
X-49688750Y104775000D03*
X-59848750Y104775000D03*
D15*
X-57268750Y108775000D03*
D12*
X-54768750Y104775000D03*
G36*
G01*
X-59330062Y106477650D02*
X-59330067Y106477655D01*
G75*
G02*
X-59416095Y108066317I751317J837345D01*
G01*
X-58106093Y109526317D01*
G75*
G02*
X-56517431Y109612345I837345J-751317D01*
G01*
X-56517431Y109612345D01*
G75*
G02*
X-56431403Y108023683I-751317J-837345D01*
G01*
X-57741405Y106563683D01*
G75*
G02*
X-59330067Y106477655I-837345J751317D01*
G01*
G37*
D15*
X-52228750Y109855000D03*
G36*
G01*
X-52345267Y108152605D02*
X-52346153Y108152666D01*
G75*
G02*
X-53391084Y109352403I77403J1122334D01*
G01*
X-53351084Y109932403D01*
G75*
G02*
X-52151347Y110977334I1122334J-77403D01*
G01*
X-52151347Y110977334D01*
G75*
G02*
X-51106416Y109777597I-77403J-1122334D01*
G01*
X-51146416Y109197597D01*
G75*
G02*
X-52346153Y108152666I-1122334J77403D01*
G01*
G37*
D12*
X21463000Y172720000D03*
X-2413000Y172720000D03*
D13*
X21463000Y187960000D03*
X-2413000Y187960000D03*
D14*
X14605000Y180975000D03*
X4445000Y180975000D03*
D15*
X7025000Y184975000D03*
D12*
X9525000Y180975000D03*
G36*
G01*
X4963688Y182677650D02*
X4963683Y182677655D01*
G75*
G02*
X4877655Y184266317I751317J837345D01*
G01*
X6187657Y185726317D01*
G75*
G02*
X7776319Y185812345I837345J-751317D01*
G01*
X7776319Y185812345D01*
G75*
G02*
X7862347Y184223683I-751317J-837345D01*
G01*
X6552345Y182763683D01*
G75*
G02*
X4963683Y182677655I-837345J751317D01*
G01*
G37*
D15*
X12065000Y186055000D03*
G36*
G01*
X11948483Y184352605D02*
X11947597Y184352666D01*
G75*
G02*
X10902666Y185552403I77403J1122334D01*
G01*
X10942666Y186132403D01*
G75*
G02*
X12142403Y187177334I1122334J-77403D01*
G01*
X12142403Y187177334D01*
G75*
G02*
X13187334Y185977597I-77403J-1122334D01*
G01*
X13147334Y185397597D01*
G75*
G02*
X11947597Y184352666I-1122334J77403D01*
G01*
G37*
D14*
X-235426250Y142875000D03*
X-245586250Y142875000D03*
D15*
X-243006250Y146875000D03*
D12*
X-240506250Y142875000D03*
G36*
G01*
X-245067562Y144577650D02*
X-245067567Y144577655D01*
G75*
G02*
X-245153595Y146166317I751317J837345D01*
G01*
X-243843593Y147626317D01*
G75*
G02*
X-242254931Y147712345I837345J-751317D01*
G01*
X-242254931Y147712345D01*
G75*
G02*
X-242168903Y146123683I-751317J-837345D01*
G01*
X-243478905Y144663683D01*
G75*
G02*
X-245067567Y144577655I-837345J751317D01*
G01*
G37*
D15*
X-237966250Y147955000D03*
G36*
G01*
X-238082767Y146252605D02*
X-238083653Y146252666D01*
G75*
G02*
X-239128584Y147452403I77403J1122334D01*
G01*
X-239088584Y148032403D01*
G75*
G02*
X-237888847Y149077334I1122334J-77403D01*
G01*
X-237888847Y149077334D01*
G75*
G02*
X-236843916Y147877597I-77403J-1122334D01*
G01*
X-236883916Y147297597D01*
G75*
G02*
X-238083653Y146252666I-1122334J77403D01*
G01*
G37*
D14*
X-240188750Y104775000D03*
X-250348750Y104775000D03*
D15*
X-247768750Y108775000D03*
D12*
X-245268750Y104775000D03*
G36*
G01*
X-249830062Y106477650D02*
X-249830067Y106477655D01*
G75*
G02*
X-249916095Y108066317I751317J837345D01*
G01*
X-248606093Y109526317D01*
G75*
G02*
X-247017431Y109612345I837345J-751317D01*
G01*
X-247017431Y109612345D01*
G75*
G02*
X-246931403Y108023683I-751317J-837345D01*
G01*
X-248241405Y106563683D01*
G75*
G02*
X-249830067Y106477655I-837345J751317D01*
G01*
G37*
D15*
X-242728750Y109855000D03*
G36*
G01*
X-242845267Y108152605D02*
X-242846153Y108152666D01*
G75*
G02*
X-243891084Y109352403I77403J1122334D01*
G01*
X-243851084Y109932403D01*
G75*
G02*
X-242651347Y110977334I1122334J-77403D01*
G01*
X-242651347Y110977334D01*
G75*
G02*
X-241606416Y109777597I-77403J-1122334D01*
G01*
X-241646416Y109197597D01*
G75*
G02*
X-242846153Y108152666I-1122334J77403D01*
G01*
G37*
D14*
X317500Y104775000D03*
X-9842500Y104775000D03*
D15*
X-7262500Y108775000D03*
D12*
X-4762500Y104775000D03*
G36*
G01*
X-9323812Y106477650D02*
X-9323817Y106477655D01*
G75*
G02*
X-9409845Y108066317I751317J837345D01*
G01*
X-8099843Y109526317D01*
G75*
G02*
X-6511181Y109612345I837345J-751317D01*
G01*
X-6511181Y109612345D01*
G75*
G02*
X-6425153Y108023683I-751317J-837345D01*
G01*
X-7735155Y106563683D01*
G75*
G02*
X-9323817Y106477655I-837345J751317D01*
G01*
G37*
D15*
X-2222500Y109855000D03*
G36*
G01*
X-2339017Y108152605D02*
X-2339903Y108152666D01*
G75*
G02*
X-3384834Y109352403I77403J1122334D01*
G01*
X-3344834Y109932403D01*
G75*
G02*
X-2145097Y110977334I1122334J-77403D01*
G01*
X-2145097Y110977334D01*
G75*
G02*
X-1100166Y109777597I-77403J-1122334D01*
G01*
X-1140166Y109197597D01*
G75*
G02*
X-2339903Y108152666I-1122334J77403D01*
G01*
G37*
D12*
X19081750Y134620000D03*
X-4794250Y134620000D03*
D13*
X19081750Y149860000D03*
X-4794250Y149860000D03*
D14*
X12223750Y142875000D03*
X2063750Y142875000D03*
D15*
X4643750Y146875000D03*
D12*
X7143750Y142875000D03*
G36*
G01*
X2582438Y144577650D02*
X2582433Y144577655D01*
G75*
G02*
X2496405Y146166317I751317J837345D01*
G01*
X3806407Y147626317D01*
G75*
G02*
X5395069Y147712345I837345J-751317D01*
G01*
X5395069Y147712345D01*
G75*
G02*
X5481097Y146123683I-751317J-837345D01*
G01*
X4171095Y144663683D01*
G75*
G02*
X2582433Y144577655I-837345J751317D01*
G01*
G37*
D15*
X9683750Y147955000D03*
G36*
G01*
X9567233Y146252605D02*
X9566347Y146252666D01*
G75*
G02*
X8521416Y147452403I77403J1122334D01*
G01*
X8561416Y148032403D01*
G75*
G02*
X9761153Y149077334I1122334J-77403D01*
G01*
X9761153Y149077334D01*
G75*
G02*
X10806084Y147877597I-77403J-1122334D01*
G01*
X10766084Y147297597D01*
G75*
G02*
X9566347Y146252666I-1122334J77403D01*
G01*
G37*
D14*
X-25876250Y104775000D03*
X-36036250Y104775000D03*
D15*
X-33456250Y108775000D03*
D12*
X-30956250Y104775000D03*
G36*
G01*
X-35517562Y106477650D02*
X-35517567Y106477655D01*
G75*
G02*
X-35603595Y108066317I751317J837345D01*
G01*
X-34293593Y109526317D01*
G75*
G02*
X-32704931Y109612345I837345J-751317D01*
G01*
X-32704931Y109612345D01*
G75*
G02*
X-32618903Y108023683I-751317J-837345D01*
G01*
X-33928905Y106563683D01*
G75*
G02*
X-35517567Y106477655I-837345J751317D01*
G01*
G37*
D15*
X-28416250Y109855000D03*
G36*
G01*
X-28532767Y108152605D02*
X-28533653Y108152666D01*
G75*
G02*
X-29578584Y109352403I77403J1122334D01*
G01*
X-29538584Y109932403D01*
G75*
G02*
X-28338847Y110977334I1122334J-77403D01*
G01*
X-28338847Y110977334D01*
G75*
G02*
X-27293916Y109777597I-77403J-1122334D01*
G01*
X-27333916Y109197597D01*
G75*
G02*
X-28533653Y108152666I-1122334J77403D01*
G01*
G37*
D12*
X-223805750Y115570000D03*
X-247681750Y115570000D03*
D13*
X-223805750Y130810000D03*
X-247681750Y130810000D03*
D14*
X-230663750Y123825000D03*
X-240823750Y123825000D03*
D15*
X-238243750Y127825000D03*
D12*
X-235743750Y123825000D03*
G36*
G01*
X-240305062Y125527650D02*
X-240305067Y125527655D01*
G75*
G02*
X-240391095Y127116317I751317J837345D01*
G01*
X-239081093Y128576317D01*
G75*
G02*
X-237492431Y128662345I837345J-751317D01*
G01*
X-237492431Y128662345D01*
G75*
G02*
X-237406403Y127073683I-751317J-837345D01*
G01*
X-238716405Y125613683D01*
G75*
G02*
X-240305067Y125527655I-837345J751317D01*
G01*
G37*
D15*
X-233203750Y128905000D03*
G36*
G01*
X-233320267Y127202605D02*
X-233321153Y127202666D01*
G75*
G02*
X-234366084Y128402403I77403J1122334D01*
G01*
X-234326084Y128982403D01*
G75*
G02*
X-233126347Y130027334I1122334J-77403D01*
G01*
X-233126347Y130027334D01*
G75*
G02*
X-232081416Y128827597I-77403J-1122334D01*
G01*
X-232121416Y128247597D01*
G75*
G02*
X-233321153Y127202666I-1122334J77403D01*
G01*
G37*
D12*
X14319250Y115570000D03*
X-9556750Y115570000D03*
D13*
X14319250Y130810000D03*
X-9556750Y130810000D03*
D14*
X7461250Y123825000D03*
X-2698750Y123825000D03*
D15*
X-118750Y127825000D03*
D12*
X2381250Y123825000D03*
G36*
G01*
X-2180062Y125527650D02*
X-2180067Y125527655D01*
G75*
G02*
X-2266095Y127116317I751317J837345D01*
G01*
X-956093Y128576317D01*
G75*
G02*
X632569Y128662345I837345J-751317D01*
G01*
X632569Y128662345D01*
G75*
G02*
X718597Y127073683I-751317J-837345D01*
G01*
X-591405Y125613683D01*
G75*
G02*
X-2180067Y125527655I-837345J751317D01*
G01*
G37*
D15*
X4921250Y128905000D03*
G36*
G01*
X4804733Y127202605D02*
X4803847Y127202666D01*
G75*
G02*
X3758916Y128402403I77403J1122334D01*
G01*
X3798916Y128982403D01*
G75*
G02*
X4998653Y130027334I1122334J-77403D01*
G01*
X4998653Y130027334D01*
G75*
G02*
X6043584Y128827597I-77403J-1122334D01*
G01*
X6003584Y128247597D01*
G75*
G02*
X4803847Y127202666I-1122334J77403D01*
G01*
G37*
D14*
X-237807500Y161925000D03*
X-247967500Y161925000D03*
D15*
X-245387500Y165925000D03*
D12*
X-242887500Y161925000D03*
G36*
G01*
X-247448812Y163627650D02*
X-247448817Y163627655D01*
G75*
G02*
X-247534845Y165216317I751317J837345D01*
G01*
X-246224843Y166676317D01*
G75*
G02*
X-244636181Y166762345I837345J-751317D01*
G01*
X-244636181Y166762345D01*
G75*
G02*
X-244550153Y165173683I-751317J-837345D01*
G01*
X-245860155Y163713683D01*
G75*
G02*
X-247448817Y163627655I-837345J751317D01*
G01*
G37*
D15*
X-240347500Y167005000D03*
G36*
G01*
X-240464017Y165302605D02*
X-240464903Y165302666D01*
G75*
G02*
X-241509834Y166502403I77403J1122334D01*
G01*
X-241469834Y167082403D01*
G75*
G02*
X-240270097Y168127334I1122334J-77403D01*
G01*
X-240270097Y168127334D01*
G75*
G02*
X-239225166Y166927597I-77403J-1122334D01*
G01*
X-239265166Y166347597D01*
G75*
G02*
X-240464903Y165302666I-1122334J77403D01*
G01*
G37*
D14*
X-216376250Y104775000D03*
X-226536250Y104775000D03*
D15*
X-223956250Y108775000D03*
D12*
X-221456250Y104775000D03*
G36*
G01*
X-226017562Y106477650D02*
X-226017567Y106477655D01*
G75*
G02*
X-226103595Y108066317I751317J837345D01*
G01*
X-224793593Y109526317D01*
G75*
G02*
X-223204931Y109612345I837345J-751317D01*
G01*
X-223204931Y109612345D01*
G75*
G02*
X-223118903Y108023683I-751317J-837345D01*
G01*
X-224428905Y106563683D01*
G75*
G02*
X-226017567Y106477655I-837345J751317D01*
G01*
G37*
D15*
X-218916250Y109855000D03*
G36*
G01*
X-219032767Y108152605D02*
X-219033653Y108152666D01*
G75*
G02*
X-220078584Y109352403I77403J1122334D01*
G01*
X-220038584Y109932403D01*
G75*
G02*
X-218838847Y110977334I1122334J-77403D01*
G01*
X-218838847Y110977334D01*
G75*
G02*
X-217793916Y109777597I-77403J-1122334D01*
G01*
X-217833916Y109197597D01*
G75*
G02*
X-219033653Y108152666I-1122334J77403D01*
G01*
G37*
D14*
X19367500Y161925000D03*
X9207500Y161925000D03*
D15*
X11787500Y165925000D03*
D12*
X14287500Y161925000D03*
G36*
G01*
X9726188Y163627650D02*
X9726183Y163627655D01*
G75*
G02*
X9640155Y165216317I751317J837345D01*
G01*
X10950157Y166676317D01*
G75*
G02*
X12538819Y166762345I837345J-751317D01*
G01*
X12538819Y166762345D01*
G75*
G02*
X12624847Y165173683I-751317J-837345D01*
G01*
X11314845Y163713683D01*
G75*
G02*
X9726183Y163627655I-837345J751317D01*
G01*
G37*
D15*
X16827500Y167005000D03*
G36*
G01*
X16710983Y165302605D02*
X16710097Y165302666D01*
G75*
G02*
X15665166Y166502403I77403J1122334D01*
G01*
X15705166Y167082403D01*
G75*
G02*
X16904903Y168127334I1122334J-77403D01*
G01*
X16904903Y168127334D01*
G75*
G02*
X17949834Y166927597I-77403J-1122334D01*
G01*
X17909834Y166347597D01*
G75*
G02*
X16710097Y165302666I-1122334J77403D01*
G01*
G37*
D14*
X47942500Y119062500D03*
X37782500Y119062500D03*
D15*
X40362500Y123062500D03*
D12*
X42862500Y119062500D03*
G36*
G01*
X38301188Y120765150D02*
X38301183Y120765155D01*
G75*
G02*
X38215155Y122353817I751317J837345D01*
G01*
X39525157Y123813817D01*
G75*
G02*
X41113819Y123899845I837345J-751317D01*
G01*
X41113819Y123899845D01*
G75*
G02*
X41199847Y122311183I-751317J-837345D01*
G01*
X39889845Y120851183D01*
G75*
G02*
X38301183Y120765155I-837345J751317D01*
G01*
G37*
D15*
X45402500Y124142500D03*
G36*
G01*
X45285983Y122440105D02*
X45285097Y122440166D01*
G75*
G02*
X44240166Y123639903I77403J1122334D01*
G01*
X44280166Y124219903D01*
G75*
G02*
X45479903Y125264834I1122334J-77403D01*
G01*
X45479903Y125264834D01*
G75*
G02*
X46524834Y124065097I-77403J-1122334D01*
G01*
X46484834Y123485097D01*
G75*
G02*
X45285097Y122440166I-1122334J77403D01*
G01*
G37*
D16*
X83294750Y181174750D03*
X83294750Y178974750D03*
X84994750Y178974750D03*
X84994750Y181174750D03*
D17*
X65406250Y212462500D03*
X72706250Y212462500D03*
X72706250Y207962500D03*
X65406250Y207962500D03*
D18*
X67456250Y207962500D03*
X68256250Y207962500D03*
X69056250Y207962500D03*
X69856250Y207962500D03*
X70656250Y207962500D03*
D19*
X64531250Y187768750D03*
X64531250Y186968750D03*
X64531250Y186168750D03*
X64531250Y185368750D03*
X64531250Y184568750D03*
X64531250Y183768750D03*
X64531250Y182968750D03*
X64531250Y182168750D03*
X64531250Y181368750D03*
X64531250Y180568750D03*
X64531250Y179768750D03*
X64531250Y178968750D03*
X64531250Y178168750D03*
X64531250Y177368750D03*
X64531250Y176568750D03*
X64531250Y175768750D03*
D20*
X66231250Y174068750D03*
X67031250Y174068750D03*
X67831250Y174068750D03*
X68631250Y174068750D03*
X69431250Y174068750D03*
X70231250Y174068750D03*
X71031250Y174068750D03*
X71831250Y174068750D03*
X72631250Y174068750D03*
X73431250Y174068750D03*
X74231250Y174068750D03*
X75031250Y174068750D03*
X75831250Y174068750D03*
X76631250Y174068750D03*
X77431250Y174068750D03*
X78231250Y174068750D03*
D19*
X79931250Y175768750D03*
X79931250Y176568750D03*
X79931250Y177368750D03*
X79931250Y178168750D03*
X79931250Y178968750D03*
X79931250Y179768750D03*
X79931250Y180568750D03*
X79931250Y181368750D03*
X79931250Y182168750D03*
X79931250Y182968750D03*
X79931250Y183768750D03*
X79931250Y184568750D03*
X79931250Y185368750D03*
X79931250Y186168750D03*
X79931250Y186968750D03*
X79931250Y187768750D03*
D20*
X78231250Y189468750D03*
X77431250Y189468750D03*
X76631250Y189468750D03*
X75831250Y189468750D03*
X75031250Y189468750D03*
X74231250Y189468750D03*
X73431250Y189468750D03*
X72631250Y189468750D03*
X71831250Y189468750D03*
X71031250Y189468750D03*
X70231250Y189468750D03*
X69431250Y189468750D03*
X68631250Y189468750D03*
X67831250Y189468750D03*
X67031250Y189468750D03*
X66231250Y189468750D03*
D21*
X77143750Y211662500D03*
X83343750Y207962500D03*
X77143750Y207962500D03*
X83343750Y211662500D03*
G36*
G01*
X84206501Y191892500D02*
X83306499Y191892500D01*
G75*
G02*
X83056500Y192142499I0J249999D01*
G01*
X83056500Y192667501D01*
G75*
G02*
X83306499Y192917500I249999J0D01*
G01*
X84206501Y192917500D01*
G75*
G02*
X84456500Y192667501I0J-249999D01*
G01*
X84456500Y192142499D01*
G75*
G02*
X84206501Y191892500I-249999J0D01*
G01*
G37*
G36*
G01*
X84206501Y190067500D02*
X83306499Y190067500D01*
G75*
G02*
X83056500Y190317499I0J249999D01*
G01*
X83056500Y190842501D01*
G75*
G02*
X83306499Y191092500I249999J0D01*
G01*
X84206501Y191092500D01*
G75*
G02*
X84456500Y190842501I0J-249999D01*
G01*
X84456500Y190317499D01*
G75*
G02*
X84206501Y190067500I-249999J0D01*
G01*
G37*
G36*
G01*
X68077501Y201989000D02*
X67177499Y201989000D01*
G75*
G02*
X66927500Y202238999I0J249999D01*
G01*
X66927500Y202764001D01*
G75*
G02*
X67177499Y203014000I249999J0D01*
G01*
X68077501Y203014000D01*
G75*
G02*
X68327500Y202764001I0J-249999D01*
G01*
X68327500Y202238999D01*
G75*
G02*
X68077501Y201989000I-249999J0D01*
G01*
G37*
G36*
G01*
X68077501Y200164000D02*
X67177499Y200164000D01*
G75*
G02*
X66927500Y200413999I0J249999D01*
G01*
X66927500Y200939001D01*
G75*
G02*
X67177499Y201189000I249999J0D01*
G01*
X68077501Y201189000D01*
G75*
G02*
X68327500Y200939001I0J-249999D01*
G01*
X68327500Y200413999D01*
G75*
G02*
X68077501Y200164000I-249999J0D01*
G01*
G37*
G36*
G01*
X70109501Y201989000D02*
X69209499Y201989000D01*
G75*
G02*
X68959500Y202238999I0J249999D01*
G01*
X68959500Y202764001D01*
G75*
G02*
X69209499Y203014000I249999J0D01*
G01*
X70109501Y203014000D01*
G75*
G02*
X70359500Y202764001I0J-249999D01*
G01*
X70359500Y202238999D01*
G75*
G02*
X70109501Y201989000I-249999J0D01*
G01*
G37*
G36*
G01*
X70109501Y200164000D02*
X69209499Y200164000D01*
G75*
G02*
X68959500Y200413999I0J249999D01*
G01*
X68959500Y200939001D01*
G75*
G02*
X69209499Y201189000I249999J0D01*
G01*
X70109501Y201189000D01*
G75*
G02*
X70359500Y200939001I0J-249999D01*
G01*
X70359500Y200413999D01*
G75*
G02*
X70109501Y200164000I-249999J0D01*
G01*
G37*
G36*
G01*
X69780999Y169121500D02*
X70681001Y169121500D01*
G75*
G02*
X70931000Y168871501I0J-249999D01*
G01*
X70931000Y168346499D01*
G75*
G02*
X70681001Y168096500I-249999J0D01*
G01*
X69780999Y168096500D01*
G75*
G02*
X69531000Y168346499I0J249999D01*
G01*
X69531000Y168871501D01*
G75*
G02*
X69780999Y169121500I249999J0D01*
G01*
G37*
G36*
G01*
X69780999Y170946500D02*
X70681001Y170946500D01*
G75*
G02*
X70931000Y170696501I0J-249999D01*
G01*
X70931000Y170171499D01*
G75*
G02*
X70681001Y169921500I-249999J0D01*
G01*
X69780999Y169921500D01*
G75*
G02*
X69531000Y170171499I0J249999D01*
G01*
X69531000Y170696501D01*
G75*
G02*
X69780999Y170946500I249999J0D01*
G01*
G37*
D14*
X-242570000Y180975000D03*
X-252730000Y180975000D03*
D15*
X-250150000Y184975000D03*
D12*
X-247650000Y180975000D03*
G36*
G01*
X-252211312Y182677650D02*
X-252211317Y182677655D01*
G75*
G02*
X-252297345Y184266317I751317J837345D01*
G01*
X-250987343Y185726317D01*
G75*
G02*
X-249398681Y185812345I837345J-751317D01*
G01*
X-249398681Y185812345D01*
G75*
G02*
X-249312653Y184223683I-751317J-837345D01*
G01*
X-250622655Y182763683D01*
G75*
G02*
X-252211317Y182677655I-837345J751317D01*
G01*
G37*
D15*
X-245110000Y186055000D03*
G36*
G01*
X-245226517Y184352605D02*
X-245227403Y184352666D01*
G75*
G02*
X-246272334Y185552403I77403J1122334D01*
G01*
X-246232334Y186132403D01*
G75*
G02*
X-245032597Y187177334I1122334J-77403D01*
G01*
X-245032597Y187177334D01*
G75*
G02*
X-243987666Y185977597I-77403J-1122334D01*
G01*
X-244027666Y185397597D01*
G75*
G02*
X-245227403Y184352666I-1122334J77403D01*
G01*
G37*
G36*
G01*
X-202364017Y127202605D02*
X-202364903Y127202666D01*
G75*
G02*
X-203409834Y128402403I77403J1122334D01*
G01*
X-203369834Y128982403D01*
G75*
G02*
X-202170097Y130027334I1122334J-77403D01*
G01*
X-202170097Y130027334D01*
G75*
G02*
X-201125166Y128827597I-77403J-1122334D01*
G01*
X-201165166Y128247597D01*
G75*
G02*
X-202364903Y127202666I-1122334J77403D01*
G01*
G37*
X-202247500Y128905000D03*
G36*
G01*
X-209348812Y125527650D02*
X-209348817Y125527655D01*
G75*
G02*
X-209434845Y127116317I751317J837345D01*
G01*
X-208124843Y128576317D01*
G75*
G02*
X-206536181Y128662345I837345J-751317D01*
G01*
X-206536181Y128662345D01*
G75*
G02*
X-206450153Y127073683I-751317J-837345D01*
G01*
X-207760155Y125613683D01*
G75*
G02*
X-209348817Y125527655I-837345J751317D01*
G01*
G37*
D12*
X-204787500Y123825000D03*
D15*
X-207287500Y127825000D03*
D14*
X-209867500Y123825000D03*
X-199707500Y123825000D03*
X-118745000Y161925000D03*
X-128905000Y161925000D03*
D15*
X-126325000Y165925000D03*
D12*
X-123825000Y161925000D03*
G36*
G01*
X-128386312Y163627650D02*
X-128386317Y163627655D01*
G75*
G02*
X-128472345Y165216317I751317J837345D01*
G01*
X-127162343Y166676317D01*
G75*
G02*
X-125573681Y166762345I837345J-751317D01*
G01*
X-125573681Y166762345D01*
G75*
G02*
X-125487653Y165173683I-751317J-837345D01*
G01*
X-126797655Y163713683D01*
G75*
G02*
X-128386317Y163627655I-837345J751317D01*
G01*
G37*
D15*
X-121285000Y167005000D03*
G36*
G01*
X-121401517Y165302605D02*
X-121402403Y165302666D01*
G75*
G02*
X-122447334Y166502403I77403J1122334D01*
G01*
X-122407334Y167082403D01*
G75*
G02*
X-121207597Y168127334I1122334J-77403D01*
G01*
X-121207597Y168127334D01*
G75*
G02*
X-120162666Y166927597I-77403J-1122334D01*
G01*
X-120202666Y166347597D01*
G75*
G02*
X-121402403Y165302666I-1122334J77403D01*
G01*
G37*
G36*
G01*
X-183314017Y127202605D02*
X-183314903Y127202666D01*
G75*
G02*
X-184359834Y128402403I77403J1122334D01*
G01*
X-184319834Y128982403D01*
G75*
G02*
X-183120097Y130027334I1122334J-77403D01*
G01*
X-183120097Y130027334D01*
G75*
G02*
X-182075166Y128827597I-77403J-1122334D01*
G01*
X-182115166Y128247597D01*
G75*
G02*
X-183314903Y127202666I-1122334J77403D01*
G01*
G37*
X-183197500Y128905000D03*
G36*
G01*
X-190298812Y125527650D02*
X-190298817Y125527655D01*
G75*
G02*
X-190384845Y127116317I751317J837345D01*
G01*
X-189074843Y128576317D01*
G75*
G02*
X-187486181Y128662345I837345J-751317D01*
G01*
X-187486181Y128662345D01*
G75*
G02*
X-187400153Y127073683I-751317J-837345D01*
G01*
X-188710155Y125613683D01*
G75*
G02*
X-190298817Y125527655I-837345J751317D01*
G01*
G37*
D12*
X-185737500Y123825000D03*
D15*
X-188237500Y127825000D03*
D14*
X-190817500Y123825000D03*
X-180657500Y123825000D03*
X-194945000Y161925000D03*
X-205105000Y161925000D03*
D15*
X-202525000Y165925000D03*
D12*
X-200025000Y161925000D03*
G36*
G01*
X-204586312Y163627650D02*
X-204586317Y163627655D01*
G75*
G02*
X-204672345Y165216317I751317J837345D01*
G01*
X-203362343Y166676317D01*
G75*
G02*
X-201773681Y166762345I837345J-751317D01*
G01*
X-201773681Y166762345D01*
G75*
G02*
X-201687653Y165173683I-751317J-837345D01*
G01*
X-202997655Y163713683D01*
G75*
G02*
X-204586317Y163627655I-837345J751317D01*
G01*
G37*
D15*
X-197485000Y167005000D03*
G36*
G01*
X-197601517Y165302605D02*
X-197602403Y165302666D01*
G75*
G02*
X-198647334Y166502403I77403J1122334D01*
G01*
X-198607334Y167082403D01*
G75*
G02*
X-197407597Y168127334I1122334J-77403D01*
G01*
X-197407597Y168127334D01*
G75*
G02*
X-196362666Y166927597I-77403J-1122334D01*
G01*
X-196402666Y166347597D01*
G75*
G02*
X-197602403Y165302666I-1122334J77403D01*
G01*
G37*
G36*
G01*
X-145214017Y127202605D02*
X-145214903Y127202666D01*
G75*
G02*
X-146259834Y128402403I77403J1122334D01*
G01*
X-146219834Y128982403D01*
G75*
G02*
X-145020097Y130027334I1122334J-77403D01*
G01*
X-145020097Y130027334D01*
G75*
G02*
X-143975166Y128827597I-77403J-1122334D01*
G01*
X-144015166Y128247597D01*
G75*
G02*
X-145214903Y127202666I-1122334J77403D01*
G01*
G37*
X-145097500Y128905000D03*
G36*
G01*
X-152198812Y125527650D02*
X-152198817Y125527655D01*
G75*
G02*
X-152284845Y127116317I751317J837345D01*
G01*
X-150974843Y128576317D01*
G75*
G02*
X-149386181Y128662345I837345J-751317D01*
G01*
X-149386181Y128662345D01*
G75*
G02*
X-149300153Y127073683I-751317J-837345D01*
G01*
X-150610155Y125613683D01*
G75*
G02*
X-152198817Y125527655I-837345J751317D01*
G01*
G37*
D12*
X-147637500Y123825000D03*
D15*
X-150137500Y127825000D03*
D14*
X-152717500Y123825000D03*
X-142557500Y123825000D03*
X-99695000Y161925000D03*
X-109855000Y161925000D03*
D15*
X-107275000Y165925000D03*
D12*
X-104775000Y161925000D03*
G36*
G01*
X-109336312Y163627650D02*
X-109336317Y163627655D01*
G75*
G02*
X-109422345Y165216317I751317J837345D01*
G01*
X-108112343Y166676317D01*
G75*
G02*
X-106523681Y166762345I837345J-751317D01*
G01*
X-106523681Y166762345D01*
G75*
G02*
X-106437653Y165173683I-751317J-837345D01*
G01*
X-107747655Y163713683D01*
G75*
G02*
X-109336317Y163627655I-837345J751317D01*
G01*
G37*
D15*
X-102235000Y167005000D03*
G36*
G01*
X-102351517Y165302605D02*
X-102352403Y165302666D01*
G75*
G02*
X-103397334Y166502403I77403J1122334D01*
G01*
X-103357334Y167082403D01*
G75*
G02*
X-102157597Y168127334I1122334J-77403D01*
G01*
X-102157597Y168127334D01*
G75*
G02*
X-101112666Y166927597I-77403J-1122334D01*
G01*
X-101152666Y166347597D01*
G75*
G02*
X-102352403Y165302666I-1122334J77403D01*
G01*
G37*
D14*
X-137795000Y161925000D03*
X-147955000Y161925000D03*
D15*
X-145375000Y165925000D03*
D12*
X-142875000Y161925000D03*
G36*
G01*
X-147436312Y163627650D02*
X-147436317Y163627655D01*
G75*
G02*
X-147522345Y165216317I751317J837345D01*
G01*
X-146212343Y166676317D01*
G75*
G02*
X-144623681Y166762345I837345J-751317D01*
G01*
X-144623681Y166762345D01*
G75*
G02*
X-144537653Y165173683I-751317J-837345D01*
G01*
X-145847655Y163713683D01*
G75*
G02*
X-147436317Y163627655I-837345J751317D01*
G01*
G37*
D15*
X-140335000Y167005000D03*
G36*
G01*
X-140451517Y165302605D02*
X-140452403Y165302666D01*
G75*
G02*
X-141497334Y166502403I77403J1122334D01*
G01*
X-141457334Y167082403D01*
G75*
G02*
X-140257597Y168127334I1122334J-77403D01*
G01*
X-140257597Y168127334D01*
G75*
G02*
X-139212666Y166927597I-77403J-1122334D01*
G01*
X-139252666Y166347597D01*
G75*
G02*
X-140452403Y165302666I-1122334J77403D01*
G01*
G37*
D14*
X-190182500Y142875000D03*
X-200342500Y142875000D03*
D15*
X-197762500Y146875000D03*
D12*
X-195262500Y142875000D03*
G36*
G01*
X-199823812Y144577650D02*
X-199823817Y144577655D01*
G75*
G02*
X-199909845Y146166317I751317J837345D01*
G01*
X-198599843Y147626317D01*
G75*
G02*
X-197011181Y147712345I837345J-751317D01*
G01*
X-197011181Y147712345D01*
G75*
G02*
X-196925153Y146123683I-751317J-837345D01*
G01*
X-198235155Y144663683D01*
G75*
G02*
X-199823817Y144577655I-837345J751317D01*
G01*
G37*
D15*
X-192722500Y147955000D03*
G36*
G01*
X-192839017Y146252605D02*
X-192839903Y146252666D01*
G75*
G02*
X-193884834Y147452403I77403J1122334D01*
G01*
X-193844834Y148032403D01*
G75*
G02*
X-192645097Y149077334I1122334J-77403D01*
G01*
X-192645097Y149077334D01*
G75*
G02*
X-191600166Y147877597I-77403J-1122334D01*
G01*
X-191640166Y147297597D01*
G75*
G02*
X-192839903Y146252666I-1122334J77403D01*
G01*
G37*
D14*
X-156845000Y161925000D03*
X-167005000Y161925000D03*
D15*
X-164425000Y165925000D03*
D12*
X-161925000Y161925000D03*
G36*
G01*
X-166486312Y163627650D02*
X-166486317Y163627655D01*
G75*
G02*
X-166572345Y165216317I751317J837345D01*
G01*
X-165262343Y166676317D01*
G75*
G02*
X-163673681Y166762345I837345J-751317D01*
G01*
X-163673681Y166762345D01*
G75*
G02*
X-163587653Y165173683I-751317J-837345D01*
G01*
X-164897655Y163713683D01*
G75*
G02*
X-166486317Y163627655I-837345J751317D01*
G01*
G37*
D15*
X-159385000Y167005000D03*
G36*
G01*
X-159501517Y165302605D02*
X-159502403Y165302666D01*
G75*
G02*
X-160547334Y166502403I77403J1122334D01*
G01*
X-160507334Y167082403D01*
G75*
G02*
X-159307597Y168127334I1122334J-77403D01*
G01*
X-159307597Y168127334D01*
G75*
G02*
X-158262666Y166927597I-77403J-1122334D01*
G01*
X-158302666Y166347597D01*
G75*
G02*
X-159502403Y165302666I-1122334J77403D01*
G01*
G37*
D14*
X-213995000Y161925000D03*
X-224155000Y161925000D03*
D15*
X-221575000Y165925000D03*
D12*
X-219075000Y161925000D03*
G36*
G01*
X-223636312Y163627650D02*
X-223636317Y163627655D01*
G75*
G02*
X-223722345Y165216317I751317J837345D01*
G01*
X-222412343Y166676317D01*
G75*
G02*
X-220823681Y166762345I837345J-751317D01*
G01*
X-220823681Y166762345D01*
G75*
G02*
X-220737653Y165173683I-751317J-837345D01*
G01*
X-222047655Y163713683D01*
G75*
G02*
X-223636317Y163627655I-837345J751317D01*
G01*
G37*
D15*
X-216535000Y167005000D03*
G36*
G01*
X-216651517Y165302605D02*
X-216652403Y165302666D01*
G75*
G02*
X-217697334Y166502403I77403J1122334D01*
G01*
X-217657334Y167082403D01*
G75*
G02*
X-216457597Y168127334I1122334J-77403D01*
G01*
X-216457597Y168127334D01*
G75*
G02*
X-215412666Y166927597I-77403J-1122334D01*
G01*
X-215452666Y166347597D01*
G75*
G02*
X-216652403Y165302666I-1122334J77403D01*
G01*
G37*
D14*
X-42545000Y161925000D03*
X-52705000Y161925000D03*
D15*
X-50125000Y165925000D03*
D12*
X-47625000Y161925000D03*
G36*
G01*
X-52186312Y163627650D02*
X-52186317Y163627655D01*
G75*
G02*
X-52272345Y165216317I751317J837345D01*
G01*
X-50962343Y166676317D01*
G75*
G02*
X-49373681Y166762345I837345J-751317D01*
G01*
X-49373681Y166762345D01*
G75*
G02*
X-49287653Y165173683I-751317J-837345D01*
G01*
X-50597655Y163713683D01*
G75*
G02*
X-52186317Y163627655I-837345J751317D01*
G01*
G37*
D15*
X-45085000Y167005000D03*
G36*
G01*
X-45201517Y165302605D02*
X-45202403Y165302666D01*
G75*
G02*
X-46247334Y166502403I77403J1122334D01*
G01*
X-46207334Y167082403D01*
G75*
G02*
X-45007597Y168127334I1122334J-77403D01*
G01*
X-45007597Y168127334D01*
G75*
G02*
X-43962666Y166927597I-77403J-1122334D01*
G01*
X-44002666Y166347597D01*
G75*
G02*
X-45202403Y165302666I-1122334J77403D01*
G01*
G37*
D14*
X-61595000Y161925000D03*
X-71755000Y161925000D03*
D15*
X-69175000Y165925000D03*
D12*
X-66675000Y161925000D03*
G36*
G01*
X-71236312Y163627650D02*
X-71236317Y163627655D01*
G75*
G02*
X-71322345Y165216317I751317J837345D01*
G01*
X-70012343Y166676317D01*
G75*
G02*
X-68423681Y166762345I837345J-751317D01*
G01*
X-68423681Y166762345D01*
G75*
G02*
X-68337653Y165173683I-751317J-837345D01*
G01*
X-69647655Y163713683D01*
G75*
G02*
X-71236317Y163627655I-837345J751317D01*
G01*
G37*
D15*
X-64135000Y167005000D03*
G36*
G01*
X-64251517Y165302605D02*
X-64252403Y165302666D01*
G75*
G02*
X-65297334Y166502403I77403J1122334D01*
G01*
X-65257334Y167082403D01*
G75*
G02*
X-64057597Y168127334I1122334J-77403D01*
G01*
X-64057597Y168127334D01*
G75*
G02*
X-63012666Y166927597I-77403J-1122334D01*
G01*
X-63052666Y166347597D01*
G75*
G02*
X-64252403Y165302666I-1122334J77403D01*
G01*
G37*
G36*
G01*
X-107114017Y127202605D02*
X-107114903Y127202666D01*
G75*
G02*
X-108159834Y128402403I77403J1122334D01*
G01*
X-108119834Y128982403D01*
G75*
G02*
X-106920097Y130027334I1122334J-77403D01*
G01*
X-106920097Y130027334D01*
G75*
G02*
X-105875166Y128827597I-77403J-1122334D01*
G01*
X-105915166Y128247597D01*
G75*
G02*
X-107114903Y127202666I-1122334J77403D01*
G01*
G37*
X-106997500Y128905000D03*
G36*
G01*
X-114098812Y125527650D02*
X-114098817Y125527655D01*
G75*
G02*
X-114184845Y127116317I751317J837345D01*
G01*
X-112874843Y128576317D01*
G75*
G02*
X-111286181Y128662345I837345J-751317D01*
G01*
X-111286181Y128662345D01*
G75*
G02*
X-111200153Y127073683I-751317J-837345D01*
G01*
X-112510155Y125613683D01*
G75*
G02*
X-114098817Y125527655I-837345J751317D01*
G01*
G37*
D12*
X-109537500Y123825000D03*
D15*
X-112037500Y127825000D03*
D14*
X-114617500Y123825000D03*
X-104457500Y123825000D03*
G36*
G01*
X-88064017Y127202605D02*
X-88064903Y127202666D01*
G75*
G02*
X-89109834Y128402403I77403J1122334D01*
G01*
X-89069834Y128982403D01*
G75*
G02*
X-87870097Y130027334I1122334J-77403D01*
G01*
X-87870097Y130027334D01*
G75*
G02*
X-86825166Y128827597I-77403J-1122334D01*
G01*
X-86865166Y128247597D01*
G75*
G02*
X-88064903Y127202666I-1122334J77403D01*
G01*
G37*
D15*
X-87947500Y128905000D03*
G36*
G01*
X-95048812Y125527650D02*
X-95048817Y125527655D01*
G75*
G02*
X-95134845Y127116317I751317J837345D01*
G01*
X-93824843Y128576317D01*
G75*
G02*
X-92236181Y128662345I837345J-751317D01*
G01*
X-92236181Y128662345D01*
G75*
G02*
X-92150153Y127073683I-751317J-837345D01*
G01*
X-93460155Y125613683D01*
G75*
G02*
X-95048817Y125527655I-837345J751317D01*
G01*
G37*
D12*
X-90487500Y123825000D03*
D15*
X-92987500Y127825000D03*
D14*
X-95567500Y123825000D03*
X-85407500Y123825000D03*
X-56832500Y142875000D03*
X-66992500Y142875000D03*
D15*
X-64412500Y146875000D03*
D12*
X-61912500Y142875000D03*
G36*
G01*
X-66473812Y144577650D02*
X-66473817Y144577655D01*
G75*
G02*
X-66559845Y146166317I751317J837345D01*
G01*
X-65249843Y147626317D01*
G75*
G02*
X-63661181Y147712345I837345J-751317D01*
G01*
X-63661181Y147712345D01*
G75*
G02*
X-63575153Y146123683I-751317J-837345D01*
G01*
X-64885155Y144663683D01*
G75*
G02*
X-66473817Y144577655I-837345J751317D01*
G01*
G37*
D15*
X-59372500Y147955000D03*
G36*
G01*
X-59489017Y146252605D02*
X-59489903Y146252666D01*
G75*
G02*
X-60534834Y147452403I77403J1122334D01*
G01*
X-60494834Y148032403D01*
G75*
G02*
X-59295097Y149077334I1122334J-77403D01*
G01*
X-59295097Y149077334D01*
G75*
G02*
X-58250166Y147877597I-77403J-1122334D01*
G01*
X-58290166Y147297597D01*
G75*
G02*
X-59489903Y146252666I-1122334J77403D01*
G01*
G37*
D14*
X-75882500Y142875000D03*
X-86042500Y142875000D03*
D15*
X-83462500Y146875000D03*
D12*
X-80962500Y142875000D03*
G36*
G01*
X-85523812Y144577650D02*
X-85523817Y144577655D01*
G75*
G02*
X-85609845Y146166317I751317J837345D01*
G01*
X-84299843Y147626317D01*
G75*
G02*
X-82711181Y147712345I837345J-751317D01*
G01*
X-82711181Y147712345D01*
G75*
G02*
X-82625153Y146123683I-751317J-837345D01*
G01*
X-83935155Y144663683D01*
G75*
G02*
X-85523817Y144577655I-837345J751317D01*
G01*
G37*
D15*
X-78422500Y147955000D03*
G36*
G01*
X-78539017Y146252605D02*
X-78539903Y146252666D01*
G75*
G02*
X-79584834Y147452403I77403J1122334D01*
G01*
X-79544834Y148032403D01*
G75*
G02*
X-78345097Y149077334I1122334J-77403D01*
G01*
X-78345097Y149077334D01*
G75*
G02*
X-77300166Y147877597I-77403J-1122334D01*
G01*
X-77340166Y147297597D01*
G75*
G02*
X-78539903Y146252666I-1122334J77403D01*
G01*
G37*
D14*
X-94932500Y142875000D03*
X-105092500Y142875000D03*
D15*
X-102512500Y146875000D03*
D12*
X-100012500Y142875000D03*
G36*
G01*
X-104573812Y144577650D02*
X-104573817Y144577655D01*
G75*
G02*
X-104659845Y146166317I751317J837345D01*
G01*
X-103349843Y147626317D01*
G75*
G02*
X-101761181Y147712345I837345J-751317D01*
G01*
X-101761181Y147712345D01*
G75*
G02*
X-101675153Y146123683I-751317J-837345D01*
G01*
X-102985155Y144663683D01*
G75*
G02*
X-104573817Y144577655I-837345J751317D01*
G01*
G37*
D15*
X-97472500Y147955000D03*
G36*
G01*
X-97589017Y146252605D02*
X-97589903Y146252666D01*
G75*
G02*
X-98634834Y147452403I77403J1122334D01*
G01*
X-98594834Y148032403D01*
G75*
G02*
X-97395097Y149077334I1122334J-77403D01*
G01*
X-97395097Y149077334D01*
G75*
G02*
X-96350166Y147877597I-77403J-1122334D01*
G01*
X-96390166Y147297597D01*
G75*
G02*
X-97589903Y146252666I-1122334J77403D01*
G01*
G37*
D14*
X-80645000Y161925000D03*
X-90805000Y161925000D03*
D15*
X-88225000Y165925000D03*
D12*
X-85725000Y161925000D03*
G36*
G01*
X-90286312Y163627650D02*
X-90286317Y163627655D01*
G75*
G02*
X-90372345Y165216317I751317J837345D01*
G01*
X-89062343Y166676317D01*
G75*
G02*
X-87473681Y166762345I837345J-751317D01*
G01*
X-87473681Y166762345D01*
G75*
G02*
X-87387653Y165173683I-751317J-837345D01*
G01*
X-88697655Y163713683D01*
G75*
G02*
X-90286317Y163627655I-837345J751317D01*
G01*
G37*
D15*
X-83185000Y167005000D03*
G36*
G01*
X-83301517Y165302605D02*
X-83302403Y165302666D01*
G75*
G02*
X-84347334Y166502403I77403J1122334D01*
G01*
X-84307334Y167082403D01*
G75*
G02*
X-83107597Y168127334I1122334J-77403D01*
G01*
X-83107597Y168127334D01*
G75*
G02*
X-82062666Y166927597I-77403J-1122334D01*
G01*
X-82102666Y166347597D01*
G75*
G02*
X-83302403Y165302666I-1122334J77403D01*
G01*
G37*
D14*
X-133121250Y142875000D03*
X-143281250Y142875000D03*
D15*
X-140701250Y146875000D03*
D12*
X-138201250Y142875000D03*
G36*
G01*
X-142762562Y144577650D02*
X-142762567Y144577655D01*
G75*
G02*
X-142848595Y146166317I751317J837345D01*
G01*
X-141538593Y147626317D01*
G75*
G02*
X-139949931Y147712345I837345J-751317D01*
G01*
X-139949931Y147712345D01*
G75*
G02*
X-139863903Y146123683I-751317J-837345D01*
G01*
X-141173905Y144663683D01*
G75*
G02*
X-142762567Y144577655I-837345J751317D01*
G01*
G37*
D15*
X-135661250Y147955000D03*
G36*
G01*
X-135777767Y146252605D02*
X-135778653Y146252666D01*
G75*
G02*
X-136823584Y147452403I77403J1122334D01*
G01*
X-136783584Y148032403D01*
G75*
G02*
X-135583847Y149077334I1122334J-77403D01*
G01*
X-135583847Y149077334D01*
G75*
G02*
X-134538916Y147877597I-77403J-1122334D01*
G01*
X-134578916Y147297597D01*
G75*
G02*
X-135778653Y146252666I-1122334J77403D01*
G01*
G37*
D14*
X-152082500Y142875000D03*
X-162242500Y142875000D03*
D15*
X-159662500Y146875000D03*
D12*
X-157162500Y142875000D03*
G36*
G01*
X-161723812Y144577650D02*
X-161723817Y144577655D01*
G75*
G02*
X-161809845Y146166317I751317J837345D01*
G01*
X-160499843Y147626317D01*
G75*
G02*
X-158911181Y147712345I837345J-751317D01*
G01*
X-158911181Y147712345D01*
G75*
G02*
X-158825153Y146123683I-751317J-837345D01*
G01*
X-160135155Y144663683D01*
G75*
G02*
X-161723817Y144577655I-837345J751317D01*
G01*
G37*
D15*
X-154622500Y147955000D03*
G36*
G01*
X-154739017Y146252605D02*
X-154739903Y146252666D01*
G75*
G02*
X-155784834Y147452403I77403J1122334D01*
G01*
X-155744834Y148032403D01*
G75*
G02*
X-154545097Y149077334I1122334J-77403D01*
G01*
X-154545097Y149077334D01*
G75*
G02*
X-153500166Y147877597I-77403J-1122334D01*
G01*
X-153540166Y147297597D01*
G75*
G02*
X-154739903Y146252666I-1122334J77403D01*
G01*
G37*
D14*
X24130000Y204787500D03*
X13970000Y204787500D03*
D15*
X16550000Y208787500D03*
D12*
X19050000Y204787500D03*
G36*
G01*
X14488688Y206490150D02*
X14488683Y206490155D01*
G75*
G02*
X14402655Y208078817I751317J837345D01*
G01*
X15712657Y209538817D01*
G75*
G02*
X17301319Y209624845I837345J-751317D01*
G01*
X17301319Y209624845D01*
G75*
G02*
X17387347Y208036183I-751317J-837345D01*
G01*
X16077345Y206576183D01*
G75*
G02*
X14488683Y206490155I-837345J751317D01*
G01*
G37*
D15*
X21590000Y209867500D03*
G36*
G01*
X21473483Y208165105D02*
X21472597Y208165166D01*
G75*
G02*
X20427666Y209364903I77403J1122334D01*
G01*
X20467666Y209944903D01*
G75*
G02*
X21667403Y210989834I1122334J-77403D01*
G01*
X21667403Y210989834D01*
G75*
G02*
X22712334Y209790097I-77403J-1122334D01*
G01*
X22672334Y209210097D01*
G75*
G02*
X21472597Y208165166I-1122334J77403D01*
G01*
G37*
D14*
X5080000Y204787500D03*
X-5080000Y204787500D03*
D15*
X-2500000Y208787500D03*
D12*
X0Y204787500D03*
G36*
G01*
X-4561312Y206490150D02*
X-4561317Y206490155D01*
G75*
G02*
X-4647345Y208078817I751317J837345D01*
G01*
X-3337343Y209538817D01*
G75*
G02*
X-1748681Y209624845I837345J-751317D01*
G01*
X-1748681Y209624845D01*
G75*
G02*
X-1662653Y208036183I-751317J-837345D01*
G01*
X-2972655Y206576183D01*
G75*
G02*
X-4561317Y206490155I-837345J751317D01*
G01*
G37*
D15*
X2540000Y209867500D03*
G36*
G01*
X2423483Y208165105D02*
X2422597Y208165166D01*
G75*
G02*
X1377666Y209364903I77403J1122334D01*
G01*
X1417666Y209944903D01*
G75*
G02*
X2617403Y210989834I1122334J-77403D01*
G01*
X2617403Y210989834D01*
G75*
G02*
X3662334Y209790097I-77403J-1122334D01*
G01*
X3622334Y209210097D01*
G75*
G02*
X2422597Y208165166I-1122334J77403D01*
G01*
G37*
D14*
X-13970000Y204787500D03*
X-24130000Y204787500D03*
D15*
X-21550000Y208787500D03*
D12*
X-19050000Y204787500D03*
G36*
G01*
X-23611312Y206490150D02*
X-23611317Y206490155D01*
G75*
G02*
X-23697345Y208078817I751317J837345D01*
G01*
X-22387343Y209538817D01*
G75*
G02*
X-20798681Y209624845I837345J-751317D01*
G01*
X-20798681Y209624845D01*
G75*
G02*
X-20712653Y208036183I-751317J-837345D01*
G01*
X-22022655Y206576183D01*
G75*
G02*
X-23611317Y206490155I-837345J751317D01*
G01*
G37*
D15*
X-16510000Y209867500D03*
G36*
G01*
X-16626517Y208165105D02*
X-16627403Y208165166D01*
G75*
G02*
X-17672334Y209364903I77403J1122334D01*
G01*
X-17632334Y209944903D01*
G75*
G02*
X-16432597Y210989834I1122334J-77403D01*
G01*
X-16432597Y210989834D01*
G75*
G02*
X-15387666Y209790097I-77403J-1122334D01*
G01*
X-15427666Y209210097D01*
G75*
G02*
X-16627403Y208165166I-1122334J77403D01*
G01*
G37*
D14*
X-33020000Y204787500D03*
X-43180000Y204787500D03*
D15*
X-40600000Y208787500D03*
D12*
X-38100000Y204787500D03*
G36*
G01*
X-42661312Y206490150D02*
X-42661317Y206490155D01*
G75*
G02*
X-42747345Y208078817I751317J837345D01*
G01*
X-41437343Y209538817D01*
G75*
G02*
X-39848681Y209624845I837345J-751317D01*
G01*
X-39848681Y209624845D01*
G75*
G02*
X-39762653Y208036183I-751317J-837345D01*
G01*
X-41072655Y206576183D01*
G75*
G02*
X-42661317Y206490155I-837345J751317D01*
G01*
G37*
D15*
X-35560000Y209867500D03*
G36*
G01*
X-35676517Y208165105D02*
X-35677403Y208165166D01*
G75*
G02*
X-36722334Y209364903I77403J1122334D01*
G01*
X-36682334Y209944903D01*
G75*
G02*
X-35482597Y210989834I1122334J-77403D01*
G01*
X-35482597Y210989834D01*
G75*
G02*
X-34437666Y209790097I-77403J-1122334D01*
G01*
X-34477666Y209210097D01*
G75*
G02*
X-35677403Y208165166I-1122334J77403D01*
G01*
G37*
D14*
X-61595000Y204787500D03*
X-71755000Y204787500D03*
D15*
X-69175000Y208787500D03*
D12*
X-66675000Y204787500D03*
G36*
G01*
X-71236312Y206490150D02*
X-71236317Y206490155D01*
G75*
G02*
X-71322345Y208078817I751317J837345D01*
G01*
X-70012343Y209538817D01*
G75*
G02*
X-68423681Y209624845I837345J-751317D01*
G01*
X-68423681Y209624845D01*
G75*
G02*
X-68337653Y208036183I-751317J-837345D01*
G01*
X-69647655Y206576183D01*
G75*
G02*
X-71236317Y206490155I-837345J751317D01*
G01*
G37*
D15*
X-64135000Y209867500D03*
G36*
G01*
X-64251517Y208165105D02*
X-64252403Y208165166D01*
G75*
G02*
X-65297334Y209364903I77403J1122334D01*
G01*
X-65257334Y209944903D01*
G75*
G02*
X-64057597Y210989834I1122334J-77403D01*
G01*
X-64057597Y210989834D01*
G75*
G02*
X-63012666Y209790097I-77403J-1122334D01*
G01*
X-63052666Y209210097D01*
G75*
G02*
X-64252403Y208165166I-1122334J77403D01*
G01*
G37*
D14*
X-80645000Y204787500D03*
X-90805000Y204787500D03*
D15*
X-88225000Y208787500D03*
D12*
X-85725000Y204787500D03*
G36*
G01*
X-90286312Y206490150D02*
X-90286317Y206490155D01*
G75*
G02*
X-90372345Y208078817I751317J837345D01*
G01*
X-89062343Y209538817D01*
G75*
G02*
X-87473681Y209624845I837345J-751317D01*
G01*
X-87473681Y209624845D01*
G75*
G02*
X-87387653Y208036183I-751317J-837345D01*
G01*
X-88697655Y206576183D01*
G75*
G02*
X-90286317Y206490155I-837345J751317D01*
G01*
G37*
D15*
X-83185000Y209867500D03*
G36*
G01*
X-83301517Y208165105D02*
X-83302403Y208165166D01*
G75*
G02*
X-84347334Y209364903I77403J1122334D01*
G01*
X-84307334Y209944903D01*
G75*
G02*
X-83107597Y210989834I1122334J-77403D01*
G01*
X-83107597Y210989834D01*
G75*
G02*
X-82062666Y209790097I-77403J-1122334D01*
G01*
X-82102666Y209210097D01*
G75*
G02*
X-83302403Y208165166I-1122334J77403D01*
G01*
G37*
D14*
X-99695000Y204787500D03*
X-109855000Y204787500D03*
D15*
X-107275000Y208787500D03*
D12*
X-104775000Y204787500D03*
G36*
G01*
X-109336312Y206490150D02*
X-109336317Y206490155D01*
G75*
G02*
X-109422345Y208078817I751317J837345D01*
G01*
X-108112343Y209538817D01*
G75*
G02*
X-106523681Y209624845I837345J-751317D01*
G01*
X-106523681Y209624845D01*
G75*
G02*
X-106437653Y208036183I-751317J-837345D01*
G01*
X-107747655Y206576183D01*
G75*
G02*
X-109336317Y206490155I-837345J751317D01*
G01*
G37*
D15*
X-102235000Y209867500D03*
G36*
G01*
X-102351517Y208165105D02*
X-102352403Y208165166D01*
G75*
G02*
X-103397334Y209364903I77403J1122334D01*
G01*
X-103357334Y209944903D01*
G75*
G02*
X-102157597Y210989834I1122334J-77403D01*
G01*
X-102157597Y210989834D01*
G75*
G02*
X-101112666Y209790097I-77403J-1122334D01*
G01*
X-101152666Y209210097D01*
G75*
G02*
X-102352403Y208165166I-1122334J77403D01*
G01*
G37*
D14*
X-118745000Y204787500D03*
X-128905000Y204787500D03*
D15*
X-126325000Y208787500D03*
D12*
X-123825000Y204787500D03*
G36*
G01*
X-128386312Y206490150D02*
X-128386317Y206490155D01*
G75*
G02*
X-128472345Y208078817I751317J837345D01*
G01*
X-127162343Y209538817D01*
G75*
G02*
X-125573681Y209624845I837345J-751317D01*
G01*
X-125573681Y209624845D01*
G75*
G02*
X-125487653Y208036183I-751317J-837345D01*
G01*
X-126797655Y206576183D01*
G75*
G02*
X-128386317Y206490155I-837345J751317D01*
G01*
G37*
D15*
X-121285000Y209867500D03*
G36*
G01*
X-121401517Y208165105D02*
X-121402403Y208165166D01*
G75*
G02*
X-122447334Y209364903I77403J1122334D01*
G01*
X-122407334Y209944903D01*
G75*
G02*
X-121207597Y210989834I1122334J-77403D01*
G01*
X-121207597Y210989834D01*
G75*
G02*
X-120162666Y209790097I-77403J-1122334D01*
G01*
X-120202666Y209210097D01*
G75*
G02*
X-121402403Y208165166I-1122334J77403D01*
G01*
G37*
D14*
X-147320000Y204787500D03*
X-157480000Y204787500D03*
D15*
X-154900000Y208787500D03*
D12*
X-152400000Y204787500D03*
G36*
G01*
X-156961312Y206490150D02*
X-156961317Y206490155D01*
G75*
G02*
X-157047345Y208078817I751317J837345D01*
G01*
X-155737343Y209538817D01*
G75*
G02*
X-154148681Y209624845I837345J-751317D01*
G01*
X-154148681Y209624845D01*
G75*
G02*
X-154062653Y208036183I-751317J-837345D01*
G01*
X-155372655Y206576183D01*
G75*
G02*
X-156961317Y206490155I-837345J751317D01*
G01*
G37*
D15*
X-149860000Y209867500D03*
G36*
G01*
X-149976517Y208165105D02*
X-149977403Y208165166D01*
G75*
G02*
X-151022334Y209364903I77403J1122334D01*
G01*
X-150982334Y209944903D01*
G75*
G02*
X-149782597Y210989834I1122334J-77403D01*
G01*
X-149782597Y210989834D01*
G75*
G02*
X-148737666Y209790097I-77403J-1122334D01*
G01*
X-148777666Y209210097D01*
G75*
G02*
X-149977403Y208165166I-1122334J77403D01*
G01*
G37*
D14*
X-166370000Y204787500D03*
X-176530000Y204787500D03*
D15*
X-173950000Y208787500D03*
D12*
X-171450000Y204787500D03*
G36*
G01*
X-176011312Y206490150D02*
X-176011317Y206490155D01*
G75*
G02*
X-176097345Y208078817I751317J837345D01*
G01*
X-174787343Y209538817D01*
G75*
G02*
X-173198681Y209624845I837345J-751317D01*
G01*
X-173198681Y209624845D01*
G75*
G02*
X-173112653Y208036183I-751317J-837345D01*
G01*
X-174422655Y206576183D01*
G75*
G02*
X-176011317Y206490155I-837345J751317D01*
G01*
G37*
D15*
X-168910000Y209867500D03*
G36*
G01*
X-169026517Y208165105D02*
X-169027403Y208165166D01*
G75*
G02*
X-170072334Y209364903I77403J1122334D01*
G01*
X-170032334Y209944903D01*
G75*
G02*
X-168832597Y210989834I1122334J-77403D01*
G01*
X-168832597Y210989834D01*
G75*
G02*
X-167787666Y209790097I-77403J-1122334D01*
G01*
X-167827666Y209210097D01*
G75*
G02*
X-169027403Y208165166I-1122334J77403D01*
G01*
G37*
D14*
X-185420000Y204787500D03*
X-195580000Y204787500D03*
D15*
X-193000000Y208787500D03*
D12*
X-190500000Y204787500D03*
G36*
G01*
X-195061312Y206490150D02*
X-195061317Y206490155D01*
G75*
G02*
X-195147345Y208078817I751317J837345D01*
G01*
X-193837343Y209538817D01*
G75*
G02*
X-192248681Y209624845I837345J-751317D01*
G01*
X-192248681Y209624845D01*
G75*
G02*
X-192162653Y208036183I-751317J-837345D01*
G01*
X-193472655Y206576183D01*
G75*
G02*
X-195061317Y206490155I-837345J751317D01*
G01*
G37*
D15*
X-187960000Y209867500D03*
G36*
G01*
X-188076517Y208165105D02*
X-188077403Y208165166D01*
G75*
G02*
X-189122334Y209364903I77403J1122334D01*
G01*
X-189082334Y209944903D01*
G75*
G02*
X-187882597Y210989834I1122334J-77403D01*
G01*
X-187882597Y210989834D01*
G75*
G02*
X-186837666Y209790097I-77403J-1122334D01*
G01*
X-186877666Y209210097D01*
G75*
G02*
X-188077403Y208165166I-1122334J77403D01*
G01*
G37*
D14*
X-204470000Y204787500D03*
X-214630000Y204787500D03*
D15*
X-212050000Y208787500D03*
D12*
X-209550000Y204787500D03*
G36*
G01*
X-214111312Y206490150D02*
X-214111317Y206490155D01*
G75*
G02*
X-214197345Y208078817I751317J837345D01*
G01*
X-212887343Y209538817D01*
G75*
G02*
X-211298681Y209624845I837345J-751317D01*
G01*
X-211298681Y209624845D01*
G75*
G02*
X-211212653Y208036183I-751317J-837345D01*
G01*
X-212522655Y206576183D01*
G75*
G02*
X-214111317Y206490155I-837345J751317D01*
G01*
G37*
D15*
X-207010000Y209867500D03*
G36*
G01*
X-207126517Y208165105D02*
X-207127403Y208165166D01*
G75*
G02*
X-208172334Y209364903I77403J1122334D01*
G01*
X-208132334Y209944903D01*
G75*
G02*
X-206932597Y210989834I1122334J-77403D01*
G01*
X-206932597Y210989834D01*
G75*
G02*
X-205887666Y209790097I-77403J-1122334D01*
G01*
X-205927666Y209210097D01*
G75*
G02*
X-207127403Y208165166I-1122334J77403D01*
G01*
G37*
D14*
X-175895000Y161925000D03*
X-186055000Y161925000D03*
D15*
X-183475000Y165925000D03*
D12*
X-180975000Y161925000D03*
G36*
G01*
X-185536312Y163627650D02*
X-185536317Y163627655D01*
G75*
G02*
X-185622345Y165216317I751317J837345D01*
G01*
X-184312343Y166676317D01*
G75*
G02*
X-182723681Y166762345I837345J-751317D01*
G01*
X-182723681Y166762345D01*
G75*
G02*
X-182637653Y165173683I-751317J-837345D01*
G01*
X-183947655Y163713683D01*
G75*
G02*
X-185536317Y163627655I-837345J751317D01*
G01*
G37*
D15*
X-178435000Y167005000D03*
G36*
G01*
X-178551517Y165302605D02*
X-178552403Y165302666D01*
G75*
G02*
X-179597334Y166502403I77403J1122334D01*
G01*
X-179557334Y167082403D01*
G75*
G02*
X-178357597Y168127334I1122334J-77403D01*
G01*
X-178357597Y168127334D01*
G75*
G02*
X-177312666Y166927597I-77403J-1122334D01*
G01*
X-177352666Y166347597D01*
G75*
G02*
X-178552403Y165302666I-1122334J77403D01*
G01*
G37*
G36*
G01*
X-164264017Y127202605D02*
X-164264903Y127202666D01*
G75*
G02*
X-165309834Y128402403I77403J1122334D01*
G01*
X-165269834Y128982403D01*
G75*
G02*
X-164070097Y130027334I1122334J-77403D01*
G01*
X-164070097Y130027334D01*
G75*
G02*
X-163025166Y128827597I-77403J-1122334D01*
G01*
X-163065166Y128247597D01*
G75*
G02*
X-164264903Y127202666I-1122334J77403D01*
G01*
G37*
X-164147500Y128905000D03*
G36*
G01*
X-171248812Y125527650D02*
X-171248817Y125527655D01*
G75*
G02*
X-171334845Y127116317I751317J837345D01*
G01*
X-170024843Y128576317D01*
G75*
G02*
X-168436181Y128662345I837345J-751317D01*
G01*
X-168436181Y128662345D01*
G75*
G02*
X-168350153Y127073683I-751317J-837345D01*
G01*
X-169660155Y125613683D01*
G75*
G02*
X-171248817Y125527655I-837345J751317D01*
G01*
G37*
D12*
X-166687500Y123825000D03*
D15*
X-169187500Y127825000D03*
D14*
X-171767500Y123825000D03*
X-161607500Y123825000D03*
G36*
G01*
X-126164017Y127202605D02*
X-126164903Y127202666D01*
G75*
G02*
X-127209834Y128402403I77403J1122334D01*
G01*
X-127169834Y128982403D01*
G75*
G02*
X-125970097Y130027334I1122334J-77403D01*
G01*
X-125970097Y130027334D01*
G75*
G02*
X-124925166Y128827597I-77403J-1122334D01*
G01*
X-124965166Y128247597D01*
G75*
G02*
X-126164903Y127202666I-1122334J77403D01*
G01*
G37*
D15*
X-126047500Y128905000D03*
G36*
G01*
X-133148812Y125527650D02*
X-133148817Y125527655D01*
G75*
G02*
X-133234845Y127116317I751317J837345D01*
G01*
X-131924843Y128576317D01*
G75*
G02*
X-130336181Y128662345I837345J-751317D01*
G01*
X-130336181Y128662345D01*
G75*
G02*
X-130250153Y127073683I-751317J-837345D01*
G01*
X-131560155Y125613683D01*
G75*
G02*
X-133148817Y125527655I-837345J751317D01*
G01*
G37*
D12*
X-128587500Y123825000D03*
D15*
X-131087500Y127825000D03*
D14*
X-133667500Y123825000D03*
X-123507500Y123825000D03*
X-209232500Y142875000D03*
X-219392500Y142875000D03*
D15*
X-216812500Y146875000D03*
D12*
X-214312500Y142875000D03*
G36*
G01*
X-218873812Y144577650D02*
X-218873817Y144577655D01*
G75*
G02*
X-218959845Y146166317I751317J837345D01*
G01*
X-217649843Y147626317D01*
G75*
G02*
X-216061181Y147712345I837345J-751317D01*
G01*
X-216061181Y147712345D01*
G75*
G02*
X-215975153Y146123683I-751317J-837345D01*
G01*
X-217285155Y144663683D01*
G75*
G02*
X-218873817Y144577655I-837345J751317D01*
G01*
G37*
D15*
X-211772500Y147955000D03*
G36*
G01*
X-211889017Y146252605D02*
X-211889903Y146252666D01*
G75*
G02*
X-212934834Y147452403I77403J1122334D01*
G01*
X-212894834Y148032403D01*
G75*
G02*
X-211695097Y149077334I1122334J-77403D01*
G01*
X-211695097Y149077334D01*
G75*
G02*
X-210650166Y147877597I-77403J-1122334D01*
G01*
X-210690166Y147297597D01*
G75*
G02*
X-211889903Y146252666I-1122334J77403D01*
G01*
G37*
D14*
X-4445000Y161925000D03*
X-14605000Y161925000D03*
D15*
X-12025000Y165925000D03*
D12*
X-9525000Y161925000D03*
G36*
G01*
X-14086312Y163627650D02*
X-14086317Y163627655D01*
G75*
G02*
X-14172345Y165216317I751317J837345D01*
G01*
X-12862343Y166676317D01*
G75*
G02*
X-11273681Y166762345I837345J-751317D01*
G01*
X-11273681Y166762345D01*
G75*
G02*
X-11187653Y165173683I-751317J-837345D01*
G01*
X-12497655Y163713683D01*
G75*
G02*
X-14086317Y163627655I-837345J751317D01*
G01*
G37*
D15*
X-6985000Y167005000D03*
G36*
G01*
X-7101517Y165302605D02*
X-7102403Y165302666D01*
G75*
G02*
X-8147334Y166502403I77403J1122334D01*
G01*
X-8107334Y167082403D01*
G75*
G02*
X-6907597Y168127334I1122334J-77403D01*
G01*
X-6907597Y168127334D01*
G75*
G02*
X-5862666Y166927597I-77403J-1122334D01*
G01*
X-5902666Y166347597D01*
G75*
G02*
X-7102403Y165302666I-1122334J77403D01*
G01*
G37*
D14*
X-23495000Y161925000D03*
X-33655000Y161925000D03*
D15*
X-31075000Y165925000D03*
D12*
X-28575000Y161925000D03*
G36*
G01*
X-33136312Y163627650D02*
X-33136317Y163627655D01*
G75*
G02*
X-33222345Y165216317I751317J837345D01*
G01*
X-31912343Y166676317D01*
G75*
G02*
X-30323681Y166762345I837345J-751317D01*
G01*
X-30323681Y166762345D01*
G75*
G02*
X-30237653Y165173683I-751317J-837345D01*
G01*
X-31547655Y163713683D01*
G75*
G02*
X-33136317Y163627655I-837345J751317D01*
G01*
G37*
D15*
X-26035000Y167005000D03*
G36*
G01*
X-26151517Y165302605D02*
X-26152403Y165302666D01*
G75*
G02*
X-27197334Y166502403I77403J1122334D01*
G01*
X-27157334Y167082403D01*
G75*
G02*
X-25957597Y168127334I1122334J-77403D01*
G01*
X-25957597Y168127334D01*
G75*
G02*
X-24912666Y166927597I-77403J-1122334D01*
G01*
X-24952666Y166347597D01*
G75*
G02*
X-26152403Y165302666I-1122334J77403D01*
G01*
G37*
D14*
X-13970000Y180975000D03*
X-24130000Y180975000D03*
D15*
X-21550000Y184975000D03*
D12*
X-19050000Y180975000D03*
G36*
G01*
X-23611312Y182677650D02*
X-23611317Y182677655D01*
G75*
G02*
X-23697345Y184266317I751317J837345D01*
G01*
X-22387343Y185726317D01*
G75*
G02*
X-20798681Y185812345I837345J-751317D01*
G01*
X-20798681Y185812345D01*
G75*
G02*
X-20712653Y184223683I-751317J-837345D01*
G01*
X-22022655Y182763683D01*
G75*
G02*
X-23611317Y182677655I-837345J751317D01*
G01*
G37*
D15*
X-16510000Y186055000D03*
G36*
G01*
X-16626517Y184352605D02*
X-16627403Y184352666D01*
G75*
G02*
X-17672334Y185552403I77403J1122334D01*
G01*
X-17632334Y186132403D01*
G75*
G02*
X-16432597Y187177334I1122334J-77403D01*
G01*
X-16432597Y187177334D01*
G75*
G02*
X-15387666Y185977597I-77403J-1122334D01*
G01*
X-15427666Y185397597D01*
G75*
G02*
X-16627403Y184352666I-1122334J77403D01*
G01*
G37*
D14*
X-37782500Y142875000D03*
X-47942500Y142875000D03*
D15*
X-45362500Y146875000D03*
D12*
X-42862500Y142875000D03*
G36*
G01*
X-47423812Y144577650D02*
X-47423817Y144577655D01*
G75*
G02*
X-47509845Y146166317I751317J837345D01*
G01*
X-46199843Y147626317D01*
G75*
G02*
X-44611181Y147712345I837345J-751317D01*
G01*
X-44611181Y147712345D01*
G75*
G02*
X-44525153Y146123683I-751317J-837345D01*
G01*
X-45835155Y144663683D01*
G75*
G02*
X-47423817Y144577655I-837345J751317D01*
G01*
G37*
D15*
X-40322500Y147955000D03*
G36*
G01*
X-40439017Y146252605D02*
X-40439903Y146252666D01*
G75*
G02*
X-41484834Y147452403I77403J1122334D01*
G01*
X-41444834Y148032403D01*
G75*
G02*
X-40245097Y149077334I1122334J-77403D01*
G01*
X-40245097Y149077334D01*
G75*
G02*
X-39200166Y147877597I-77403J-1122334D01*
G01*
X-39240166Y147297597D01*
G75*
G02*
X-40439903Y146252666I-1122334J77403D01*
G01*
G37*
D14*
X28892500Y100012500D03*
X18732500Y100012500D03*
D15*
X21312500Y104012500D03*
D12*
X23812500Y100012500D03*
G36*
G01*
X19251188Y101715150D02*
X19251183Y101715155D01*
G75*
G02*
X19165155Y103303817I751317J837345D01*
G01*
X20475157Y104763817D01*
G75*
G02*
X22063819Y104849845I837345J-751317D01*
G01*
X22063819Y104849845D01*
G75*
G02*
X22149847Y103261183I-751317J-837345D01*
G01*
X20839845Y101801183D01*
G75*
G02*
X19251183Y101715155I-837345J751317D01*
G01*
G37*
D15*
X26352500Y105092500D03*
G36*
G01*
X26235983Y103390105D02*
X26235097Y103390166D01*
G75*
G02*
X25190166Y104589903I77403J1122334D01*
G01*
X25230166Y105169903D01*
G75*
G02*
X26429903Y106214834I1122334J-77403D01*
G01*
X26429903Y106214834D01*
G75*
G02*
X27474834Y105015097I-77403J-1122334D01*
G01*
X27434834Y104435097D01*
G75*
G02*
X26235097Y103390166I-1122334J77403D01*
G01*
G37*
G36*
G01*
X-30914017Y127202605D02*
X-30914903Y127202666D01*
G75*
G02*
X-31959834Y128402403I77403J1122334D01*
G01*
X-31919834Y128982403D01*
G75*
G02*
X-30720097Y130027334I1122334J-77403D01*
G01*
X-30720097Y130027334D01*
G75*
G02*
X-29675166Y128827597I-77403J-1122334D01*
G01*
X-29715166Y128247597D01*
G75*
G02*
X-30914903Y127202666I-1122334J77403D01*
G01*
G37*
X-30797500Y128905000D03*
G36*
G01*
X-37898812Y125527650D02*
X-37898817Y125527655D01*
G75*
G02*
X-37984845Y127116317I751317J837345D01*
G01*
X-36674843Y128576317D01*
G75*
G02*
X-35086181Y128662345I837345J-751317D01*
G01*
X-35086181Y128662345D01*
G75*
G02*
X-35000153Y127073683I-751317J-837345D01*
G01*
X-36310155Y125613683D01*
G75*
G02*
X-37898817Y125527655I-837345J751317D01*
G01*
G37*
D12*
X-33337500Y123825000D03*
D15*
X-35837500Y127825000D03*
D14*
X-38417500Y123825000D03*
X-28257500Y123825000D03*
X47942500Y100012500D03*
X37782500Y100012500D03*
D15*
X40362500Y104012500D03*
D12*
X42862500Y100012500D03*
G36*
G01*
X38301188Y101715150D02*
X38301183Y101715155D01*
G75*
G02*
X38215155Y103303817I751317J837345D01*
G01*
X39525157Y104763817D01*
G75*
G02*
X41113819Y104849845I837345J-751317D01*
G01*
X41113819Y104849845D01*
G75*
G02*
X41199847Y103261183I-751317J-837345D01*
G01*
X39889845Y101801183D01*
G75*
G02*
X38301183Y101715155I-837345J751317D01*
G01*
G37*
D15*
X45402500Y105092500D03*
G36*
G01*
X45285983Y103390105D02*
X45285097Y103390166D01*
G75*
G02*
X44240166Y104589903I77403J1122334D01*
G01*
X44280166Y105169903D01*
G75*
G02*
X45479903Y106214834I1122334J-77403D01*
G01*
X45479903Y106214834D01*
G75*
G02*
X46524834Y105015097I-77403J-1122334D01*
G01*
X46484834Y104435097D01*
G75*
G02*
X45285097Y103390166I-1122334J77403D01*
G01*
G37*
D14*
X66992500Y100012500D03*
X56832500Y100012500D03*
D15*
X59412500Y104012500D03*
D12*
X61912500Y100012500D03*
G36*
G01*
X57351188Y101715150D02*
X57351183Y101715155D01*
G75*
G02*
X57265155Y103303817I751317J837345D01*
G01*
X58575157Y104763817D01*
G75*
G02*
X60163819Y104849845I837345J-751317D01*
G01*
X60163819Y104849845D01*
G75*
G02*
X60249847Y103261183I-751317J-837345D01*
G01*
X58939845Y101801183D01*
G75*
G02*
X57351183Y101715155I-837345J751317D01*
G01*
G37*
D15*
X64452500Y105092500D03*
G36*
G01*
X64335983Y103390105D02*
X64335097Y103390166D01*
G75*
G02*
X63290166Y104589903I77403J1122334D01*
G01*
X63330166Y105169903D01*
G75*
G02*
X64529903Y106214834I1122334J-77403D01*
G01*
X64529903Y106214834D01*
G75*
G02*
X65574834Y105015097I-77403J-1122334D01*
G01*
X65534834Y104435097D01*
G75*
G02*
X64335097Y103390166I-1122334J77403D01*
G01*
G37*
D14*
X47942500Y142875000D03*
X37782500Y142875000D03*
D15*
X40362500Y146875000D03*
D12*
X42862500Y142875000D03*
G36*
G01*
X38301188Y144577650D02*
X38301183Y144577655D01*
G75*
G02*
X38215155Y146166317I751317J837345D01*
G01*
X39525157Y147626317D01*
G75*
G02*
X41113819Y147712345I837345J-751317D01*
G01*
X41113819Y147712345D01*
G75*
G02*
X41199847Y146123683I-751317J-837345D01*
G01*
X39889845Y144663683D01*
G75*
G02*
X38301183Y144577655I-837345J751317D01*
G01*
G37*
D15*
X45402500Y147955000D03*
G36*
G01*
X45285983Y146252605D02*
X45285097Y146252666D01*
G75*
G02*
X44240166Y147452403I77403J1122334D01*
G01*
X44280166Y148032403D01*
G75*
G02*
X45479903Y149077334I1122334J-77403D01*
G01*
X45479903Y149077334D01*
G75*
G02*
X46524834Y147877597I-77403J-1122334D01*
G01*
X46484834Y147297597D01*
G75*
G02*
X45285097Y146252666I-1122334J77403D01*
G01*
G37*
D14*
X47942500Y204787500D03*
X37782500Y204787500D03*
D15*
X40362500Y208787500D03*
D12*
X42862500Y204787500D03*
G36*
G01*
X38301188Y206490150D02*
X38301183Y206490155D01*
G75*
G02*
X38215155Y208078817I751317J837345D01*
G01*
X39525157Y209538817D01*
G75*
G02*
X41113819Y209624845I837345J-751317D01*
G01*
X41113819Y209624845D01*
G75*
G02*
X41199847Y208036183I-751317J-837345D01*
G01*
X39889845Y206576183D01*
G75*
G02*
X38301183Y206490155I-837345J751317D01*
G01*
G37*
D15*
X45402500Y209867500D03*
G36*
G01*
X45285983Y208165105D02*
X45285097Y208165166D01*
G75*
G02*
X44240166Y209364903I77403J1122334D01*
G01*
X44280166Y209944903D01*
G75*
G02*
X45479903Y210989834I1122334J-77403D01*
G01*
X45479903Y210989834D01*
G75*
G02*
X46524834Y209790097I-77403J-1122334D01*
G01*
X46484834Y209210097D01*
G75*
G02*
X45285097Y208165166I-1122334J77403D01*
G01*
G37*
D14*
X-242570000Y204787500D03*
X-252730000Y204787500D03*
D15*
X-250150000Y208787500D03*
D12*
X-247650000Y204787500D03*
G36*
G01*
X-252211312Y206490150D02*
X-252211317Y206490155D01*
G75*
G02*
X-252297345Y208078817I751317J837345D01*
G01*
X-250987343Y209538817D01*
G75*
G02*
X-249398681Y209624845I837345J-751317D01*
G01*
X-249398681Y209624845D01*
G75*
G02*
X-249312653Y208036183I-751317J-837345D01*
G01*
X-250622655Y206576183D01*
G75*
G02*
X-252211317Y206490155I-837345J751317D01*
G01*
G37*
D15*
X-245110000Y209867500D03*
G36*
G01*
X-245226517Y208165105D02*
X-245227403Y208165166D01*
G75*
G02*
X-246272334Y209364903I77403J1122334D01*
G01*
X-246232334Y209944903D01*
G75*
G02*
X-245032597Y210989834I1122334J-77403D01*
G01*
X-245032597Y210989834D01*
G75*
G02*
X-243987666Y209790097I-77403J-1122334D01*
G01*
X-244027666Y209210097D01*
G75*
G02*
X-245227403Y208165166I-1122334J77403D01*
G01*
G37*
D14*
X47942500Y180975000D03*
X37782500Y180975000D03*
D15*
X40362500Y184975000D03*
D12*
X42862500Y180975000D03*
G36*
G01*
X38301188Y182677650D02*
X38301183Y182677655D01*
G75*
G02*
X38215155Y184266317I751317J837345D01*
G01*
X39525157Y185726317D01*
G75*
G02*
X41113819Y185812345I837345J-751317D01*
G01*
X41113819Y185812345D01*
G75*
G02*
X41199847Y184223683I-751317J-837345D01*
G01*
X39889845Y182763683D01*
G75*
G02*
X38301183Y182677655I-837345J751317D01*
G01*
G37*
D15*
X45402500Y186055000D03*
G36*
G01*
X45285983Y184352605D02*
X45285097Y184352666D01*
G75*
G02*
X44240166Y185552403I77403J1122334D01*
G01*
X44280166Y186132403D01*
G75*
G02*
X45479903Y187177334I1122334J-77403D01*
G01*
X45479903Y187177334D01*
G75*
G02*
X46524834Y185977597I-77403J-1122334D01*
G01*
X46484834Y185397597D01*
G75*
G02*
X45285097Y184352666I-1122334J77403D01*
G01*
G37*
D14*
X47942500Y161925000D03*
X37782500Y161925000D03*
D15*
X40362500Y165925000D03*
D12*
X42862500Y161925000D03*
G36*
G01*
X38301188Y163627650D02*
X38301183Y163627655D01*
G75*
G02*
X38215155Y165216317I751317J837345D01*
G01*
X39525157Y166676317D01*
G75*
G02*
X41113819Y166762345I837345J-751317D01*
G01*
X41113819Y166762345D01*
G75*
G02*
X41199847Y165173683I-751317J-837345D01*
G01*
X39889845Y163713683D01*
G75*
G02*
X38301183Y163627655I-837345J751317D01*
G01*
G37*
D15*
X45402500Y167005000D03*
G36*
G01*
X45285983Y165302605D02*
X45285097Y165302666D01*
G75*
G02*
X44240166Y166502403I77403J1122334D01*
G01*
X44280166Y167082403D01*
G75*
G02*
X45479903Y168127334I1122334J-77403D01*
G01*
X45479903Y168127334D01*
G75*
G02*
X46524834Y166927597I-77403J-1122334D01*
G01*
X46484834Y166347597D01*
G75*
G02*
X45285097Y165302666I-1122334J77403D01*
G01*
G37*
D14*
X-33020000Y180975000D03*
X-43180000Y180975000D03*
D15*
X-40600000Y184975000D03*
D12*
X-38100000Y180975000D03*
G36*
G01*
X-42661312Y182677650D02*
X-42661317Y182677655D01*
G75*
G02*
X-42747345Y184266317I751317J837345D01*
G01*
X-41437343Y185726317D01*
G75*
G02*
X-39848681Y185812345I837345J-751317D01*
G01*
X-39848681Y185812345D01*
G75*
G02*
X-39762653Y184223683I-751317J-837345D01*
G01*
X-41072655Y182763683D01*
G75*
G02*
X-42661317Y182677655I-837345J751317D01*
G01*
G37*
D15*
X-35560000Y186055000D03*
G36*
G01*
X-35676517Y184352605D02*
X-35677403Y184352666D01*
G75*
G02*
X-36722334Y185552403I77403J1122334D01*
G01*
X-36682334Y186132403D01*
G75*
G02*
X-35482597Y187177334I1122334J-77403D01*
G01*
X-35482597Y187177334D01*
G75*
G02*
X-34437666Y185977597I-77403J-1122334D01*
G01*
X-34477666Y185397597D01*
G75*
G02*
X-35677403Y184352666I-1122334J77403D01*
G01*
G37*
D14*
X-18732500Y142875000D03*
X-28892500Y142875000D03*
D15*
X-26312500Y146875000D03*
D12*
X-23812500Y142875000D03*
G36*
G01*
X-28373812Y144577650D02*
X-28373817Y144577655D01*
G75*
G02*
X-28459845Y146166317I751317J837345D01*
G01*
X-27149843Y147626317D01*
G75*
G02*
X-25561181Y147712345I837345J-751317D01*
G01*
X-25561181Y147712345D01*
G75*
G02*
X-25475153Y146123683I-751317J-837345D01*
G01*
X-26785155Y144663683D01*
G75*
G02*
X-28373817Y144577655I-837345J751317D01*
G01*
G37*
D15*
X-21272500Y147955000D03*
G36*
G01*
X-21389017Y146252605D02*
X-21389903Y146252666D01*
G75*
G02*
X-22434834Y147452403I77403J1122334D01*
G01*
X-22394834Y148032403D01*
G75*
G02*
X-21195097Y149077334I1122334J-77403D01*
G01*
X-21195097Y149077334D01*
G75*
G02*
X-20150166Y147877597I-77403J-1122334D01*
G01*
X-20190166Y147297597D01*
G75*
G02*
X-21389903Y146252666I-1122334J77403D01*
G01*
G37*
D14*
X-71120000Y180975000D03*
X-81280000Y180975000D03*
D15*
X-78700000Y184975000D03*
D12*
X-76200000Y180975000D03*
G36*
G01*
X-80761312Y182677650D02*
X-80761317Y182677655D01*
G75*
G02*
X-80847345Y184266317I751317J837345D01*
G01*
X-79537343Y185726317D01*
G75*
G02*
X-77948681Y185812345I837345J-751317D01*
G01*
X-77948681Y185812345D01*
G75*
G02*
X-77862653Y184223683I-751317J-837345D01*
G01*
X-79172655Y182763683D01*
G75*
G02*
X-80761317Y182677655I-837345J751317D01*
G01*
G37*
D15*
X-73660000Y186055000D03*
G36*
G01*
X-73776517Y184352605D02*
X-73777403Y184352666D01*
G75*
G02*
X-74822334Y185552403I77403J1122334D01*
G01*
X-74782334Y186132403D01*
G75*
G02*
X-73582597Y187177334I1122334J-77403D01*
G01*
X-73582597Y187177334D01*
G75*
G02*
X-72537666Y185977597I-77403J-1122334D01*
G01*
X-72577666Y185397597D01*
G75*
G02*
X-73777403Y184352666I-1122334J77403D01*
G01*
G37*
D14*
X-90170000Y180975000D03*
X-100330000Y180975000D03*
D15*
X-97750000Y184975000D03*
D12*
X-95250000Y180975000D03*
G36*
G01*
X-99811312Y182677650D02*
X-99811317Y182677655D01*
G75*
G02*
X-99897345Y184266317I751317J837345D01*
G01*
X-98587343Y185726317D01*
G75*
G02*
X-96998681Y185812345I837345J-751317D01*
G01*
X-96998681Y185812345D01*
G75*
G02*
X-96912653Y184223683I-751317J-837345D01*
G01*
X-98222655Y182763683D01*
G75*
G02*
X-99811317Y182677655I-837345J751317D01*
G01*
G37*
D15*
X-92710000Y186055000D03*
G36*
G01*
X-92826517Y184352605D02*
X-92827403Y184352666D01*
G75*
G02*
X-93872334Y185552403I77403J1122334D01*
G01*
X-93832334Y186132403D01*
G75*
G02*
X-92632597Y187177334I1122334J-77403D01*
G01*
X-92632597Y187177334D01*
G75*
G02*
X-91587666Y185977597I-77403J-1122334D01*
G01*
X-91627666Y185397597D01*
G75*
G02*
X-92827403Y184352666I-1122334J77403D01*
G01*
G37*
D14*
X-109220000Y180975000D03*
X-119380000Y180975000D03*
D15*
X-116800000Y184975000D03*
D12*
X-114300000Y180975000D03*
G36*
G01*
X-118861312Y182677650D02*
X-118861317Y182677655D01*
G75*
G02*
X-118947345Y184266317I751317J837345D01*
G01*
X-117637343Y185726317D01*
G75*
G02*
X-116048681Y185812345I837345J-751317D01*
G01*
X-116048681Y185812345D01*
G75*
G02*
X-115962653Y184223683I-751317J-837345D01*
G01*
X-117272655Y182763683D01*
G75*
G02*
X-118861317Y182677655I-837345J751317D01*
G01*
G37*
D15*
X-111760000Y186055000D03*
G36*
G01*
X-111876517Y184352605D02*
X-111877403Y184352666D01*
G75*
G02*
X-112922334Y185552403I77403J1122334D01*
G01*
X-112882334Y186132403D01*
G75*
G02*
X-111682597Y187177334I1122334J-77403D01*
G01*
X-111682597Y187177334D01*
G75*
G02*
X-110637666Y185977597I-77403J-1122334D01*
G01*
X-110677666Y185397597D01*
G75*
G02*
X-111877403Y184352666I-1122334J77403D01*
G01*
G37*
D14*
X-128270000Y180975000D03*
X-138430000Y180975000D03*
D15*
X-135850000Y184975000D03*
D12*
X-133350000Y180975000D03*
G36*
G01*
X-137911312Y182677650D02*
X-137911317Y182677655D01*
G75*
G02*
X-137997345Y184266317I751317J837345D01*
G01*
X-136687343Y185726317D01*
G75*
G02*
X-135098681Y185812345I837345J-751317D01*
G01*
X-135098681Y185812345D01*
G75*
G02*
X-135012653Y184223683I-751317J-837345D01*
G01*
X-136322655Y182763683D01*
G75*
G02*
X-137911317Y182677655I-837345J751317D01*
G01*
G37*
D15*
X-130810000Y186055000D03*
G36*
G01*
X-130926517Y184352605D02*
X-130927403Y184352666D01*
G75*
G02*
X-131972334Y185552403I77403J1122334D01*
G01*
X-131932334Y186132403D01*
G75*
G02*
X-130732597Y187177334I1122334J-77403D01*
G01*
X-130732597Y187177334D01*
G75*
G02*
X-129687666Y185977597I-77403J-1122334D01*
G01*
X-129727666Y185397597D01*
G75*
G02*
X-130927403Y184352666I-1122334J77403D01*
G01*
G37*
D14*
X-147320000Y180975000D03*
X-157480000Y180975000D03*
D15*
X-154900000Y184975000D03*
D12*
X-152400000Y180975000D03*
G36*
G01*
X-156961312Y182677650D02*
X-156961317Y182677655D01*
G75*
G02*
X-157047345Y184266317I751317J837345D01*
G01*
X-155737343Y185726317D01*
G75*
G02*
X-154148681Y185812345I837345J-751317D01*
G01*
X-154148681Y185812345D01*
G75*
G02*
X-154062653Y184223683I-751317J-837345D01*
G01*
X-155372655Y182763683D01*
G75*
G02*
X-156961317Y182677655I-837345J751317D01*
G01*
G37*
D15*
X-149860000Y186055000D03*
G36*
G01*
X-149976517Y184352605D02*
X-149977403Y184352666D01*
G75*
G02*
X-151022334Y185552403I77403J1122334D01*
G01*
X-150982334Y186132403D01*
G75*
G02*
X-149782597Y187177334I1122334J-77403D01*
G01*
X-149782597Y187177334D01*
G75*
G02*
X-148737666Y185977597I-77403J-1122334D01*
G01*
X-148777666Y185397597D01*
G75*
G02*
X-149977403Y184352666I-1122334J77403D01*
G01*
G37*
D14*
X-166370000Y180975000D03*
X-176530000Y180975000D03*
D15*
X-173950000Y184975000D03*
D12*
X-171450000Y180975000D03*
G36*
G01*
X-176011312Y182677650D02*
X-176011317Y182677655D01*
G75*
G02*
X-176097345Y184266317I751317J837345D01*
G01*
X-174787343Y185726317D01*
G75*
G02*
X-173198681Y185812345I837345J-751317D01*
G01*
X-173198681Y185812345D01*
G75*
G02*
X-173112653Y184223683I-751317J-837345D01*
G01*
X-174422655Y182763683D01*
G75*
G02*
X-176011317Y182677655I-837345J751317D01*
G01*
G37*
D15*
X-168910000Y186055000D03*
G36*
G01*
X-169026517Y184352605D02*
X-169027403Y184352666D01*
G75*
G02*
X-170072334Y185552403I77403J1122334D01*
G01*
X-170032334Y186132403D01*
G75*
G02*
X-168832597Y187177334I1122334J-77403D01*
G01*
X-168832597Y187177334D01*
G75*
G02*
X-167787666Y185977597I-77403J-1122334D01*
G01*
X-167827666Y185397597D01*
G75*
G02*
X-169027403Y184352666I-1122334J77403D01*
G01*
G37*
D14*
X-185420000Y180975000D03*
X-195580000Y180975000D03*
D15*
X-193000000Y184975000D03*
D12*
X-190500000Y180975000D03*
G36*
G01*
X-195061312Y182677650D02*
X-195061317Y182677655D01*
G75*
G02*
X-195147345Y184266317I751317J837345D01*
G01*
X-193837343Y185726317D01*
G75*
G02*
X-192248681Y185812345I837345J-751317D01*
G01*
X-192248681Y185812345D01*
G75*
G02*
X-192162653Y184223683I-751317J-837345D01*
G01*
X-193472655Y182763683D01*
G75*
G02*
X-195061317Y182677655I-837345J751317D01*
G01*
G37*
D15*
X-187960000Y186055000D03*
G36*
G01*
X-188076517Y184352605D02*
X-188077403Y184352666D01*
G75*
G02*
X-189122334Y185552403I77403J1122334D01*
G01*
X-189082334Y186132403D01*
G75*
G02*
X-187882597Y187177334I1122334J-77403D01*
G01*
X-187882597Y187177334D01*
G75*
G02*
X-186837666Y185977597I-77403J-1122334D01*
G01*
X-186877666Y185397597D01*
G75*
G02*
X-188077403Y184352666I-1122334J77403D01*
G01*
G37*
D14*
X-204470000Y180975000D03*
X-214630000Y180975000D03*
D15*
X-212050000Y184975000D03*
D12*
X-209550000Y180975000D03*
G36*
G01*
X-214111312Y182677650D02*
X-214111317Y182677655D01*
G75*
G02*
X-214197345Y184266317I751317J837345D01*
G01*
X-212887343Y185726317D01*
G75*
G02*
X-211298681Y185812345I837345J-751317D01*
G01*
X-211298681Y185812345D01*
G75*
G02*
X-211212653Y184223683I-751317J-837345D01*
G01*
X-212522655Y182763683D01*
G75*
G02*
X-214111317Y182677655I-837345J751317D01*
G01*
G37*
D15*
X-207010000Y186055000D03*
G36*
G01*
X-207126517Y184352605D02*
X-207127403Y184352666D01*
G75*
G02*
X-208172334Y185552403I77403J1122334D01*
G01*
X-208132334Y186132403D01*
G75*
G02*
X-206932597Y187177334I1122334J-77403D01*
G01*
X-206932597Y187177334D01*
G75*
G02*
X-205887666Y185977597I-77403J-1122334D01*
G01*
X-205927666Y185397597D01*
G75*
G02*
X-207127403Y184352666I-1122334J77403D01*
G01*
G37*
D14*
X-223520000Y180975000D03*
X-233680000Y180975000D03*
D15*
X-231100000Y184975000D03*
D12*
X-228600000Y180975000D03*
G36*
G01*
X-233161312Y182677650D02*
X-233161317Y182677655D01*
G75*
G02*
X-233247345Y184266317I751317J837345D01*
G01*
X-231937343Y185726317D01*
G75*
G02*
X-230348681Y185812345I837345J-751317D01*
G01*
X-230348681Y185812345D01*
G75*
G02*
X-230262653Y184223683I-751317J-837345D01*
G01*
X-231572655Y182763683D01*
G75*
G02*
X-233161317Y182677655I-837345J751317D01*
G01*
G37*
D15*
X-226060000Y186055000D03*
G36*
G01*
X-226176517Y184352605D02*
X-226177403Y184352666D01*
G75*
G02*
X-227222334Y185552403I77403J1122334D01*
G01*
X-227182334Y186132403D01*
G75*
G02*
X-225982597Y187177334I1122334J-77403D01*
G01*
X-225982597Y187177334D01*
G75*
G02*
X-224937666Y185977597I-77403J-1122334D01*
G01*
X-224977666Y185397597D01*
G75*
G02*
X-226177403Y184352666I-1122334J77403D01*
G01*
G37*
D14*
X-52070000Y180975000D03*
X-62230000Y180975000D03*
D15*
X-59650000Y184975000D03*
D12*
X-57150000Y180975000D03*
G36*
G01*
X-61711312Y182677650D02*
X-61711317Y182677655D01*
G75*
G02*
X-61797345Y184266317I751317J837345D01*
G01*
X-60487343Y185726317D01*
G75*
G02*
X-58898681Y185812345I837345J-751317D01*
G01*
X-58898681Y185812345D01*
G75*
G02*
X-58812653Y184223683I-751317J-837345D01*
G01*
X-60122655Y182763683D01*
G75*
G02*
X-61711317Y182677655I-837345J751317D01*
G01*
G37*
D15*
X-54610000Y186055000D03*
G36*
G01*
X-54726517Y184352605D02*
X-54727403Y184352666D01*
G75*
G02*
X-55772334Y185552403I77403J1122334D01*
G01*
X-55732334Y186132403D01*
G75*
G02*
X-54532597Y187177334I1122334J-77403D01*
G01*
X-54532597Y187177334D01*
G75*
G02*
X-53487666Y185977597I-77403J-1122334D01*
G01*
X-53527666Y185397597D01*
G75*
G02*
X-54727403Y184352666I-1122334J77403D01*
G01*
G37*
G36*
G01*
X67300000Y196225000D02*
X66050000Y196225000D01*
G75*
G02*
X65800000Y196475000I0J250000D01*
G01*
X65800000Y197225000D01*
G75*
G02*
X66050000Y197475000I250000J0D01*
G01*
X67300000Y197475000D01*
G75*
G02*
X67550000Y197225000I0J-250000D01*
G01*
X67550000Y196475000D01*
G75*
G02*
X67300000Y196225000I-250000J0D01*
G01*
G37*
G36*
G01*
X67300000Y193425000D02*
X66050000Y193425000D01*
G75*
G02*
X65800000Y193675000I0J250000D01*
G01*
X65800000Y194425000D01*
G75*
G02*
X66050000Y194675000I250000J0D01*
G01*
X67300000Y194675000D01*
G75*
G02*
X67550000Y194425000I0J-250000D01*
G01*
X67550000Y193675000D01*
G75*
G02*
X67300000Y193425000I-250000J0D01*
G01*
G37*
D22*
X69977000Y100965000D03*
X69977000Y97665000D03*
X50927000Y100965000D03*
X50927000Y97665000D03*
X50927000Y120015000D03*
X50927000Y116715000D03*
X50927000Y144145000D03*
X50927000Y140845000D03*
X50927000Y163194000D03*
X50927000Y159894000D03*
X50927000Y182245000D03*
X50927000Y178945000D03*
X50927000Y206375000D03*
X50927000Y203075000D03*
X31877000Y100965000D03*
X31877000Y97665000D03*
X27178000Y206375000D03*
X27178000Y203075000D03*
X22479000Y163195000D03*
X22479000Y159895000D03*
X17653000Y182244000D03*
X17653000Y178944000D03*
X15240000Y144145000D03*
X15240000Y140845000D03*
X8128000Y206375000D03*
X8128000Y203075000D03*
X10541000Y125095000D03*
X10541000Y121795000D03*
X3429000Y106044000D03*
X3429000Y102744000D03*
X-1397000Y163195000D03*
X-1397000Y159895000D03*
X-10922000Y206375000D03*
X-10922000Y203075000D03*
X-10922000Y182244000D03*
X-10922000Y178944000D03*
X-15621000Y144145000D03*
X-15621000Y140845000D03*
X-25273000Y125095000D03*
X-25273000Y121795000D03*
X-20447000Y163194000D03*
X-20447000Y159894000D03*
X-22860000Y106045000D03*
X-22860000Y102745000D03*
X-29972000Y206374000D03*
X-29972000Y203074000D03*
X-29972000Y182245000D03*
X-29972000Y178945000D03*
X-34671000Y144145000D03*
X-34671000Y140845000D03*
X-44196000Y125095000D03*
X-44196000Y121795000D03*
X-39497000Y163194000D03*
X-39497000Y159894000D03*
X-49022000Y182244000D03*
X-49022000Y178944000D03*
X-53721000Y144145000D03*
X-53721000Y140845000D03*
X-46609000Y106045000D03*
X-46609000Y102745000D03*
X-58547000Y206374000D03*
X-58547000Y203074000D03*
X-63246000Y125094000D03*
X-63246000Y121794000D03*
X-58547000Y163194000D03*
X-58547000Y159894000D03*
X-68072000Y182245000D03*
X-68072000Y178945000D03*
X-72771000Y144144000D03*
X-72771000Y140844000D03*
X-77597000Y206375000D03*
X-77597000Y203075000D03*
X-82296000Y125095000D03*
X-82296000Y121795000D03*
X-77597000Y163195000D03*
X-77597000Y159895000D03*
X-87122000Y182245000D03*
X-87122000Y178945000D03*
X-91821000Y144145000D03*
X-91821000Y140845000D03*
X-96647000Y206374000D03*
X-96647000Y203074000D03*
X-101473000Y125095000D03*
X-101473000Y121795000D03*
X-96647000Y163195000D03*
X-96647000Y159895000D03*
X-106172000Y182245000D03*
X-106172000Y178945000D03*
X-110871000Y144144000D03*
X-110871000Y140844000D03*
X-115697000Y206374000D03*
X-115697000Y203074000D03*
X-120396000Y125094000D03*
X-120396000Y121794000D03*
X-115697000Y163195000D03*
X-115697000Y159895000D03*
X-118110000Y106045000D03*
X-118110000Y102745000D03*
X-125222000Y182245000D03*
X-125222000Y178945000D03*
X-130048000Y144145000D03*
X-130048000Y140845000D03*
X-139446000Y125095000D03*
X-139446000Y121795000D03*
X-134747000Y163194000D03*
X-134747000Y159894000D03*
X-144272000Y182245000D03*
X-144272000Y178945000D03*
X-144272000Y206374000D03*
X-144272000Y203074000D03*
X-148971000Y144145000D03*
X-148971000Y140845000D03*
X-158496000Y125095000D03*
X-158496000Y121795000D03*
X-153797000Y163194000D03*
X-153797000Y159894000D03*
X-163322000Y182245000D03*
X-163322000Y178945000D03*
X-163322000Y206375000D03*
X-163322000Y203075000D03*
X-168021000Y144145000D03*
X-168021000Y140845000D03*
X-177546000Y125095000D03*
X-177546000Y121795000D03*
X-172847000Y163195000D03*
X-172847000Y159895000D03*
X-182372000Y182245000D03*
X-182372000Y178945000D03*
X-182372000Y206374000D03*
X-182372000Y203074000D03*
X-187071000Y144145000D03*
X-187071000Y140845000D03*
X-189484000Y106045000D03*
X-189484000Y102745000D03*
X-196723000Y125095000D03*
X-196723000Y121795000D03*
X-191897000Y163194000D03*
X-191897000Y159894000D03*
X-201422000Y182245000D03*
X-201422000Y178945000D03*
X-201422000Y206375000D03*
X-201422000Y203075000D03*
X-206121000Y144145000D03*
X-206121000Y140845000D03*
X-213360000Y106045000D03*
X-213360000Y102745000D03*
X-210947000Y163195000D03*
X-210947000Y159895000D03*
X-220472000Y182245000D03*
X-220472000Y178945000D03*
X-227584000Y125095000D03*
X-227584000Y121795000D03*
X-232410000Y144145000D03*
X-232410000Y140845000D03*
X-237109000Y106045000D03*
X-237109000Y102745000D03*
X-234823000Y163194000D03*
X-234823000Y159894000D03*
X-239522000Y182245000D03*
X-239522000Y178945000D03*
X-239522000Y206375000D03*
X-239522000Y203075000D03*
G36*
G01*
X83721750Y184148750D02*
X83721750Y183198750D01*
G75*
G02*
X83471750Y182948750I-250000J0D01*
G01*
X82971750Y182948750D01*
G75*
G02*
X82721750Y183198750I0J250000D01*
G01*
X82721750Y184148750D01*
G75*
G02*
X82971750Y184398750I250000J0D01*
G01*
X83471750Y184398750D01*
G75*
G02*
X83721750Y184148750I0J-250000D01*
G01*
G37*
G36*
G01*
X85621750Y184148750D02*
X85621750Y183198750D01*
G75*
G02*
X85371750Y182948750I-250000J0D01*
G01*
X84871750Y182948750D01*
G75*
G02*
X84621750Y183198750I0J250000D01*
G01*
X84621750Y184148750D01*
G75*
G02*
X84871750Y184398750I250000J0D01*
G01*
X85371750Y184398750D01*
G75*
G02*
X85621750Y184148750I0J-250000D01*
G01*
G37*
G36*
G01*
X84616750Y175959750D02*
X84616750Y176909750D01*
G75*
G02*
X84866750Y177159750I250000J0D01*
G01*
X85366750Y177159750D01*
G75*
G02*
X85616750Y176909750I0J-250000D01*
G01*
X85616750Y175959750D01*
G75*
G02*
X85366750Y175709750I-250000J0D01*
G01*
X84866750Y175709750D01*
G75*
G02*
X84616750Y175959750I0J250000D01*
G01*
G37*
G36*
G01*
X82716750Y175959750D02*
X82716750Y176909750D01*
G75*
G02*
X82966750Y177159750I250000J0D01*
G01*
X83466750Y177159750D01*
G75*
G02*
X83716750Y176909750I0J-250000D01*
G01*
X83716750Y175959750D01*
G75*
G02*
X83466750Y175709750I-250000J0D01*
G01*
X82966750Y175709750D01*
G75*
G02*
X82716750Y175959750I0J250000D01*
G01*
G37*
G36*
G01*
X76099250Y201293750D02*
X76099250Y200343750D01*
G75*
G02*
X75849250Y200093750I-250000J0D01*
G01*
X75349250Y200093750D01*
G75*
G02*
X75099250Y200343750I0J250000D01*
G01*
X75099250Y201293750D01*
G75*
G02*
X75349250Y201543750I250000J0D01*
G01*
X75849250Y201543750D01*
G75*
G02*
X76099250Y201293750I0J-250000D01*
G01*
G37*
G36*
G01*
X77999250Y201293750D02*
X77999250Y200343750D01*
G75*
G02*
X77749250Y200093750I-250000J0D01*
G01*
X77249250Y200093750D01*
G75*
G02*
X76999250Y200343750I0J250000D01*
G01*
X76999250Y201293750D01*
G75*
G02*
X77249250Y201543750I250000J0D01*
G01*
X77749250Y201543750D01*
G75*
G02*
X77999250Y201293750I0J-250000D01*
G01*
G37*
G36*
G01*
X60739000Y187634500D02*
X61689000Y187634500D01*
G75*
G02*
X61939000Y187384500I0J-250000D01*
G01*
X61939000Y186884500D01*
G75*
G02*
X61689000Y186634500I-250000J0D01*
G01*
X60739000Y186634500D01*
G75*
G02*
X60489000Y186884500I0J250000D01*
G01*
X60489000Y187384500D01*
G75*
G02*
X60739000Y187634500I250000J0D01*
G01*
G37*
G36*
G01*
X60739000Y189534500D02*
X61689000Y189534500D01*
G75*
G02*
X61939000Y189284500I0J-250000D01*
G01*
X61939000Y188784500D01*
G75*
G02*
X61689000Y188534500I-250000J0D01*
G01*
X60739000Y188534500D01*
G75*
G02*
X60489000Y188784500I0J250000D01*
G01*
X60489000Y189284500D01*
G75*
G02*
X60739000Y189534500I250000J0D01*
G01*
G37*
G36*
G01*
X70670000Y193324500D02*
X70670000Y192374500D01*
G75*
G02*
X70420000Y192124500I-250000J0D01*
G01*
X69920000Y192124500D01*
G75*
G02*
X69670000Y192374500I0J250000D01*
G01*
X69670000Y193324500D01*
G75*
G02*
X69920000Y193574500I250000J0D01*
G01*
X70420000Y193574500D01*
G75*
G02*
X70670000Y193324500I0J-250000D01*
G01*
G37*
G36*
G01*
X72570000Y193324500D02*
X72570000Y192374500D01*
G75*
G02*
X72320000Y192124500I-250000J0D01*
G01*
X71820000Y192124500D01*
G75*
G02*
X71570000Y192374500I0J250000D01*
G01*
X71570000Y193324500D01*
G75*
G02*
X71820000Y193574500I250000J0D01*
G01*
X72320000Y193574500D01*
G75*
G02*
X72570000Y193324500I0J-250000D01*
G01*
G37*
G36*
G01*
X75065000Y203233000D02*
X75065000Y204183000D01*
G75*
G02*
X75315000Y204433000I250000J0D01*
G01*
X75815000Y204433000D01*
G75*
G02*
X76065000Y204183000I0J-250000D01*
G01*
X76065000Y203233000D01*
G75*
G02*
X75815000Y202983000I-250000J0D01*
G01*
X75315000Y202983000D01*
G75*
G02*
X75065000Y203233000I0J250000D01*
G01*
G37*
G36*
G01*
X73165000Y203233000D02*
X73165000Y204183000D01*
G75*
G02*
X73415000Y204433000I250000J0D01*
G01*
X73915000Y204433000D01*
G75*
G02*
X74165000Y204183000I0J-250000D01*
G01*
X74165000Y203233000D01*
G75*
G02*
X73915000Y202983000I-250000J0D01*
G01*
X73415000Y202983000D01*
G75*
G02*
X73165000Y203233000I0J250000D01*
G01*
G37*
M02*
