G04 #@! TF.GenerationSoftware,KiCad,Pcbnew,(5.1.10)-1*
G04 #@! TF.CreationDate,2022-02-11T22:44:53+10:30*
G04 #@! TF.ProjectId,Dingo-75,44696e67-6f2d-4373-952e-6b696361645f,rev?*
G04 #@! TF.SameCoordinates,Original*
G04 #@! TF.FileFunction,Soldermask,Bot*
G04 #@! TF.FilePolarity,Negative*
%FSLAX46Y46*%
G04 Gerber Fmt 4.6, Leading zero omitted, Abs format (unit mm)*
G04 Created by KiCad (PCBNEW (5.1.10)-1) date 2022-02-11 22:44:53*
%MOMM*%
%LPD*%
G01*
G04 APERTURE LIST*
%ADD10C,3.987800*%
%ADD11C,3.048000*%
%ADD12C,1.750000*%
%ADD13C,2.250000*%
%ADD14R,1.200000X1.400000*%
%ADD15O,1.700000X2.700000*%
%ADD16R,0.500000X2.250000*%
%ADD17R,1.500000X0.550000*%
%ADD18R,0.550000X1.500000*%
%ADD19R,1.800000X1.100000*%
%ADD20R,1.200000X0.900000*%
G04 APERTURE END LIST*
D10*
X-76206350Y96520000D03*
X-176206150Y96520000D03*
D11*
X-76206350Y111760000D03*
X-176206150Y111760000D03*
D12*
X-121126250Y104775000D03*
X-131286250Y104775000D03*
D13*
X-128706250Y108775000D03*
D10*
X-126206250Y104775000D03*
G36*
G01*
X-130767562Y106477650D02*
X-130767567Y106477655D01*
G75*
G02*
X-130853595Y108066317I751317J837345D01*
G01*
X-129543593Y109526317D01*
G75*
G02*
X-127954931Y109612345I837345J-751317D01*
G01*
X-127954931Y109612345D01*
G75*
G02*
X-127868903Y108023683I-751317J-837345D01*
G01*
X-129178905Y106563683D01*
G75*
G02*
X-130767567Y106477655I-837345J751317D01*
G01*
G37*
D13*
X-123666250Y109855000D03*
G36*
G01*
X-123782767Y108152605D02*
X-123783653Y108152666D01*
G75*
G02*
X-124828584Y109352403I77403J1122334D01*
G01*
X-124788584Y109932403D01*
G75*
G02*
X-123588847Y110977334I1122334J-77403D01*
G01*
X-123588847Y110977334D01*
G75*
G02*
X-122543916Y109777597I-77403J-1122334D01*
G01*
X-122583916Y109197597D01*
G75*
G02*
X-123783653Y108152666I-1122334J77403D01*
G01*
G37*
G36*
G01*
X-49964017Y127202605D02*
X-49964903Y127202666D01*
G75*
G02*
X-51009834Y128402403I77403J1122334D01*
G01*
X-50969834Y128982403D01*
G75*
G02*
X-49770097Y130027334I1122334J-77403D01*
G01*
X-49770097Y130027334D01*
G75*
G02*
X-48725166Y128827597I-77403J-1122334D01*
G01*
X-48765166Y128247597D01*
G75*
G02*
X-49964903Y127202666I-1122334J77403D01*
G01*
G37*
X-49847500Y128905000D03*
G36*
G01*
X-56948812Y125527650D02*
X-56948817Y125527655D01*
G75*
G02*
X-57034845Y127116317I751317J837345D01*
G01*
X-55724843Y128576317D01*
G75*
G02*
X-54136181Y128662345I837345J-751317D01*
G01*
X-54136181Y128662345D01*
G75*
G02*
X-54050153Y127073683I-751317J-837345D01*
G01*
X-55360155Y125613683D01*
G75*
G02*
X-56948817Y125527655I-837345J751317D01*
G01*
G37*
D10*
X-52387500Y123825000D03*
D13*
X-54887500Y127825000D03*
D12*
X-57467500Y123825000D03*
X-47307500Y123825000D03*
G36*
G01*
X-69014017Y127202605D02*
X-69014903Y127202666D01*
G75*
G02*
X-70059834Y128402403I77403J1122334D01*
G01*
X-70019834Y128982403D01*
G75*
G02*
X-68820097Y130027334I1122334J-77403D01*
G01*
X-68820097Y130027334D01*
G75*
G02*
X-67775166Y128827597I-77403J-1122334D01*
G01*
X-67815166Y128247597D01*
G75*
G02*
X-69014903Y127202666I-1122334J77403D01*
G01*
G37*
D13*
X-68897500Y128905000D03*
G36*
G01*
X-75998812Y125527650D02*
X-75998817Y125527655D01*
G75*
G02*
X-76084845Y127116317I751317J837345D01*
G01*
X-74774843Y128576317D01*
G75*
G02*
X-73186181Y128662345I837345J-751317D01*
G01*
X-73186181Y128662345D01*
G75*
G02*
X-73100153Y127073683I-751317J-837345D01*
G01*
X-74410155Y125613683D01*
G75*
G02*
X-75998817Y125527655I-837345J751317D01*
G01*
G37*
D10*
X-71437500Y123825000D03*
D13*
X-73937500Y127825000D03*
D12*
X-76517500Y123825000D03*
X-66357500Y123825000D03*
G36*
G01*
X-116639017Y146252605D02*
X-116639903Y146252666D01*
G75*
G02*
X-117684834Y147452403I77403J1122334D01*
G01*
X-117644834Y148032403D01*
G75*
G02*
X-116445097Y149077334I1122334J-77403D01*
G01*
X-116445097Y149077334D01*
G75*
G02*
X-115400166Y147877597I-77403J-1122334D01*
G01*
X-115440166Y147297597D01*
G75*
G02*
X-116639903Y146252666I-1122334J77403D01*
G01*
G37*
D13*
X-116522500Y147955000D03*
G36*
G01*
X-123623812Y144577650D02*
X-123623817Y144577655D01*
G75*
G02*
X-123709845Y146166317I751317J837345D01*
G01*
X-122399843Y147626317D01*
G75*
G02*
X-120811181Y147712345I837345J-751317D01*
G01*
X-120811181Y147712345D01*
G75*
G02*
X-120725153Y146123683I-751317J-837345D01*
G01*
X-122035155Y144663683D01*
G75*
G02*
X-123623817Y144577655I-837345J751317D01*
G01*
G37*
D10*
X-119062500Y142875000D03*
D13*
X-121562500Y146875000D03*
D12*
X-124142500Y142875000D03*
X-113982500Y142875000D03*
X-171132500Y142875000D03*
X-181292500Y142875000D03*
D13*
X-178712500Y146875000D03*
D10*
X-176212500Y142875000D03*
G36*
G01*
X-180773812Y144577650D02*
X-180773817Y144577655D01*
G75*
G02*
X-180859845Y146166317I751317J837345D01*
G01*
X-179549843Y147626317D01*
G75*
G02*
X-177961181Y147712345I837345J-751317D01*
G01*
X-177961181Y147712345D01*
G75*
G02*
X-177875153Y146123683I-751317J-837345D01*
G01*
X-179185155Y144663683D01*
G75*
G02*
X-180773817Y144577655I-837345J751317D01*
G01*
G37*
D13*
X-173672500Y147955000D03*
G36*
G01*
X-173789017Y146252605D02*
X-173789903Y146252666D01*
G75*
G02*
X-174834834Y147452403I77403J1122334D01*
G01*
X-174794834Y148032403D01*
G75*
G02*
X-173595097Y149077334I1122334J-77403D01*
G01*
X-173595097Y149077334D01*
G75*
G02*
X-172550166Y147877597I-77403J-1122334D01*
G01*
X-172590166Y147297597D01*
G75*
G02*
X-173789903Y146252666I-1122334J77403D01*
G01*
G37*
D12*
X-192563750Y104775000D03*
X-202723750Y104775000D03*
D13*
X-200143750Y108775000D03*
D10*
X-197643750Y104775000D03*
G36*
G01*
X-202205062Y106477650D02*
X-202205067Y106477655D01*
G75*
G02*
X-202291095Y108066317I751317J837345D01*
G01*
X-200981093Y109526317D01*
G75*
G02*
X-199392431Y109612345I837345J-751317D01*
G01*
X-199392431Y109612345D01*
G75*
G02*
X-199306403Y108023683I-751317J-837345D01*
G01*
X-200616405Y106563683D01*
G75*
G02*
X-202205067Y106477655I-837345J751317D01*
G01*
G37*
D13*
X-195103750Y109855000D03*
G36*
G01*
X-195220267Y108152605D02*
X-195221153Y108152666D01*
G75*
G02*
X-196266084Y109352403I77403J1122334D01*
G01*
X-196226084Y109932403D01*
G75*
G02*
X-195026347Y110977334I1122334J-77403D01*
G01*
X-195026347Y110977334D01*
G75*
G02*
X-193981416Y109777597I-77403J-1122334D01*
G01*
X-194021416Y109197597D01*
G75*
G02*
X-195221153Y108152666I-1122334J77403D01*
G01*
G37*
D12*
X-49688750Y104775000D03*
X-59848750Y104775000D03*
D13*
X-57268750Y108775000D03*
D10*
X-54768750Y104775000D03*
G36*
G01*
X-59330062Y106477650D02*
X-59330067Y106477655D01*
G75*
G02*
X-59416095Y108066317I751317J837345D01*
G01*
X-58106093Y109526317D01*
G75*
G02*
X-56517431Y109612345I837345J-751317D01*
G01*
X-56517431Y109612345D01*
G75*
G02*
X-56431403Y108023683I-751317J-837345D01*
G01*
X-57741405Y106563683D01*
G75*
G02*
X-59330067Y106477655I-837345J751317D01*
G01*
G37*
D13*
X-52228750Y109855000D03*
G36*
G01*
X-52345267Y108152605D02*
X-52346153Y108152666D01*
G75*
G02*
X-53391084Y109352403I77403J1122334D01*
G01*
X-53351084Y109932403D01*
G75*
G02*
X-52151347Y110977334I1122334J-77403D01*
G01*
X-52151347Y110977334D01*
G75*
G02*
X-51106416Y109777597I-77403J-1122334D01*
G01*
X-51146416Y109197597D01*
G75*
G02*
X-52346153Y108152666I-1122334J77403D01*
G01*
G37*
D10*
X21463000Y172720000D03*
X-2413000Y172720000D03*
D11*
X21463000Y187960000D03*
X-2413000Y187960000D03*
D12*
X14605000Y180975000D03*
X4445000Y180975000D03*
D13*
X7025000Y184975000D03*
D10*
X9525000Y180975000D03*
G36*
G01*
X4963688Y182677650D02*
X4963683Y182677655D01*
G75*
G02*
X4877655Y184266317I751317J837345D01*
G01*
X6187657Y185726317D01*
G75*
G02*
X7776319Y185812345I837345J-751317D01*
G01*
X7776319Y185812345D01*
G75*
G02*
X7862347Y184223683I-751317J-837345D01*
G01*
X6552345Y182763683D01*
G75*
G02*
X4963683Y182677655I-837345J751317D01*
G01*
G37*
D13*
X12065000Y186055000D03*
G36*
G01*
X11948483Y184352605D02*
X11947597Y184352666D01*
G75*
G02*
X10902666Y185552403I77403J1122334D01*
G01*
X10942666Y186132403D01*
G75*
G02*
X12142403Y187177334I1122334J-77403D01*
G01*
X12142403Y187177334D01*
G75*
G02*
X13187334Y185977597I-77403J-1122334D01*
G01*
X13147334Y185397597D01*
G75*
G02*
X11947597Y184352666I-1122334J77403D01*
G01*
G37*
D12*
X-235426250Y142875000D03*
X-245586250Y142875000D03*
D13*
X-243006250Y146875000D03*
D10*
X-240506250Y142875000D03*
G36*
G01*
X-245067562Y144577650D02*
X-245067567Y144577655D01*
G75*
G02*
X-245153595Y146166317I751317J837345D01*
G01*
X-243843593Y147626317D01*
G75*
G02*
X-242254931Y147712345I837345J-751317D01*
G01*
X-242254931Y147712345D01*
G75*
G02*
X-242168903Y146123683I-751317J-837345D01*
G01*
X-243478905Y144663683D01*
G75*
G02*
X-245067567Y144577655I-837345J751317D01*
G01*
G37*
D13*
X-237966250Y147955000D03*
G36*
G01*
X-238082767Y146252605D02*
X-238083653Y146252666D01*
G75*
G02*
X-239128584Y147452403I77403J1122334D01*
G01*
X-239088584Y148032403D01*
G75*
G02*
X-237888847Y149077334I1122334J-77403D01*
G01*
X-237888847Y149077334D01*
G75*
G02*
X-236843916Y147877597I-77403J-1122334D01*
G01*
X-236883916Y147297597D01*
G75*
G02*
X-238083653Y146252666I-1122334J77403D01*
G01*
G37*
D12*
X-240188750Y104775000D03*
X-250348750Y104775000D03*
D13*
X-247768750Y108775000D03*
D10*
X-245268750Y104775000D03*
G36*
G01*
X-249830062Y106477650D02*
X-249830067Y106477655D01*
G75*
G02*
X-249916095Y108066317I751317J837345D01*
G01*
X-248606093Y109526317D01*
G75*
G02*
X-247017431Y109612345I837345J-751317D01*
G01*
X-247017431Y109612345D01*
G75*
G02*
X-246931403Y108023683I-751317J-837345D01*
G01*
X-248241405Y106563683D01*
G75*
G02*
X-249830067Y106477655I-837345J751317D01*
G01*
G37*
D13*
X-242728750Y109855000D03*
G36*
G01*
X-242845267Y108152605D02*
X-242846153Y108152666D01*
G75*
G02*
X-243891084Y109352403I77403J1122334D01*
G01*
X-243851084Y109932403D01*
G75*
G02*
X-242651347Y110977334I1122334J-77403D01*
G01*
X-242651347Y110977334D01*
G75*
G02*
X-241606416Y109777597I-77403J-1122334D01*
G01*
X-241646416Y109197597D01*
G75*
G02*
X-242846153Y108152666I-1122334J77403D01*
G01*
G37*
D12*
X317500Y104775000D03*
X-9842500Y104775000D03*
D13*
X-7262500Y108775000D03*
D10*
X-4762500Y104775000D03*
G36*
G01*
X-9323812Y106477650D02*
X-9323817Y106477655D01*
G75*
G02*
X-9409845Y108066317I751317J837345D01*
G01*
X-8099843Y109526317D01*
G75*
G02*
X-6511181Y109612345I837345J-751317D01*
G01*
X-6511181Y109612345D01*
G75*
G02*
X-6425153Y108023683I-751317J-837345D01*
G01*
X-7735155Y106563683D01*
G75*
G02*
X-9323817Y106477655I-837345J751317D01*
G01*
G37*
D13*
X-2222500Y109855000D03*
G36*
G01*
X-2339017Y108152605D02*
X-2339903Y108152666D01*
G75*
G02*
X-3384834Y109352403I77403J1122334D01*
G01*
X-3344834Y109932403D01*
G75*
G02*
X-2145097Y110977334I1122334J-77403D01*
G01*
X-2145097Y110977334D01*
G75*
G02*
X-1100166Y109777597I-77403J-1122334D01*
G01*
X-1140166Y109197597D01*
G75*
G02*
X-2339903Y108152666I-1122334J77403D01*
G01*
G37*
D10*
X19081750Y134620000D03*
X-4794250Y134620000D03*
D11*
X19081750Y149860000D03*
X-4794250Y149860000D03*
D12*
X12223750Y142875000D03*
X2063750Y142875000D03*
D13*
X4643750Y146875000D03*
D10*
X7143750Y142875000D03*
G36*
G01*
X2582438Y144577650D02*
X2582433Y144577655D01*
G75*
G02*
X2496405Y146166317I751317J837345D01*
G01*
X3806407Y147626317D01*
G75*
G02*
X5395069Y147712345I837345J-751317D01*
G01*
X5395069Y147712345D01*
G75*
G02*
X5481097Y146123683I-751317J-837345D01*
G01*
X4171095Y144663683D01*
G75*
G02*
X2582433Y144577655I-837345J751317D01*
G01*
G37*
D13*
X9683750Y147955000D03*
G36*
G01*
X9567233Y146252605D02*
X9566347Y146252666D01*
G75*
G02*
X8521416Y147452403I77403J1122334D01*
G01*
X8561416Y148032403D01*
G75*
G02*
X9761153Y149077334I1122334J-77403D01*
G01*
X9761153Y149077334D01*
G75*
G02*
X10806084Y147877597I-77403J-1122334D01*
G01*
X10766084Y147297597D01*
G75*
G02*
X9566347Y146252666I-1122334J77403D01*
G01*
G37*
D12*
X-25876250Y104775000D03*
X-36036250Y104775000D03*
D13*
X-33456250Y108775000D03*
D10*
X-30956250Y104775000D03*
G36*
G01*
X-35517562Y106477650D02*
X-35517567Y106477655D01*
G75*
G02*
X-35603595Y108066317I751317J837345D01*
G01*
X-34293593Y109526317D01*
G75*
G02*
X-32704931Y109612345I837345J-751317D01*
G01*
X-32704931Y109612345D01*
G75*
G02*
X-32618903Y108023683I-751317J-837345D01*
G01*
X-33928905Y106563683D01*
G75*
G02*
X-35517567Y106477655I-837345J751317D01*
G01*
G37*
D13*
X-28416250Y109855000D03*
G36*
G01*
X-28532767Y108152605D02*
X-28533653Y108152666D01*
G75*
G02*
X-29578584Y109352403I77403J1122334D01*
G01*
X-29538584Y109932403D01*
G75*
G02*
X-28338847Y110977334I1122334J-77403D01*
G01*
X-28338847Y110977334D01*
G75*
G02*
X-27293916Y109777597I-77403J-1122334D01*
G01*
X-27333916Y109197597D01*
G75*
G02*
X-28533653Y108152666I-1122334J77403D01*
G01*
G37*
D10*
X-223805750Y115570000D03*
X-247681750Y115570000D03*
D11*
X-223805750Y130810000D03*
X-247681750Y130810000D03*
D12*
X-230663750Y123825000D03*
X-240823750Y123825000D03*
D13*
X-238243750Y127825000D03*
D10*
X-235743750Y123825000D03*
G36*
G01*
X-240305062Y125527650D02*
X-240305067Y125527655D01*
G75*
G02*
X-240391095Y127116317I751317J837345D01*
G01*
X-239081093Y128576317D01*
G75*
G02*
X-237492431Y128662345I837345J-751317D01*
G01*
X-237492431Y128662345D01*
G75*
G02*
X-237406403Y127073683I-751317J-837345D01*
G01*
X-238716405Y125613683D01*
G75*
G02*
X-240305067Y125527655I-837345J751317D01*
G01*
G37*
D13*
X-233203750Y128905000D03*
G36*
G01*
X-233320267Y127202605D02*
X-233321153Y127202666D01*
G75*
G02*
X-234366084Y128402403I77403J1122334D01*
G01*
X-234326084Y128982403D01*
G75*
G02*
X-233126347Y130027334I1122334J-77403D01*
G01*
X-233126347Y130027334D01*
G75*
G02*
X-232081416Y128827597I-77403J-1122334D01*
G01*
X-232121416Y128247597D01*
G75*
G02*
X-233321153Y127202666I-1122334J77403D01*
G01*
G37*
D10*
X14319250Y115570000D03*
X-9556750Y115570000D03*
D11*
X14319250Y130810000D03*
X-9556750Y130810000D03*
D12*
X7461250Y123825000D03*
X-2698750Y123825000D03*
D13*
X-118750Y127825000D03*
D10*
X2381250Y123825000D03*
G36*
G01*
X-2180062Y125527650D02*
X-2180067Y125527655D01*
G75*
G02*
X-2266095Y127116317I751317J837345D01*
G01*
X-956093Y128576317D01*
G75*
G02*
X632569Y128662345I837345J-751317D01*
G01*
X632569Y128662345D01*
G75*
G02*
X718597Y127073683I-751317J-837345D01*
G01*
X-591405Y125613683D01*
G75*
G02*
X-2180067Y125527655I-837345J751317D01*
G01*
G37*
D13*
X4921250Y128905000D03*
G36*
G01*
X4804733Y127202605D02*
X4803847Y127202666D01*
G75*
G02*
X3758916Y128402403I77403J1122334D01*
G01*
X3798916Y128982403D01*
G75*
G02*
X4998653Y130027334I1122334J-77403D01*
G01*
X4998653Y130027334D01*
G75*
G02*
X6043584Y128827597I-77403J-1122334D01*
G01*
X6003584Y128247597D01*
G75*
G02*
X4803847Y127202666I-1122334J77403D01*
G01*
G37*
D12*
X-237807500Y161925000D03*
X-247967500Y161925000D03*
D13*
X-245387500Y165925000D03*
D10*
X-242887500Y161925000D03*
G36*
G01*
X-247448812Y163627650D02*
X-247448817Y163627655D01*
G75*
G02*
X-247534845Y165216317I751317J837345D01*
G01*
X-246224843Y166676317D01*
G75*
G02*
X-244636181Y166762345I837345J-751317D01*
G01*
X-244636181Y166762345D01*
G75*
G02*
X-244550153Y165173683I-751317J-837345D01*
G01*
X-245860155Y163713683D01*
G75*
G02*
X-247448817Y163627655I-837345J751317D01*
G01*
G37*
D13*
X-240347500Y167005000D03*
G36*
G01*
X-240464017Y165302605D02*
X-240464903Y165302666D01*
G75*
G02*
X-241509834Y166502403I77403J1122334D01*
G01*
X-241469834Y167082403D01*
G75*
G02*
X-240270097Y168127334I1122334J-77403D01*
G01*
X-240270097Y168127334D01*
G75*
G02*
X-239225166Y166927597I-77403J-1122334D01*
G01*
X-239265166Y166347597D01*
G75*
G02*
X-240464903Y165302666I-1122334J77403D01*
G01*
G37*
D12*
X-216376250Y104775000D03*
X-226536250Y104775000D03*
D13*
X-223956250Y108775000D03*
D10*
X-221456250Y104775000D03*
G36*
G01*
X-226017562Y106477650D02*
X-226017567Y106477655D01*
G75*
G02*
X-226103595Y108066317I751317J837345D01*
G01*
X-224793593Y109526317D01*
G75*
G02*
X-223204931Y109612345I837345J-751317D01*
G01*
X-223204931Y109612345D01*
G75*
G02*
X-223118903Y108023683I-751317J-837345D01*
G01*
X-224428905Y106563683D01*
G75*
G02*
X-226017567Y106477655I-837345J751317D01*
G01*
G37*
D13*
X-218916250Y109855000D03*
G36*
G01*
X-219032767Y108152605D02*
X-219033653Y108152666D01*
G75*
G02*
X-220078584Y109352403I77403J1122334D01*
G01*
X-220038584Y109932403D01*
G75*
G02*
X-218838847Y110977334I1122334J-77403D01*
G01*
X-218838847Y110977334D01*
G75*
G02*
X-217793916Y109777597I-77403J-1122334D01*
G01*
X-217833916Y109197597D01*
G75*
G02*
X-219033653Y108152666I-1122334J77403D01*
G01*
G37*
D12*
X19367500Y161925000D03*
X9207500Y161925000D03*
D13*
X11787500Y165925000D03*
D10*
X14287500Y161925000D03*
G36*
G01*
X9726188Y163627650D02*
X9726183Y163627655D01*
G75*
G02*
X9640155Y165216317I751317J837345D01*
G01*
X10950157Y166676317D01*
G75*
G02*
X12538819Y166762345I837345J-751317D01*
G01*
X12538819Y166762345D01*
G75*
G02*
X12624847Y165173683I-751317J-837345D01*
G01*
X11314845Y163713683D01*
G75*
G02*
X9726183Y163627655I-837345J751317D01*
G01*
G37*
D13*
X16827500Y167005000D03*
G36*
G01*
X16710983Y165302605D02*
X16710097Y165302666D01*
G75*
G02*
X15665166Y166502403I77403J1122334D01*
G01*
X15705166Y167082403D01*
G75*
G02*
X16904903Y168127334I1122334J-77403D01*
G01*
X16904903Y168127334D01*
G75*
G02*
X17949834Y166927597I-77403J-1122334D01*
G01*
X17909834Y166347597D01*
G75*
G02*
X16710097Y165302666I-1122334J77403D01*
G01*
G37*
D12*
X47942500Y119062500D03*
X37782500Y119062500D03*
D13*
X40362500Y123062500D03*
D10*
X42862500Y119062500D03*
G36*
G01*
X38301188Y120765150D02*
X38301183Y120765155D01*
G75*
G02*
X38215155Y122353817I751317J837345D01*
G01*
X39525157Y123813817D01*
G75*
G02*
X41113819Y123899845I837345J-751317D01*
G01*
X41113819Y123899845D01*
G75*
G02*
X41199847Y122311183I-751317J-837345D01*
G01*
X39889845Y120851183D01*
G75*
G02*
X38301183Y120765155I-837345J751317D01*
G01*
G37*
D13*
X45402500Y124142500D03*
G36*
G01*
X45285983Y122440105D02*
X45285097Y122440166D01*
G75*
G02*
X44240166Y123639903I77403J1122334D01*
G01*
X44280166Y124219903D01*
G75*
G02*
X45479903Y125264834I1122334J-77403D01*
G01*
X45479903Y125264834D01*
G75*
G02*
X46524834Y124065097I-77403J-1122334D01*
G01*
X46484834Y123485097D01*
G75*
G02*
X45285097Y122440166I-1122334J77403D01*
G01*
G37*
D14*
X83294750Y181174750D03*
X83294750Y178974750D03*
X84994750Y178974750D03*
X84994750Y181174750D03*
D15*
X65406250Y212462500D03*
X72706250Y212462500D03*
X72706250Y207962500D03*
X65406250Y207962500D03*
D16*
X67456250Y207962500D03*
X68256250Y207962500D03*
X69056250Y207962500D03*
X69856250Y207962500D03*
X70656250Y207962500D03*
D17*
X64531250Y187768750D03*
X64531250Y186968750D03*
X64531250Y186168750D03*
X64531250Y185368750D03*
X64531250Y184568750D03*
X64531250Y183768750D03*
X64531250Y182968750D03*
X64531250Y182168750D03*
X64531250Y181368750D03*
X64531250Y180568750D03*
X64531250Y179768750D03*
X64531250Y178968750D03*
X64531250Y178168750D03*
X64531250Y177368750D03*
X64531250Y176568750D03*
X64531250Y175768750D03*
D18*
X66231250Y174068750D03*
X67031250Y174068750D03*
X67831250Y174068750D03*
X68631250Y174068750D03*
X69431250Y174068750D03*
X70231250Y174068750D03*
X71031250Y174068750D03*
X71831250Y174068750D03*
X72631250Y174068750D03*
X73431250Y174068750D03*
X74231250Y174068750D03*
X75031250Y174068750D03*
X75831250Y174068750D03*
X76631250Y174068750D03*
X77431250Y174068750D03*
X78231250Y174068750D03*
D17*
X79931250Y175768750D03*
X79931250Y176568750D03*
X79931250Y177368750D03*
X79931250Y178168750D03*
X79931250Y178968750D03*
X79931250Y179768750D03*
X79931250Y180568750D03*
X79931250Y181368750D03*
X79931250Y182168750D03*
X79931250Y182968750D03*
X79931250Y183768750D03*
X79931250Y184568750D03*
X79931250Y185368750D03*
X79931250Y186168750D03*
X79931250Y186968750D03*
X79931250Y187768750D03*
D18*
X78231250Y189468750D03*
X77431250Y189468750D03*
X76631250Y189468750D03*
X75831250Y189468750D03*
X75031250Y189468750D03*
X74231250Y189468750D03*
X73431250Y189468750D03*
X72631250Y189468750D03*
X71831250Y189468750D03*
X71031250Y189468750D03*
X70231250Y189468750D03*
X69431250Y189468750D03*
X68631250Y189468750D03*
X67831250Y189468750D03*
X67031250Y189468750D03*
X66231250Y189468750D03*
D19*
X77143750Y211662500D03*
X83343750Y207962500D03*
X77143750Y207962500D03*
X83343750Y211662500D03*
G36*
G01*
X84206501Y191892500D02*
X83306499Y191892500D01*
G75*
G02*
X83056500Y192142499I0J249999D01*
G01*
X83056500Y192667501D01*
G75*
G02*
X83306499Y192917500I249999J0D01*
G01*
X84206501Y192917500D01*
G75*
G02*
X84456500Y192667501I0J-249999D01*
G01*
X84456500Y192142499D01*
G75*
G02*
X84206501Y191892500I-249999J0D01*
G01*
G37*
G36*
G01*
X84206501Y190067500D02*
X83306499Y190067500D01*
G75*
G02*
X83056500Y190317499I0J249999D01*
G01*
X83056500Y190842501D01*
G75*
G02*
X83306499Y191092500I249999J0D01*
G01*
X84206501Y191092500D01*
G75*
G02*
X84456500Y190842501I0J-249999D01*
G01*
X84456500Y190317499D01*
G75*
G02*
X84206501Y190067500I-249999J0D01*
G01*
G37*
G36*
G01*
X68077501Y201989000D02*
X67177499Y201989000D01*
G75*
G02*
X66927500Y202238999I0J249999D01*
G01*
X66927500Y202764001D01*
G75*
G02*
X67177499Y203014000I249999J0D01*
G01*
X68077501Y203014000D01*
G75*
G02*
X68327500Y202764001I0J-249999D01*
G01*
X68327500Y202238999D01*
G75*
G02*
X68077501Y201989000I-249999J0D01*
G01*
G37*
G36*
G01*
X68077501Y200164000D02*
X67177499Y200164000D01*
G75*
G02*
X66927500Y200413999I0J249999D01*
G01*
X66927500Y200939001D01*
G75*
G02*
X67177499Y201189000I249999J0D01*
G01*
X68077501Y201189000D01*
G75*
G02*
X68327500Y200939001I0J-249999D01*
G01*
X68327500Y200413999D01*
G75*
G02*
X68077501Y200164000I-249999J0D01*
G01*
G37*
G36*
G01*
X70109501Y201989000D02*
X69209499Y201989000D01*
G75*
G02*
X68959500Y202238999I0J249999D01*
G01*
X68959500Y202764001D01*
G75*
G02*
X69209499Y203014000I249999J0D01*
G01*
X70109501Y203014000D01*
G75*
G02*
X70359500Y202764001I0J-249999D01*
G01*
X70359500Y202238999D01*
G75*
G02*
X70109501Y201989000I-249999J0D01*
G01*
G37*
G36*
G01*
X70109501Y200164000D02*
X69209499Y200164000D01*
G75*
G02*
X68959500Y200413999I0J249999D01*
G01*
X68959500Y200939001D01*
G75*
G02*
X69209499Y201189000I249999J0D01*
G01*
X70109501Y201189000D01*
G75*
G02*
X70359500Y200939001I0J-249999D01*
G01*
X70359500Y200413999D01*
G75*
G02*
X70109501Y200164000I-249999J0D01*
G01*
G37*
G36*
G01*
X69780999Y169121500D02*
X70681001Y169121500D01*
G75*
G02*
X70931000Y168871501I0J-249999D01*
G01*
X70931000Y168346499D01*
G75*
G02*
X70681001Y168096500I-249999J0D01*
G01*
X69780999Y168096500D01*
G75*
G02*
X69531000Y168346499I0J249999D01*
G01*
X69531000Y168871501D01*
G75*
G02*
X69780999Y169121500I249999J0D01*
G01*
G37*
G36*
G01*
X69780999Y170946500D02*
X70681001Y170946500D01*
G75*
G02*
X70931000Y170696501I0J-249999D01*
G01*
X70931000Y170171499D01*
G75*
G02*
X70681001Y169921500I-249999J0D01*
G01*
X69780999Y169921500D01*
G75*
G02*
X69531000Y170171499I0J249999D01*
G01*
X69531000Y170696501D01*
G75*
G02*
X69780999Y170946500I249999J0D01*
G01*
G37*
D12*
X-242570000Y180975000D03*
X-252730000Y180975000D03*
D13*
X-250150000Y184975000D03*
D10*
X-247650000Y180975000D03*
G36*
G01*
X-252211312Y182677650D02*
X-252211317Y182677655D01*
G75*
G02*
X-252297345Y184266317I751317J837345D01*
G01*
X-250987343Y185726317D01*
G75*
G02*
X-249398681Y185812345I837345J-751317D01*
G01*
X-249398681Y185812345D01*
G75*
G02*
X-249312653Y184223683I-751317J-837345D01*
G01*
X-250622655Y182763683D01*
G75*
G02*
X-252211317Y182677655I-837345J751317D01*
G01*
G37*
D13*
X-245110000Y186055000D03*
G36*
G01*
X-245226517Y184352605D02*
X-245227403Y184352666D01*
G75*
G02*
X-246272334Y185552403I77403J1122334D01*
G01*
X-246232334Y186132403D01*
G75*
G02*
X-245032597Y187177334I1122334J-77403D01*
G01*
X-245032597Y187177334D01*
G75*
G02*
X-243987666Y185977597I-77403J-1122334D01*
G01*
X-244027666Y185397597D01*
G75*
G02*
X-245227403Y184352666I-1122334J77403D01*
G01*
G37*
G36*
G01*
X-202364017Y127202605D02*
X-202364903Y127202666D01*
G75*
G02*
X-203409834Y128402403I77403J1122334D01*
G01*
X-203369834Y128982403D01*
G75*
G02*
X-202170097Y130027334I1122334J-77403D01*
G01*
X-202170097Y130027334D01*
G75*
G02*
X-201125166Y128827597I-77403J-1122334D01*
G01*
X-201165166Y128247597D01*
G75*
G02*
X-202364903Y127202666I-1122334J77403D01*
G01*
G37*
X-202247500Y128905000D03*
G36*
G01*
X-209348812Y125527650D02*
X-209348817Y125527655D01*
G75*
G02*
X-209434845Y127116317I751317J837345D01*
G01*
X-208124843Y128576317D01*
G75*
G02*
X-206536181Y128662345I837345J-751317D01*
G01*
X-206536181Y128662345D01*
G75*
G02*
X-206450153Y127073683I-751317J-837345D01*
G01*
X-207760155Y125613683D01*
G75*
G02*
X-209348817Y125527655I-837345J751317D01*
G01*
G37*
D10*
X-204787500Y123825000D03*
D13*
X-207287500Y127825000D03*
D12*
X-209867500Y123825000D03*
X-199707500Y123825000D03*
X-118745000Y161925000D03*
X-128905000Y161925000D03*
D13*
X-126325000Y165925000D03*
D10*
X-123825000Y161925000D03*
G36*
G01*
X-128386312Y163627650D02*
X-128386317Y163627655D01*
G75*
G02*
X-128472345Y165216317I751317J837345D01*
G01*
X-127162343Y166676317D01*
G75*
G02*
X-125573681Y166762345I837345J-751317D01*
G01*
X-125573681Y166762345D01*
G75*
G02*
X-125487653Y165173683I-751317J-837345D01*
G01*
X-126797655Y163713683D01*
G75*
G02*
X-128386317Y163627655I-837345J751317D01*
G01*
G37*
D13*
X-121285000Y167005000D03*
G36*
G01*
X-121401517Y165302605D02*
X-121402403Y165302666D01*
G75*
G02*
X-122447334Y166502403I77403J1122334D01*
G01*
X-122407334Y167082403D01*
G75*
G02*
X-121207597Y168127334I1122334J-77403D01*
G01*
X-121207597Y168127334D01*
G75*
G02*
X-120162666Y166927597I-77403J-1122334D01*
G01*
X-120202666Y166347597D01*
G75*
G02*
X-121402403Y165302666I-1122334J77403D01*
G01*
G37*
G36*
G01*
X-183314017Y127202605D02*
X-183314903Y127202666D01*
G75*
G02*
X-184359834Y128402403I77403J1122334D01*
G01*
X-184319834Y128982403D01*
G75*
G02*
X-183120097Y130027334I1122334J-77403D01*
G01*
X-183120097Y130027334D01*
G75*
G02*
X-182075166Y128827597I-77403J-1122334D01*
G01*
X-182115166Y128247597D01*
G75*
G02*
X-183314903Y127202666I-1122334J77403D01*
G01*
G37*
X-183197500Y128905000D03*
G36*
G01*
X-190298812Y125527650D02*
X-190298817Y125527655D01*
G75*
G02*
X-190384845Y127116317I751317J837345D01*
G01*
X-189074843Y128576317D01*
G75*
G02*
X-187486181Y128662345I837345J-751317D01*
G01*
X-187486181Y128662345D01*
G75*
G02*
X-187400153Y127073683I-751317J-837345D01*
G01*
X-188710155Y125613683D01*
G75*
G02*
X-190298817Y125527655I-837345J751317D01*
G01*
G37*
D10*
X-185737500Y123825000D03*
D13*
X-188237500Y127825000D03*
D12*
X-190817500Y123825000D03*
X-180657500Y123825000D03*
X-194945000Y161925000D03*
X-205105000Y161925000D03*
D13*
X-202525000Y165925000D03*
D10*
X-200025000Y161925000D03*
G36*
G01*
X-204586312Y163627650D02*
X-204586317Y163627655D01*
G75*
G02*
X-204672345Y165216317I751317J837345D01*
G01*
X-203362343Y166676317D01*
G75*
G02*
X-201773681Y166762345I837345J-751317D01*
G01*
X-201773681Y166762345D01*
G75*
G02*
X-201687653Y165173683I-751317J-837345D01*
G01*
X-202997655Y163713683D01*
G75*
G02*
X-204586317Y163627655I-837345J751317D01*
G01*
G37*
D13*
X-197485000Y167005000D03*
G36*
G01*
X-197601517Y165302605D02*
X-197602403Y165302666D01*
G75*
G02*
X-198647334Y166502403I77403J1122334D01*
G01*
X-198607334Y167082403D01*
G75*
G02*
X-197407597Y168127334I1122334J-77403D01*
G01*
X-197407597Y168127334D01*
G75*
G02*
X-196362666Y166927597I-77403J-1122334D01*
G01*
X-196402666Y166347597D01*
G75*
G02*
X-197602403Y165302666I-1122334J77403D01*
G01*
G37*
G36*
G01*
X-145214017Y127202605D02*
X-145214903Y127202666D01*
G75*
G02*
X-146259834Y128402403I77403J1122334D01*
G01*
X-146219834Y128982403D01*
G75*
G02*
X-145020097Y130027334I1122334J-77403D01*
G01*
X-145020097Y130027334D01*
G75*
G02*
X-143975166Y128827597I-77403J-1122334D01*
G01*
X-144015166Y128247597D01*
G75*
G02*
X-145214903Y127202666I-1122334J77403D01*
G01*
G37*
X-145097500Y128905000D03*
G36*
G01*
X-152198812Y125527650D02*
X-152198817Y125527655D01*
G75*
G02*
X-152284845Y127116317I751317J837345D01*
G01*
X-150974843Y128576317D01*
G75*
G02*
X-149386181Y128662345I837345J-751317D01*
G01*
X-149386181Y128662345D01*
G75*
G02*
X-149300153Y127073683I-751317J-837345D01*
G01*
X-150610155Y125613683D01*
G75*
G02*
X-152198817Y125527655I-837345J751317D01*
G01*
G37*
D10*
X-147637500Y123825000D03*
D13*
X-150137500Y127825000D03*
D12*
X-152717500Y123825000D03*
X-142557500Y123825000D03*
X-99695000Y161925000D03*
X-109855000Y161925000D03*
D13*
X-107275000Y165925000D03*
D10*
X-104775000Y161925000D03*
G36*
G01*
X-109336312Y163627650D02*
X-109336317Y163627655D01*
G75*
G02*
X-109422345Y165216317I751317J837345D01*
G01*
X-108112343Y166676317D01*
G75*
G02*
X-106523681Y166762345I837345J-751317D01*
G01*
X-106523681Y166762345D01*
G75*
G02*
X-106437653Y165173683I-751317J-837345D01*
G01*
X-107747655Y163713683D01*
G75*
G02*
X-109336317Y163627655I-837345J751317D01*
G01*
G37*
D13*
X-102235000Y167005000D03*
G36*
G01*
X-102351517Y165302605D02*
X-102352403Y165302666D01*
G75*
G02*
X-103397334Y166502403I77403J1122334D01*
G01*
X-103357334Y167082403D01*
G75*
G02*
X-102157597Y168127334I1122334J-77403D01*
G01*
X-102157597Y168127334D01*
G75*
G02*
X-101112666Y166927597I-77403J-1122334D01*
G01*
X-101152666Y166347597D01*
G75*
G02*
X-102352403Y165302666I-1122334J77403D01*
G01*
G37*
D12*
X-137795000Y161925000D03*
X-147955000Y161925000D03*
D13*
X-145375000Y165925000D03*
D10*
X-142875000Y161925000D03*
G36*
G01*
X-147436312Y163627650D02*
X-147436317Y163627655D01*
G75*
G02*
X-147522345Y165216317I751317J837345D01*
G01*
X-146212343Y166676317D01*
G75*
G02*
X-144623681Y166762345I837345J-751317D01*
G01*
X-144623681Y166762345D01*
G75*
G02*
X-144537653Y165173683I-751317J-837345D01*
G01*
X-145847655Y163713683D01*
G75*
G02*
X-147436317Y163627655I-837345J751317D01*
G01*
G37*
D13*
X-140335000Y167005000D03*
G36*
G01*
X-140451517Y165302605D02*
X-140452403Y165302666D01*
G75*
G02*
X-141497334Y166502403I77403J1122334D01*
G01*
X-141457334Y167082403D01*
G75*
G02*
X-140257597Y168127334I1122334J-77403D01*
G01*
X-140257597Y168127334D01*
G75*
G02*
X-139212666Y166927597I-77403J-1122334D01*
G01*
X-139252666Y166347597D01*
G75*
G02*
X-140452403Y165302666I-1122334J77403D01*
G01*
G37*
D12*
X-190182500Y142875000D03*
X-200342500Y142875000D03*
D13*
X-197762500Y146875000D03*
D10*
X-195262500Y142875000D03*
G36*
G01*
X-199823812Y144577650D02*
X-199823817Y144577655D01*
G75*
G02*
X-199909845Y146166317I751317J837345D01*
G01*
X-198599843Y147626317D01*
G75*
G02*
X-197011181Y147712345I837345J-751317D01*
G01*
X-197011181Y147712345D01*
G75*
G02*
X-196925153Y146123683I-751317J-837345D01*
G01*
X-198235155Y144663683D01*
G75*
G02*
X-199823817Y144577655I-837345J751317D01*
G01*
G37*
D13*
X-192722500Y147955000D03*
G36*
G01*
X-192839017Y146252605D02*
X-192839903Y146252666D01*
G75*
G02*
X-193884834Y147452403I77403J1122334D01*
G01*
X-193844834Y148032403D01*
G75*
G02*
X-192645097Y149077334I1122334J-77403D01*
G01*
X-192645097Y149077334D01*
G75*
G02*
X-191600166Y147877597I-77403J-1122334D01*
G01*
X-191640166Y147297597D01*
G75*
G02*
X-192839903Y146252666I-1122334J77403D01*
G01*
G37*
D12*
X-156845000Y161925000D03*
X-167005000Y161925000D03*
D13*
X-164425000Y165925000D03*
D10*
X-161925000Y161925000D03*
G36*
G01*
X-166486312Y163627650D02*
X-166486317Y163627655D01*
G75*
G02*
X-166572345Y165216317I751317J837345D01*
G01*
X-165262343Y166676317D01*
G75*
G02*
X-163673681Y166762345I837345J-751317D01*
G01*
X-163673681Y166762345D01*
G75*
G02*
X-163587653Y165173683I-751317J-837345D01*
G01*
X-164897655Y163713683D01*
G75*
G02*
X-166486317Y163627655I-837345J751317D01*
G01*
G37*
D13*
X-159385000Y167005000D03*
G36*
G01*
X-159501517Y165302605D02*
X-159502403Y165302666D01*
G75*
G02*
X-160547334Y166502403I77403J1122334D01*
G01*
X-160507334Y167082403D01*
G75*
G02*
X-159307597Y168127334I1122334J-77403D01*
G01*
X-159307597Y168127334D01*
G75*
G02*
X-158262666Y166927597I-77403J-1122334D01*
G01*
X-158302666Y166347597D01*
G75*
G02*
X-159502403Y165302666I-1122334J77403D01*
G01*
G37*
D12*
X-213995000Y161925000D03*
X-224155000Y161925000D03*
D13*
X-221575000Y165925000D03*
D10*
X-219075000Y161925000D03*
G36*
G01*
X-223636312Y163627650D02*
X-223636317Y163627655D01*
G75*
G02*
X-223722345Y165216317I751317J837345D01*
G01*
X-222412343Y166676317D01*
G75*
G02*
X-220823681Y166762345I837345J-751317D01*
G01*
X-220823681Y166762345D01*
G75*
G02*
X-220737653Y165173683I-751317J-837345D01*
G01*
X-222047655Y163713683D01*
G75*
G02*
X-223636317Y163627655I-837345J751317D01*
G01*
G37*
D13*
X-216535000Y167005000D03*
G36*
G01*
X-216651517Y165302605D02*
X-216652403Y165302666D01*
G75*
G02*
X-217697334Y166502403I77403J1122334D01*
G01*
X-217657334Y167082403D01*
G75*
G02*
X-216457597Y168127334I1122334J-77403D01*
G01*
X-216457597Y168127334D01*
G75*
G02*
X-215412666Y166927597I-77403J-1122334D01*
G01*
X-215452666Y166347597D01*
G75*
G02*
X-216652403Y165302666I-1122334J77403D01*
G01*
G37*
D12*
X-42545000Y161925000D03*
X-52705000Y161925000D03*
D13*
X-50125000Y165925000D03*
D10*
X-47625000Y161925000D03*
G36*
G01*
X-52186312Y163627650D02*
X-52186317Y163627655D01*
G75*
G02*
X-52272345Y165216317I751317J837345D01*
G01*
X-50962343Y166676317D01*
G75*
G02*
X-49373681Y166762345I837345J-751317D01*
G01*
X-49373681Y166762345D01*
G75*
G02*
X-49287653Y165173683I-751317J-837345D01*
G01*
X-50597655Y163713683D01*
G75*
G02*
X-52186317Y163627655I-837345J751317D01*
G01*
G37*
D13*
X-45085000Y167005000D03*
G36*
G01*
X-45201517Y165302605D02*
X-45202403Y165302666D01*
G75*
G02*
X-46247334Y166502403I77403J1122334D01*
G01*
X-46207334Y167082403D01*
G75*
G02*
X-45007597Y168127334I1122334J-77403D01*
G01*
X-45007597Y168127334D01*
G75*
G02*
X-43962666Y166927597I-77403J-1122334D01*
G01*
X-44002666Y166347597D01*
G75*
G02*
X-45202403Y165302666I-1122334J77403D01*
G01*
G37*
D12*
X-61595000Y161925000D03*
X-71755000Y161925000D03*
D13*
X-69175000Y165925000D03*
D10*
X-66675000Y161925000D03*
G36*
G01*
X-71236312Y163627650D02*
X-71236317Y163627655D01*
G75*
G02*
X-71322345Y165216317I751317J837345D01*
G01*
X-70012343Y166676317D01*
G75*
G02*
X-68423681Y166762345I837345J-751317D01*
G01*
X-68423681Y166762345D01*
G75*
G02*
X-68337653Y165173683I-751317J-837345D01*
G01*
X-69647655Y163713683D01*
G75*
G02*
X-71236317Y163627655I-837345J751317D01*
G01*
G37*
D13*
X-64135000Y167005000D03*
G36*
G01*
X-64251517Y165302605D02*
X-64252403Y165302666D01*
G75*
G02*
X-65297334Y166502403I77403J1122334D01*
G01*
X-65257334Y167082403D01*
G75*
G02*
X-64057597Y168127334I1122334J-77403D01*
G01*
X-64057597Y168127334D01*
G75*
G02*
X-63012666Y166927597I-77403J-1122334D01*
G01*
X-63052666Y166347597D01*
G75*
G02*
X-64252403Y165302666I-1122334J77403D01*
G01*
G37*
G36*
G01*
X-107114017Y127202605D02*
X-107114903Y127202666D01*
G75*
G02*
X-108159834Y128402403I77403J1122334D01*
G01*
X-108119834Y128982403D01*
G75*
G02*
X-106920097Y130027334I1122334J-77403D01*
G01*
X-106920097Y130027334D01*
G75*
G02*
X-105875166Y128827597I-77403J-1122334D01*
G01*
X-105915166Y128247597D01*
G75*
G02*
X-107114903Y127202666I-1122334J77403D01*
G01*
G37*
X-106997500Y128905000D03*
G36*
G01*
X-114098812Y125527650D02*
X-114098817Y125527655D01*
G75*
G02*
X-114184845Y127116317I751317J837345D01*
G01*
X-112874843Y128576317D01*
G75*
G02*
X-111286181Y128662345I837345J-751317D01*
G01*
X-111286181Y128662345D01*
G75*
G02*
X-111200153Y127073683I-751317J-837345D01*
G01*
X-112510155Y125613683D01*
G75*
G02*
X-114098817Y125527655I-837345J751317D01*
G01*
G37*
D10*
X-109537500Y123825000D03*
D13*
X-112037500Y127825000D03*
D12*
X-114617500Y123825000D03*
X-104457500Y123825000D03*
G36*
G01*
X-88064017Y127202605D02*
X-88064903Y127202666D01*
G75*
G02*
X-89109834Y128402403I77403J1122334D01*
G01*
X-89069834Y128982403D01*
G75*
G02*
X-87870097Y130027334I1122334J-77403D01*
G01*
X-87870097Y130027334D01*
G75*
G02*
X-86825166Y128827597I-77403J-1122334D01*
G01*
X-86865166Y128247597D01*
G75*
G02*
X-88064903Y127202666I-1122334J77403D01*
G01*
G37*
D13*
X-87947500Y128905000D03*
G36*
G01*
X-95048812Y125527650D02*
X-95048817Y125527655D01*
G75*
G02*
X-95134845Y127116317I751317J837345D01*
G01*
X-93824843Y128576317D01*
G75*
G02*
X-92236181Y128662345I837345J-751317D01*
G01*
X-92236181Y128662345D01*
G75*
G02*
X-92150153Y127073683I-751317J-837345D01*
G01*
X-93460155Y125613683D01*
G75*
G02*
X-95048817Y125527655I-837345J751317D01*
G01*
G37*
D10*
X-90487500Y123825000D03*
D13*
X-92987500Y127825000D03*
D12*
X-95567500Y123825000D03*
X-85407500Y123825000D03*
X-56832500Y142875000D03*
X-66992500Y142875000D03*
D13*
X-64412500Y146875000D03*
D10*
X-61912500Y142875000D03*
G36*
G01*
X-66473812Y144577650D02*
X-66473817Y144577655D01*
G75*
G02*
X-66559845Y146166317I751317J837345D01*
G01*
X-65249843Y147626317D01*
G75*
G02*
X-63661181Y147712345I837345J-751317D01*
G01*
X-63661181Y147712345D01*
G75*
G02*
X-63575153Y146123683I-751317J-837345D01*
G01*
X-64885155Y144663683D01*
G75*
G02*
X-66473817Y144577655I-837345J751317D01*
G01*
G37*
D13*
X-59372500Y147955000D03*
G36*
G01*
X-59489017Y146252605D02*
X-59489903Y146252666D01*
G75*
G02*
X-60534834Y147452403I77403J1122334D01*
G01*
X-60494834Y148032403D01*
G75*
G02*
X-59295097Y149077334I1122334J-77403D01*
G01*
X-59295097Y149077334D01*
G75*
G02*
X-58250166Y147877597I-77403J-1122334D01*
G01*
X-58290166Y147297597D01*
G75*
G02*
X-59489903Y146252666I-1122334J77403D01*
G01*
G37*
D12*
X-75882500Y142875000D03*
X-86042500Y142875000D03*
D13*
X-83462500Y146875000D03*
D10*
X-80962500Y142875000D03*
G36*
G01*
X-85523812Y144577650D02*
X-85523817Y144577655D01*
G75*
G02*
X-85609845Y146166317I751317J837345D01*
G01*
X-84299843Y147626317D01*
G75*
G02*
X-82711181Y147712345I837345J-751317D01*
G01*
X-82711181Y147712345D01*
G75*
G02*
X-82625153Y146123683I-751317J-837345D01*
G01*
X-83935155Y144663683D01*
G75*
G02*
X-85523817Y144577655I-837345J751317D01*
G01*
G37*
D13*
X-78422500Y147955000D03*
G36*
G01*
X-78539017Y146252605D02*
X-78539903Y146252666D01*
G75*
G02*
X-79584834Y147452403I77403J1122334D01*
G01*
X-79544834Y148032403D01*
G75*
G02*
X-78345097Y149077334I1122334J-77403D01*
G01*
X-78345097Y149077334D01*
G75*
G02*
X-77300166Y147877597I-77403J-1122334D01*
G01*
X-77340166Y147297597D01*
G75*
G02*
X-78539903Y146252666I-1122334J77403D01*
G01*
G37*
D12*
X-94932500Y142875000D03*
X-105092500Y142875000D03*
D13*
X-102512500Y146875000D03*
D10*
X-100012500Y142875000D03*
G36*
G01*
X-104573812Y144577650D02*
X-104573817Y144577655D01*
G75*
G02*
X-104659845Y146166317I751317J837345D01*
G01*
X-103349843Y147626317D01*
G75*
G02*
X-101761181Y147712345I837345J-751317D01*
G01*
X-101761181Y147712345D01*
G75*
G02*
X-101675153Y146123683I-751317J-837345D01*
G01*
X-102985155Y144663683D01*
G75*
G02*
X-104573817Y144577655I-837345J751317D01*
G01*
G37*
D13*
X-97472500Y147955000D03*
G36*
G01*
X-97589017Y146252605D02*
X-97589903Y146252666D01*
G75*
G02*
X-98634834Y147452403I77403J1122334D01*
G01*
X-98594834Y148032403D01*
G75*
G02*
X-97395097Y149077334I1122334J-77403D01*
G01*
X-97395097Y149077334D01*
G75*
G02*
X-96350166Y147877597I-77403J-1122334D01*
G01*
X-96390166Y147297597D01*
G75*
G02*
X-97589903Y146252666I-1122334J77403D01*
G01*
G37*
D12*
X-80645000Y161925000D03*
X-90805000Y161925000D03*
D13*
X-88225000Y165925000D03*
D10*
X-85725000Y161925000D03*
G36*
G01*
X-90286312Y163627650D02*
X-90286317Y163627655D01*
G75*
G02*
X-90372345Y165216317I751317J837345D01*
G01*
X-89062343Y166676317D01*
G75*
G02*
X-87473681Y166762345I837345J-751317D01*
G01*
X-87473681Y166762345D01*
G75*
G02*
X-87387653Y165173683I-751317J-837345D01*
G01*
X-88697655Y163713683D01*
G75*
G02*
X-90286317Y163627655I-837345J751317D01*
G01*
G37*
D13*
X-83185000Y167005000D03*
G36*
G01*
X-83301517Y165302605D02*
X-83302403Y165302666D01*
G75*
G02*
X-84347334Y166502403I77403J1122334D01*
G01*
X-84307334Y167082403D01*
G75*
G02*
X-83107597Y168127334I1122334J-77403D01*
G01*
X-83107597Y168127334D01*
G75*
G02*
X-82062666Y166927597I-77403J-1122334D01*
G01*
X-82102666Y166347597D01*
G75*
G02*
X-83302403Y165302666I-1122334J77403D01*
G01*
G37*
D12*
X-133121250Y142875000D03*
X-143281250Y142875000D03*
D13*
X-140701250Y146875000D03*
D10*
X-138201250Y142875000D03*
G36*
G01*
X-142762562Y144577650D02*
X-142762567Y144577655D01*
G75*
G02*
X-142848595Y146166317I751317J837345D01*
G01*
X-141538593Y147626317D01*
G75*
G02*
X-139949931Y147712345I837345J-751317D01*
G01*
X-139949931Y147712345D01*
G75*
G02*
X-139863903Y146123683I-751317J-837345D01*
G01*
X-141173905Y144663683D01*
G75*
G02*
X-142762567Y144577655I-837345J751317D01*
G01*
G37*
D13*
X-135661250Y147955000D03*
G36*
G01*
X-135777767Y146252605D02*
X-135778653Y146252666D01*
G75*
G02*
X-136823584Y147452403I77403J1122334D01*
G01*
X-136783584Y148032403D01*
G75*
G02*
X-135583847Y149077334I1122334J-77403D01*
G01*
X-135583847Y149077334D01*
G75*
G02*
X-134538916Y147877597I-77403J-1122334D01*
G01*
X-134578916Y147297597D01*
G75*
G02*
X-135778653Y146252666I-1122334J77403D01*
G01*
G37*
D12*
X-152082500Y142875000D03*
X-162242500Y142875000D03*
D13*
X-159662500Y146875000D03*
D10*
X-157162500Y142875000D03*
G36*
G01*
X-161723812Y144577650D02*
X-161723817Y144577655D01*
G75*
G02*
X-161809845Y146166317I751317J837345D01*
G01*
X-160499843Y147626317D01*
G75*
G02*
X-158911181Y147712345I837345J-751317D01*
G01*
X-158911181Y147712345D01*
G75*
G02*
X-158825153Y146123683I-751317J-837345D01*
G01*
X-160135155Y144663683D01*
G75*
G02*
X-161723817Y144577655I-837345J751317D01*
G01*
G37*
D13*
X-154622500Y147955000D03*
G36*
G01*
X-154739017Y146252605D02*
X-154739903Y146252666D01*
G75*
G02*
X-155784834Y147452403I77403J1122334D01*
G01*
X-155744834Y148032403D01*
G75*
G02*
X-154545097Y149077334I1122334J-77403D01*
G01*
X-154545097Y149077334D01*
G75*
G02*
X-153500166Y147877597I-77403J-1122334D01*
G01*
X-153540166Y147297597D01*
G75*
G02*
X-154739903Y146252666I-1122334J77403D01*
G01*
G37*
D12*
X24130000Y204787500D03*
X13970000Y204787500D03*
D13*
X16550000Y208787500D03*
D10*
X19050000Y204787500D03*
G36*
G01*
X14488688Y206490150D02*
X14488683Y206490155D01*
G75*
G02*
X14402655Y208078817I751317J837345D01*
G01*
X15712657Y209538817D01*
G75*
G02*
X17301319Y209624845I837345J-751317D01*
G01*
X17301319Y209624845D01*
G75*
G02*
X17387347Y208036183I-751317J-837345D01*
G01*
X16077345Y206576183D01*
G75*
G02*
X14488683Y206490155I-837345J751317D01*
G01*
G37*
D13*
X21590000Y209867500D03*
G36*
G01*
X21473483Y208165105D02*
X21472597Y208165166D01*
G75*
G02*
X20427666Y209364903I77403J1122334D01*
G01*
X20467666Y209944903D01*
G75*
G02*
X21667403Y210989834I1122334J-77403D01*
G01*
X21667403Y210989834D01*
G75*
G02*
X22712334Y209790097I-77403J-1122334D01*
G01*
X22672334Y209210097D01*
G75*
G02*
X21472597Y208165166I-1122334J77403D01*
G01*
G37*
D12*
X5080000Y204787500D03*
X-5080000Y204787500D03*
D13*
X-2500000Y208787500D03*
D10*
X0Y204787500D03*
G36*
G01*
X-4561312Y206490150D02*
X-4561317Y206490155D01*
G75*
G02*
X-4647345Y208078817I751317J837345D01*
G01*
X-3337343Y209538817D01*
G75*
G02*
X-1748681Y209624845I837345J-751317D01*
G01*
X-1748681Y209624845D01*
G75*
G02*
X-1662653Y208036183I-751317J-837345D01*
G01*
X-2972655Y206576183D01*
G75*
G02*
X-4561317Y206490155I-837345J751317D01*
G01*
G37*
D13*
X2540000Y209867500D03*
G36*
G01*
X2423483Y208165105D02*
X2422597Y208165166D01*
G75*
G02*
X1377666Y209364903I77403J1122334D01*
G01*
X1417666Y209944903D01*
G75*
G02*
X2617403Y210989834I1122334J-77403D01*
G01*
X2617403Y210989834D01*
G75*
G02*
X3662334Y209790097I-77403J-1122334D01*
G01*
X3622334Y209210097D01*
G75*
G02*
X2422597Y208165166I-1122334J77403D01*
G01*
G37*
D12*
X-13970000Y204787500D03*
X-24130000Y204787500D03*
D13*
X-21550000Y208787500D03*
D10*
X-19050000Y204787500D03*
G36*
G01*
X-23611312Y206490150D02*
X-23611317Y206490155D01*
G75*
G02*
X-23697345Y208078817I751317J837345D01*
G01*
X-22387343Y209538817D01*
G75*
G02*
X-20798681Y209624845I837345J-751317D01*
G01*
X-20798681Y209624845D01*
G75*
G02*
X-20712653Y208036183I-751317J-837345D01*
G01*
X-22022655Y206576183D01*
G75*
G02*
X-23611317Y206490155I-837345J751317D01*
G01*
G37*
D13*
X-16510000Y209867500D03*
G36*
G01*
X-16626517Y208165105D02*
X-16627403Y208165166D01*
G75*
G02*
X-17672334Y209364903I77403J1122334D01*
G01*
X-17632334Y209944903D01*
G75*
G02*
X-16432597Y210989834I1122334J-77403D01*
G01*
X-16432597Y210989834D01*
G75*
G02*
X-15387666Y209790097I-77403J-1122334D01*
G01*
X-15427666Y209210097D01*
G75*
G02*
X-16627403Y208165166I-1122334J77403D01*
G01*
G37*
D12*
X-33020000Y204787500D03*
X-43180000Y204787500D03*
D13*
X-40600000Y208787500D03*
D10*
X-38100000Y204787500D03*
G36*
G01*
X-42661312Y206490150D02*
X-42661317Y206490155D01*
G75*
G02*
X-42747345Y208078817I751317J837345D01*
G01*
X-41437343Y209538817D01*
G75*
G02*
X-39848681Y209624845I837345J-751317D01*
G01*
X-39848681Y209624845D01*
G75*
G02*
X-39762653Y208036183I-751317J-837345D01*
G01*
X-41072655Y206576183D01*
G75*
G02*
X-42661317Y206490155I-837345J751317D01*
G01*
G37*
D13*
X-35560000Y209867500D03*
G36*
G01*
X-35676517Y208165105D02*
X-35677403Y208165166D01*
G75*
G02*
X-36722334Y209364903I77403J1122334D01*
G01*
X-36682334Y209944903D01*
G75*
G02*
X-35482597Y210989834I1122334J-77403D01*
G01*
X-35482597Y210989834D01*
G75*
G02*
X-34437666Y209790097I-77403J-1122334D01*
G01*
X-34477666Y209210097D01*
G75*
G02*
X-35677403Y208165166I-1122334J77403D01*
G01*
G37*
D12*
X-61595000Y204787500D03*
X-71755000Y204787500D03*
D13*
X-69175000Y208787500D03*
D10*
X-66675000Y204787500D03*
G36*
G01*
X-71236312Y206490150D02*
X-71236317Y206490155D01*
G75*
G02*
X-71322345Y208078817I751317J837345D01*
G01*
X-70012343Y209538817D01*
G75*
G02*
X-68423681Y209624845I837345J-751317D01*
G01*
X-68423681Y209624845D01*
G75*
G02*
X-68337653Y208036183I-751317J-837345D01*
G01*
X-69647655Y206576183D01*
G75*
G02*
X-71236317Y206490155I-837345J751317D01*
G01*
G37*
D13*
X-64135000Y209867500D03*
G36*
G01*
X-64251517Y208165105D02*
X-64252403Y208165166D01*
G75*
G02*
X-65297334Y209364903I77403J1122334D01*
G01*
X-65257334Y209944903D01*
G75*
G02*
X-64057597Y210989834I1122334J-77403D01*
G01*
X-64057597Y210989834D01*
G75*
G02*
X-63012666Y209790097I-77403J-1122334D01*
G01*
X-63052666Y209210097D01*
G75*
G02*
X-64252403Y208165166I-1122334J77403D01*
G01*
G37*
D12*
X-80645000Y204787500D03*
X-90805000Y204787500D03*
D13*
X-88225000Y208787500D03*
D10*
X-85725000Y204787500D03*
G36*
G01*
X-90286312Y206490150D02*
X-90286317Y206490155D01*
G75*
G02*
X-90372345Y208078817I751317J837345D01*
G01*
X-89062343Y209538817D01*
G75*
G02*
X-87473681Y209624845I837345J-751317D01*
G01*
X-87473681Y209624845D01*
G75*
G02*
X-87387653Y208036183I-751317J-837345D01*
G01*
X-88697655Y206576183D01*
G75*
G02*
X-90286317Y206490155I-837345J751317D01*
G01*
G37*
D13*
X-83185000Y209867500D03*
G36*
G01*
X-83301517Y208165105D02*
X-83302403Y208165166D01*
G75*
G02*
X-84347334Y209364903I77403J1122334D01*
G01*
X-84307334Y209944903D01*
G75*
G02*
X-83107597Y210989834I1122334J-77403D01*
G01*
X-83107597Y210989834D01*
G75*
G02*
X-82062666Y209790097I-77403J-1122334D01*
G01*
X-82102666Y209210097D01*
G75*
G02*
X-83302403Y208165166I-1122334J77403D01*
G01*
G37*
D12*
X-99695000Y204787500D03*
X-109855000Y204787500D03*
D13*
X-107275000Y208787500D03*
D10*
X-104775000Y204787500D03*
G36*
G01*
X-109336312Y206490150D02*
X-109336317Y206490155D01*
G75*
G02*
X-109422345Y208078817I751317J837345D01*
G01*
X-108112343Y209538817D01*
G75*
G02*
X-106523681Y209624845I837345J-751317D01*
G01*
X-106523681Y209624845D01*
G75*
G02*
X-106437653Y208036183I-751317J-837345D01*
G01*
X-107747655Y206576183D01*
G75*
G02*
X-109336317Y206490155I-837345J751317D01*
G01*
G37*
D13*
X-102235000Y209867500D03*
G36*
G01*
X-102351517Y208165105D02*
X-102352403Y208165166D01*
G75*
G02*
X-103397334Y209364903I77403J1122334D01*
G01*
X-103357334Y209944903D01*
G75*
G02*
X-102157597Y210989834I1122334J-77403D01*
G01*
X-102157597Y210989834D01*
G75*
G02*
X-101112666Y209790097I-77403J-1122334D01*
G01*
X-101152666Y209210097D01*
G75*
G02*
X-102352403Y208165166I-1122334J77403D01*
G01*
G37*
D12*
X-118745000Y204787500D03*
X-128905000Y204787500D03*
D13*
X-126325000Y208787500D03*
D10*
X-123825000Y204787500D03*
G36*
G01*
X-128386312Y206490150D02*
X-128386317Y206490155D01*
G75*
G02*
X-128472345Y208078817I751317J837345D01*
G01*
X-127162343Y209538817D01*
G75*
G02*
X-125573681Y209624845I837345J-751317D01*
G01*
X-125573681Y209624845D01*
G75*
G02*
X-125487653Y208036183I-751317J-837345D01*
G01*
X-126797655Y206576183D01*
G75*
G02*
X-128386317Y206490155I-837345J751317D01*
G01*
G37*
D13*
X-121285000Y209867500D03*
G36*
G01*
X-121401517Y208165105D02*
X-121402403Y208165166D01*
G75*
G02*
X-122447334Y209364903I77403J1122334D01*
G01*
X-122407334Y209944903D01*
G75*
G02*
X-121207597Y210989834I1122334J-77403D01*
G01*
X-121207597Y210989834D01*
G75*
G02*
X-120162666Y209790097I-77403J-1122334D01*
G01*
X-120202666Y209210097D01*
G75*
G02*
X-121402403Y208165166I-1122334J77403D01*
G01*
G37*
D12*
X-147320000Y204787500D03*
X-157480000Y204787500D03*
D13*
X-154900000Y208787500D03*
D10*
X-152400000Y204787500D03*
G36*
G01*
X-156961312Y206490150D02*
X-156961317Y206490155D01*
G75*
G02*
X-157047345Y208078817I751317J837345D01*
G01*
X-155737343Y209538817D01*
G75*
G02*
X-154148681Y209624845I837345J-751317D01*
G01*
X-154148681Y209624845D01*
G75*
G02*
X-154062653Y208036183I-751317J-837345D01*
G01*
X-155372655Y206576183D01*
G75*
G02*
X-156961317Y206490155I-837345J751317D01*
G01*
G37*
D13*
X-149860000Y209867500D03*
G36*
G01*
X-149976517Y208165105D02*
X-149977403Y208165166D01*
G75*
G02*
X-151022334Y209364903I77403J1122334D01*
G01*
X-150982334Y209944903D01*
G75*
G02*
X-149782597Y210989834I1122334J-77403D01*
G01*
X-149782597Y210989834D01*
G75*
G02*
X-148737666Y209790097I-77403J-1122334D01*
G01*
X-148777666Y209210097D01*
G75*
G02*
X-149977403Y208165166I-1122334J77403D01*
G01*
G37*
D12*
X-166370000Y204787500D03*
X-176530000Y204787500D03*
D13*
X-173950000Y208787500D03*
D10*
X-171450000Y204787500D03*
G36*
G01*
X-176011312Y206490150D02*
X-176011317Y206490155D01*
G75*
G02*
X-176097345Y208078817I751317J837345D01*
G01*
X-174787343Y209538817D01*
G75*
G02*
X-173198681Y209624845I837345J-751317D01*
G01*
X-173198681Y209624845D01*
G75*
G02*
X-173112653Y208036183I-751317J-837345D01*
G01*
X-174422655Y206576183D01*
G75*
G02*
X-176011317Y206490155I-837345J751317D01*
G01*
G37*
D13*
X-168910000Y209867500D03*
G36*
G01*
X-169026517Y208165105D02*
X-169027403Y208165166D01*
G75*
G02*
X-170072334Y209364903I77403J1122334D01*
G01*
X-170032334Y209944903D01*
G75*
G02*
X-168832597Y210989834I1122334J-77403D01*
G01*
X-168832597Y210989834D01*
G75*
G02*
X-167787666Y209790097I-77403J-1122334D01*
G01*
X-167827666Y209210097D01*
G75*
G02*
X-169027403Y208165166I-1122334J77403D01*
G01*
G37*
D12*
X-185420000Y204787500D03*
X-195580000Y204787500D03*
D13*
X-193000000Y208787500D03*
D10*
X-190500000Y204787500D03*
G36*
G01*
X-195061312Y206490150D02*
X-195061317Y206490155D01*
G75*
G02*
X-195147345Y208078817I751317J837345D01*
G01*
X-193837343Y209538817D01*
G75*
G02*
X-192248681Y209624845I837345J-751317D01*
G01*
X-192248681Y209624845D01*
G75*
G02*
X-192162653Y208036183I-751317J-837345D01*
G01*
X-193472655Y206576183D01*
G75*
G02*
X-195061317Y206490155I-837345J751317D01*
G01*
G37*
D13*
X-187960000Y209867500D03*
G36*
G01*
X-188076517Y208165105D02*
X-188077403Y208165166D01*
G75*
G02*
X-189122334Y209364903I77403J1122334D01*
G01*
X-189082334Y209944903D01*
G75*
G02*
X-187882597Y210989834I1122334J-77403D01*
G01*
X-187882597Y210989834D01*
G75*
G02*
X-186837666Y209790097I-77403J-1122334D01*
G01*
X-186877666Y209210097D01*
G75*
G02*
X-188077403Y208165166I-1122334J77403D01*
G01*
G37*
D12*
X-204470000Y204787500D03*
X-214630000Y204787500D03*
D13*
X-212050000Y208787500D03*
D10*
X-209550000Y204787500D03*
G36*
G01*
X-214111312Y206490150D02*
X-214111317Y206490155D01*
G75*
G02*
X-214197345Y208078817I751317J837345D01*
G01*
X-212887343Y209538817D01*
G75*
G02*
X-211298681Y209624845I837345J-751317D01*
G01*
X-211298681Y209624845D01*
G75*
G02*
X-211212653Y208036183I-751317J-837345D01*
G01*
X-212522655Y206576183D01*
G75*
G02*
X-214111317Y206490155I-837345J751317D01*
G01*
G37*
D13*
X-207010000Y209867500D03*
G36*
G01*
X-207126517Y208165105D02*
X-207127403Y208165166D01*
G75*
G02*
X-208172334Y209364903I77403J1122334D01*
G01*
X-208132334Y209944903D01*
G75*
G02*
X-206932597Y210989834I1122334J-77403D01*
G01*
X-206932597Y210989834D01*
G75*
G02*
X-205887666Y209790097I-77403J-1122334D01*
G01*
X-205927666Y209210097D01*
G75*
G02*
X-207127403Y208165166I-1122334J77403D01*
G01*
G37*
D12*
X-175895000Y161925000D03*
X-186055000Y161925000D03*
D13*
X-183475000Y165925000D03*
D10*
X-180975000Y161925000D03*
G36*
G01*
X-185536312Y163627650D02*
X-185536317Y163627655D01*
G75*
G02*
X-185622345Y165216317I751317J837345D01*
G01*
X-184312343Y166676317D01*
G75*
G02*
X-182723681Y166762345I837345J-751317D01*
G01*
X-182723681Y166762345D01*
G75*
G02*
X-182637653Y165173683I-751317J-837345D01*
G01*
X-183947655Y163713683D01*
G75*
G02*
X-185536317Y163627655I-837345J751317D01*
G01*
G37*
D13*
X-178435000Y167005000D03*
G36*
G01*
X-178551517Y165302605D02*
X-178552403Y165302666D01*
G75*
G02*
X-179597334Y166502403I77403J1122334D01*
G01*
X-179557334Y167082403D01*
G75*
G02*
X-178357597Y168127334I1122334J-77403D01*
G01*
X-178357597Y168127334D01*
G75*
G02*
X-177312666Y166927597I-77403J-1122334D01*
G01*
X-177352666Y166347597D01*
G75*
G02*
X-178552403Y165302666I-1122334J77403D01*
G01*
G37*
G36*
G01*
X-164264017Y127202605D02*
X-164264903Y127202666D01*
G75*
G02*
X-165309834Y128402403I77403J1122334D01*
G01*
X-165269834Y128982403D01*
G75*
G02*
X-164070097Y130027334I1122334J-77403D01*
G01*
X-164070097Y130027334D01*
G75*
G02*
X-163025166Y128827597I-77403J-1122334D01*
G01*
X-163065166Y128247597D01*
G75*
G02*
X-164264903Y127202666I-1122334J77403D01*
G01*
G37*
X-164147500Y128905000D03*
G36*
G01*
X-171248812Y125527650D02*
X-171248817Y125527655D01*
G75*
G02*
X-171334845Y127116317I751317J837345D01*
G01*
X-170024843Y128576317D01*
G75*
G02*
X-168436181Y128662345I837345J-751317D01*
G01*
X-168436181Y128662345D01*
G75*
G02*
X-168350153Y127073683I-751317J-837345D01*
G01*
X-169660155Y125613683D01*
G75*
G02*
X-171248817Y125527655I-837345J751317D01*
G01*
G37*
D10*
X-166687500Y123825000D03*
D13*
X-169187500Y127825000D03*
D12*
X-171767500Y123825000D03*
X-161607500Y123825000D03*
G36*
G01*
X-126164017Y127202605D02*
X-126164903Y127202666D01*
G75*
G02*
X-127209834Y128402403I77403J1122334D01*
G01*
X-127169834Y128982403D01*
G75*
G02*
X-125970097Y130027334I1122334J-77403D01*
G01*
X-125970097Y130027334D01*
G75*
G02*
X-124925166Y128827597I-77403J-1122334D01*
G01*
X-124965166Y128247597D01*
G75*
G02*
X-126164903Y127202666I-1122334J77403D01*
G01*
G37*
D13*
X-126047500Y128905000D03*
G36*
G01*
X-133148812Y125527650D02*
X-133148817Y125527655D01*
G75*
G02*
X-133234845Y127116317I751317J837345D01*
G01*
X-131924843Y128576317D01*
G75*
G02*
X-130336181Y128662345I837345J-751317D01*
G01*
X-130336181Y128662345D01*
G75*
G02*
X-130250153Y127073683I-751317J-837345D01*
G01*
X-131560155Y125613683D01*
G75*
G02*
X-133148817Y125527655I-837345J751317D01*
G01*
G37*
D10*
X-128587500Y123825000D03*
D13*
X-131087500Y127825000D03*
D12*
X-133667500Y123825000D03*
X-123507500Y123825000D03*
X-209232500Y142875000D03*
X-219392500Y142875000D03*
D13*
X-216812500Y146875000D03*
D10*
X-214312500Y142875000D03*
G36*
G01*
X-218873812Y144577650D02*
X-218873817Y144577655D01*
G75*
G02*
X-218959845Y146166317I751317J837345D01*
G01*
X-217649843Y147626317D01*
G75*
G02*
X-216061181Y147712345I837345J-751317D01*
G01*
X-216061181Y147712345D01*
G75*
G02*
X-215975153Y146123683I-751317J-837345D01*
G01*
X-217285155Y144663683D01*
G75*
G02*
X-218873817Y144577655I-837345J751317D01*
G01*
G37*
D13*
X-211772500Y147955000D03*
G36*
G01*
X-211889017Y146252605D02*
X-211889903Y146252666D01*
G75*
G02*
X-212934834Y147452403I77403J1122334D01*
G01*
X-212894834Y148032403D01*
G75*
G02*
X-211695097Y149077334I1122334J-77403D01*
G01*
X-211695097Y149077334D01*
G75*
G02*
X-210650166Y147877597I-77403J-1122334D01*
G01*
X-210690166Y147297597D01*
G75*
G02*
X-211889903Y146252666I-1122334J77403D01*
G01*
G37*
D12*
X-4445000Y161925000D03*
X-14605000Y161925000D03*
D13*
X-12025000Y165925000D03*
D10*
X-9525000Y161925000D03*
G36*
G01*
X-14086312Y163627650D02*
X-14086317Y163627655D01*
G75*
G02*
X-14172345Y165216317I751317J837345D01*
G01*
X-12862343Y166676317D01*
G75*
G02*
X-11273681Y166762345I837345J-751317D01*
G01*
X-11273681Y166762345D01*
G75*
G02*
X-11187653Y165173683I-751317J-837345D01*
G01*
X-12497655Y163713683D01*
G75*
G02*
X-14086317Y163627655I-837345J751317D01*
G01*
G37*
D13*
X-6985000Y167005000D03*
G36*
G01*
X-7101517Y165302605D02*
X-7102403Y165302666D01*
G75*
G02*
X-8147334Y166502403I77403J1122334D01*
G01*
X-8107334Y167082403D01*
G75*
G02*
X-6907597Y168127334I1122334J-77403D01*
G01*
X-6907597Y168127334D01*
G75*
G02*
X-5862666Y166927597I-77403J-1122334D01*
G01*
X-5902666Y166347597D01*
G75*
G02*
X-7102403Y165302666I-1122334J77403D01*
G01*
G37*
D12*
X-23495000Y161925000D03*
X-33655000Y161925000D03*
D13*
X-31075000Y165925000D03*
D10*
X-28575000Y161925000D03*
G36*
G01*
X-33136312Y163627650D02*
X-33136317Y163627655D01*
G75*
G02*
X-33222345Y165216317I751317J837345D01*
G01*
X-31912343Y166676317D01*
G75*
G02*
X-30323681Y166762345I837345J-751317D01*
G01*
X-30323681Y166762345D01*
G75*
G02*
X-30237653Y165173683I-751317J-837345D01*
G01*
X-31547655Y163713683D01*
G75*
G02*
X-33136317Y163627655I-837345J751317D01*
G01*
G37*
D13*
X-26035000Y167005000D03*
G36*
G01*
X-26151517Y165302605D02*
X-26152403Y165302666D01*
G75*
G02*
X-27197334Y166502403I77403J1122334D01*
G01*
X-27157334Y167082403D01*
G75*
G02*
X-25957597Y168127334I1122334J-77403D01*
G01*
X-25957597Y168127334D01*
G75*
G02*
X-24912666Y166927597I-77403J-1122334D01*
G01*
X-24952666Y166347597D01*
G75*
G02*
X-26152403Y165302666I-1122334J77403D01*
G01*
G37*
D12*
X-13970000Y180975000D03*
X-24130000Y180975000D03*
D13*
X-21550000Y184975000D03*
D10*
X-19050000Y180975000D03*
G36*
G01*
X-23611312Y182677650D02*
X-23611317Y182677655D01*
G75*
G02*
X-23697345Y184266317I751317J837345D01*
G01*
X-22387343Y185726317D01*
G75*
G02*
X-20798681Y185812345I837345J-751317D01*
G01*
X-20798681Y185812345D01*
G75*
G02*
X-20712653Y184223683I-751317J-837345D01*
G01*
X-22022655Y182763683D01*
G75*
G02*
X-23611317Y182677655I-837345J751317D01*
G01*
G37*
D13*
X-16510000Y186055000D03*
G36*
G01*
X-16626517Y184352605D02*
X-16627403Y184352666D01*
G75*
G02*
X-17672334Y185552403I77403J1122334D01*
G01*
X-17632334Y186132403D01*
G75*
G02*
X-16432597Y187177334I1122334J-77403D01*
G01*
X-16432597Y187177334D01*
G75*
G02*
X-15387666Y185977597I-77403J-1122334D01*
G01*
X-15427666Y185397597D01*
G75*
G02*
X-16627403Y184352666I-1122334J77403D01*
G01*
G37*
D12*
X-37782500Y142875000D03*
X-47942500Y142875000D03*
D13*
X-45362500Y146875000D03*
D10*
X-42862500Y142875000D03*
G36*
G01*
X-47423812Y144577650D02*
X-47423817Y144577655D01*
G75*
G02*
X-47509845Y146166317I751317J837345D01*
G01*
X-46199843Y147626317D01*
G75*
G02*
X-44611181Y147712345I837345J-751317D01*
G01*
X-44611181Y147712345D01*
G75*
G02*
X-44525153Y146123683I-751317J-837345D01*
G01*
X-45835155Y144663683D01*
G75*
G02*
X-47423817Y144577655I-837345J751317D01*
G01*
G37*
D13*
X-40322500Y147955000D03*
G36*
G01*
X-40439017Y146252605D02*
X-40439903Y146252666D01*
G75*
G02*
X-41484834Y147452403I77403J1122334D01*
G01*
X-41444834Y148032403D01*
G75*
G02*
X-40245097Y149077334I1122334J-77403D01*
G01*
X-40245097Y149077334D01*
G75*
G02*
X-39200166Y147877597I-77403J-1122334D01*
G01*
X-39240166Y147297597D01*
G75*
G02*
X-40439903Y146252666I-1122334J77403D01*
G01*
G37*
D12*
X28892500Y100012500D03*
X18732500Y100012500D03*
D13*
X21312500Y104012500D03*
D10*
X23812500Y100012500D03*
G36*
G01*
X19251188Y101715150D02*
X19251183Y101715155D01*
G75*
G02*
X19165155Y103303817I751317J837345D01*
G01*
X20475157Y104763817D01*
G75*
G02*
X22063819Y104849845I837345J-751317D01*
G01*
X22063819Y104849845D01*
G75*
G02*
X22149847Y103261183I-751317J-837345D01*
G01*
X20839845Y101801183D01*
G75*
G02*
X19251183Y101715155I-837345J751317D01*
G01*
G37*
D13*
X26352500Y105092500D03*
G36*
G01*
X26235983Y103390105D02*
X26235097Y103390166D01*
G75*
G02*
X25190166Y104589903I77403J1122334D01*
G01*
X25230166Y105169903D01*
G75*
G02*
X26429903Y106214834I1122334J-77403D01*
G01*
X26429903Y106214834D01*
G75*
G02*
X27474834Y105015097I-77403J-1122334D01*
G01*
X27434834Y104435097D01*
G75*
G02*
X26235097Y103390166I-1122334J77403D01*
G01*
G37*
G36*
G01*
X-30914017Y127202605D02*
X-30914903Y127202666D01*
G75*
G02*
X-31959834Y128402403I77403J1122334D01*
G01*
X-31919834Y128982403D01*
G75*
G02*
X-30720097Y130027334I1122334J-77403D01*
G01*
X-30720097Y130027334D01*
G75*
G02*
X-29675166Y128827597I-77403J-1122334D01*
G01*
X-29715166Y128247597D01*
G75*
G02*
X-30914903Y127202666I-1122334J77403D01*
G01*
G37*
X-30797500Y128905000D03*
G36*
G01*
X-37898812Y125527650D02*
X-37898817Y125527655D01*
G75*
G02*
X-37984845Y127116317I751317J837345D01*
G01*
X-36674843Y128576317D01*
G75*
G02*
X-35086181Y128662345I837345J-751317D01*
G01*
X-35086181Y128662345D01*
G75*
G02*
X-35000153Y127073683I-751317J-837345D01*
G01*
X-36310155Y125613683D01*
G75*
G02*
X-37898817Y125527655I-837345J751317D01*
G01*
G37*
D10*
X-33337500Y123825000D03*
D13*
X-35837500Y127825000D03*
D12*
X-38417500Y123825000D03*
X-28257500Y123825000D03*
X47942500Y100012500D03*
X37782500Y100012500D03*
D13*
X40362500Y104012500D03*
D10*
X42862500Y100012500D03*
G36*
G01*
X38301188Y101715150D02*
X38301183Y101715155D01*
G75*
G02*
X38215155Y103303817I751317J837345D01*
G01*
X39525157Y104763817D01*
G75*
G02*
X41113819Y104849845I837345J-751317D01*
G01*
X41113819Y104849845D01*
G75*
G02*
X41199847Y103261183I-751317J-837345D01*
G01*
X39889845Y101801183D01*
G75*
G02*
X38301183Y101715155I-837345J751317D01*
G01*
G37*
D13*
X45402500Y105092500D03*
G36*
G01*
X45285983Y103390105D02*
X45285097Y103390166D01*
G75*
G02*
X44240166Y104589903I77403J1122334D01*
G01*
X44280166Y105169903D01*
G75*
G02*
X45479903Y106214834I1122334J-77403D01*
G01*
X45479903Y106214834D01*
G75*
G02*
X46524834Y105015097I-77403J-1122334D01*
G01*
X46484834Y104435097D01*
G75*
G02*
X45285097Y103390166I-1122334J77403D01*
G01*
G37*
D12*
X66992500Y100012500D03*
X56832500Y100012500D03*
D13*
X59412500Y104012500D03*
D10*
X61912500Y100012500D03*
G36*
G01*
X57351188Y101715150D02*
X57351183Y101715155D01*
G75*
G02*
X57265155Y103303817I751317J837345D01*
G01*
X58575157Y104763817D01*
G75*
G02*
X60163819Y104849845I837345J-751317D01*
G01*
X60163819Y104849845D01*
G75*
G02*
X60249847Y103261183I-751317J-837345D01*
G01*
X58939845Y101801183D01*
G75*
G02*
X57351183Y101715155I-837345J751317D01*
G01*
G37*
D13*
X64452500Y105092500D03*
G36*
G01*
X64335983Y103390105D02*
X64335097Y103390166D01*
G75*
G02*
X63290166Y104589903I77403J1122334D01*
G01*
X63330166Y105169903D01*
G75*
G02*
X64529903Y106214834I1122334J-77403D01*
G01*
X64529903Y106214834D01*
G75*
G02*
X65574834Y105015097I-77403J-1122334D01*
G01*
X65534834Y104435097D01*
G75*
G02*
X64335097Y103390166I-1122334J77403D01*
G01*
G37*
D12*
X47942500Y142875000D03*
X37782500Y142875000D03*
D13*
X40362500Y146875000D03*
D10*
X42862500Y142875000D03*
G36*
G01*
X38301188Y144577650D02*
X38301183Y144577655D01*
G75*
G02*
X38215155Y146166317I751317J837345D01*
G01*
X39525157Y147626317D01*
G75*
G02*
X41113819Y147712345I837345J-751317D01*
G01*
X41113819Y147712345D01*
G75*
G02*
X41199847Y146123683I-751317J-837345D01*
G01*
X39889845Y144663683D01*
G75*
G02*
X38301183Y144577655I-837345J751317D01*
G01*
G37*
D13*
X45402500Y147955000D03*
G36*
G01*
X45285983Y146252605D02*
X45285097Y146252666D01*
G75*
G02*
X44240166Y147452403I77403J1122334D01*
G01*
X44280166Y148032403D01*
G75*
G02*
X45479903Y149077334I1122334J-77403D01*
G01*
X45479903Y149077334D01*
G75*
G02*
X46524834Y147877597I-77403J-1122334D01*
G01*
X46484834Y147297597D01*
G75*
G02*
X45285097Y146252666I-1122334J77403D01*
G01*
G37*
D12*
X47942500Y204787500D03*
X37782500Y204787500D03*
D13*
X40362500Y208787500D03*
D10*
X42862500Y204787500D03*
G36*
G01*
X38301188Y206490150D02*
X38301183Y206490155D01*
G75*
G02*
X38215155Y208078817I751317J837345D01*
G01*
X39525157Y209538817D01*
G75*
G02*
X41113819Y209624845I837345J-751317D01*
G01*
X41113819Y209624845D01*
G75*
G02*
X41199847Y208036183I-751317J-837345D01*
G01*
X39889845Y206576183D01*
G75*
G02*
X38301183Y206490155I-837345J751317D01*
G01*
G37*
D13*
X45402500Y209867500D03*
G36*
G01*
X45285983Y208165105D02*
X45285097Y208165166D01*
G75*
G02*
X44240166Y209364903I77403J1122334D01*
G01*
X44280166Y209944903D01*
G75*
G02*
X45479903Y210989834I1122334J-77403D01*
G01*
X45479903Y210989834D01*
G75*
G02*
X46524834Y209790097I-77403J-1122334D01*
G01*
X46484834Y209210097D01*
G75*
G02*
X45285097Y208165166I-1122334J77403D01*
G01*
G37*
D12*
X-242570000Y204787500D03*
X-252730000Y204787500D03*
D13*
X-250150000Y208787500D03*
D10*
X-247650000Y204787500D03*
G36*
G01*
X-252211312Y206490150D02*
X-252211317Y206490155D01*
G75*
G02*
X-252297345Y208078817I751317J837345D01*
G01*
X-250987343Y209538817D01*
G75*
G02*
X-249398681Y209624845I837345J-751317D01*
G01*
X-249398681Y209624845D01*
G75*
G02*
X-249312653Y208036183I-751317J-837345D01*
G01*
X-250622655Y206576183D01*
G75*
G02*
X-252211317Y206490155I-837345J751317D01*
G01*
G37*
D13*
X-245110000Y209867500D03*
G36*
G01*
X-245226517Y208165105D02*
X-245227403Y208165166D01*
G75*
G02*
X-246272334Y209364903I77403J1122334D01*
G01*
X-246232334Y209944903D01*
G75*
G02*
X-245032597Y210989834I1122334J-77403D01*
G01*
X-245032597Y210989834D01*
G75*
G02*
X-243987666Y209790097I-77403J-1122334D01*
G01*
X-244027666Y209210097D01*
G75*
G02*
X-245227403Y208165166I-1122334J77403D01*
G01*
G37*
D12*
X47942500Y180975000D03*
X37782500Y180975000D03*
D13*
X40362500Y184975000D03*
D10*
X42862500Y180975000D03*
G36*
G01*
X38301188Y182677650D02*
X38301183Y182677655D01*
G75*
G02*
X38215155Y184266317I751317J837345D01*
G01*
X39525157Y185726317D01*
G75*
G02*
X41113819Y185812345I837345J-751317D01*
G01*
X41113819Y185812345D01*
G75*
G02*
X41199847Y184223683I-751317J-837345D01*
G01*
X39889845Y182763683D01*
G75*
G02*
X38301183Y182677655I-837345J751317D01*
G01*
G37*
D13*
X45402500Y186055000D03*
G36*
G01*
X45285983Y184352605D02*
X45285097Y184352666D01*
G75*
G02*
X44240166Y185552403I77403J1122334D01*
G01*
X44280166Y186132403D01*
G75*
G02*
X45479903Y187177334I1122334J-77403D01*
G01*
X45479903Y187177334D01*
G75*
G02*
X46524834Y185977597I-77403J-1122334D01*
G01*
X46484834Y185397597D01*
G75*
G02*
X45285097Y184352666I-1122334J77403D01*
G01*
G37*
D12*
X47942500Y161925000D03*
X37782500Y161925000D03*
D13*
X40362500Y165925000D03*
D10*
X42862500Y161925000D03*
G36*
G01*
X38301188Y163627650D02*
X38301183Y163627655D01*
G75*
G02*
X38215155Y165216317I751317J837345D01*
G01*
X39525157Y166676317D01*
G75*
G02*
X41113819Y166762345I837345J-751317D01*
G01*
X41113819Y166762345D01*
G75*
G02*
X41199847Y165173683I-751317J-837345D01*
G01*
X39889845Y163713683D01*
G75*
G02*
X38301183Y163627655I-837345J751317D01*
G01*
G37*
D13*
X45402500Y167005000D03*
G36*
G01*
X45285983Y165302605D02*
X45285097Y165302666D01*
G75*
G02*
X44240166Y166502403I77403J1122334D01*
G01*
X44280166Y167082403D01*
G75*
G02*
X45479903Y168127334I1122334J-77403D01*
G01*
X45479903Y168127334D01*
G75*
G02*
X46524834Y166927597I-77403J-1122334D01*
G01*
X46484834Y166347597D01*
G75*
G02*
X45285097Y165302666I-1122334J77403D01*
G01*
G37*
D12*
X-33020000Y180975000D03*
X-43180000Y180975000D03*
D13*
X-40600000Y184975000D03*
D10*
X-38100000Y180975000D03*
G36*
G01*
X-42661312Y182677650D02*
X-42661317Y182677655D01*
G75*
G02*
X-42747345Y184266317I751317J837345D01*
G01*
X-41437343Y185726317D01*
G75*
G02*
X-39848681Y185812345I837345J-751317D01*
G01*
X-39848681Y185812345D01*
G75*
G02*
X-39762653Y184223683I-751317J-837345D01*
G01*
X-41072655Y182763683D01*
G75*
G02*
X-42661317Y182677655I-837345J751317D01*
G01*
G37*
D13*
X-35560000Y186055000D03*
G36*
G01*
X-35676517Y184352605D02*
X-35677403Y184352666D01*
G75*
G02*
X-36722334Y185552403I77403J1122334D01*
G01*
X-36682334Y186132403D01*
G75*
G02*
X-35482597Y187177334I1122334J-77403D01*
G01*
X-35482597Y187177334D01*
G75*
G02*
X-34437666Y185977597I-77403J-1122334D01*
G01*
X-34477666Y185397597D01*
G75*
G02*
X-35677403Y184352666I-1122334J77403D01*
G01*
G37*
D12*
X-18732500Y142875000D03*
X-28892500Y142875000D03*
D13*
X-26312500Y146875000D03*
D10*
X-23812500Y142875000D03*
G36*
G01*
X-28373812Y144577650D02*
X-28373817Y144577655D01*
G75*
G02*
X-28459845Y146166317I751317J837345D01*
G01*
X-27149843Y147626317D01*
G75*
G02*
X-25561181Y147712345I837345J-751317D01*
G01*
X-25561181Y147712345D01*
G75*
G02*
X-25475153Y146123683I-751317J-837345D01*
G01*
X-26785155Y144663683D01*
G75*
G02*
X-28373817Y144577655I-837345J751317D01*
G01*
G37*
D13*
X-21272500Y147955000D03*
G36*
G01*
X-21389017Y146252605D02*
X-21389903Y146252666D01*
G75*
G02*
X-22434834Y147452403I77403J1122334D01*
G01*
X-22394834Y148032403D01*
G75*
G02*
X-21195097Y149077334I1122334J-77403D01*
G01*
X-21195097Y149077334D01*
G75*
G02*
X-20150166Y147877597I-77403J-1122334D01*
G01*
X-20190166Y147297597D01*
G75*
G02*
X-21389903Y146252666I-1122334J77403D01*
G01*
G37*
D12*
X-71120000Y180975000D03*
X-81280000Y180975000D03*
D13*
X-78700000Y184975000D03*
D10*
X-76200000Y180975000D03*
G36*
G01*
X-80761312Y182677650D02*
X-80761317Y182677655D01*
G75*
G02*
X-80847345Y184266317I751317J837345D01*
G01*
X-79537343Y185726317D01*
G75*
G02*
X-77948681Y185812345I837345J-751317D01*
G01*
X-77948681Y185812345D01*
G75*
G02*
X-77862653Y184223683I-751317J-837345D01*
G01*
X-79172655Y182763683D01*
G75*
G02*
X-80761317Y182677655I-837345J751317D01*
G01*
G37*
D13*
X-73660000Y186055000D03*
G36*
G01*
X-73776517Y184352605D02*
X-73777403Y184352666D01*
G75*
G02*
X-74822334Y185552403I77403J1122334D01*
G01*
X-74782334Y186132403D01*
G75*
G02*
X-73582597Y187177334I1122334J-77403D01*
G01*
X-73582597Y187177334D01*
G75*
G02*
X-72537666Y185977597I-77403J-1122334D01*
G01*
X-72577666Y185397597D01*
G75*
G02*
X-73777403Y184352666I-1122334J77403D01*
G01*
G37*
D12*
X-90170000Y180975000D03*
X-100330000Y180975000D03*
D13*
X-97750000Y184975000D03*
D10*
X-95250000Y180975000D03*
G36*
G01*
X-99811312Y182677650D02*
X-99811317Y182677655D01*
G75*
G02*
X-99897345Y184266317I751317J837345D01*
G01*
X-98587343Y185726317D01*
G75*
G02*
X-96998681Y185812345I837345J-751317D01*
G01*
X-96998681Y185812345D01*
G75*
G02*
X-96912653Y184223683I-751317J-837345D01*
G01*
X-98222655Y182763683D01*
G75*
G02*
X-99811317Y182677655I-837345J751317D01*
G01*
G37*
D13*
X-92710000Y186055000D03*
G36*
G01*
X-92826517Y184352605D02*
X-92827403Y184352666D01*
G75*
G02*
X-93872334Y185552403I77403J1122334D01*
G01*
X-93832334Y186132403D01*
G75*
G02*
X-92632597Y187177334I1122334J-77403D01*
G01*
X-92632597Y187177334D01*
G75*
G02*
X-91587666Y185977597I-77403J-1122334D01*
G01*
X-91627666Y185397597D01*
G75*
G02*
X-92827403Y184352666I-1122334J77403D01*
G01*
G37*
D12*
X-109220000Y180975000D03*
X-119380000Y180975000D03*
D13*
X-116800000Y184975000D03*
D10*
X-114300000Y180975000D03*
G36*
G01*
X-118861312Y182677650D02*
X-118861317Y182677655D01*
G75*
G02*
X-118947345Y184266317I751317J837345D01*
G01*
X-117637343Y185726317D01*
G75*
G02*
X-116048681Y185812345I837345J-751317D01*
G01*
X-116048681Y185812345D01*
G75*
G02*
X-115962653Y184223683I-751317J-837345D01*
G01*
X-117272655Y182763683D01*
G75*
G02*
X-118861317Y182677655I-837345J751317D01*
G01*
G37*
D13*
X-111760000Y186055000D03*
G36*
G01*
X-111876517Y184352605D02*
X-111877403Y184352666D01*
G75*
G02*
X-112922334Y185552403I77403J1122334D01*
G01*
X-112882334Y186132403D01*
G75*
G02*
X-111682597Y187177334I1122334J-77403D01*
G01*
X-111682597Y187177334D01*
G75*
G02*
X-110637666Y185977597I-77403J-1122334D01*
G01*
X-110677666Y185397597D01*
G75*
G02*
X-111877403Y184352666I-1122334J77403D01*
G01*
G37*
D12*
X-128270000Y180975000D03*
X-138430000Y180975000D03*
D13*
X-135850000Y184975000D03*
D10*
X-133350000Y180975000D03*
G36*
G01*
X-137911312Y182677650D02*
X-137911317Y182677655D01*
G75*
G02*
X-137997345Y184266317I751317J837345D01*
G01*
X-136687343Y185726317D01*
G75*
G02*
X-135098681Y185812345I837345J-751317D01*
G01*
X-135098681Y185812345D01*
G75*
G02*
X-135012653Y184223683I-751317J-837345D01*
G01*
X-136322655Y182763683D01*
G75*
G02*
X-137911317Y182677655I-837345J751317D01*
G01*
G37*
D13*
X-130810000Y186055000D03*
G36*
G01*
X-130926517Y184352605D02*
X-130927403Y184352666D01*
G75*
G02*
X-131972334Y185552403I77403J1122334D01*
G01*
X-131932334Y186132403D01*
G75*
G02*
X-130732597Y187177334I1122334J-77403D01*
G01*
X-130732597Y187177334D01*
G75*
G02*
X-129687666Y185977597I-77403J-1122334D01*
G01*
X-129727666Y185397597D01*
G75*
G02*
X-130927403Y184352666I-1122334J77403D01*
G01*
G37*
D12*
X-147320000Y180975000D03*
X-157480000Y180975000D03*
D13*
X-154900000Y184975000D03*
D10*
X-152400000Y180975000D03*
G36*
G01*
X-156961312Y182677650D02*
X-156961317Y182677655D01*
G75*
G02*
X-157047345Y184266317I751317J837345D01*
G01*
X-155737343Y185726317D01*
G75*
G02*
X-154148681Y185812345I837345J-751317D01*
G01*
X-154148681Y185812345D01*
G75*
G02*
X-154062653Y184223683I-751317J-837345D01*
G01*
X-155372655Y182763683D01*
G75*
G02*
X-156961317Y182677655I-837345J751317D01*
G01*
G37*
D13*
X-149860000Y186055000D03*
G36*
G01*
X-149976517Y184352605D02*
X-149977403Y184352666D01*
G75*
G02*
X-151022334Y185552403I77403J1122334D01*
G01*
X-150982334Y186132403D01*
G75*
G02*
X-149782597Y187177334I1122334J-77403D01*
G01*
X-149782597Y187177334D01*
G75*
G02*
X-148737666Y185977597I-77403J-1122334D01*
G01*
X-148777666Y185397597D01*
G75*
G02*
X-149977403Y184352666I-1122334J77403D01*
G01*
G37*
D12*
X-166370000Y180975000D03*
X-176530000Y180975000D03*
D13*
X-173950000Y184975000D03*
D10*
X-171450000Y180975000D03*
G36*
G01*
X-176011312Y182677650D02*
X-176011317Y182677655D01*
G75*
G02*
X-176097345Y184266317I751317J837345D01*
G01*
X-174787343Y185726317D01*
G75*
G02*
X-173198681Y185812345I837345J-751317D01*
G01*
X-173198681Y185812345D01*
G75*
G02*
X-173112653Y184223683I-751317J-837345D01*
G01*
X-174422655Y182763683D01*
G75*
G02*
X-176011317Y182677655I-837345J751317D01*
G01*
G37*
D13*
X-168910000Y186055000D03*
G36*
G01*
X-169026517Y184352605D02*
X-169027403Y184352666D01*
G75*
G02*
X-170072334Y185552403I77403J1122334D01*
G01*
X-170032334Y186132403D01*
G75*
G02*
X-168832597Y187177334I1122334J-77403D01*
G01*
X-168832597Y187177334D01*
G75*
G02*
X-167787666Y185977597I-77403J-1122334D01*
G01*
X-167827666Y185397597D01*
G75*
G02*
X-169027403Y184352666I-1122334J77403D01*
G01*
G37*
D12*
X-185420000Y180975000D03*
X-195580000Y180975000D03*
D13*
X-193000000Y184975000D03*
D10*
X-190500000Y180975000D03*
G36*
G01*
X-195061312Y182677650D02*
X-195061317Y182677655D01*
G75*
G02*
X-195147345Y184266317I751317J837345D01*
G01*
X-193837343Y185726317D01*
G75*
G02*
X-192248681Y185812345I837345J-751317D01*
G01*
X-192248681Y185812345D01*
G75*
G02*
X-192162653Y184223683I-751317J-837345D01*
G01*
X-193472655Y182763683D01*
G75*
G02*
X-195061317Y182677655I-837345J751317D01*
G01*
G37*
D13*
X-187960000Y186055000D03*
G36*
G01*
X-188076517Y184352605D02*
X-188077403Y184352666D01*
G75*
G02*
X-189122334Y185552403I77403J1122334D01*
G01*
X-189082334Y186132403D01*
G75*
G02*
X-187882597Y187177334I1122334J-77403D01*
G01*
X-187882597Y187177334D01*
G75*
G02*
X-186837666Y185977597I-77403J-1122334D01*
G01*
X-186877666Y185397597D01*
G75*
G02*
X-188077403Y184352666I-1122334J77403D01*
G01*
G37*
D12*
X-204470000Y180975000D03*
X-214630000Y180975000D03*
D13*
X-212050000Y184975000D03*
D10*
X-209550000Y180975000D03*
G36*
G01*
X-214111312Y182677650D02*
X-214111317Y182677655D01*
G75*
G02*
X-214197345Y184266317I751317J837345D01*
G01*
X-212887343Y185726317D01*
G75*
G02*
X-211298681Y185812345I837345J-751317D01*
G01*
X-211298681Y185812345D01*
G75*
G02*
X-211212653Y184223683I-751317J-837345D01*
G01*
X-212522655Y182763683D01*
G75*
G02*
X-214111317Y182677655I-837345J751317D01*
G01*
G37*
D13*
X-207010000Y186055000D03*
G36*
G01*
X-207126517Y184352605D02*
X-207127403Y184352666D01*
G75*
G02*
X-208172334Y185552403I77403J1122334D01*
G01*
X-208132334Y186132403D01*
G75*
G02*
X-206932597Y187177334I1122334J-77403D01*
G01*
X-206932597Y187177334D01*
G75*
G02*
X-205887666Y185977597I-77403J-1122334D01*
G01*
X-205927666Y185397597D01*
G75*
G02*
X-207127403Y184352666I-1122334J77403D01*
G01*
G37*
D12*
X-223520000Y180975000D03*
X-233680000Y180975000D03*
D13*
X-231100000Y184975000D03*
D10*
X-228600000Y180975000D03*
G36*
G01*
X-233161312Y182677650D02*
X-233161317Y182677655D01*
G75*
G02*
X-233247345Y184266317I751317J837345D01*
G01*
X-231937343Y185726317D01*
G75*
G02*
X-230348681Y185812345I837345J-751317D01*
G01*
X-230348681Y185812345D01*
G75*
G02*
X-230262653Y184223683I-751317J-837345D01*
G01*
X-231572655Y182763683D01*
G75*
G02*
X-233161317Y182677655I-837345J751317D01*
G01*
G37*
D13*
X-226060000Y186055000D03*
G36*
G01*
X-226176517Y184352605D02*
X-226177403Y184352666D01*
G75*
G02*
X-227222334Y185552403I77403J1122334D01*
G01*
X-227182334Y186132403D01*
G75*
G02*
X-225982597Y187177334I1122334J-77403D01*
G01*
X-225982597Y187177334D01*
G75*
G02*
X-224937666Y185977597I-77403J-1122334D01*
G01*
X-224977666Y185397597D01*
G75*
G02*
X-226177403Y184352666I-1122334J77403D01*
G01*
G37*
D12*
X-52070000Y180975000D03*
X-62230000Y180975000D03*
D13*
X-59650000Y184975000D03*
D10*
X-57150000Y180975000D03*
G36*
G01*
X-61711312Y182677650D02*
X-61711317Y182677655D01*
G75*
G02*
X-61797345Y184266317I751317J837345D01*
G01*
X-60487343Y185726317D01*
G75*
G02*
X-58898681Y185812345I837345J-751317D01*
G01*
X-58898681Y185812345D01*
G75*
G02*
X-58812653Y184223683I-751317J-837345D01*
G01*
X-60122655Y182763683D01*
G75*
G02*
X-61711317Y182677655I-837345J751317D01*
G01*
G37*
D13*
X-54610000Y186055000D03*
G36*
G01*
X-54726517Y184352605D02*
X-54727403Y184352666D01*
G75*
G02*
X-55772334Y185552403I77403J1122334D01*
G01*
X-55732334Y186132403D01*
G75*
G02*
X-54532597Y187177334I1122334J-77403D01*
G01*
X-54532597Y187177334D01*
G75*
G02*
X-53487666Y185977597I-77403J-1122334D01*
G01*
X-53527666Y185397597D01*
G75*
G02*
X-54727403Y184352666I-1122334J77403D01*
G01*
G37*
G36*
G01*
X67300000Y196225000D02*
X66050000Y196225000D01*
G75*
G02*
X65800000Y196475000I0J250000D01*
G01*
X65800000Y197225000D01*
G75*
G02*
X66050000Y197475000I250000J0D01*
G01*
X67300000Y197475000D01*
G75*
G02*
X67550000Y197225000I0J-250000D01*
G01*
X67550000Y196475000D01*
G75*
G02*
X67300000Y196225000I-250000J0D01*
G01*
G37*
G36*
G01*
X67300000Y193425000D02*
X66050000Y193425000D01*
G75*
G02*
X65800000Y193675000I0J250000D01*
G01*
X65800000Y194425000D01*
G75*
G02*
X66050000Y194675000I250000J0D01*
G01*
X67300000Y194675000D01*
G75*
G02*
X67550000Y194425000I0J-250000D01*
G01*
X67550000Y193675000D01*
G75*
G02*
X67300000Y193425000I-250000J0D01*
G01*
G37*
D20*
X69977000Y100965000D03*
X69977000Y97665000D03*
X50927000Y100965000D03*
X50927000Y97665000D03*
X50927000Y120015000D03*
X50927000Y116715000D03*
X50927000Y144145000D03*
X50927000Y140845000D03*
X50927000Y163194000D03*
X50927000Y159894000D03*
X50927000Y182245000D03*
X50927000Y178945000D03*
X50927000Y206375000D03*
X50927000Y203075000D03*
X31877000Y100965000D03*
X31877000Y97665000D03*
X27178000Y206375000D03*
X27178000Y203075000D03*
X22479000Y163195000D03*
X22479000Y159895000D03*
X17653000Y182244000D03*
X17653000Y178944000D03*
X15240000Y144145000D03*
X15240000Y140845000D03*
X8128000Y206375000D03*
X8128000Y203075000D03*
X10541000Y125095000D03*
X10541000Y121795000D03*
X3429000Y106044000D03*
X3429000Y102744000D03*
X-1397000Y163195000D03*
X-1397000Y159895000D03*
X-10922000Y206375000D03*
X-10922000Y203075000D03*
X-10922000Y182244000D03*
X-10922000Y178944000D03*
X-15621000Y144145000D03*
X-15621000Y140845000D03*
X-25273000Y125095000D03*
X-25273000Y121795000D03*
X-20447000Y163194000D03*
X-20447000Y159894000D03*
X-22860000Y106045000D03*
X-22860000Y102745000D03*
X-29972000Y206374000D03*
X-29972000Y203074000D03*
X-29972000Y182245000D03*
X-29972000Y178945000D03*
X-34671000Y144145000D03*
X-34671000Y140845000D03*
X-44196000Y125095000D03*
X-44196000Y121795000D03*
X-39497000Y163194000D03*
X-39497000Y159894000D03*
X-49022000Y182244000D03*
X-49022000Y178944000D03*
X-53721000Y144145000D03*
X-53721000Y140845000D03*
X-46609000Y106045000D03*
X-46609000Y102745000D03*
X-58547000Y206374000D03*
X-58547000Y203074000D03*
X-63246000Y125094000D03*
X-63246000Y121794000D03*
X-58547000Y163194000D03*
X-58547000Y159894000D03*
X-68072000Y182245000D03*
X-68072000Y178945000D03*
X-72771000Y144144000D03*
X-72771000Y140844000D03*
X-77597000Y206375000D03*
X-77597000Y203075000D03*
X-82296000Y125095000D03*
X-82296000Y121795000D03*
X-77597000Y163195000D03*
X-77597000Y159895000D03*
X-87122000Y182245000D03*
X-87122000Y178945000D03*
X-91821000Y144145000D03*
X-91821000Y140845000D03*
X-96647000Y206374000D03*
X-96647000Y203074000D03*
X-101473000Y125095000D03*
X-101473000Y121795000D03*
X-96647000Y163195000D03*
X-96647000Y159895000D03*
X-106172000Y182245000D03*
X-106172000Y178945000D03*
X-110871000Y144144000D03*
X-110871000Y140844000D03*
X-115697000Y206374000D03*
X-115697000Y203074000D03*
X-120396000Y125094000D03*
X-120396000Y121794000D03*
X-115697000Y163195000D03*
X-115697000Y159895000D03*
X-118110000Y106045000D03*
X-118110000Y102745000D03*
X-125222000Y182245000D03*
X-125222000Y178945000D03*
X-130048000Y144145000D03*
X-130048000Y140845000D03*
X-139446000Y125095000D03*
X-139446000Y121795000D03*
X-134747000Y163194000D03*
X-134747000Y159894000D03*
X-144272000Y182245000D03*
X-144272000Y178945000D03*
X-144272000Y206374000D03*
X-144272000Y203074000D03*
X-148971000Y144145000D03*
X-148971000Y140845000D03*
X-158496000Y125095000D03*
X-158496000Y121795000D03*
X-153797000Y163194000D03*
X-153797000Y159894000D03*
X-163322000Y182245000D03*
X-163322000Y178945000D03*
X-163322000Y206375000D03*
X-163322000Y203075000D03*
X-168021000Y144145000D03*
X-168021000Y140845000D03*
X-177546000Y125095000D03*
X-177546000Y121795000D03*
X-172847000Y163195000D03*
X-172847000Y159895000D03*
X-182372000Y182245000D03*
X-182372000Y178945000D03*
X-182372000Y206374000D03*
X-182372000Y203074000D03*
X-187071000Y144145000D03*
X-187071000Y140845000D03*
X-189484000Y106045000D03*
X-189484000Y102745000D03*
X-196723000Y125095000D03*
X-196723000Y121795000D03*
X-191897000Y163194000D03*
X-191897000Y159894000D03*
X-201422000Y182245000D03*
X-201422000Y178945000D03*
X-201422000Y206375000D03*
X-201422000Y203075000D03*
X-206121000Y144145000D03*
X-206121000Y140845000D03*
X-213360000Y106045000D03*
X-213360000Y102745000D03*
X-210947000Y163195000D03*
X-210947000Y159895000D03*
X-220472000Y182245000D03*
X-220472000Y178945000D03*
X-227584000Y125095000D03*
X-227584000Y121795000D03*
X-232410000Y144145000D03*
X-232410000Y140845000D03*
X-237109000Y106045000D03*
X-237109000Y102745000D03*
X-234823000Y163194000D03*
X-234823000Y159894000D03*
X-239522000Y182245000D03*
X-239522000Y178945000D03*
X-239522000Y206375000D03*
X-239522000Y203075000D03*
G36*
G01*
X83721750Y184148750D02*
X83721750Y183198750D01*
G75*
G02*
X83471750Y182948750I-250000J0D01*
G01*
X82971750Y182948750D01*
G75*
G02*
X82721750Y183198750I0J250000D01*
G01*
X82721750Y184148750D01*
G75*
G02*
X82971750Y184398750I250000J0D01*
G01*
X83471750Y184398750D01*
G75*
G02*
X83721750Y184148750I0J-250000D01*
G01*
G37*
G36*
G01*
X85621750Y184148750D02*
X85621750Y183198750D01*
G75*
G02*
X85371750Y182948750I-250000J0D01*
G01*
X84871750Y182948750D01*
G75*
G02*
X84621750Y183198750I0J250000D01*
G01*
X84621750Y184148750D01*
G75*
G02*
X84871750Y184398750I250000J0D01*
G01*
X85371750Y184398750D01*
G75*
G02*
X85621750Y184148750I0J-250000D01*
G01*
G37*
G36*
G01*
X84616750Y175959750D02*
X84616750Y176909750D01*
G75*
G02*
X84866750Y177159750I250000J0D01*
G01*
X85366750Y177159750D01*
G75*
G02*
X85616750Y176909750I0J-250000D01*
G01*
X85616750Y175959750D01*
G75*
G02*
X85366750Y175709750I-250000J0D01*
G01*
X84866750Y175709750D01*
G75*
G02*
X84616750Y175959750I0J250000D01*
G01*
G37*
G36*
G01*
X82716750Y175959750D02*
X82716750Y176909750D01*
G75*
G02*
X82966750Y177159750I250000J0D01*
G01*
X83466750Y177159750D01*
G75*
G02*
X83716750Y176909750I0J-250000D01*
G01*
X83716750Y175959750D01*
G75*
G02*
X83466750Y175709750I-250000J0D01*
G01*
X82966750Y175709750D01*
G75*
G02*
X82716750Y175959750I0J250000D01*
G01*
G37*
G36*
G01*
X76099250Y201293750D02*
X76099250Y200343750D01*
G75*
G02*
X75849250Y200093750I-250000J0D01*
G01*
X75349250Y200093750D01*
G75*
G02*
X75099250Y200343750I0J250000D01*
G01*
X75099250Y201293750D01*
G75*
G02*
X75349250Y201543750I250000J0D01*
G01*
X75849250Y201543750D01*
G75*
G02*
X76099250Y201293750I0J-250000D01*
G01*
G37*
G36*
G01*
X77999250Y201293750D02*
X77999250Y200343750D01*
G75*
G02*
X77749250Y200093750I-250000J0D01*
G01*
X77249250Y200093750D01*
G75*
G02*
X76999250Y200343750I0J250000D01*
G01*
X76999250Y201293750D01*
G75*
G02*
X77249250Y201543750I250000J0D01*
G01*
X77749250Y201543750D01*
G75*
G02*
X77999250Y201293750I0J-250000D01*
G01*
G37*
G36*
G01*
X60739000Y187634500D02*
X61689000Y187634500D01*
G75*
G02*
X61939000Y187384500I0J-250000D01*
G01*
X61939000Y186884500D01*
G75*
G02*
X61689000Y186634500I-250000J0D01*
G01*
X60739000Y186634500D01*
G75*
G02*
X60489000Y186884500I0J250000D01*
G01*
X60489000Y187384500D01*
G75*
G02*
X60739000Y187634500I250000J0D01*
G01*
G37*
G36*
G01*
X60739000Y189534500D02*
X61689000Y189534500D01*
G75*
G02*
X61939000Y189284500I0J-250000D01*
G01*
X61939000Y188784500D01*
G75*
G02*
X61689000Y188534500I-250000J0D01*
G01*
X60739000Y188534500D01*
G75*
G02*
X60489000Y188784500I0J250000D01*
G01*
X60489000Y189284500D01*
G75*
G02*
X60739000Y189534500I250000J0D01*
G01*
G37*
G36*
G01*
X70670000Y193324500D02*
X70670000Y192374500D01*
G75*
G02*
X70420000Y192124500I-250000J0D01*
G01*
X69920000Y192124500D01*
G75*
G02*
X69670000Y192374500I0J250000D01*
G01*
X69670000Y193324500D01*
G75*
G02*
X69920000Y193574500I250000J0D01*
G01*
X70420000Y193574500D01*
G75*
G02*
X70670000Y193324500I0J-250000D01*
G01*
G37*
G36*
G01*
X72570000Y193324500D02*
X72570000Y192374500D01*
G75*
G02*
X72320000Y192124500I-250000J0D01*
G01*
X71820000Y192124500D01*
G75*
G02*
X71570000Y192374500I0J250000D01*
G01*
X71570000Y193324500D01*
G75*
G02*
X71820000Y193574500I250000J0D01*
G01*
X72320000Y193574500D01*
G75*
G02*
X72570000Y193324500I0J-250000D01*
G01*
G37*
G36*
G01*
X75065000Y203233000D02*
X75065000Y204183000D01*
G75*
G02*
X75315000Y204433000I250000J0D01*
G01*
X75815000Y204433000D01*
G75*
G02*
X76065000Y204183000I0J-250000D01*
G01*
X76065000Y203233000D01*
G75*
G02*
X75815000Y202983000I-250000J0D01*
G01*
X75315000Y202983000D01*
G75*
G02*
X75065000Y203233000I0J250000D01*
G01*
G37*
G36*
G01*
X73165000Y203233000D02*
X73165000Y204183000D01*
G75*
G02*
X73415000Y204433000I250000J0D01*
G01*
X73915000Y204433000D01*
G75*
G02*
X74165000Y204183000I0J-250000D01*
G01*
X74165000Y203233000D01*
G75*
G02*
X73915000Y202983000I-250000J0D01*
G01*
X73415000Y202983000D01*
G75*
G02*
X73165000Y203233000I0J250000D01*
G01*
G37*
M02*
