M48
; DRILL file {KiCad (5.1.10)-1} date 02/11/22 22:45:03
; FORMAT={-:-/ absolute / inch / decimal}
; #@! TF.CreationDate,2022-02-11T22:45:03+10:30
; #@! TF.GenerationSoftware,Kicad,Pcbnew,(5.1.10)-1
; #@! TF.FileFunction,NonPlated,1,2,NPTH
FMAT,2
INCH
T1C0.0689
T2C0.1200
T3C0.1570
%
G90
G05
T1
X-9.95Y8.0625
X-9.95Y7.125
X-9.8562Y4.125
X-9.7625Y6.375
X-9.6687Y5.625
X-9.55Y8.0625
X-9.55Y7.125
X-9.4812Y4.875
X-9.4562Y4.125
X-9.3625Y6.375
X-9.2687Y5.625
X-9.2Y7.125
X-9.0812Y4.875
X-8.9187Y4.125
X-8.825Y6.375
X-8.8Y7.125
X-8.6375Y5.625
X-8.5187Y4.125
X-8.45Y8.0625
X-8.45Y7.125
X-8.425Y6.375
X-8.2625Y4.875
X-8.2375Y5.625
X-8.075Y6.375
X-8.05Y8.0625
X-8.05Y7.125
X-7.9813Y4.125
X-7.8875Y5.625
X-7.8625Y4.875
X-7.7Y8.0625
X-7.7Y7.125
X-7.675Y6.375
X-7.5812Y4.125
X-7.5125Y4.875
X-7.4875Y5.625
X-7.325Y6.375
X-7.3Y8.0625
X-7.3Y7.125
X-7.1375Y5.625
X-7.1125Y4.875
X-6.95Y8.0625
X-6.95Y7.125
X-6.925Y6.375
X-6.7625Y4.875
X-6.7375Y5.625
X-6.575Y6.375
X-6.55Y8.0625
X-6.55Y7.125
X-6.3875Y5.625
X-6.3625Y4.875
X-6.2Y8.0625
X-6.2Y7.125
X-6.175Y6.375
X-6.0125Y4.875
X-5.9875Y5.625
X-5.825Y6.375
X-5.8Y8.0625
X-5.8Y7.125
X-5.641Y5.625
X-5.6125Y4.875
X-5.45Y7.125
X-5.425Y6.375
X-5.2625Y4.875
X-5.241Y5.625
X-5.1688Y4.125
X-5.075Y8.0625
X-5.075Y6.375
X-5.05Y7.125
X-4.8875Y5.625
X-4.8625Y4.875
X-4.7687Y4.125
X-4.7Y7.125
X-4.675Y8.0625
X-4.675Y6.375
X-4.5125Y4.875
X-4.4875Y5.625
X-4.325Y8.0625
X-4.325Y6.375
X-4.3Y7.125
X-4.1375Y5.625
X-4.1125Y4.875
X-3.95Y7.125
X-3.925Y8.0625
X-3.925Y6.375
X-3.7625Y4.875
X-3.7375Y5.625
X-3.575Y8.0625
X-3.575Y6.375
X-3.55Y7.125
X-3.3875Y5.625
X-3.3625Y4.875
X-3.2Y7.125
X-3.175Y8.0625
X-3.175Y6.375
X-3.0125Y4.875
X-2.9875Y5.625
X-2.825Y8.0625
X-2.825Y6.375
X-2.8Y7.125
X-2.6375Y5.625
X-2.6125Y4.875
X-2.45Y7.125
X-2.425Y8.0625
X-2.425Y6.375
X-2.3562Y4.125
X-2.2625Y4.875
X-2.2375Y5.625
X-2.075Y6.375
X-2.05Y7.125
X-1.9563Y4.125
X-1.8875Y5.625
X-1.8625Y4.875
X-1.7Y8.0625
X-1.7Y7.125
X-1.675Y6.375
X-1.5125Y4.875
X-1.4875Y5.625
X-1.4187Y4.125
X-1.325Y6.375
X-1.3Y8.0625
X-1.3Y7.125
X-1.1375Y5.625
X-1.1125Y4.875
X-1.0188Y4.125
X-0.95Y8.0625
X-0.95Y7.125
X-0.925Y6.375
X-0.7375Y5.625
X-0.575Y6.375
X-0.55Y8.0625
X-0.55Y7.125
X-0.3875Y4.125
X-0.2Y8.0625
X-0.175Y6.375
X-0.1062Y4.875
X0.0125Y4.125
X0.0813Y5.625
X0.175Y7.125
X0.2Y8.0625
X0.2938Y4.875
X0.3625Y6.375
X0.4813Y5.625
X0.55Y8.0625
X0.575Y7.125
X0.7375Y3.9375
X0.7625Y6.375
X0.95Y8.0625
X1.1375Y3.9375
X1.4875Y8.0625
X1.4875Y7.125
X1.4875Y6.375
X1.4875Y5.625
X1.4875Y4.6875
X1.4875Y3.9375
X1.8875Y8.0625
X1.8875Y7.125
X1.8875Y6.375
X1.8875Y5.625
X1.8875Y4.6875
X1.8875Y3.9375
X2.2375Y3.9375
X2.6375Y3.9375
T2
X-9.7513Y5.15
X-8.8112Y5.15
X-6.9372Y4.4
X-3.0002Y4.4
X-0.3762Y5.15
X-0.1888Y5.9
X-0.095Y7.4
X0.5637Y5.15
X0.7512Y5.9
X0.845Y7.4
T3
X-9.7513Y4.55
X-9.75Y8.0625
X-9.75Y7.125
X-9.6562Y4.125
X-9.5625Y6.375
X-9.4688Y5.625
X-9.2812Y4.875
X-9.0Y7.125
X-8.8112Y4.55
X-8.7188Y4.125
X-8.625Y6.375
X-8.4375Y5.625
X-8.25Y8.0625
X-8.25Y7.125
X-8.0625Y4.875
X-7.875Y6.375
X-7.7812Y4.125
X-7.6875Y5.625
X-7.5Y8.0625
X-7.5Y7.125
X-7.3125Y4.875
X-7.125Y6.375
X-6.9375Y5.625
X-6.9372Y3.8
X-6.75Y8.0625
X-6.75Y7.125
X-6.5625Y4.875
X-6.375Y6.375
X-6.1875Y5.625
X-6.0Y8.0625
X-6.0Y7.125
X-5.8125Y4.875
X-5.625Y6.375
X-5.441Y5.625
X-5.25Y7.125
X-5.0625Y4.875
X-4.9688Y4.125
X-4.875Y8.0625
X-4.875Y6.375
X-4.6875Y5.625
X-4.5Y7.125
X-4.3125Y4.875
X-4.125Y8.0625
X-4.125Y6.375
X-3.9375Y5.625
X-3.75Y7.125
X-3.5625Y4.875
X-3.375Y8.0625
X-3.375Y6.375
X-3.1875Y5.625
X-3.0002Y3.8
X-3.0Y7.125
X-2.8125Y4.875
X-2.625Y8.0625
X-2.625Y6.375
X-2.4375Y5.625
X-2.25Y7.125
X-2.1562Y4.125
X-2.0625Y4.875
X-1.875Y6.375
X-1.6875Y5.625
X-1.5Y8.0625
X-1.5Y7.125
X-1.3125Y4.875
X-1.2188Y4.125
X-1.125Y6.375
X-0.9375Y5.625
X-0.75Y8.0625
X-0.75Y7.125
X-0.3762Y4.55
X-0.375Y6.375
X-0.1888Y5.3
X-0.1875Y4.125
X-0.095Y6.8
X0.0Y8.0625
X0.0938Y4.875
X0.2812Y5.625
X0.375Y7.125
X0.5625Y6.375
X0.5637Y4.55
X0.75Y8.0625
X0.7512Y5.3
X0.845Y6.8
X0.9375Y3.9375
X1.6875Y8.0625
X1.6875Y7.125
X1.6875Y6.375
X1.6875Y5.625
X1.6875Y4.6875
X1.6875Y3.9375
X2.4375Y3.9375
T0
M30
