G04 #@! TF.GenerationSoftware,KiCad,Pcbnew,(5.1.10)-1*
G04 #@! TF.CreationDate,2022-02-11T22:44:53+10:30*
G04 #@! TF.ProjectId,Dingo-75,44696e67-6f2d-4373-952e-6b696361645f,rev?*
G04 #@! TF.SameCoordinates,Original*
G04 #@! TF.FileFunction,Legend,Top*
G04 #@! TF.FilePolarity,Positive*
%FSLAX46Y46*%
G04 Gerber Fmt 4.6, Leading zero omitted, Abs format (unit mm)*
G04 Created by KiCad (PCBNEW (5.1.10)-1) date 2022-02-11 22:44:53*
%MOMM*%
%LPD*%
G01*
G04 APERTURE LIST*
%ADD10C,0.120000*%
%ADD11C,0.150000*%
%ADD12C,3.987800*%
%ADD13C,3.048000*%
%ADD14C,1.750000*%
%ADD15O,1.700000X2.700000*%
G04 APERTURE END LIST*
D10*
X60869500Y178234748D02*
X60869500Y178757252D01*
X59399500Y178234748D02*
X59399500Y178757252D01*
D11*
X84005083Y184996607D02*
X83957464Y184948988D01*
X83814607Y184901369D01*
X83719369Y184901369D01*
X83576511Y184948988D01*
X83481273Y185044226D01*
X83433654Y185139464D01*
X83386035Y185329940D01*
X83386035Y185472797D01*
X83433654Y185663273D01*
X83481273Y185758511D01*
X83576511Y185853750D01*
X83719369Y185901369D01*
X83814607Y185901369D01*
X83957464Y185853750D01*
X84005083Y185806130D01*
X84338416Y185901369D02*
X85005083Y185901369D01*
X84576511Y184901369D01*
X58811642Y178329333D02*
X58859261Y178281714D01*
X58906880Y178138857D01*
X58906880Y178043619D01*
X58859261Y177900761D01*
X58764023Y177805523D01*
X58668785Y177757904D01*
X58478309Y177710285D01*
X58335452Y177710285D01*
X58144976Y177757904D01*
X58049738Y177805523D01*
X57954500Y177900761D01*
X57906880Y178043619D01*
X57906880Y178138857D01*
X57954500Y178281714D01*
X58002119Y178329333D01*
X58240214Y179186476D02*
X58906880Y179186476D01*
X57859261Y178948380D02*
X58573547Y178710285D01*
X58573547Y179329333D01*
%LPC*%
D12*
X-76206350Y96520000D03*
X-176206150Y96520000D03*
D13*
X-76206350Y111760000D03*
X-176206150Y111760000D03*
D14*
X-121126250Y104775000D03*
X-131286250Y104775000D03*
D12*
X-126206250Y104775000D03*
X-52387500Y123825000D03*
D14*
X-57467500Y123825000D03*
X-47307500Y123825000D03*
D12*
X-71437500Y123825000D03*
D14*
X-76517500Y123825000D03*
X-66357500Y123825000D03*
D12*
X-119062500Y142875000D03*
D14*
X-124142500Y142875000D03*
X-113982500Y142875000D03*
X-171132500Y142875000D03*
X-181292500Y142875000D03*
D12*
X-176212500Y142875000D03*
D14*
X-192563750Y104775000D03*
X-202723750Y104775000D03*
D12*
X-197643750Y104775000D03*
D14*
X-49688750Y104775000D03*
X-59848750Y104775000D03*
D12*
X-54768750Y104775000D03*
X21463000Y172720000D03*
X-2413000Y172720000D03*
D13*
X21463000Y187960000D03*
X-2413000Y187960000D03*
D14*
X14605000Y180975000D03*
X4445000Y180975000D03*
D12*
X9525000Y180975000D03*
D14*
X-235426250Y142875000D03*
X-245586250Y142875000D03*
D12*
X-240506250Y142875000D03*
D14*
X-240188750Y104775000D03*
X-250348750Y104775000D03*
D12*
X-245268750Y104775000D03*
D14*
X317500Y104775000D03*
X-9842500Y104775000D03*
D12*
X-4762500Y104775000D03*
X19081750Y134620000D03*
X-4794250Y134620000D03*
D13*
X19081750Y149860000D03*
X-4794250Y149860000D03*
D14*
X12223750Y142875000D03*
X2063750Y142875000D03*
D12*
X7143750Y142875000D03*
D14*
X-25876250Y104775000D03*
X-36036250Y104775000D03*
D12*
X-30956250Y104775000D03*
X-223805750Y115570000D03*
X-247681750Y115570000D03*
D13*
X-223805750Y130810000D03*
X-247681750Y130810000D03*
D14*
X-230663750Y123825000D03*
X-240823750Y123825000D03*
D12*
X-235743750Y123825000D03*
X14319250Y115570000D03*
X-9556750Y115570000D03*
D13*
X14319250Y130810000D03*
X-9556750Y130810000D03*
D14*
X7461250Y123825000D03*
X-2698750Y123825000D03*
D12*
X2381250Y123825000D03*
D14*
X-237807500Y161925000D03*
X-247967500Y161925000D03*
D12*
X-242887500Y161925000D03*
D14*
X-216376250Y104775000D03*
X-226536250Y104775000D03*
D12*
X-221456250Y104775000D03*
D14*
X19367500Y161925000D03*
X9207500Y161925000D03*
D12*
X14287500Y161925000D03*
D14*
X47942500Y119062500D03*
X37782500Y119062500D03*
D12*
X42862500Y119062500D03*
D15*
X65406250Y212462500D03*
X72706250Y212462500D03*
X72706250Y207962500D03*
X65406250Y207962500D03*
D14*
X-242570000Y180975000D03*
X-252730000Y180975000D03*
D12*
X-247650000Y180975000D03*
X-204787500Y123825000D03*
D14*
X-209867500Y123825000D03*
X-199707500Y123825000D03*
X-118745000Y161925000D03*
X-128905000Y161925000D03*
D12*
X-123825000Y161925000D03*
X-185737500Y123825000D03*
D14*
X-190817500Y123825000D03*
X-180657500Y123825000D03*
X-194945000Y161925000D03*
X-205105000Y161925000D03*
D12*
X-200025000Y161925000D03*
X-147637500Y123825000D03*
D14*
X-152717500Y123825000D03*
X-142557500Y123825000D03*
X-99695000Y161925000D03*
X-109855000Y161925000D03*
D12*
X-104775000Y161925000D03*
D14*
X-137795000Y161925000D03*
X-147955000Y161925000D03*
D12*
X-142875000Y161925000D03*
D14*
X-190182500Y142875000D03*
X-200342500Y142875000D03*
D12*
X-195262500Y142875000D03*
D14*
X-156845000Y161925000D03*
X-167005000Y161925000D03*
D12*
X-161925000Y161925000D03*
D14*
X-213995000Y161925000D03*
X-224155000Y161925000D03*
D12*
X-219075000Y161925000D03*
D14*
X-42545000Y161925000D03*
X-52705000Y161925000D03*
D12*
X-47625000Y161925000D03*
D14*
X-61595000Y161925000D03*
X-71755000Y161925000D03*
D12*
X-66675000Y161925000D03*
X-109537500Y123825000D03*
D14*
X-114617500Y123825000D03*
X-104457500Y123825000D03*
D12*
X-90487500Y123825000D03*
D14*
X-95567500Y123825000D03*
X-85407500Y123825000D03*
X-56832500Y142875000D03*
X-66992500Y142875000D03*
D12*
X-61912500Y142875000D03*
D14*
X-75882500Y142875000D03*
X-86042500Y142875000D03*
D12*
X-80962500Y142875000D03*
D14*
X-94932500Y142875000D03*
X-105092500Y142875000D03*
D12*
X-100012500Y142875000D03*
D14*
X-80645000Y161925000D03*
X-90805000Y161925000D03*
D12*
X-85725000Y161925000D03*
D14*
X-133121250Y142875000D03*
X-143281250Y142875000D03*
D12*
X-138201250Y142875000D03*
D14*
X-152082500Y142875000D03*
X-162242500Y142875000D03*
D12*
X-157162500Y142875000D03*
D14*
X24130000Y204787500D03*
X13970000Y204787500D03*
D12*
X19050000Y204787500D03*
D14*
X5080000Y204787500D03*
X-5080000Y204787500D03*
D12*
X0Y204787500D03*
D14*
X-13970000Y204787500D03*
X-24130000Y204787500D03*
D12*
X-19050000Y204787500D03*
D14*
X-33020000Y204787500D03*
X-43180000Y204787500D03*
D12*
X-38100000Y204787500D03*
D14*
X-61595000Y204787500D03*
X-71755000Y204787500D03*
D12*
X-66675000Y204787500D03*
D14*
X-80645000Y204787500D03*
X-90805000Y204787500D03*
D12*
X-85725000Y204787500D03*
D14*
X-99695000Y204787500D03*
X-109855000Y204787500D03*
D12*
X-104775000Y204787500D03*
D14*
X-118745000Y204787500D03*
X-128905000Y204787500D03*
D12*
X-123825000Y204787500D03*
D14*
X-147320000Y204787500D03*
X-157480000Y204787500D03*
D12*
X-152400000Y204787500D03*
D14*
X-166370000Y204787500D03*
X-176530000Y204787500D03*
D12*
X-171450000Y204787500D03*
D14*
X-185420000Y204787500D03*
X-195580000Y204787500D03*
D12*
X-190500000Y204787500D03*
D14*
X-204470000Y204787500D03*
X-214630000Y204787500D03*
D12*
X-209550000Y204787500D03*
D14*
X-175895000Y161925000D03*
X-186055000Y161925000D03*
D12*
X-180975000Y161925000D03*
X-166687500Y123825000D03*
D14*
X-171767500Y123825000D03*
X-161607500Y123825000D03*
D12*
X-128587500Y123825000D03*
D14*
X-133667500Y123825000D03*
X-123507500Y123825000D03*
X-209232500Y142875000D03*
X-219392500Y142875000D03*
D12*
X-214312500Y142875000D03*
D14*
X-4445000Y161925000D03*
X-14605000Y161925000D03*
D12*
X-9525000Y161925000D03*
D14*
X-23495000Y161925000D03*
X-33655000Y161925000D03*
D12*
X-28575000Y161925000D03*
D14*
X-13970000Y180975000D03*
X-24130000Y180975000D03*
D12*
X-19050000Y180975000D03*
D14*
X-37782500Y142875000D03*
X-47942500Y142875000D03*
D12*
X-42862500Y142875000D03*
D14*
X28892500Y100012500D03*
X18732500Y100012500D03*
D12*
X23812500Y100012500D03*
X-33337500Y123825000D03*
D14*
X-38417500Y123825000D03*
X-28257500Y123825000D03*
X47942500Y100012500D03*
X37782500Y100012500D03*
D12*
X42862500Y100012500D03*
D14*
X66992500Y100012500D03*
X56832500Y100012500D03*
D12*
X61912500Y100012500D03*
D14*
X47942500Y142875000D03*
X37782500Y142875000D03*
D12*
X42862500Y142875000D03*
D14*
X47942500Y204787500D03*
X37782500Y204787500D03*
D12*
X42862500Y204787500D03*
D14*
X-242570000Y204787500D03*
X-252730000Y204787500D03*
D12*
X-247650000Y204787500D03*
D14*
X47942500Y180975000D03*
X37782500Y180975000D03*
D12*
X42862500Y180975000D03*
D14*
X47942500Y161925000D03*
X37782500Y161925000D03*
D12*
X42862500Y161925000D03*
D14*
X-33020000Y180975000D03*
X-43180000Y180975000D03*
D12*
X-38100000Y180975000D03*
D14*
X-18732500Y142875000D03*
X-28892500Y142875000D03*
D12*
X-23812500Y142875000D03*
D14*
X-71120000Y180975000D03*
X-81280000Y180975000D03*
D12*
X-76200000Y180975000D03*
D14*
X-90170000Y180975000D03*
X-100330000Y180975000D03*
D12*
X-95250000Y180975000D03*
D14*
X-109220000Y180975000D03*
X-119380000Y180975000D03*
D12*
X-114300000Y180975000D03*
D14*
X-128270000Y180975000D03*
X-138430000Y180975000D03*
D12*
X-133350000Y180975000D03*
D14*
X-147320000Y180975000D03*
X-157480000Y180975000D03*
D12*
X-152400000Y180975000D03*
D14*
X-166370000Y180975000D03*
X-176530000Y180975000D03*
D12*
X-171450000Y180975000D03*
D14*
X-185420000Y180975000D03*
X-195580000Y180975000D03*
D12*
X-190500000Y180975000D03*
D14*
X-204470000Y180975000D03*
X-214630000Y180975000D03*
D12*
X-209550000Y180975000D03*
D14*
X-223520000Y180975000D03*
X-233680000Y180975000D03*
D12*
X-228600000Y180975000D03*
D14*
X-52070000Y180975000D03*
X-62230000Y180975000D03*
D12*
X-57150000Y180975000D03*
G36*
G01*
X60609500Y178946000D02*
X59659500Y178946000D01*
G75*
G02*
X59409500Y179196000I0J250000D01*
G01*
X59409500Y179696000D01*
G75*
G02*
X59659500Y179946000I250000J0D01*
G01*
X60609500Y179946000D01*
G75*
G02*
X60859500Y179696000I0J-250000D01*
G01*
X60859500Y179196000D01*
G75*
G02*
X60609500Y178946000I-250000J0D01*
G01*
G37*
G36*
G01*
X60609500Y177046000D02*
X59659500Y177046000D01*
G75*
G02*
X59409500Y177296000I0J250000D01*
G01*
X59409500Y177796000D01*
G75*
G02*
X59659500Y178046000I250000J0D01*
G01*
X60609500Y178046000D01*
G75*
G02*
X60859500Y177796000I0J-250000D01*
G01*
X60859500Y177296000D01*
G75*
G02*
X60609500Y177046000I-250000J0D01*
G01*
G37*
M02*
